<svg xmlns="http://www.w3.org/2000/svg" width="148.601" height="25.254" viewBox="0 0 148.601 25.254">
  <g id="グループ_786" data-name="グループ 786" transform="translate(0 0)">
    <path id="パス_110" data-name="パス 110" d="M219.822,209.668V189.149a2.221,2.221,0,0,1,2.129-2.32h6.482c3.833,0,6.955,3.4,6.955,7.579s-3.122,7.578-6.955,7.578h-4.352v7.682a2.137,2.137,0,1,1-4.259,0Zm4.259-12.322h4.352a2.825,2.825,0,0,0,2.7-2.939,2.793,2.793,0,0,0-2.7-2.939h-4.352Z" transform="translate(-219.822 -186.734)" fill="red"/>
    <path id="パス_111" data-name="パス 111" d="M272.461,209.47a13.236,13.236,0,0,1,0-17.41,10.6,10.6,0,0,1,15.945,0,12.828,12.828,0,0,1,3.312,8.679c0,6.82-5.063,12.3-11.261,12.3A10.727,10.727,0,0,1,272.461,209.47Zm.993-8.731a7.945,7.945,0,0,0,2.035,5.425,6.647,6.647,0,0,0,4.968,2.221c3.88,0,7-3.409,7-7.646a7.909,7.909,0,0,0-2.034-5.372,6.566,6.566,0,0,0-9.936,0A7.906,7.906,0,0,0,273.453,200.738Z" transform="translate(-250.539 -187.781)" fill="red"/>
    <path id="パス_112" data-name="パス 112" d="M393.344,191.2a2.221,2.221,0,0,1-2.129-2.319,2.254,2.254,0,0,1,2.129-2.319h15.188a2.254,2.254,0,0,1,2.129,2.319,2.221,2.221,0,0,1-2.129,2.319h-5.441v18.3a2.253,2.253,0,0,1-2.129,2.319,2.221,2.221,0,0,1-2.129-2.319V191.2Z" transform="translate(-328.694 -186.559)" fill="red"/>
    <path id="パス_113" data-name="パス 113" d="M449.049,209.47a13.237,13.237,0,0,1,0-17.41,10.6,10.6,0,0,1,15.945,0,12.828,12.828,0,0,1,3.312,8.679c0,6.82-5.062,12.3-11.261,12.3A10.727,10.727,0,0,1,449.049,209.47Zm.993-8.731a7.945,7.945,0,0,0,2.035,5.425,6.647,6.647,0,0,0,4.968,2.221c3.88,0,7-3.409,7-7.646a7.909,7.909,0,0,0-2.034-5.372,6.565,6.565,0,0,0-9.936,0A7.907,7.907,0,0,0,450.042,200.738Z" transform="translate(-361.878 -187.781)" fill="red"/>
    <path id="パス_114" data-name="パス 114" d="M520.49,209.546v-13.3c0-5.308,4.022-9.689,8.9-9.689,4.921.052,8.9,4.381,8.9,9.689v13.246a2.137,2.137,0,1,1-4.259,0V196.248a4.654,4.654,0,1,0-9.274,0v13.246a2.135,2.135,0,1,1-4.258.052Z" transform="translate(-408.607 -186.559)" fill="red"/>
    <path id="パス_115" data-name="パス 115" d="M583.732,221.435v-6.293a7.239,7.239,0,0,1,14.478,0v6.293a2.151,2.151,0,0,1-2.129,2.129,2.121,2.121,0,0,1-2.129-2.129v-6.293a2.988,2.988,0,0,0-2.981-2.933,2.958,2.958,0,0,0-2.981,2.933v6.293a2.129,2.129,0,1,1-4.258,0Z" transform="translate(-449.609 -198.358)" fill="red"/>
    <path id="パス_116" data-name="パス 116" d="M354.421,234.913" transform="translate(-302.861 -216.391)" fill="red"/>
    <path id="パス_117" data-name="パス 117" d="M348.858,211.813a9.659,9.659,0,0,1-3.033-.489,7.466,7.466,0,0,1-2.569-1.451,6.492,6.492,0,0,1-.726-.757,2.568,2.568,0,0,1-.207-.249,2.68,2.68,0,0,1-.507-1.589,2.264,2.264,0,0,1,1.919-2.411l.115-.015c0,.007.034.012.072.015.419.023.593.184,1.058.612.172.159.366.337.6.535a6.118,6.118,0,0,0,1.514,1,5.837,5.837,0,0,0,1.78.305h.13a5.131,5.131,0,0,0,1.671-.269,3.751,3.751,0,0,0,1.468-.9,2.555,2.555,0,0,0,.709-1.84,2.637,2.637,0,0,0-.457-1.574,2.668,2.668,0,0,0-1.092-.873,5.023,5.023,0,0,0-1.4-.375q-.729-.093-1.532-.167a13.017,13.017,0,0,1-3.048-.6,6.189,6.189,0,0,1-2.224-1.276,5.512,5.512,0,0,1-1.39-2.083,9.271,9.271,0,0,1-.537-3.23,7.908,7.908,0,0,1,.586-3.3,6.8,6.8,0,0,1,1.659-2.348,7.089,7.089,0,0,1,2.432-1.428,8.629,8.629,0,0,1,5.713,0,7.124,7.124,0,0,1,2.431,1.428,6.379,6.379,0,0,1,.529.541,2.456,2.456,0,0,1,.5.658,2.683,2.683,0,0,1,.3,1.244,2.236,2.236,0,0,1-2,2.372h0a2.31,2.31,0,0,1-1.586-1.014,3.177,3.177,0,0,0-1.357-1.051,4.355,4.355,0,0,0-3.208.02,3.548,3.548,0,0,0-1.362.981,3.375,3.375,0,0,0-.371,3.46,2.6,2.6,0,0,0,.976.986,4.519,4.519,0,0,0,1.252.484c.422.1.894.19,1.4.266,1.054.147,2.086.325,3.076.529a7.173,7.173,0,0,1,2.5,1.007,4.909,4.909,0,0,1,1.665,1.926,7.838,7.838,0,0,1,.627,3.461,6.917,6.917,0,0,1-2.458,5.505,8.052,8.052,0,0,1-2.6,1.458A9.328,9.328,0,0,1,348.858,211.813Z" transform="translate(-296.358 -186.559)" fill="red"/>
  </g>
</svg>
