<svg xmlns="http://www.w3.org/2000/svg" width="286" height="212"><g data-name="グループ 940" transform="translate(-838 -3021)"><rect data-name="長方形 546" width="286" height="212" rx="15" transform="translate(838 3021)" fill="#fff"/><path data-name="パス 609" d="M903.88 3171.293h-4.54v-.51h4.539zm0 1.377h-4.54v-.527h4.539zm0 1.394h-4.54v-.544h4.539zm-6.409-4.182v5.083h8.364v-5.083h-3.689l.221-.527h4.845v-1.36h-2.5c.238-.323.493-.714.748-1.139l-1.887-.289a12.687 12.687 0 01-.731 1.428h-2.329a7.217 7.217 0 00-.782-1.411l-1.649.306a7.543 7.543 0 01.578 1.1h-2.533v1.36h4.386c-.034.187-.085.357-.119.527zm-1.564-1a11.13 11.13 0 00-2.363-2.091l-1.309 1.105a11.911 11.911 0 012.3 2.193zm7.684 8.075c1.275-.017 2.5-.051 3.4-.085a8.663 8.663 0 01.493-1.547c-2.346.17-6.783.221-8.84.136-1.445-.051-2.465-.425-3.026-1.36v-3.3h-3.791v1.53h1.955v2.057c-.714.408-1.462.782-2.091 1.088l.68 1.6a53.294 53.294 0 002.6-1.666c.816 1.071 1.972 1.445 3.689 1.513.782.017 1.836.034 2.975.034v.714h-9.86v1.529h3.757l-.9.748a12.807 12.807 0 012.261 1.987l1.462-1.241a11.086 11.086 0 00-1.768-1.5h5.049v1.313c0 .187-.085.255-.357.255-.255.017-1.19.017-2.023-.034a6.76 6.76 0 01.629 1.751 8.652 8.652 0 002.839-.272c.68-.272.867-.748.867-1.649v-1.358h3.638v-1.53h-3.639zm8.33-9.4v2.057h3.879c.051.578.119 1.19.238 1.836l-1.038-.191c-.937 4.471-2.961 7.752-6.5 9.541a16.146 16.146 0 011.853 1.649 14.711 14.711 0 006.273-8.4 14.364 14.364 0 006.256 8.381 10.884 10.884 0 011.636-1.77c-6.257-3.689-6.718-9.894-6.718-13.107zm18 10.489h7.31v.7h-7.31zm4.488-5.8v1.122h-3.094a3.446 3.446 0 00.833-1.122zm-5.457-1.853h1.717a2.084 2.084 0 01-.1.663h-1.853zm3.57-1.853h1.887v.68h-1.887zm5.576 0v.68h-1.768v-.68zm-3.689 2.516h-1.938l.051-.663h1.887zm4.641 1.19a1.037 1.037 0 01-.153.493.39.39 0 01-.357.119 5.016 5.016 0 01-.935-.051 3.552 3.552 0 01.2.561h-1.479v-1.123zm-1.819 2.941h-7.31v-.663h7.31zm0 1.768h-7.31v-.68h7.31zm2.057 2.941v-5.866c.1 0 .187-.017.255-.017a1.514 1.514 0 00.986-.408c.289-.306.391-.918.476-2.023.017-.187.034-.527.034-.527h-4.709v-.663h3.6v-3.043h-3.6v-.731h-1.921v.731h-1.887v-.731h-1.836v.731h-3.859v1.19h3.859v.68h-3.23a25.69 25.69 0 01-1.071 3.06l1.836.119.068-.153h1.479a8.243 8.243 0 01-4.026 1.255 7.857 7.857 0 01.952 1.564c.459-.068.867-.136 1.258-.221v5.049h2.312a23.08 23.08 0 01-4.506 1.193 13.063 13.063 0 011.463 1.445 21.726 21.726 0 005.3-2.023l-1.343-.612h4.539l-1.292.8a35.867 35.867 0 014.539 1.8l2.244-.969c-1.068-.458-2.853-1.104-4.485-1.631zm12.393-4.284v-2.092h3.587v2.091zm-5.287 0c.034-.629.051-1.241.051-1.785v-.307h3.2v2.091zm3.247-5.95v1.972h-3.2v-1.972zm5.627 1.972h-3.587v-1.972h3.587zm2.006-3.893h-12.833v6.069c0 2.38-.153 5.406-2.006 7.446a7.467 7.467 0 011.6 1.309 9.735 9.735 0 002.142-5.049h3.468v4.742h2.04v-4.743h3.587v2.55c0 .306-.119.408-.442.408-.306 0-1.428.017-2.38-.034a7.643 7.643 0 01.646 1.938 7.894 7.894 0 003.264-.357c.68-.306.918-.85.918-1.938zm8.041 6.8a2.191 2.191 0 002.176 2.176 2.191 2.191 0 002.179-2.177 2.191 2.191 0 00-2.176-2.176 2.191 2.191 0 00-2.176 2.176zm15.861.9c.07-.714.104-1.428.124-2.074h6.815v2.074zm6.936-6.069v2.074H981.3v-2.074zm2.144-1.972h-11.05v5.593c0 2.584-.238 5.831-2.8 8.024a7.984 7.984 0 011.559 1.462 9.145 9.145 0 002.873-5.079h7.277v2.465c0 .357-.136.493-.544.493-.374 0-1.8.017-2.992-.051a8.678 8.678 0 01.85 2.125 10.284 10.284 0 003.757-.391c.782-.341 1.07-.922 1.07-2.146zm16.644 5.287h-3.366v-1.037h3.366zm0 2.431h-3.366v-1.037h3.366zm0 2.482h-3.366v-1.054h3.366zm-5.185-7.463v8.963h7.085v-8.959h-3.005c.136-.357.272-.748.408-1.156h2.941v-1.717h-7.944v1.717h2.856c-.068.374-.136.782-.2 1.156zm-6.307-.561h4.063v1.173h1.683v-2.737h-2.772v-1.377H996.5v1.377h-2.72v2.737h1.632zm3.06 10.353h-2.058v-1.564h2.057zm-2.024-3.129a10.005 10.005 0 001.428-1.1c.51.391 1.02.765 1.445 1.105zm2.04-4.522a7.266 7.266 0 01-.833 1.207l-1.173-.765c.119-.153.238-.289.357-.442zm1.7 5.236l.034.034 1.139-1.411c-.561-.476-1.394-1.088-2.3-1.7a10.217 10.217 0 001.666-3.06l-1.139-.527-.306.085H997.7a6.71 6.71 0 00.391-.782l-1.649-.408a8.175 8.175 0 01-3.109 3.555 7.626 7.626 0 011.275 1.173 7.785 7.785 0 00.731-.578l1.122.782a10.082 10.082 0 01-3.128 1.785 5.835 5.835 0 011.02 1.445l.357-.153v4.4h1.7v-.678h3.774a11.991 11.991 0 01.935.969 12.089 12.089 0 003.621-2.261l-1.632-1.02a9.635 9.635 0 01-2.924 1.87zm5.3 2.652a18.732 18.732 0 012.656 2.334l1.56-1.041a21.4 21.4 0 00-2.754-2.21zm9.435-2.125h7.31v.7h-7.31zm4.488-5.8v1.122h-3.089a3.446 3.446 0 00.833-1.122zm-5.457-1.853h1.717a2.084 2.084 0 01-.1.663h-1.851zm3.57-1.853h1.887v.68h-1.883zm5.576 0v.68h-1.763v-.68zm-3.685 2.52h-1.938l.051-.663h1.887zm4.641 1.19a1.037 1.037 0 01-.153.493.39.39 0 01-.357.119 5.016 5.016 0 01-.935-.051 3.552 3.552 0 01.2.561h-1.474v-1.122zm-1.818 2.941h-7.31v-.663h7.31zm0 1.768h-7.31v-.68h7.31zm2.057 2.941v-5.865c.1 0 .187-.017.255-.017a1.514 1.514 0 00.986-.408c.289-.306.391-.918.476-2.023.017-.187.034-.527.034-.527h-4.709v-.663h3.6v-3.043h-3.6v-.731h-1.922v.731h-1.887v-.731h-1.836v.731h-3.858v1.19h3.859v.68h-3.23a25.69 25.69 0 01-1.071 3.06l1.836.119.068-.153h1.479a8.243 8.243 0 01-4.03 1.255 7.857 7.857 0 01.952 1.564c.459-.068.867-.136 1.258-.221v5.049h2.312a23.08 23.08 0 01-4.505 1.193 13.062 13.062 0 011.462 1.445 21.726 21.726 0 005.3-2.023l-1.343-.612h4.543l-1.292.8a35.867 35.867 0 014.539 1.8l2.245-.968c-1.072-.459-2.857-1.105-4.489-1.632zm12.392-4.284v-2.091h3.587v2.091zm-5.287 0c.034-.629.051-1.241.051-1.785v-.306h3.2v2.091zm3.247-5.95v1.972h-3.2v-1.972zm5.627 1.972h-3.587v-1.972h3.587zm2.006-3.893h-12.835v6.069c0 2.38-.153 5.406-2.006 7.446a7.467 7.467 0 011.6 1.309 9.735 9.735 0 002.142-5.049h3.468v4.743h2.04v-4.743h3.587v2.55c0 .306-.119.408-.442.408-.306 0-1.428.017-2.38-.034a7.643 7.643 0 01.646 1.938 7.894 7.894 0 003.264-.357c.68-.306.918-.85.918-1.938zm6.732 13.498c2.55 0 4.25-2.244 4.25-6.579s-1.7-6.477-4.25-6.477c-2.567 0-4.267 2.125-4.267 6.477.001 4.335 1.7 6.579 4.267 6.579zm0-1.955c-1.088 0-1.9-1.088-1.9-4.624 0-3.519.816-4.539 1.9-4.539 1.071 0 1.887 1.02 1.887 4.539.005 3.536-.816 4.624-1.887 4.624zm14.45-5.321v-4.284h4.25v4.284zm-6.018-4.284h4.012v4.284h-4.012zm12.308-2.006H1055.4v14.79h2.04v-6.494h10.268v4.114c0 .289-.119.391-.442.408-.34 0-1.445.017-2.414-.051a8.263 8.263 0 01.731 2.023 7.854 7.854 0 003.217-.374c.71-.323.948-.888.948-1.988z" fill="#352e64"/><g data-name="グループ 837"><g data-name="楕円形 131" transform="translate(950 3063)" fill="none" stroke="red" stroke-width="3"><circle cx="31.5" cy="31.5" r="31.5" stroke="none"/><circle cx="31.5" cy="31.5" r="30"/></g><text data-name="¥" transform="translate(970 3108)" fill="red" font-size="19" font-family="Futura-Medium, Futura" font-weight="500"><tspan x="-5.863" y="0">¥</tspan></text><path data-name="パス 610" d="M978.686 3094.636q0-6.306 2.939-10.066a7.836 7.836 0 016.375-3.401 7.836 7.836 0 016.375 3.4q2.939 3.76 2.939 10.237 0 6.46-2.939 10.22a7.822 7.822 0 01-6.358 3.401 7.912 7.912 0 01-6.392-3.4q-2.939-3.76-2.939-10.391zm3.914.017a15.636 15.636 0 001.521 7.3q1.521 2.847 3.879 2.847 2.341 0 3.879-2.854a14.91 14.91 0 001.538-7.156 15.013 15.013 0 00-1.538-7.178q-1.538-2.837-3.879-2.837-2.324 0-3.862 2.837a14.567 14.567 0 00-1.538 7.041z" fill="#352e64"/></g></g></svg>