<svg xmlns="http://www.w3.org/2000/svg" width="286" height="212"><g data-name="グループ 941" transform="translate(-497 -3021)"><rect data-name="長方形 545" width="286" height="212" rx="15" transform="translate(497 3021)" fill="#fff"/><path data-name="パス 608" d="M542.437 3172.721a19.585 19.585 0 004.25-4.216 20.487 20.487 0 004.386 4.216zm5.321 5.508h4.76v-1.768h-4.76v-1.955h3.978v-1.326a21.552 21.552 0 001.836 1.139 9.85 9.85 0 011.343-1.819 17.966 17.966 0 01-7.276-5.95h-2.091a18.551 18.551 0 01-6.9 6.154 7.469 7.469 0 011.275 1.632 21.752 21.752 0 001.887-1.173v1.343h3.842v1.955h-4.709v1.768h4.709v2.023h-6.069v1.819h14.467v-1.819h-6.29zm16.842-3.111h1.581l-1.037.527a12.943 12.943 0 011.156 1.479h-1.7zm2.329 2.006l.884-.493a13.12 13.12 0 00-1.275-1.513h.935v-1.7H564.6v-1.6h3.247v-1.768H559.5v1.77h3.23v1.6h-2.8v1.7h2.805v2.006h-3.417v1.649h8.806v-1.651zm-8.279 2.635v-10.642h10.064v10.642zm-2.057-12.5v15.22h2.057v-.85h10.064v.85h2.159v-15.215zm27.523 2.363a11.112 11.112 0 01-1.547 1c-.782.459-1.972 1.054-3.213 1.785a39.47 39.47 0 01-2.108-4.658l-2.125.867c.765 1.785 1.581 3.587 2.346 5.015-1.615 1.19-2.788 2.567-2.788 4.42.005 2.915 2.538 3.849 5.887 3.849a30.93 30.93 0 005.406-.424l.034-2.414a28.129 28.129 0 01-5.491.612c-2.346 0-3.5-.646-3.5-1.853 0-1.173.935-2.142 2.329-3.06a46.277 46.277 0 014.163-2.261c.629-.306 1.156-.6 1.666-.9zm-.034-1.632a20.346 20.346 0 011.326 2.363l1.377-.578a25.1 25.1 0 00-1.36-2.329zm2.006-.765a18.024 18.024 0 011.377 2.346l1.348-.571a22.78 22.78 0 00-1.36-2.329zm6.392 3.689c1.377.1 2.839.187 4.607.187 1.6 0 3.689-.119 4.862-.2v-2.261a51.493 51.493 0 01-4.879.238 44.122 44.122 0 01-4.59-.2zm-.78 4.697a10.828 10.828 0 00-.34 2.431c0 2.312 1.938 3.6 5.8 3.6a25.7 25.7 0 005.848-.574l-.017-2.368a23.873 23.873 0 01-5.916.663c-2.431 0-3.451-.782-3.451-1.853a6.985 6.985 0 01.289-1.7zm26.625-3.451l-1.258.527a13.117 13.117 0 011.326 2.363l1.292-.578a22.28 22.28 0 00-1.36-2.312zm1.9-.782l-1.241.578a14.956 14.956 0 011.394 2.295l1.275-.612a25.428 25.428 0 00-1.424-2.261zm-13.243-2.006l.221 2.312c1.955-.425 5.491-.8 6.953-.952a6.676 6.676 0 00-2.482 5.185c0 3.655 3.332 5.559 6.868 5.78l.782-2.329c-2.856-.136-5.44-1.139-5.44-3.91a5.11 5.11 0 013.553-4.709 17.385 17.385 0 013.247-.221l-.017-2.176c-1.19.051-3.026.153-4.76.289-3.077.272-5.865.527-7.276.646-.319.034-.965.068-1.645.085zm26.86 4.675a4.673 4.673 0 011.738 3.264c0 1.394-1.292 2.465-3.638 2.465-1.666 0-2.516-.765-2.516-2.142 0-.306.034-.731.068-1.224h.68c1.037 0 2.023-.068 2.975-.153l.051-2.006a33.4 33.4 0 01-3.383.2h-.117c.085-.748.187-1.547.289-2.3a30.169 30.169 0 003.281-.153l.066-1.998a24.707 24.707 0 01-3.094.2c.085-.544.136-.986.187-1.275.068-.442.153-.884.289-1.5l-2.363-.136a10.6 10.6 0 01-.034 1.5c-.034.374-.068.833-.136 1.343a15.605 15.605 0 01-3.451-.629l-.119 1.955a21.043 21.043 0 003.349.595c-.1.765-.187 1.547-.289 2.3a14.331 14.331 0 01-3.315-.663l-.119 2.04a18.878 18.878 0 003.23.561c-.068.7-.119 1.292-.119 1.7 0 2.805 1.87 3.961 4.522 3.961 3.689 0 5.967-1.836 5.967-4.369a6.263 6.263 0 00-1.632-4.046zm13.111-4.692a10.212 10.212 0 01.647 2.108h-3.248l.884-.255a9.655 9.655 0 00-.952-1.938 91.929 91.929 0 004.352-.306zm-4.216 3.859H653.7v1.938h1.972v-3.689h-2.412c.391-.629.833-1.326 1.224-2.04l-2.159-.51a19.283 19.283 0 01-1.1 2.55h-2.963l1.258-.306a8.907 8.907 0 00-.765-2.193c2.261-.2 4.454-.476 6.29-.816l-1.36-1.632a95.165 95.165 0 01-12.685 1.156 6.4 6.4 0 01.459 1.717 69.922 69.922 0 002.533-.1l-1.513.425a10.6 10.6 0 01.8 1.751h-2.429v3.689h1.887zm7.837 3.162a8.417 8.417 0 01-2.312 1.972 9.892 9.892 0 01-2.584-1.972zm1.683-1.938l-.374.085H643.3v1.853h.8l-.561.238a11.438 11.438 0 002.683 2.669 23.739 23.739 0 01-5.78 1.241 6.961 6.961 0 011.19 1.785 22.283 22.283 0 006.613-1.819 20.508 20.508 0 006.494 1.785 9.774 9.774 0 011.241-1.887 23.175 23.175 0 01-5.627-1.156 9.988 9.988 0 003.264-3.961zm6.8-6.868a8.82 8.82 0 01-.1 1.462 44.025 44.025 0 00-.561 6.715 18.768 18.768 0 00.967 5.453l1.887-.183c-.017-.238-.034-.527-.051-.7a3.935 3.935 0 01.119-.816 42.244 42.244 0 011.139-4.111l-1.071-.663c-.272.612-.561 1.428-.782 1.938-.442-2.091.153-5.61.561-7.48a13.014 13.014 0 01.391-1.36zm13.311 2.958a22.025 22.025 0 01-2.533.306c0-.918 0-1.785.017-2.159a8.56 8.56 0 01.085-1.139h-2.465a7.469 7.469 0 01.187 1.156c.034.459.068 1.326.085 2.261-.646.017-1.292.034-1.9.034a17.681 17.681 0 01-2.55-.17v2.142c.833.034 1.87.085 2.6.085.612 0 1.258-.017 1.887-.034v.612c0 2.839-.272 4.335-1.564 5.678a6.544 6.544 0 01-1.975 1.343l1.958 1.53c3.346-2.142 3.652-4.573 3.652-8.551v-.7a40.449 40.449 0 002.5-.2zm9.605-1.1h.595v1.326h5.015a19.282 19.282 0 01-1.462 5.066 20.5 20.5 0 01-1.564-5.032l-1.938.391a24.087 24.087 0 002.295 6.732 9.217 9.217 0 01-2.941 2.7zm-4.373 6.931h2.414v1.53c-.816.1-1.632.221-2.414.323zm0-3.5h2.414v1.7H677.6zm2.414-3.434v1.615H677.6v-1.615zm8.466-.714l-.34.051h-5.079v-1.207h-8.534v1.87h1.156v9.025c-.578.068-1.1.119-1.564.17l.391 2.023c1.564-.243 3.553-.543 5.508-.884v2.72h1.955v-1.6a8.086 8.086 0 011.127 1.481 11.646 11.646 0 003.026-2.6 10.725 10.725 0 002.924 2.6 7.338 7.338 0 011.389-1.666 9.351 9.351 0 01-3.077-2.754 22.564 22.564 0 002.448-8.908zm6.12-1.411a18.216 18.216 0 01-.136 1.768 40.827 40.827 0 00-.476 5.389 21.778 21.778 0 00.2 2.805l2.091-.136a10.109 10.109 0 01-.079-1.787c.085-2.21 1.819-5.2 3.808-5.2 1.394 0 2.261 1.445 2.261 4.046 0 4.08-2.618 5.3-6.358 5.882l1.277 1.953c4.454-.82 7.378-3.094 7.378-7.854 0-3.706-1.819-6-4.165-6a5.2 5.2 0 00-4.165 2.72 27.486 27.486 0 01.68-3.485zm20.778 6.305v2.72h-3.23v-2.72zm2.006 4.658v-6.579h-7.208v7.871h1.972v-1.292zm6.545-10.523h-15.317v2.04h11.237v10.1c0 .357-.153.476-.544.476-.408 0-1.887.017-3.094-.051a9.17 9.17 0 01.833 2.142 11.48 11.48 0 003.842-.374c.8-.34 1.088-.935 1.088-2.159v-10.134h1.955zm14.943 6.494c1.564 0 2.091-.629 2.312-2.805a5.588 5.588 0 01-1.785-.748c-.068 1.479-.187 1.734-.731 1.734h-1.853c-.646 0-.748-.068-.748-.68v-1a31.193 31.193 0 004.352-1.6l-1.292-1.462a26.486 26.486 0 01-3.06 1.411v-2.431h-2.006v5.117c0 1.87.476 2.465 2.465 2.465zm-10.693 3.519v-1h2.55v1zm2.55-3.383v.884h-2.55v-.884zm1.989-1.67h-6.409v9.762h1.87v-3.213h2.55v1.139c0 .2-.068.255-.272.255a14.123 14.123 0 01-1.5 0 7.481 7.481 0 01.646 1.785 5.039 5.039 0 002.38-.34c.561-.289.731-.782.731-1.666zm-2.55-4.335c.272.442.544.918.8 1.394l-2.261.1c.425-.9.884-1.921 1.275-2.907l-2.108-.425a26.856 26.856 0 01-1.241 3.417c-.476.017-.918.034-1.326.034l.17 1.921c1.734-.1 4.046-.238 6.29-.391a6.28 6.28 0 01.306.9l1.853-.748a16.626 16.626 0 00-2.057-3.944zm6.664 12.227c-.663 0-.782-.085-.782-.68v-1.36a25.773 25.773 0 004.539-1.8l-1.343-1.481a19.255 19.255 0 01-3.2 1.6v-2.297h-1.985v5.338c0 1.87.493 2.448 2.482 2.448h2.414c1.632 0 2.142-.663 2.363-3.06a6.294 6.294 0 01-1.768-.748c-.085 1.717-.2 2.04-.782 2.04z" fill="#352e64"/><g data-name="パス 573" fill="none"><path d="M611.78 3106.918c2.579-2.642 2.992-2.626 6.152-5.566 1.979-1.918 3.836-4.243 7.526-5.433 4.374-1.411 9.044-.9 13.039-.916 4.627-.017 8.287-.389 8.976 0a4.063 4.063 0 012.584 3.666c.252 2.35-2.589 4.567-2.589 4.567h1.489s11.176-6.43 13.291-7.7 3.644-1.367 5.415.515.565 5.265-1.694 6.41c-1.8 1.489-6.346 4.544-12.052 8.673-3.348 2.423-6.478 5.33-10.66 6.763-.4.454-5.3.088-10.038-1.224-5.2-.948-8.96-1.581-8.96-1.581s-3.806 3-6.993 5.935c-2.253 2.073-4.2 4.352-5.255 3.565-.494-.671-.418.3-.527-5.806.265-10.297-.318-10.198.296-11.868z"/><path d="M664.915 3096.602h-.002c-.37 0-.92.217-1.63.645-2.108 1.268-12.868 7.46-13.325 7.723l-.463.266h-12.377v-4h9.598c.713-.703 1.427-1.705 1.357-2.354-.103-.962-.357-1.259-.44-1.356-.197-.23-.526-.431-.947-.67a9.116 9.116 0 00-.872-.03c-.679 0-1.564.031-2.59.067-1.391.048-2.968.103-4.72.11h-.178a107 107 0 01-2.47-.038c-.85-.02-1.73-.04-2.603-.04-2.048 0-4.715.102-7.181.897-2.67.861-4.202 2.409-5.825 4.047-.3.303-.61.616-.923.92l-.03.027a72.095 72.095 0 01-3.045 2.69c-.88.74-1.535 1.291-2.711 2.477-.062.285-.06.661-.031 1.845.038 1.53.101 4.087-.025 8.967a1411.176 1411.176 0 01.052 3.007c.39-.354.794-.744 1.127-1.064.4-.385.815-.784 1.25-1.183 3.205-2.95 6.95-5.908 7.107-6.032l.697-.55.874.148c.038.006 3.83.645 8.987 1.585l.088.016.087.024c3.173.878 6.566 1.337 8.278 1.337.172 0 .296-.005.382-.01l.197-.068c2.944-1.008 5.341-2.846 7.88-4.793.733-.563 1.493-1.145 2.26-1.701a626.541 626.541 0 016.33-4.509c2.578-1.818 4.614-3.254 5.622-4.086l.171-.141.198-.1c.687-.348 1.268-1.173 1.414-2.006.065-.37.07-.886-.272-1.25-.766-.814-1.15-.817-1.296-.817m-.002-2c.933 0 1.809.442 2.754 1.446 1.772 1.883.566 5.266-1.694 6.41-1.804 1.49-6.346 4.544-12.052 8.673-3.352 2.426-6.482 5.334-10.666 6.766-.404.454-5.298.088-10.038-1.223a756.664 756.664 0 00-8.96-1.581s-3.806 3.002-6.993 5.934c-2.253 2.073-4.196 4.352-5.255 3.565-.495-.671-.418.299-.527-5.805.267-10.298-.316-10.199.298-11.869 2.58-2.642 2.992-2.626 6.152-5.566 1.98-1.918 3.836-4.243 7.526-5.433 4.312-1.391 8.911-.916 12.868-.916h.17c4.627-.017 8.287-.39 8.976 0 1.277.72 2.337 1.316 2.59 3.666.252 2.35-2.59 4.567-2.59 4.567h-10.354 11.842s11.176-6.43 13.292-7.703c.986-.593 1.845-.93 2.66-.93z" fill="red"/></g><g data-name="パス 574" fill="red"><path d="M640 3087.47c-3.13-2.167-5.724-4.345-7.715-6.48-1.863-1.999-3.203-3.961-3.983-5.834-1.438-3.452-.67-5.782.229-7.129 1.227-1.841 3.46-2.985 5.827-2.985 1.966 0 3.695.788 4.869 2.22l.773.942.773-.942c1.174-1.432 2.903-2.22 4.868-2.22 2.367 0 4.6 1.144 5.828 2.985.898 1.347 1.667 3.677.229 7.13-.78 1.872-2.12 3.834-3.983 5.833-1.991 2.135-4.585 4.313-7.715 6.48z"/><path d="M640 3086.25c6.99-4.947 9.72-8.947 10.775-11.478 1.003-2.41.956-4.55-.138-6.19-1.044-1.567-2.959-2.54-4.996-2.54-1.66 0-3.114.658-4.095 1.854L640 3069.78l-1.547-1.885c-.98-1.196-2.434-1.854-4.095-1.854-2.037 0-3.95.973-4.995 2.54-1.094 1.64-1.142 3.78-.138 6.19 1.839 4.415 6.66 8.561 10.775 11.477m0 2.434c-7.256-4.92-11.061-9.396-12.622-13.142-4.18-10.039 7.761-14.84 12.622-8.914 4.86-5.926 16.802-1.125 12.621 8.914-1.56 3.746-5.366 8.222-12.621 13.142z"/></g></g></svg>