<svg xmlns="http://www.w3.org/2000/svg" width="286" height="280"><g data-name="グループ 943" transform="translate(-156 -4371)"><rect data-name="長方形 602" width="286" height="280" rx="15" transform="translate(156 4371)" fill="#fff"/><path data-name="パス 614" d="M223.231 4514.408c.068-.595.153-1.241.221-1.921h2.567c-.068.748-.119 1.394-.187 1.921zm-1.631-1.921c-.085.68-.17 1.326-.255 1.921h-2.431c.085-.612.187-1.258.289-1.921zm.357-3.638c-.051.6-.1 1.207-.17 1.819h-2.329c.085-.612.153-1.224.238-1.819zm1.7 1.819c.068-.612.119-1.224.17-1.819h2.4c-.034.646-.068 1.258-.1 1.819zm6.732 1.819v-1.819h-2.261c.051-.816.085-1.7.136-2.7 0-.255.017-.884.017-.884h-10.167c.289-.374.578-.765.833-1.156h10.71v-1.8h-9.639c.2-.391.391-.8.578-1.207l-2.176-.363a12.56 12.56 0 01-3.62 5.016 6.037 6.037 0 011.683 1.275 15.42 15.42 0 001.36-1.445 84.702 84.702 0 01-.391 3.264h-2.8v1.819h2.533a91.732 91.732 0 01-.782 4.505l2.04.136c.051-.289.119-.612.17-.952h6.9a1.422 1.422 0 01-.272.561.69.69 0 01-.646.306 18.675 18.675 0 01-1.887-.1 3.661 3.661 0 01.476 1.5 13.094 13.094 0 002.346-.017 1.922 1.922 0 001.47-.805 3.976 3.976 0 00.544-1.445h2.4v-1.768h-2.125c.051-.544.119-1.19.17-1.921zm5.338 2.6v-3.807h7.548v3.808zm7.548-9.469v3.655h-7.548v-3.655zm-9.639-2.04v14.655h2.091v-1.105h7.548v1.071h2.176v-14.62zm23.834 8.551h-2.091v-1.92h2.091zm3.655-1.921v-.544a11.846 11.846 0 002.091 1.275 7.71 7.71 0 011.394-1.751 10.432 10.432 0 01-2.635-1.547 27.906 27.906 0 002.244-1.836l-1.479-1.054a16.467 16.467 0 01-1.9 1.836 12.374 12.374 0 01-.765-.884c.7-.51 1.479-1.173 2.176-1.8l-1.53-1.088a16.053 16.053 0 01-1.521 1.58 11.809 11.809 0 01-.85-1.819l-1.819.51a15.553 15.553 0 003.094 5.2h-6.154a11.652 11.652 0 002.771-4.522l-1.36-.629-.357.068h-4.437v1.734h3.468a9.51 9.51 0 01-1.071 1.53 23.46 23.46 0 00-1.632-1.258l-1.275 1.054a18.145 18.145 0 011.683 1.445 10.518 10.518 0 01-2.819 1.75 8.791 8.791 0 011.224 1.53 13.9 13.9 0 002.261-1.34v.561h1.428v1.921h-3.638v1.853h3.366c-.425 1.139-1.445 2.193-3.791 2.907a7.705 7.705 0 011.292 1.615c3.145-1.054 4.267-2.737 4.641-4.522h2.244v1.853c0 1.887.459 2.482 2.295 2.482h1.853c1.5 0 2.023-.68 2.227-2.924a5.034 5.034 0 01-1.819-.8c-.068 1.6-.153 1.938-.6 1.938h-1.309c-.476 0-.544-.1-.544-.714v-1.835h3.628v-1.853h-3.621v-1.921zm20.077.578v-1.818h-4.607v-1.632h4.046v-1.785h-2.125c.493-.646 1.071-1.5 1.615-2.363l-2.074-.629a16.882 16.882 0 01-1.411 2.686l.867.306h-3.791l.9-.391a8.8 8.8 0 00-1.479-2.584l-1.717.714a11.2 11.2 0 011.258 2.261h-1.7v1.785h3.587v1.632h-4.165v1.819h3.944c-.374 1.224-1.36 2.5-3.944 3.451a6.358 6.358 0 011.343 1.462 7.974 7.974 0 004.131-3.468 6.959 6.959 0 004.1 3.5 7.417 7.417 0 011.275-1.7 5.94 5.94 0 01-4.131-3.247zm-11.05-5.27a13.613 13.613 0 00-2.839-2.567l-1.5 1.224a12.865 12.865 0 012.74 2.685zm-.426 3.642H265.8v1.85h1.955v3.587a22.326 22.326 0 01-2.33 1.563l.986 2.108c.935-.714 1.683-1.377 2.431-2.04 1.105 1.326 2.5 1.8 4.59 1.887 2.023.085 5.44.051 7.48-.051a10.588 10.588 0 01.629-2.04c-2.261.17-6.086.221-8.075.136-1.768-.068-3.043-.527-3.74-1.666zm24.854-1.04l-1.258.527a13.117 13.117 0 011.326 2.363l1.292-.578a22.28 22.28 0 00-1.36-2.312zm1.9-.782l-1.241.578a14.955 14.955 0 011.398 2.295l1.275-.612a25.429 25.429 0 00-1.428-2.261zm-13.243-2.006l.221 2.312c1.955-.425 5.491-.8 6.953-.952a6.676 6.676 0 00-2.482 5.185c.004 3.655 3.336 5.559 6.871 5.783l.782-2.329c-2.856-.136-5.44-1.139-5.44-3.91a5.11 5.11 0 013.558-4.712 17.385 17.385 0 013.247-.221l-.017-2.176c-1.19.051-3.026.153-4.76.289-3.077.272-5.865.527-7.276.646a25.36 25.36 0 01-1.653.085zm18.279-1.649a12.632 12.632 0 01-.153 1.649 49.9 49.9 0 00-.7 7.021 20.307 20.307 0 00.666 5.372l1.9-.136c-.013-.238-.013-.529-.013-.697a3.323 3.323 0 01.084-.782 40.161 40.161 0 011.208-4.012l-1.037-.838c-.255.561-.527 1.122-.748 1.717a7.792 7.792 0 01-.068-1.088 44.524 44.524 0 01.8-6.511 14.148 14.148 0 01.408-1.5zm8.5 10.455c0 .986-.357 1.53-1.394 1.53-.884 0-1.564-.306-1.564-.986 0-.629.646-1.02 1.6-1.02a5.248 5.248 0 011.36.187zm5.321.68a10.686 10.686 0 00-3.247-2.176c-.068-1.139-.153-2.482-.187-4.114.918-.068 1.8-.17 2.618-.289v-2.091c-.8.17-1.683.289-2.6.391 0-.748.034-1.377.051-1.751a10.753 10.753 0 01.1-1.088h-2.413a9.526 9.526 0 01.1 1.1c.017.357.017 1.037.034 1.87-.391.017-.8.017-1.19.017a27.915 27.915 0 01-2.941-.153v2.006c1 .068 1.955.1 2.941.1.391 0 .8 0 1.207-.017.017 1.19.068 2.414.119 3.451a7.563 7.563 0 00-1.1-.068c-2.3 0-3.74 1.173-3.74 2.89-.003 1.775 1.459 2.764 3.771 2.764 2.278 0 3.2-1.156 3.3-2.754a17.169 17.169 0 012.04 1.68zm10.982-10.03a25.709 25.709 0 00-2.244-1.938l-1.547 1.088a24.325 24.325 0 012.193 2.006zm-8.143.425a13.963 13.963 0 01.986 1.479c.255.442.493.918.748 1.428-.51.221-1.02.442-1.513.629a10.021 10.021 0 01-1.666.544l.986 2.159c.714-.323 1.785-.9 2.992-1.5l.442 1.037a50.721 50.721 0 012.261 6.991l2.329-.595c-.578-1.887-1.87-5.491-2.652-7.327l-.476-1.037a13.724 13.724 0 014.947-1.53c1.275 0 2.006.7 2.006 1.564 0 1.207-.9 1.887-2.193 1.887a6.218 6.218 0 01-2.312-.561l-.051 2.108a8.142 8.142 0 002.584.476c2.584 0 4.2-1.479 4.2-3.842 0-1.955-1.564-3.536-4.182-3.536a15.793 15.793 0 00-5.8 1.7c-.255-.561-.527-1.1-.782-1.6-.187-.306-.527-1-.68-1.309zm25.3-2.21a11.628 11.628 0 01-1.292 1.411c-1.139 1.122-3.451 2.992-4.76 4.063-1.683 1.394-1.819 2.329-.153 3.74 1.547 1.309 4.114 3.5 5.032 4.471.476.51 1 1.037 1.479 1.564l1.955-1.8c-1.666-1.615-4.913-4.182-6.171-5.253-.918-.782-.935-.969-.034-1.734 1.122-.969 3.349-2.686 4.437-3.57.391-.306.952-.748 1.479-1.139zm17.557 13.124v-1.377h2.467v1.377zm-4.25-1.377h2.295v1.377h-2.295zm2.295-2.873v1.258h-2.295v-1.258zm4.42 0v1.258h-2.465v-1.258zm-.306-6.717v1.462H354.3v-1.462zm-2.159 4.949v-1.666h4.216v-5.1h-13.005v4.981c0 2.669-.119 6.477-1.819 9.061a8.9 8.9 0 011.8 1.037c1.77-2.72 2.075-7.038 2.075-9.979h4.777v1.666h-4.2v8.313h1.9v-.527h6.723v.527h1.989v-8.313zm16.439-7.106a11.629 11.629 0 01-1.292 1.411c-1.139 1.122-3.451 2.992-4.76 4.063-1.683 1.394-1.819 2.329-.153 3.74 1.547 1.309 4.114 3.5 5.032 4.471.476.51 1 1.037 1.479 1.564l1.955-1.8c-1.666-1.615-4.913-4.182-6.171-5.253-.918-.782-.935-.969-.034-1.734 1.122-.969 3.349-2.686 4.437-3.57.391-.306.952-.748 1.479-1.139z" fill="#352e64"/><path data-name="パス 613" d="M187.124 4551.65a9.287 9.287 0 011.86 1.692l.708-.54a9.8 9.8 0 00-1.908-1.632zm.192-3.936h2.856v.972h-2.856zm0-1.608h2.856v.972h-2.856zm6.66 0v.972h-2.94v-.972zm0 2.58h-2.94v-.972h2.94zm2.016 1.584h-2.712v-.912h1.572v-3.9h-3.816v-.816h4.68v-.768h-4.68v-.936h-.864v.936H185.6v.768h4.572v.816h-3.7v3.9h5.94v.912H185.3v.768h7.116v1.872c0 .168-.072.216-.276.228s-.936.012-1.728-.012a3.475 3.475 0 01.3.78 7.934 7.934 0 002.064-.132c.4-.12.5-.348.5-.84v-1.9h2.712zm5.208-6.036v1.044h-2.544v-1.044zm-2.544 2.88v-1.156h2.544v1.156zm3.384-3.636h-4.26v10.392h.876v-6.012h3.384zm1.968 3.648v-1.168h2.664v1.168zm2.664-2.892v1.044h-2.664v-1.044zm.9-.756h-4.416v4.392h3.516v4.776c0 .24-.084.3-.3.312-.252.012-1.068.024-1.884-.024a4.045 4.045 0 01.324.924 8.075 8.075 0 002.208-.168c.4-.144.552-.432.552-1.044zm9.708 2.628v-1.5a9.1 9.1 0 01.06-.984h-1.08a6.69 6.69 0 01.06.984v1.5h-3.42v-1.536a7.406 7.406 0 01.06-.876h-1.068c.012.12.048.492.048.876v1.536h-1.284a8.854 8.854 0 01-1.212-.084v1.044c.144-.012.684-.048 1.212-.048h1.284v1.94c0 .456-.036.972-.048 1.092h1.056a14.45 14.45 0 01-.048-1.092v-1.94h3.42v.5c0 3.36-1.092 4.392-3.276 5.232l.8.756c2.756-1.22 3.436-2.864 3.436-6.068v-.42h1.32c.528 0 .972.024 1.092.036v-1.008a8.416 8.416 0 01-1.092.06zm4.584 2.832a19.72 19.72 0 011.668-.06h6.588c.54 0 1.044.048 1.284.06v-1.18c-.264.024-.7.06-1.3.06h-6.572c-.672 0-1.308-.036-1.668-.06zm20.5-3.744a16.805 16.805 0 00-.988-1.636l-.636.264a13.713 13.713 0 01.972 1.668zm-6.436 3.432a46 46 0 004.908-1.56c.36-.132.792-.324 1.128-.468l-.42-.96a7.941 7.941 0 01-1.056.54 32.686 32.686 0 01-4.56 1.464v-2.712a7.969 7.969 0 01.06-.972h-1.116a5.226 5.226 0 01.072.972v6.6c0 .972.516 1.392 1.44 1.56a12.61 12.61 0 001.92.12 33.551 33.551 0 004.152-.252v-1.092a19.64 19.64 0 01-4.1.384 11.4 11.4 0 01-1.584-.1c-.588-.12-.84-.276-.84-.888zm6.132-5.28a12.615 12.615 0 011 1.656l.648-.3a17.17 17.17 0 00-1.008-1.632zm11.568 1.112a3.2 3.2 0 01-.9.108H248.1c-.36 0-1.044-.06-1.212-.084v1.096c.132-.012.792-.06 1.212-.06h4.68a10.693 10.693 0 01-1.996 3.34 13.722 13.722 0 01-4.944 3.56l.768.8a15.213 15.213 0 004.68-3.5 27.707 27.707 0 013.3 3.564l.84-.732a34.414 34.414 0 00-3.5-3.576 15.187 15.187 0 002.012-3.516 3.442 3.442 0 01.3-.528zm13.056 1.252a13.381 13.381 0 00-.984-1.652l-.636.276a13.713 13.713 0 01.972 1.668zm-3.96 2.52a19.089 19.089 0 012.2-.12 17.2 17.2 0 012 .132l.024-.912a18.975 18.975 0 00-2.052-.1c-.768 0-1.548.048-2.172.1zm.768-3.12a17.221 17.221 0 01-2.268.432l.18-.876c.048-.228.132-.684.216-.936l-1.164-.1a5.57 5.57 0 01-.036.972c-.036.24-.1.612-.18 1.044-.456.024-.876.048-1.272.048a10.6 10.6 0 01-1.428-.084l.036.936c.42.036.852.048 1.38.048q.5 0 1.08-.036c-.1.432-.192.864-.3 1.26a26.406 26.406 0 01-1.992 5.316l1.056.348a35.068 35.068 0 001.86-5.436c.132-.516.264-1.056.372-1.584a22.866 22.866 0 002.46-.4zm-1.368 5.028a6.721 6.721 0 00-.18 1.4c0 1.176.984 1.764 2.856 1.764a17.455 17.455 0 002.292-.168l.036-.972a12.223 12.223 0 01-2.316.228c-1.692 0-1.956-.54-1.956-1.092a4.243 4.243 0 01.168-1.08zm4.276-6.3a12.759 12.759 0 011 1.668l.648-.288a15.435 15.435 0 00-1.028-1.66zm6.4-.324a13.964 13.964 0 01-.3 2.58c-.72.06-1.416.12-1.812.132a10.332 10.332 0 01-1.056 0l.1 1.044c.312-.048.792-.108 1.068-.144.312-.036.888-.1 1.5-.156a18.619 18.619 0 01-2.5 5.892l.984.4a23.843 23.843 0 002.5-6.384c.516-.048.984-.084 1.272-.084.756 0 1.248.192 1.248 1.272a10.214 10.214 0 01-.552 3.636 1 1 0 01-1.044.612 5.849 5.849 0 01-1.452-.264l.144 1.008a7.106 7.106 0 001.392.18 1.672 1.672 0 001.74-1 11.421 11.421 0 00.696-4.28c0-1.608-.876-2.016-1.932-2.016-.288 0-.78.036-1.332.072.132-.636.24-1.332.3-1.68.048-.228.1-.48.144-.7zm4.32 1.764a14.287 14.287 0 012.124 4.308l.936-.444a20.872 20.872 0 00-2.18-4.248zm7.32-.78c.912.252 3.492.78 4.62.936l.228-.936a31.773 31.773 0 01-4.6-.912zm-.012 1.248l-1.02-.132a42.036 42.036 0 01-.6 4.824l.9.216a2.482 2.482 0 01.36-.6 4.616 4.616 0 013.672-1.572c1.212 0 2.088.66 2.088 1.608 0 1.62-1.836 2.7-5.58 2.244l.288.984c4.416.372 6.3-1.068 6.3-3.2 0-1.392-1.212-2.484-3.036-2.484a5.625 5.625 0 00-3.84 1.428c.1-.772.304-2.504.46-3.316zm16.644.984l-.612.264a11.14 11.14 0 01.984 1.692l.612-.288a14.243 14.243 0 00-.992-1.668zm1.308-.5l-.6.276a10.689 10.689 0 011.02 1.668l.624-.288a18.128 18.128 0 00-1.052-1.66zm-9.1-1.164l.108 1.056c1.284-.264 4.524-.576 5.568-.7a4.8 4.8 0 00-2.208 4.008c0 2.652 2.508 3.828 4.7 3.924l.348-1.008c-1.932-.072-4.092-.8-4.092-3.12a4.155 4.155 0 012.712-3.756 9.846 9.846 0 012.328-.192v-.96c-.792.036-1.908.1-3.2.2-2.184.192-4.428.408-5.208.48-.236.028-.604.052-1.06.06zm13.536 4.68a5.366 5.366 0 00-.276 1.488c0 1.488 1.248 2.22 3.372 2.22a18.406 18.406 0 002.868-.228l.024-.972a14.272 14.272 0 01-2.928.276c-1.692 0-2.412-.576-2.412-1.488a4.065 4.065 0 01.276-1.212zm7.572-3.252a12.393 12.393 0 01-2.2.588c-.2-.444-.372-.816-.468-1.068l-.22-.496a16.415 16.415 0 002.208-.5l-.168-.852a13.377 13.377 0 01-2.364.564 12.207 12.207 0 01-.444-1.32l-1.08.228a8.569 8.569 0 01.444.84c.048.108.1.228.156.36a21.609 21.609 0 01-3.888-.1l.06.876a24.368 24.368 0 004.176.024c.084.192.168.408.264.612l.42.972a23.723 23.723 0 01-4.992.024l.036.876a28.568 28.568 0 005.316-.108c.276.624.552 1.248.78 1.716-.372-.036-.936-.1-1.512-.168l-.084.732c.756.1 1.716.228 2.316.336l.468-.588a41.682 41.682 0 01-1.068-2.184 15.828 15.828 0 002.016-.5zm7.644 6.072c-.888 0-1.572-.336-1.572-.924 0-.408.408-.732.948-.732a1.587 1.587 0 011.572 1.584 5.853 5.853 0 01-.952.064zm2.448-8.628a4.255 4.255 0 01-.648.1c-.624.06-3.444.144-4.056.144a6.747 6.747 0 01-.84-.036l.024 1a5.721 5.721 0 01.8-.072c.612-.036 2.952-.144 3.576-.168-.588.528-2.064 1.776-2.724 2.328-.7.576-2.22 1.848-3.2 2.664l.7.708c1.512-1.536 2.592-2.364 4.548-2.364 1.5 0 2.676.852 2.676 2.016a2.072 2.072 0 01-1.476 2.016 2.346 2.346 0 00-2.448-2.1 1.688 1.688 0 00-1.836 1.56c0 .984 1 1.7 2.616 1.7 2.508 0 4.1-1.248 4.1-3.168 0-1.608-1.428-2.808-3.408-2.808a5.05 5.05 0 00-1.608.252c.912-.768 2.508-2.172 3.1-2.616.18-.132.444-.312.66-.456zm9.168 6.12h.792l.3-4.656.024-1.416h-1.44l.036 1.416zm.4 2.964a.942.942 0 10-.96-.948.916.916 0 00.952.944zm17.352-4.224h-4.92v-4.192h4.248v-.876h-9.384v.876h4.224v4.188h-4.848v.876h4.848v4.2h.912v-4.2h4.92zm-9.216-3.36a14.044 14.044 0 011.08 2.748l.84-.288a11.5 11.5 0 00-1.14-2.7zm6.36 2.784a23.562 23.562 0 001.476-2.82l-.936-.264a17.906 17.906 0 01-1.3 2.832zm12.624 1.356c-1.632.6-3.324 1.224-4.4 1.572l.36.84c1.176-.456 2.736-1.08 4.188-1.656zm-3.852-2.268v.8H361v-.8zm1.08-2.4a17.514 17.514 0 00.636-1.788l-.9-.2a11.855 11.855 0 01-1.644 3.636v-.86h-1.4v-2.712h-.864v2.712h-1.5v.852h1.5v3.8c-.648.252-1.248.48-1.728.648l.324.9c1.116-.468 2.58-1.08 3.948-1.668l-.192-.828c-.492.2-1 .408-1.488.6v-3.452h1.4a8.371 8.371 0 01-.564.7 4.7 4.7 0 01.768.564 10.139 10.139 0 001.332-2.076h4.392c-.156 4.848-.348 6.684-.732 7.1a.608.608 0 01-.516.192 17.324 17.324 0 01-1.812-.084 2.169 2.169 0 01.276.9 14.034 14.034 0 001.872.012 1.152 1.152 0 00.972-.492c.492-.588.648-2.5.84-7.992 0-.132.012-.468.012-.468zm8.82 8.208a2.561 2.561 0 002.82-2.508 2.262 2.262 0 00-1.872-2.232v-.052a2.193 2.193 0 001.572-2.124c0-1.416-1.08-2.208-2.556-2.208a3.522 3.522 0 00-2.46 1.056l.588.7a2.745 2.745 0 011.824-.876 1.374 1.374 0 011.488 1.416c0 .948-.624 1.68-2.436 1.68v.84c2.028 0 2.736.708 2.736 1.764a1.62 1.62 0 01-1.788 1.632 2.908 2.908 0 01-2.184-1.008l-.552.72a3.641 3.641 0 002.812 1.196zm6.828 0c1.668 0 2.736-1.524 2.736-4.584s-1.068-4.536-2.736-4.536-2.748 1.476-2.748 4.536 1.06 4.58 2.74 4.58zm0-.876c-1.008 0-1.68-1.116-1.68-3.708 0-2.568.672-3.648 1.68-3.648s1.656 1.072 1.656 3.644c0 2.592-.668 3.708-1.664 3.708zm6.384-.156v-3.352h5.952v3.348zm5.952-7.464v3.236h-5.96v-3.24zm-6.852-.876v10h.9v-.788h5.952v.732h.936v-9.948zm11.88 0a5.24 5.24 0 01-.084.84 37.03 37.03 0 00-.54 4.992 14.36 14.36 0 00.456 3.768l.852-.072c-.012-.12-.036-.288-.036-.408a2.039 2.039 0 01.06-.528 25.654 25.654 0 01.84-2.628l-.5-.4c-.2.48-.48 1.188-.672 1.728a10.5 10.5 0 01-.108-1.62 29.183 29.183 0 01.588-4.788 5.629 5.629 0 01.2-.8zm6.06 7.368c0 .792-.288 1.284-1.3 1.284-.852 0-1.428-.336-1.428-.924 0-.552.612-.948 1.5-.948a3.716 3.716 0 011.212.192c.008.14.008.284.008.392zm3.24.588a8.1 8.1 0 00-2.34-1.548c-.048-1-.132-2.184-.144-3.372.708-.048 1.4-.12 2.052-.228v-.94a15.137 15.137 0 01-2.052.276c.012-.552.024-1.1.036-1.428a6.732 6.732 0 01.072-.708h-1.092a4.855 4.855 0 01.06.72v1.476c-.372.012-.744.024-1.116.024a18.578 18.578 0 01-2.016-.108v.912c.7.036 1.32.072 1.992.072.384 0 .756-.012 1.14-.024.012.984.084 2.124.12 3.036a5.3 5.3 0 00-1.1-.108c-1.56 0-2.448.816-2.448 1.812 0 1.056.876 1.716 2.472 1.716a1.8 1.8 0 002.056-1.944v-.216a9.018 9.018 0 011.788 1.356zm7.792-7.044a14.661 14.661 0 00-1.548-1.344l-.7.5a13.986 13.986 0 011.548 1.38zm-5.244.072a7.464 7.464 0 01.576.84 12.829 12.829 0 01.672 1.308c-.516.228-1 .444-1.392.6-.216.084-.636.228-.984.324l.468.984c.54-.24 1.368-.672 2.28-1.116.144.312.3.648.444.984a35.068 35.068 0 011.62 4.872l1.032-.276c-.408-1.308-1.152-3.528-1.8-4.992-.144-.324-.3-.66-.456-.984a10.748 10.748 0 013.864-1.2c1.176 0 1.728.636 1.728 1.356 0 .84-.528 1.548-1.836 1.548a3.939 3.939 0 01-1.68-.4l-.036.96a5.315 5.315 0 001.776.336c1.86 0 2.736-1.044 2.736-2.412 0-1.3-1.008-2.244-2.652-2.244a12 12 0 00-4.272 1.272 72.47 72.47 0 00-.684-1.368c-.12-.2-.324-.588-.42-.78zm-209.88 19.616a5.517 5.517 0 01-.684.792c-.8.816-2.6 2.232-3.492 2.988-1.08.9-1.2 1.44-.084 2.376 1.116.912 3.1 2.6 3.744 3.3.252.276.576.576.816.864l.864-.78c-1.164-1.152-3.36-2.976-4.44-3.84-.768-.636-.768-.816-.048-1.44.876-.72 2.58-2.088 3.408-2.8.192-.168.552-.48.816-.672zm14.124 1.632a2.3 2.3 0 01-.78.108h-3.264a5.393 5.393 0 00.288-.5c.12-.228.336-.624.54-.936l-1.116-.372a3.633 3.633 0 01-.372.948 9.808 9.808 0 01-3.768 4.056l.828.624a11.9 11.9 0 003.036-2.952h4.056a9.282 9.282 0 01-6.7 6.756l.864.78a10.521 10.521 0 004.776-3.264 11.693 11.693 0 002.124-4.128 5.12 5.12 0 01.288-.64zm4.992-1.032c.024.228.048.648.048.864v4c0 .36-.036.744-.048.924h1.1a10.131 10.131 0 01-.036-.912v-4.012c0-.288.012-.636.036-.864zm5.556-.084c.024.288.06.636.06 1.032v1.9c0 2.268-.144 3.24-1.008 4.236a5.536 5.536 0 01-2.88 1.6l.78.828a6.41 6.41 0 002.856-1.752c.864-1.032 1.248-1.98 1.248-4.86v-1.952c0-.4.024-.744.048-1.032zm10.26 7.6v-5.524h2.88a9.232 9.232 0 011.02.048v-1.056a8.491 8.491 0 01-1.02.072h-6.6a7.946 7.946 0 01-1.008-.072v1.056c.3-.036.78-.048 1.008-.048h2.7v5.52H223.9a8.22 8.22 0 01-1.056-.072v1.092c.372-.036.732-.048 1.056-.048h7.932a7.526 7.526 0 011 .048v-1.092a8.441 8.441 0 01-1 .072zm15.072-7.876a13.24 13.24 0 01-3.156 2.652 18.94 18.94 0 01-5.364 2.208l.552.936a24 24 0 004.512-1.872v4.536a11.132 11.132 0 01-.072 1.284h1.176a9.055 9.055 0 01-.072-1.284v-5.136a18.823 18.823 0 003.216-2.6zm11.664 1.2a2.116 2.116 0 01-.792.12h-3.276c.1-.156.18-.3.252-.444.12-.228.336-.636.528-.948l-1.08-.348a5.156 5.156 0 01-.384.96 10.7 10.7 0 01-3.852 4.164l.8.624a13.02 13.02 0 003.18-3.156h4.08a10.034 10.034 0 01-1.544 3.2 51.965 51.965 0 00-2.64-1.5l-.612.708c.672.372 1.68.972 2.628 1.584a10.516 10.516 0 01-4.74 2.988l.864.744a11.37 11.37 0 004.7-3.192c.456.312.852.6 1.14.828l.66-.864c-.3-.216-.708-.492-1.164-.78a12.208 12.208 0 001.752-3.564 5.257 5.257 0 01.276-.648zm3.54 4.152a19.72 19.72 0 011.668-.06h6.588c.54 0 1.044.048 1.284.06v-1.18c-.264.024-.7.06-1.3.06h-6.572c-.672 0-1.308-.036-1.668-.06zm14.028 2.34c-.516 0-1.212-.66-1.212-2.16a4.143 4.143 0 013.672-3.84 19.173 19.173 0 01-.66 3.2c-.612 2.008-1.272 2.8-1.8 2.8zm3.132 1.992c2.832-.372 4.476-2.04 4.476-4.536a4.314 4.314 0 00-4.56-4.368 5.075 5.075 0 00-5.208 4.836c0 1.956 1.068 3.18 2.124 3.18 1.1 0 2.052-1.26 2.784-3.7a25.114 25.114 0 00.708-3.42 3.294 3.294 0 013.156 3.444 3.563 3.563 0 01-3.012 3.516 7.449 7.449 0 01-1.02.144zm15.876-9.412h-8.448v.852h8.448zm-1.8 8.952c-.468 0-.564-.084-.564-.492v-4.26h3.372v-.86h-10.5v.86h3.036c-.18 2.244-.624 4.116-3.18 5.088a2.4 2.4 0 01.564.7c2.76-1.116 3.336-3.216 3.564-5.784h2.244v4.272c0 1.02.288 1.332 1.356 1.332h1.716c1.044 0 1.284-.564 1.38-2.6a2.768 2.768 0 01-.828-.4c-.06 1.836-.132 2.148-.612 2.148zm5.688-8.94a7.108 7.108 0 01-.084.84 33.006 33.006 0 00-.528 4.764 14.883 14.883 0 00.432 3.816l.864-.06-.036-.42a2.965 2.965 0 01.06-.528 25.8 25.8 0 01.84-2.664l-.516-.384c-.192.468-.456 1.164-.66 1.7a12.408 12.408 0 01-.1-1.632 27.344 27.344 0 01.576-4.548c.048-.216.156-.6.228-.8zm2.928 5.76a6.887 6.887 0 00-.192 1.4c0 1.116.888 1.776 2.88 1.776a15.792 15.792 0 002.964-.24l-.012-1.008a12.918 12.918 0 01-2.94.312c-1.632 0-1.992-.528-1.992-1.068a4.413 4.413 0 01.156-1.092zm.408-3.78a30.019 30.019 0 004.872 0v-.984a20.772 20.772 0 01-4.884 0zm16.188-1.524v1.536h-7.044v-1.532zm.876 2.352v-3.164H307.1v3.48c0 1.908-.108 4.548-1.308 6.408a4.443 4.443 0 01.78.456c1.248-1.932 1.416-4.848 1.416-6.864v-.312zm-3.144 5.952v-1.52h2.412v1.524zm-3.18-1.524h2.316v1.524h-2.316zm2.316-2.16v1.432h-2.316v-1.428zm3.276 0v1.432h-2.412v-1.428zm-2.412-.8v-1.368h-.864v1.368h-3.168v5.712h.852v-.42h5.592v.42h.876v-5.712zm7.128 1.6a5.366 5.366 0 00-.276 1.488c0 1.488 1.248 2.22 3.372 2.22a18.406 18.406 0 002.868-.228l.024-.972a14.272 14.272 0 01-2.928.276c-1.692 0-2.412-.576-2.412-1.488a4.065 4.065 0 01.276-1.212zm7.572-3.252a12.393 12.393 0 01-2.2.588c-.2-.444-.372-.816-.468-1.068l-.216-.492a16.415 16.415 0 002.208-.5l-.168-.852a13.376 13.376 0 01-2.364.564 12.208 12.208 0 01-.444-1.32l-1.08.228a8.569 8.569 0 01.444.84c.048.108.1.228.156.36a21.608 21.608 0 01-3.888-.1l.06.876a24.368 24.368 0 004.176.024c.084.192.168.408.264.612l.42.972a23.723 23.723 0 01-4.992.024l.036.876a28.568 28.568 0 005.316-.108c.276.624.552 1.248.78 1.716-.372-.036-.936-.1-1.512-.168l-.084.732c.756.1 1.716.228 2.316.336l.468-.588a41.682 41.682 0 01-1.068-2.184 15.828 15.828 0 002.016-.5zm7.908 5.076c0 .816-.576 1.02-1.26 1.02-1.176 0-1.644-.408-1.644-.96s.612-.972 1.74-.972a6.049 6.049 0 011.152.108c0 .32.012.592.012.8zm4.332.408a9.755 9.755 0 00-3.456-1.848c-.024-.564-.06-1.188-.084-1.8a37.833 37.833 0 003.3-.276l-.012-.9a32.058 32.058 0 01-3.3.312v-1.708a62.486 62.486 0 003.072-.252l-.012-.876a26.424 26.424 0 01-3.048.288c0-.288 0-.516.012-.66a6.115 6.115 0 01.06-.792h-1.02a6.651 6.651 0 01.036.708v.784h-.612a18.945 18.945 0 01-2.784-.228v.888c.708.084 1.968.18 2.8.18h.588v1.7h-.644a21.142 21.142 0 01-2.988-.228v.912c.852.1 2.172.168 2.988.168h.66c.012.492.036 1.056.06 1.584a6.709 6.709 0 00-1-.072c-1.716 0-2.76.732-2.76 1.812 0 1.152.948 1.764 2.652 1.764 1.548 0 2.1-.852 2.1-1.668 0-.18-.012-.444-.024-.744a8.826 8.826 0 012.868 1.788zm7.416-1.824a1.143 1.143 0 01-1.212-1.176 1.207 1.207 0 011.2-1.248 1.055 1.055 0 011.056.732c.108 1.124-.348 1.688-1.044 1.688zm1.836-4.3c1.74 0 2.82.024 3.492.06l.012-.9c-.576 0-2.04-.012-3.48-.012h-.18c0-.312.012-.588.012-.768l.06-.744h-1.092c.024.144.06.492.072.744.012.168.024.444.024.78-1.764.024-4 .1-5.316.12l.024.936c1.488-.108 3.5-.192 5.3-.2.012.408.012.828.012 1.176a2.383 2.383 0 00-.792-.132 2.089 2.089 0 00-2.1 2.076 1.914 1.914 0 001.968 1.992 1.707 1.707 0 001.02-.3 4.243 4.243 0 01-3.156 2.064l.828.8c2.76-.828 3.54-2.616 3.54-4.224a2.9 2.9 0 00-.384-1.524 92.21 92.21 0 01-.024-1.944zm5.532 4.176a1.83 1.83 0 101.836 1.824 1.831 1.831 0 00-1.836-1.824zm0 3.048a1.218 1.218 0 111.212-1.22 1.2 1.2 0 01-1.212 1.22zm16.572-8.1a.9.9 0 10-.9.9.907.907 0 00.9-.9zm-4.86-.888l-.348.348 3.96 3.96-3.972 3.972.348.348 3.972-3.972 3.96 3.96.348-.348-3.96-3.96 3.96-3.96-.348-.348-3.96 3.96zm.54 3.408a.9.9 0 10.9.9.907.907 0 00-.9-.9zm6.84 1.8a.9.9 0 10-.9-.9.907.907 0 00.9.9zm-4.32 2.52a.9.9 0 10.9-.9.907.907 0 00-.9.9zm13.872-2.04h-2.088v-1.788h2.088zm2.3-1.788v-.456a7.634 7.634 0 001.716 1.044 4.128 4.128 0 01.612-.744 7.8 7.8 0 01-2.244-1.392 17.8 17.8 0 001.884-1.56l-.672-.468a15.635 15.635 0 01-1.7 1.548 8.149 8.149 0 01-.78-.924 18.572 18.572 0 001.752-1.512l-.672-.48a14.029 14.029 0 01-1.476 1.416 8.782 8.782 0 01-.752-1.504l-.768.228a10.341 10.341 0 002.668 3.972h-5.64a8.373 8.373 0 002.5-3.48l-.588-.288-.156.036H377.7v.792h2.976a8.4 8.4 0 01-1.116 1.584 16.687 16.687 0 00-1.452-1.176l-.552.468a12.72 12.72 0 011.44 1.26 8.3 8.3 0 01-2.436 1.56 4.827 4.827 0 01.552.672 9.832 9.832 0 001.788-1.056v.456h1.26v1.792h-2.76v.828h2.664c-.216 1-.9 1.944-2.9 2.616a3.483 3.483 0 01.564.708c2.352-.816 3.06-2.04 3.252-3.324h2.16v1.92c0 .984.264 1.248 1.272 1.248h1.572c.876 0 1.128-.42 1.212-1.944a2.459 2.459 0 01-.8-.372c-.048 1.284-.108 1.524-.48 1.524h-1.368c-.408 0-.48-.072-.48-.444v-1.932h2.832v-.828h-2.844v-1.788zm12.156-5.076a11.887 11.887 0 01-1.116 2.016l.732.264c.4-.5.876-1.3 1.3-1.98zm1.92 5.544v-.8h-3.444a2.926 2.926 0 00.012-.324v-1.348h3.072v-.792h-5.168l.72-.324a6.664 6.664 0 00-1.092-1.912l-.756.3a6.628 6.628 0 011.032 1.932h-1.5v.792h2.808v1.336a3.26 3.26 0 01-.012.336H392v.8h3.084c-.216 1.032-.912 2.172-2.988 3.012a4.225 4.225 0 01.588.66 5.252 5.252 0 003.132-3.036 4.952 4.952 0 003.156 3.084 3.046 3.046 0 01.564-.744 4.385 4.385 0 01-3.136-2.972zm-7.848-3.4a8.884 8.884 0 00-2.088-1.848l-.66.54a8.28 8.28 0 012.04 1.9zm-.336 2.556h-2.544v.84h1.668v3.036a20.038 20.038 0 01-1.824 1.368l.48.9a63.437 63.437 0 001.812-1.536 4.276 4.276 0 003.4 1.416c1.32.048 3.78.024 5.088-.024a4.06 4.06 0 01.288-.912c-1.4.1-4.068.132-5.376.084a3.493 3.493 0 01-2.988-1.344zm11.892 4.464v-3.344h5.952v3.348zm5.952-7.464v3.244h-5.948v-3.24zm-6.852-.876v10h.9v-.78h5.952v.732h.936v-9.948zm-159.164 20.26a13.343 13.343 0 01-3.052 4.848 7.045 7.045 0 01.552.876 12.516 12.516 0 001.212-1.452v6.576h.888v-7.956a18.807 18.807 0 001.272-2.616zm7.848 2.58h-1.512v-2.52h-.9v2.52h-4.836v.888h4.836v6.192c0 .276-.108.348-.372.372-.288.012-1.272.012-2.28-.024a4.031 4.031 0 01.348.876 10.332 10.332 0 002.568-.144c.444-.132.636-.408.636-1.08v-6.192H251zm-3.924 5.052c-.384-.732-1.176-1.98-1.8-2.9l-.768.36c.612.96 1.38 2.244 1.74 2.988zm7.776.648c-.516 0-1.212-.66-1.212-2.16a4.143 4.143 0 013.672-3.84 19.173 19.173 0 01-.66 3.2c-.612 2.008-1.272 2.8-1.8 2.8zm3.132 1.992c2.832-.372 4.476-2.04 4.476-4.536a4.314 4.314 0 00-4.56-4.368 5.075 5.075 0 00-5.208 4.836c0 1.956 1.068 3.18 2.124 3.18 1.1 0 2.052-1.26 2.784-3.7a25.114 25.114 0 00.708-3.42 3.294 3.294 0 013.156 3.444 3.563 3.563 0 01-3.012 3.516 7.449 7.449 0 01-1.02.144zm10.2-5.22c-.492.156-1 .3-1.476.432v-2.316h1.4v-.828h-1.4v-2.412h-.876v2.412h-1.668v.828h1.668v2.58c-.684.192-1.308.36-1.812.492l.252.864c.468-.144 1-.3 1.56-.468v3.192c0 .18-.06.228-.228.228-.144.012-.648.012-1.188 0a3.122 3.122 0 01.276.816 3.952 3.952 0 001.584-.156c.312-.144.432-.384.432-.888v-3.456l1.584-.492zm5.448 1.356v1.188h-3.888v-1.188zm-3.888 3.18v-1.26h3.888v1.26zm-.852 1.284h.852v-.552h3.888v.5h.876v-5.18h-5.616zm1.788-7.044c-.768 0-.912-.072-.912-.48v-.864a27.772 27.772 0 004.524-1.188l-.684-.66a22.439 22.439 0 01-3.84 1.116v-1.792h-.876v3.384c0 1.032.372 1.3 1.74 1.3h2.8c1.188 0 1.464-.408 1.6-1.968a2.58 2.58 0 01-.816-.348c-.072 1.3-.18 1.5-.84 1.5zm6.82-1.692h8.172v1.752h.912v-2.592h-4.536v-1.368h-.924v1.368h-4.5v2.592h.876zm4.548 5.1h3.552v-.828h-3.552v-1.992h3.06v-.84h-6.952v.84h2.976v5.028a3.6 3.6 0 01-2.208-2.316 15.145 15.145 0 00.288-1.6l-.912-.084c-.264 2.148-.912 3.852-2.244 4.884a4.659 4.659 0 01.732.6 6.574 6.574 0 001.788-2.668c1.092 2.028 2.88 2.46 5.364 2.46h2.784a2.63 2.63 0 01.336-.9c-.576.012-2.64.012-3.072.012a10.955 10.955 0 01-1.944-.144zm7.6-6.492a5.241 5.241 0 01-.084.84 37.029 37.029 0 00-.54 4.992 14.359 14.359 0 00.456 3.768l.852-.072c-.012-.12-.036-.288-.036-.408a2.039 2.039 0 01.06-.528 25.657 25.657 0 01.84-2.628l-.5-.4c-.2.48-.48 1.188-.672 1.728a10.5 10.5 0 01-.108-1.62 29.184 29.184 0 01.588-4.788 5.629 5.629 0 01.2-.8zm6.06 7.368c0 .792-.288 1.284-1.3 1.284-.852 0-1.428-.336-1.428-.924 0-.552.612-.948 1.5-.948a3.716 3.716 0 011.212.192c.008.144.008.288.008.396zm3.24.588a8.1 8.1 0 00-2.34-1.548c-.048-1-.132-2.184-.144-3.372.708-.048 1.4-.12 2.052-.228v-.936a15.136 15.136 0 01-2.052.276c.012-.552.024-1.1.036-1.428a6.734 6.734 0 01.072-.708h-1.092a4.857 4.857 0 01.06.72v1.476c-.372.012-.744.024-1.116.024a18.579 18.579 0 01-2.016-.108v.912c.7.036 1.32.072 1.992.072.384 0 .756-.012 1.14-.024.012.984.084 2.124.12 3.036a5.3 5.3 0 00-1.1-.108c-1.56 0-2.448.816-2.448 1.812 0 1.056.876 1.716 2.472 1.716a1.8 1.8 0 002.064-1.944v-.216a9.018 9.018 0 011.788 1.356zm11.776-7.04v-.888h-10.248v.888h5.3a13.922 13.922 0 01-5.6 5.232 6.137 6.137 0 01.6.78 15.388 15.388 0 004.344-3.492v6.672h.948v-7.876c.3-.444.588-.876.852-1.32zm-4.416 2.58a26.777 26.777 0 014.044 3.264l.708-.684a27.388 27.388 0 00-4.092-3.156zm11.22.036v2.736H314.4v-2.74zm.872 3.584v-4.452h-4.872v5.412h.864v-.96zm4.524-7.092h-10.62v.892h8.232v7.932c0 .252-.084.336-.348.348s-1.26.024-2.22-.024a4.49 4.49 0 01.384.948 9.265 9.265 0 002.484-.168c.456-.132.612-.444.612-1.092v-7.944h1.476zm9.456 2.964l-.612.264a11.14 11.14 0 01.984 1.692l.612-.288a14.243 14.243 0 00-.98-1.668zm1.308-.5l-.6.276a10.688 10.688 0 011.02 1.668l.624-.288a18.126 18.126 0 00-1.04-1.66zm-9.088-1.172l.108 1.056c1.284-.264 4.524-.576 5.568-.7a4.8 4.8 0 00-2.208 4.008c0 2.652 2.508 3.828 4.7 3.924l.348-1.008c-1.932-.072-4.092-.8-4.092-3.12a4.155 4.155 0 012.712-3.756 9.847 9.847 0 012.328-.192v-.96c-.792.036-1.908.1-3.2.2-2.184.192-4.428.408-5.208.48-.232.036-.604.06-1.056.068zm16.764 5.088a1.143 1.143 0 01-1.212-1.176 1.207 1.207 0 011.2-1.248 1.055 1.055 0 011.056.732c.104 1.132-.352 1.696-1.048 1.696zm1.836-4.3c1.74 0 2.82.024 3.492.06l.012-.9c-.576 0-2.04-.012-3.48-.012h-.18c0-.312.012-.588.012-.768l.06-.744h-1.096c.024.144.06.492.072.744.012.168.024.444.024.78-1.764.024-4 .1-5.316.12l.024.936c1.488-.108 3.5-.192 5.3-.2.012.408.012.828.012 1.176a2.383 2.383 0 00-.792-.132 2.089 2.089 0 00-2.1 2.076 1.914 1.914 0 001.968 1.992 1.707 1.707 0 001.02-.3 4.243 4.243 0 01-3.156 2.064l.828.8c2.76-.828 3.54-2.616 3.54-4.224a2.9 2.9 0 00-.384-1.524 92.21 92.21 0 01-.024-1.944zm5.532 4.176a1.83 1.83 0 101.836 1.824 1.831 1.831 0 00-1.84-1.816zm0 3.048a1.218 1.218 0 111.208-1.212 1.2 1.2 0 01-1.212 1.22z" fill="#352e64"/><g data-name="グループ 906"><g data-name="グループ 549"><g data-name="グループ 548" fill="none" stroke="red" stroke-linecap="round" stroke-linejoin="round" stroke-width="2"><path data-name="パス 344" d="M281.789 4462.05v6.115a6.622 6.622 0 006.654 6.588h22.832a6.622 6.622 0 006.654-6.588v-47.535a6.617 6.617 0 00-6.654-6.588h-22.836a6.622 6.622 0 00-6.654 6.588v6.784"/><path data-name="線 120" d="M302.598 4467.559h-5.476"/><path data-name="線 121" d="M300.679 4418.95h-1.637"/></g></g></g><g data-name="グループ 907" stroke="red" stroke-linecap="round" stroke-width="2"><path data-name="パス 568" d="M280.192 4430.19a14.413 14.413 0 1015.71 14.355 16.692 16.692 0 00-1.121-5.483" fill="none" stroke-miterlimit="10"/><path data-name="パス 569" d="M293.045 4436.172c-2.3-3.685-5.462-5.818-9.812-5.972q-.217-.007-.435-.008" fill="none" stroke-miterlimit="10"/><path data-name="パス 572" d="M293.934 4433.737l-3.8 2.2 3.224.946z" fill="red" stroke-linejoin="round"/><path data-name="線 187" fill="none" stroke-miterlimit="10" d="M274.535 4432.28l.916 1.458"/><path data-name="線 188" fill="none" stroke-miterlimit="10" d="M269.355 4437.296l1.491.861"/><path data-name="線 189" fill="none" stroke-miterlimit="10" d="M267.41 4444.437h1.722"/><path data-name="線 190" fill="none" stroke-miterlimit="10" d="M288.465 4456.595l-.916-1.458"/><path data-name="線 191" fill="none" stroke-miterlimit="10" d="M293.646 4451.578l-1.491-.861"/><path data-name="線 192" fill="none" stroke-miterlimit="10" d="M295.591 4444.437h-1.722"/><path data-name="線 193" fill="none" stroke-miterlimit="10" d="M281.861 4458.416l.064-1.721"/><path data-name="線 194" fill="none" stroke-miterlimit="10" d="M274.866 4456.661l.861-1.491"/><path data-name="線 195" fill="none" stroke-miterlimit="10" d="M269.612 4451.449l1.491-.861"/></g><text data-name="10s" transform="translate(281 4448.958)" fill="#352e64" font-size="12" font-family="Futura-Medium, Futura" font-weight="500"><tspan x="-9.48" y="0">10s</tspan></text></g></svg>