<svg xmlns="http://www.w3.org/2000/svg" width="286" height="280"><g data-name="グループ 944" transform="translate(-497 -4371)"><rect data-name="長方形 600" width="286" height="280" rx="15" transform="translate(497 4371)" fill="#fff"/><path data-name="パス 616" d="M603.739 4509.194v.561h-2.669v-.561zm-2.669 2.227v-.578h2.669v.578zm4.488 1.156v-4.556h-6.324v11.441h1.836v-6.885zm2.842-1.156v-.578h2.737v.578zm2.737-2.227v.561H608.4v-.561zm-6.528 7.684v-.731h2.822v.731zm2.822-2.533v.714h-2.822v-.714zm5.593-6.324h-6.443v4.556h4.556v4.823c0 .255-.085.323-.34.323-.221 0-.9.017-1.581-.017v-4.483h-6.426v5.355h1.819v-.6h4.437a5.95 5.95 0 01.425 1.479 6.336 6.336 0 002.754-.323c.612-.272.8-.765.8-1.7zm-4.1-3.23q.229-.433.408-.867l-1.938-.459a8.079 8.079 0 01-1.632 2.535v-1.207h-3.774c.136-.272.272-.544.391-.816l-1.887-.51a9.033 9.033 0 01-2.5 3.4 10.636 10.636 0 011.649 1.088 12.635 12.635 0 001.394-1.632h.187a7.774 7.774 0 01.748 1.6l1.768-.493a7.536 7.536 0 00-.561-1.105h2.261q-.306.281-.612.51a12.889 12.889 0 011.785.952 9.4 9.4 0 001.326-1.462h.884a7.713 7.713 0 011 1.632l1.819-.51a6.54 6.54 0 00-.731-1.122h2.805v-1.53zm9.894 7.259v-1.156h3.111v1.156zm3.111-2.7h-3.111v-1.142h3.111zm5.3 0H624v-1.142h3.23zm0 2.7H624v-1.156h3.23zm3.451 2.771H624v-1.1h5.321v-7.157h-1.343c.51-.68 1.071-1.5 1.581-2.312l-2.259-.652a15.631 15.631 0 01-1.6 2.958h-2.6l1.224-.493a12.953 12.953 0 00-1.5-2.533l-1.819.68a11.454 11.454 0 011.275 2.346h-3.009l1.054-.51a14.31 14.31 0 00-1.717-2.38l-1.734.8a17.368 17.368 0 011.411 2.091h-1.428v7.157h5.066v1.1h-6.562v1.87h6.562v2.776H624v-2.771h6.681zm7.14-3.281a2.191 2.191 0 002.18 2.176 2.191 2.191 0 002.176-2.176 2.191 2.191 0 00-2.176-2.176 2.191 2.191 0 00-2.176 2.176zm18.53 1.071v-1.258h2.04v.595c0 .2 0 .442-.017.663zm0-3.876h2.04v1.241h-2.04zm5.933 0v1.241H660.4v-1.241zm0 3.876h-1.9c.017-.221.017-.442.017-.646v-.612h1.887zm1.959 1.479v-6.834H660.4v-1.02h4.267v-1.768h-10.319l.085-.221-1.9-.595a18.174 18.174 0 01-3.57 6.375 14.655 14.655 0 011.105 2.091 12.173 12.173 0 00.867-1.088v8.415h1.938v-11.56a32.005 32.005 0 001.394-3.162v1.513h4.131v1.02h-3.91v6.834h3.702a4.06 4.06 0 01-.816 1.649 6.289 6.289 0 01-1.734-1.428l-1.751.612a8.9 8.9 0 002.023 1.972 9.791 9.791 0 01-2.754.935 9.307 9.307 0 011.224 1.67 11.072 11.072 0 003.332-1.568 19.5 19.5 0 006.273 1.428 7.979 7.979 0 011.224-1.887 23.851 23.851 0 01-6.052-.973 6.89 6.89 0 001.041-2.41zm7.242-3.6h2.924v-1.857h-2.924v-2.533a22.1 22.1 0 002.873-.884l-1.428-1.564a28.709 28.709 0 01-6.834 1.748 6.343 6.343 0 01.578 1.581 47.236 47.236 0 002.856-.459v2.108H666.3v1.853h2.839a16.467 16.467 0 01-3.23 4.9 11.378 11.378 0 011.02 1.972 16.913 16.913 0 002.6-3.995v6.085h1.955v-5.865c.68.7 1.394 1.462 1.8 1.989l1.173-1.734c-.457-.357-2.14-1.802-2.973-2.435zm5.695-4.828h-1.972v9.5h1.972zm2.04-1.734V4517c0 .306-.136.408-.459.425-.357 0-1.445 0-2.55-.051a7.759 7.759 0 01.7 2.091 8.371 8.371 0 003.383-.391c.7-.323.935-.884.935-2.057v-13.09z" fill="#352e64"/><path data-name="パス 615" d="M526.33 4554h4.956v-.948h-3.84v-7.852h-1.116zm6.5 0h1.12v-8.8h-1.116zm3.516 0h1.056v-4.62c0-.924-.084-1.86-.132-2.748h.048l.948 1.812 3.208 5.556h1.14v-8.8h-1.056v4.576c0 .912.084 1.9.144 2.784h-.06l-.936-1.812-3.206-5.548h-1.15zm8.664 0h5.208v-.948h-4.088v-3.2h3.336v-.952h-3.336v-2.76h3.96v-.94h-5.076zm11.16-6.528a7.213 7.213 0 01.048.864c0 2-.264 3.72-2.124 4.86a4.639 4.639 0 01-1.068.528l.876.72c3.06-1.524 3.348-3.72 3.348-6.972zm5.28-2.148a5.926 5.926 0 01-.84.072h-6.884a12.656 12.656 0 01-1.368-.1v1.084a13.589 13.589 0 011.368-.072h6.828a8.1 8.1 0 01-2.616 2.692l.792.636a11.57 11.57 0 002.988-3.316c.084-.132.24-.312.324-.432zm11.868.852a.791.791 0 01-.792-.792.792.792 0 11.792.792zm-7.692-.4a11.954 11.954 0 01-1.2-.072v1.06c.3-.012.72-.036 1.188-.036h6.144a9.13 9.13 0 01-1.568 3.912 7.94 7.94 0 01-4.68 2.88l.816.9a9.186 9.186 0 004.728-3.2 11.923 11.923 0 001.788-4.428l.024-.132a1.451 1.451 0 00.456.072 1.36 1.36 0 10-1.284-.96c-.144.012-.276.012-.4.012zm11.892-.792c.024.228.048.648.048.864v4c0 .36-.036.744-.048.924h1.1a10.131 10.131 0 01-.036-.912v-4.008c0-.288.012-.636.036-.864zm5.56-.084c.024.288.06.636.06 1.032v1.9c0 2.268-.144 3.24-1.008 4.236a5.536 5.536 0 01-2.88 1.6l.78.828a6.409 6.409 0 002.856-1.752c.864-1.032 1.248-1.98 1.248-4.86v-1.948c0-.4.024-.744.048-1.032zm7.044 7.416c-.516 0-1.212-.66-1.212-2.16a4.143 4.143 0 013.672-3.84 19.173 19.173 0 01-.66 3.2c-.612 2.012-1.272 2.804-1.8 2.804zm3.132 1.992c2.832-.372 4.476-2.04 4.476-4.536a4.314 4.314 0 00-4.56-4.368 5.075 5.075 0 00-5.208 4.836c0 1.956 1.068 3.18 2.124 3.18 1.1 0 2.052-1.26 2.784-3.7a25.114 25.114 0 00.708-3.42 3.294 3.294 0 013.156 3.444 3.562 3.562 0 01-3.012 3.516 7.448 7.448 0 01-1.02.144zm8.808-2.208a.837.837 0 01-.72.42.722.722 0 01-.684-.792c0-1.008.972-2.028 2.676-2.172a14.7 14.7 0 01-1.272 2.544zm8.138-1.052a14.312 14.312 0 00-1.428-.912 17.8 17.8 0 00.252-2.3l-.984-.108a8.165 8.165 0 01-.012 1.092c-.024.288-.048.588-.1.888a9.738 9.738 0 00-3.228-.952c.5-1.116 1.008-2.328 1.344-2.856a1.972 1.972 0 01.312-.4l-.612-.492a2.4 2.4 0 01-.576.132c-.5.036-2.064.12-2.688.12a8.1 8.1 0 01-.9-.048l.048 1.008a7.447 7.447 0 01.876-.084c.552-.036 1.992-.1 2.46-.132-.372.744-.8 1.764-1.236 2.7-2.328.06-3.948 1.4-3.948 3.156a1.523 1.523 0 001.55 1.64 1.7 1.7 0 001.5-.828 23.46 23.46 0 001.5-3.1 8.756 8.756 0 013.384 1.068 5.06 5.06 0 01-3.108 3.36l.792.66a5.647 5.647 0 003.132-3.54 11.866 11.866 0 011.236.936zm9.456-3.276l-.612.264a11.14 11.14 0 01.984 1.692l.612-.288a14.243 14.243 0 00-.986-1.668zm1.308-.5l-.6.276a10.689 10.689 0 011.02 1.668l.624-.288a18.128 18.128 0 00-1.046-1.66zm-9.098-1.172l.108 1.056c1.284-.264 4.524-.576 5.568-.7a4.8 4.8 0 00-2.208 4.008c0 2.652 2.508 3.828 4.7 3.924l.348-1.008c-1.932-.072-4.092-.8-4.092-3.12a4.155 4.155 0 012.712-3.756 9.846 9.846 0 012.328-.192v-.952c-.792.036-1.908.1-3.2.2-2.184.192-4.428.408-5.208.48-.228.028-.6.052-1.056.06zm12.9-.024h8.172v1.672h.924v-2.508H629.3v-1.272h-.924v1.272h-4.512v2.508h.9zm7.334 2.164v-.828h-6.47v.828zm-.888 5.652c-.5 0-.588-.072-.588-.408v-3.036h3.528v-.84H623.59v.84h3.1c-.216 1.812-.8 3.1-3.36 3.732a2.689 2.689 0 01.528.756c2.8-.78 3.5-2.316 3.78-4.488h2.1v3.036c0 .948.288 1.224 1.38 1.224h1.848c.948 0 1.212-.42 1.308-2.052a3.8 3.8 0 01-.816-.348c-.036 1.368-.12 1.584-.564 1.584zm4.788-3.132a8.624 8.624 0 01-.78 2.856 3.117 3.117 0 01.7.336 10.561 10.561 0 00.852-3.048zm2.6.168a11.952 11.952 0 01.768 2.328l.708-.24a10.4 10.4 0 00-.8-2.3zm-.3-2.844c.2.324.408.7.588 1.056-.66.036-1.32.06-1.92.084a35 35 0 002.484-3.564l-.768-.336a26.775 26.775 0 01-1.284 2.184 8.446 8.446 0 00-.732-.828 21.593 21.593 0 001.368-2.412l-.792-.3a16.379 16.379 0 01-1.066 2.232c-.12-.108-.24-.216-.36-.312l-.456.576a10.407 10.407 0 011.572 1.728c-.264.384-.54.756-.8 1.068-.276.012-.552.024-.792.024l.072.8c.576-.024 1.236-.06 1.956-.1v4.944h.816v-4.984l1.032-.072a4.643 4.643 0 01.228.7l.708-.336a9.816 9.816 0 00-1.192-2.436zm6.588 3.1v2.316h-3.456v-2.32zm-4.284 3.72h.828v-.6h3.456v.564h.864v-4.492h-5.148zm5.748-8.436v-.82h-2.842v-1.692h-.9v1.692h-2.76v.816h2.76v1.8h-2.388v.8h5.868v-.8h-2.58v-1.8zm6.276 4.728a1.143 1.143 0 01-1.212-1.176 1.207 1.207 0 011.2-1.248 1.055 1.055 0 011.056.732c.11 1.124-.346 1.688-1.042 1.688zm1.836-4.3c1.74 0 2.82.024 3.492.06l.012-.9c-.576 0-2.04-.012-3.48-.012h-.18c0-.312.012-.588.012-.768l.06-.744h-1.09c.024.144.06.492.072.744.012.168.024.444.024.78-1.764.024-4 .1-5.316.12l.024.936c1.488-.108 3.5-.192 5.3-.2.012.408.012.828.012 1.176a2.383 2.383 0 00-.792-.132 2.089 2.089 0 00-2.1 2.076 1.914 1.914 0 001.968 1.992 1.707 1.707 0 001.02-.3 4.243 4.243 0 01-3.156 2.064l.828.8c2.76-.828 3.54-2.616 3.54-4.224a2.9 2.9 0 00-.384-1.524 92.21 92.21 0 01-.024-1.944zm10.394 6.704c-.888 0-1.572-.336-1.572-.924 0-.408.408-.732.948-.732a1.587 1.587 0 011.572 1.584 5.853 5.853 0 01-.948.072zm2.448-8.628a4.255 4.255 0 01-.648.1c-.624.06-3.444.144-4.056.144a6.747 6.747 0 01-.84-.036l.024 1a5.721 5.721 0 01.8-.072c.612-.036 2.952-.144 3.576-.168-.588.528-2.064 1.776-2.724 2.328-.7.576-2.22 1.848-3.2 2.664l.7.708c1.512-1.536 2.592-2.364 4.548-2.364 1.5 0 2.676.852 2.676 2.016a2.072 2.072 0 01-1.476 2.016 2.346 2.346 0 00-2.448-2.1 1.688 1.688 0 00-1.836 1.56c0 .984 1 1.7 2.616 1.7 2.508 0 4.1-1.248 4.1-3.168 0-1.608-1.428-2.808-3.408-2.808a5.05 5.05 0 00-1.608.252c.912-.768 2.508-2.172 3.1-2.616.18-.132.444-.312.66-.456zm6.816 7.344c-.516 0-1.212-.66-1.212-2.16a4.143 4.143 0 013.672-3.84 19.173 19.173 0 01-.66 3.2c-.612 2.012-1.272 2.804-1.8 2.804zm3.132 1.992c2.832-.372 4.476-2.04 4.476-4.536a4.314 4.314 0 00-4.56-4.368 5.075 5.075 0 00-5.208 4.836c0 1.956 1.068 3.18 2.124 3.18 1.1 0 2.052-1.26 2.784-3.7a25.114 25.114 0 00.708-3.42 3.294 3.294 0 013.156 3.444 3.562 3.562 0 01-3.012 3.516 7.449 7.449 0 01-1.02.144zm14.4-6.54l-.612.264a11.14 11.14 0 01.984 1.692l.612-.288a14.243 14.243 0 00-.984-1.664zm1.308-.5l-.6.276a10.688 10.688 0 011.02 1.668l.624-.288a18.126 18.126 0 00-1.044-1.656zm-9.1-1.164l.108 1.056c1.284-.264 4.524-.576 5.568-.7a4.8 4.8 0 00-2.208 4.008c0 2.652 2.508 3.828 4.7 3.924l.348-1.008c-1.932-.072-4.092-.8-4.092-3.12a4.155 4.155 0 012.712-3.756 9.847 9.847 0 012.328-.192v-.956c-.792.036-1.908.1-3.2.2-2.184.192-4.428.408-5.208.48-.224.028-.596.052-1.052.06zm16.308 1.368a7.215 7.215 0 01.048.864c0 2-.264 3.72-2.124 4.86a4.639 4.639 0 01-1.068.528l.876.72c3.06-1.524 3.348-3.72 3.348-6.972zm5.28-2.148a5.926 5.926 0 01-.84.072h-6.888a12.656 12.656 0 01-1.368-.1v1.084a13.589 13.589 0 011.368-.072h6.828a8.1 8.1 0 01-2.612 2.692l.792.636a11.57 11.57 0 002.988-3.312c.084-.132.24-.312.324-.432zm11.868.852a.791.791 0 01-.792-.792.792.792 0 11.792.792zm-7.692-.4a11.954 11.954 0 01-1.2-.072v1.06c.3-.012.72-.036 1.188-.036h6.144a9.13 9.13 0 01-1.572 3.912 7.94 7.94 0 01-4.68 2.88l.816.9a9.186 9.186 0 004.728-3.2 11.922 11.922 0 001.788-4.428l.024-.132a1.451 1.451 0 00.456.072 1.36 1.36 0 10-1.284-.96c-.144.012-.276.012-.4.012zm11.892-.792c.024.228.048.648.048.864v4c0 .36-.036.744-.048.924h1.1a10.131 10.131 0 01-.036-.912v-4.008c0-.288.012-.636.036-.864zm5.556-.084c.024.288.06.636.06 1.032v1.9c0 2.268-.144 3.24-1.008 4.236a5.536 5.536 0 01-2.88 1.6l.78.828a6.41 6.41 0 002.856-1.752c.864-1.032 1.248-1.98 1.248-4.86v-1.948c0-.4.024-.744.048-1.032zm13.332-.276a13.24 13.24 0 01-3.156 2.652 18.94 18.94 0 01-5.364 2.208l.552.936a24 24 0 004.512-1.872v4.536a11.129 11.129 0 01-.072 1.284h1.176a9.054 9.054 0 01-.072-1.284v-5.132a18.823 18.823 0 003.216-2.6zm5.184.576l-.684.732a24.923 24.923 0 012.994 2.512l.756-.756a26.276 26.276 0 00-3.062-2.488zm-1.032 8.04l.636.984a12.936 12.936 0 004.716-1.872 11.969 11.969 0 004.032-4.26l-.576-1.02a11.3 11.3 0 01-4.008 4.416 12.39 12.39 0 01-4.796 1.756zm-209.39 13.26a3.2 3.2 0 01-.9.108h-4.632c-.36 0-1.044-.06-1.212-.084v1.096c.132-.012.792-.06 1.212-.06h4.68a10.693 10.693 0 01-1.992 3.34 13.722 13.722 0 01-4.944 3.56l.768.8a15.213 15.213 0 004.68-3.5 27.707 27.707 0 013.3 3.564l.84-.732a34.414 34.414 0 00-3.5-3.576 15.187 15.187 0 002.012-3.516 3.442 3.442 0 01.3-.528zm13.176 4.4a39 39 0 00-5.124-1.98v-1.96c0-.36.048-.876.084-1.248h-1.176a7.574 7.574 0 01.1 1.248v6.984a13.14 13.14 0 01-.072 1.416h1.144a14.166 14.166 0 01-.072-1.416l-.012-3.96a31.461 31.461 0 014.716 1.932zm3.06.084a19.72 19.72 0 011.668-.06h6.588c.54 0 1.044.048 1.284.06v-1.184c-.264.024-.7.06-1.3.06h-6.572c-.672 0-1.308-.036-1.668-.06zm12.468 4.308a6.62 6.62 0 002.136-3.292 26.25 26.25 0 00.372-5.1c0-.36.048-.72.06-.864h-1.1a4.421 4.421 0 01.084.876 21.476 21.476 0 01-.36 4.824 5.7 5.7 0 01-2.088 2.952zm5.232-.012a2.4 2.4 0 01.408-.28 12.07 12.07 0 004.088-3.324l-.576-.816a9.1 9.1 0 01-3.492 2.952v-6.924a7.63 7.63 0 01.052-.888h-1.1a5.869 5.869 0 01.072.888v7.188a2.857 2.857 0 01-.084.672zm16.212-6.564a17.973 17.973 0 00-2.784-1.584l-.468.744a14.274 14.274 0 012.712 1.624zm-4.316-1.804a12.153 12.153 0 01-1.848.432c.192-.684.348-1.4.468-1.836l-1.068-.1a9.74 9.74 0 01-.372 2.052c-.456.036-.9.06-1.32.06a11.194 11.194 0 01-1.464-.084l.072.9c.444.024.936.036 1.38.036q.522 0 1.044-.036a17.046 17.046 0 01-2.544 4.44l.936.48a21.353 21.353 0 002.592-5.028 14.138 14.138 0 002.144-.428zm.624 6.636c0 .588-.324 1.128-1.3 1.128-.924 0-1.368-.372-1.368-.924s.576-.936 1.452-.936a4.327 4.327 0 011.2.168c.012.216.012.408.012.564zm-.168-4.368c.024.828.084 1.992.12 2.964a5.624 5.624 0 00-1.128-.108c-1.344 0-2.376.708-2.376 1.8 0 1.176 1.068 1.716 2.376 1.716 1.464 0 2.088-.78 2.088-1.728 0-.132 0-.3-.012-.48a8.267 8.267 0 011.904 1.356l.516-.816a8.021 8.021 0 00-2.46-1.488c-.024-.72-.072-1.5-.084-1.932a11.557 11.557 0 01.012-1.284zm13.208-1.88a5.655 5.655 0 01-.84.564c-.648.36-1.728.876-2.772 1.512a25.158 25.158 0 01-1.584-3.516l-.948.4c.552 1.272 1.176 2.664 1.716 3.636-1.272.888-2.052 1.872-2.052 3.1 0 1.776 1.632 2.448 3.852 2.448a23.2 23.2 0 003.756-.288l.012-1.08a17.5 17.5 0 01-3.8.408c-1.872 0-2.808-.612-2.808-1.6 0-.9.66-1.668 1.764-2.4a35.076 35.076 0 013.288-1.8c.348-.18.636-.336.9-.5zm.072-1.32a12.4 12.4 0 01.984 1.668l.648-.288a17.211 17.211 0 00-.984-1.656zm1.332-.48a9.937 9.937 0 011 1.656l.648-.3a15.026 15.026 0 00-1.016-1.636zm5.364 7.824c-.516 0-1.212-.66-1.212-2.16a4.143 4.143 0 013.672-3.84 19.173 19.173 0 01-.66 3.2c-.612 2.004-1.272 2.796-1.8 2.796zm3.132 1.992c2.832-.372 4.476-2.04 4.476-4.536a4.314 4.314 0 00-4.56-4.368 5.075 5.075 0 00-5.208 4.836c0 1.956 1.068 3.18 2.124 3.18 1.1 0 2.052-1.26 2.784-3.7a25.114 25.114 0 00.708-3.42 3.294 3.294 0 013.156 3.444 3.563 3.563 0 01-3.012 3.516 7.449 7.449 0 01-1.02.144zm17-4.176h-4.92v-1.948h4.256v-.852h-4.252v-1.94a22.428 22.428 0 003.744-.708l-.672-.708a39.851 39.851 0 01-8.112 1.008 4.046 4.046 0 01.228.792 66.084 66.084 0 003.912-.288v1.844h-4.128v.852h4.128v1.944h-4.932v.876h4.932v2.652c0 .252-.108.336-.372.336s-1.212.024-2.22-.012a4.416 4.416 0 01.384.888 9.333 9.333 0 002.472-.156c.444-.144.636-.408.636-1.044v-2.664h4.92zm5.208-4.968v1h-2.592v-1zm-2.592 2.712v-1.06h2.592v1.056zm3.444.684v-4.096H623.3v10.452h.888v-6.36zm1.932 1.584v1.116h-2.82v-1.12zm-2.816 2.948v-1.164h2.82v1.164zm3.648.708v-4.344h-4.452v4.944h.8v-.6zm-.84-5.916v-1.068h2.688v1.068zm2.688-2.724v1h-2.688v-1zm.9-.7H628.7v4.1h3.54v5.148c0 .216-.072.288-.276.288s-.948.024-1.68-.012a3.287 3.287 0 01.312.912 6.83 6.83 0 002.016-.156c.4-.156.528-.456.528-1.02zm3.084.312a5.241 5.241 0 01-.084.84 37.029 37.029 0 00-.54 4.992 14.359 14.359 0 00.456 3.768l.852-.072c-.012-.12-.036-.288-.036-.408a2.039 2.039 0 01.06-.528 25.657 25.657 0 01.84-2.628l-.5-.4c-.2.48-.48 1.188-.672 1.728a10.5 10.5 0 01-.108-1.62 29.184 29.184 0 01.588-4.788 5.629 5.629 0 01.2-.8zm6.06 7.368c0 .792-.288 1.284-1.3 1.284-.852 0-1.428-.336-1.428-.924 0-.552.612-.948 1.5-.948a3.716 3.716 0 011.212.192c.016.148.016.292.016.4zm3.24.588a8.1 8.1 0 00-2.34-1.548c-.048-1-.132-2.184-.144-3.372.708-.048 1.4-.12 2.052-.228v-.936a15.137 15.137 0 01-2.052.276c.012-.552.024-1.1.036-1.428a6.734 6.734 0 01.072-.708h-1.092a4.857 4.857 0 01.06.72v1.476c-.372.012-.744.024-1.116.024a18.579 18.579 0 01-2.016-.108v.912c.7.036 1.32.072 1.992.072.384 0 .756-.012 1.14-.024.012.984.084 2.124.12 3.036a5.3 5.3 0 00-1.1-.108c-1.56 0-2.448.816-2.448 1.812 0 1.056.876 1.716 2.472 1.716a1.8 1.8 0 002.064-1.944v-.216a9.018 9.018 0 011.78 1.36zm7.992-4.02a8.106 8.106 0 01-2 3 12.448 12.448 0 01-.2-2.16v-.468a5.919 5.919 0 012.016-.372zm-3.048.948a14.281 14.281 0 00.276 2.688 3.007 3.007 0 01-1.632.624c-.444 0-.672-.24-.672-.72a3.767 3.767 0 012.028-2.8zm4.176-1.608c.072-.18.168-.5.24-.66l-.96-.24a4.289 4.289 0 01-.12.684l-.036.108c-.144-.012-.288-.012-.432-.012a7.077 7.077 0 00-1.992.312c.036-.5.072-1.008.12-1.464a40.694 40.694 0 004.284-.432l-.012-.9a24.876 24.876 0 01-4.164.5q.072-.522.144-.9a4.315 4.315 0 01.144-.528l-1.008-.024a5.077 5.077 0 01-.036.564c-.024.252-.06.564-.1.912-.264.012-.528.012-.792.012a19.159 19.159 0 01-1.956-.144l.024.9c.48.024 1.4.072 1.92.072.228 0 .468 0 .72-.012-.048.552-.108 1.152-.132 1.752-1.632.744-2.964 2.316-2.964 3.84a1.341 1.341 0 001.416 1.5 3.984 3.984 0 001.992-.648c.06.24.132.456.192.66l.876-.264c-.1-.3-.192-.624-.288-.96a9.646 9.646 0 002.628-3.84 2.1 2.1 0 011.7 2.016c0 1.536-1.32 2.64-3.456 2.868l.516.8c2.76-.432 3.888-1.92 3.888-3.624a2.932 2.932 0 00-2.376-2.808zm6.576-3.528c-.012.288-.048.648-.1 1.02a31.177 31.177 0 00-.36 3.84 14.54 14.54 0 00.12 1.884l.936-.072a4.961 4.961 0 01-.024-1.452c.144-1.56 1.512-3.708 2.988-3.708 1.26 0 1.884 1.344 1.884 3.216 0 2.988-2.016 4.02-4.6 4.416l.564.864c2.952-.54 5.028-1.992 5.028-5.292 0-2.5-1.14-4.08-2.724-4.08-1.5 0-2.748 1.476-3.216 2.7a22.027 22.027 0 01.552-3.3zm14.976 8.076c0 .816-.576 1.02-1.26 1.02-1.176 0-1.644-.408-1.644-.96s.612-.972 1.74-.972a6.049 6.049 0 011.152.108c0 .328.012.6.012.808zm4.332.408a9.755 9.755 0 00-3.456-1.848c-.024-.564-.06-1.188-.084-1.8a37.833 37.833 0 003.3-.276l-.012-.9a32.058 32.058 0 01-3.3.312v-1.7a62.486 62.486 0 003.072-.252l-.012-.876a26.424 26.424 0 01-3.048.288c0-.288 0-.516.012-.66a6.115 6.115 0 01.06-.792h-1.02a6.651 6.651 0 01.036.708v.784h-.612a18.945 18.945 0 01-2.784-.228v.888c.708.084 1.968.18 2.8.18h.588v1.7h-.636a21.142 21.142 0 01-2.988-.228v.912c.852.1 2.172.168 2.988.168h.66c.012.492.036 1.056.06 1.584a6.709 6.709 0 00-1-.072c-1.716 0-2.76.732-2.76 1.812 0 1.152.948 1.764 2.652 1.764 1.548 0 2.1-.852 2.1-1.668 0-.18-.012-.444-.024-.744a8.826 8.826 0 012.868 1.788zm9.132-8.232a6.6 6.6 0 01.06.888v1.692c-1.26.108-2.64.24-3.792.348l.012-1.6c0-.372.012-.7.036-.96h-1.044a6.951 6.951 0 01.072 1l-.012 1.656c-.564.048-1.032.1-1.332.12-.432.036-.876.06-1.236.06l.1.984c.324-.048.84-.12 1.212-.168l1.26-.132c0 1.188 0 2.436.012 2.952.06 1.9.324 2.532 3.072 2.532 1.2 0 2.652-.12 3.444-.2l.036-1.008a24.274 24.274 0 01-3.528.264c-2.064 0-2.076-.432-2.112-1.716-.024-.456-.012-1.692 0-2.916 1.176-.12 2.568-.252 3.792-.348-.024.744-.072 1.536-.132 1.932-.036.264-.156.312-.444.312a7.2 7.2 0 01-1.188-.156l-.024.852a14.05 14.05 0 001.572.168c.54 0 .8-.156.912-.684a19.338 19.338 0 00.18-2.5c.516-.036.972-.048 1.32-.06.3 0 .744-.012.936 0v-.96c-.288.024-.624.048-.936.06-.384.024-.828.06-1.3.1 0-.528.012-1.116.012-1.656.012-.252.036-.66.06-.852zm10.812.192l-1.068-.432c-.144.348-.3.636-.432.924a86 86 0 00-4.2 8.568l1.044.348a18.692 18.692 0 011.02-2.7c.468-.936 1.344-1.9 2.3-1.9a.785.785 0 01.864.828c.036.636.012 1.56.06 2.256a1.539 1.539 0 001.716 1.512c1.728 0 2.736-1.332 3.36-3.252l-.792-.636c-.312 1.26-1.092 2.892-2.412 2.892a.847.847 0 01-.948-.84c-.048-.576-.024-1.488-.048-2.2a1.36 1.36 0 00-1.4-1.452 2.576 2.576 0 00-1.74.72c.612-1.152 1.764-3.252 2.292-4.068a4.756 4.756 0 01.384-.564zm7.68 6.1a1.83 1.83 0 101.836 1.824 1.831 1.831 0 00-1.836-1.824zm0 3.048a1.218 1.218 0 111.212-1.22 1.2 1.2 0 01-1.212 1.22zm15.684-1.512c0 .816-.576 1.02-1.26 1.02-1.176 0-1.644-.408-1.644-.96s.612-.972 1.74-.972a6.049 6.049 0 011.152.108c0 .324.012.596.012.804zm4.332.408a9.755 9.755 0 00-3.456-1.848c-.024-.564-.06-1.188-.084-1.8a37.833 37.833 0 003.3-.276l-.012-.9a32.058 32.058 0 01-3.3.312v-1.704a62.486 62.486 0 003.072-.252l-.012-.876a26.424 26.424 0 01-3.048.288c0-.288 0-.516.012-.66a6.115 6.115 0 01.06-.792h-1.02a6.651 6.651 0 01.036.708v.784h-.612a18.945 18.945 0 01-2.784-.228v.888c.708.084 1.968.18 2.8.18h.588v1.7h-.636a21.142 21.142 0 01-2.988-.228v.912c.852.1 2.172.168 2.988.168h.66c.012.492.036 1.056.06 1.584a6.709 6.709 0 00-1-.072c-1.716 0-2.76.732-2.76 1.812 0 1.152.948 1.764 2.652 1.764 1.548 0 2.1-.852 2.1-1.668 0-.18-.012-.444-.024-.744a8.826 8.826 0 012.868 1.788zm8.1-3.912a19.092 19.092 0 012.2-.132 17.094 17.094 0 012 .144l.024-.912a18.975 18.975 0 00-2.052-.1c-.768 0-1.548.036-2.172.1zm.768-3.12a17.221 17.221 0 01-2.268.432l.18-.876c.048-.24.132-.684.216-.948l-1.16-.092a5.667 5.667 0 01-.036.984c-.036.24-.1.612-.18 1.044-.456.024-.876.048-1.272.048a10.6 10.6 0 01-1.428-.084l.036.936c.42.024.852.048 1.38.048q.5 0 1.08-.036c-.1.432-.192.864-.3 1.26a26.406 26.406 0 01-1.992 5.316l1.056.348a35.232 35.232 0 001.86-5.448c.132-.5.264-1.056.372-1.572a22.861 22.861 0 002.46-.408zm-1.368 5.028a6.623 6.623 0 00-.18 1.4c0 1.176.984 1.752 2.856 1.752a17.644 17.644 0 002.292-.156l.036-.972a13.291 13.291 0 01-2.316.228c-1.692 0-1.956-.54-1.956-1.1a4.237 4.237 0 01.168-1.068zm10.248 2.964a22.522 22.522 0 00-2.688-2.664l-.78.684a19.306 19.306 0 012.652 2.676zm-199.032 15.336v4.92h.888v-4.92h2.22v-.828h-5.532v-1.824a27.706 27.706 0 004.872-.984l-.756-.676a23.866 23.866 0 01-4.272.924l-.708-.156v2.772a6.8 6.8 0 01-1.464 4.776 2.071 2.071 0 01.636.612 7.146 7.146 0 001.668-4.62zm-4.78-2.212a9.131 9.131 0 00-2.088-1.848l-.66.528a8.306 8.306 0 012.04 1.908zm-.336 2.556h-2.54v.84h1.668v3.036a20.038 20.038 0 01-1.824 1.368l.48.9a63.437 63.437 0 001.812-1.536 4.276 4.276 0 003.4 1.416c1.32.048 3.78.024 5.088-.024a4.06 4.06 0 01.288-.912c-1.4.1-4.068.132-5.376.084a3.493 3.493 0 01-2.988-1.344zm16.368-4.272a5.517 5.517 0 01-.684.792c-.8.816-2.6 2.232-3.492 2.988-1.08.9-1.2 1.44-.084 2.376 1.116.912 3.1 2.6 3.744 3.3.252.276.576.576.816.864l.864-.78c-1.164-1.152-3.36-2.976-4.44-3.84-.768-.636-.768-.816-.048-1.44.876-.72 2.58-2.088 3.408-2.8.192-.168.552-.48.816-.672zm7.716 7.932c-.516 0-1.212-.66-1.212-2.16a4.143 4.143 0 013.672-3.84 19.173 19.173 0 01-.66 3.2c-.608 2.012-1.268 2.804-1.796 2.804zm3.132 1.992c2.832-.372 4.476-2.04 4.476-4.536a4.314 4.314 0 00-4.56-4.368 5.075 5.075 0 00-5.208 4.836c0 1.956 1.068 3.18 2.124 3.18 1.1 0 2.052-1.26 2.784-3.7a25.113 25.113 0 00.708-3.42 3.294 3.294 0 013.156 3.444 3.563 3.563 0 01-3.012 3.516 7.449 7.449 0 01-1.02.144zm15.8-.2c-.012-.192-.048-.732-.048-1.164v-6.192c0-.288.024-.66.036-.936-.24.012-.6.024-.888.024h-5.908a12.109 12.109 0 01-1.308-.072v1.068c.288-.012.876-.036 1.32-.036h5.748v5.664h-5.892c-.5 0-1.02-.036-1.332-.06v1.08c.324-.024.864-.048 1.356-.048h5.868c-.012.288-.012.54-.024.672zm4.536-8.9l-.684.732a24.922 24.922 0 012.988 2.508l.756-.756a26.276 26.276 0 00-3.052-2.492zm-1.032 8.04l.636.984a12.935 12.935 0 004.716-1.872 11.969 11.969 0 004.032-4.26l-.576-1.02a11.3 11.3 0 01-4.008 4.416 12.39 12.39 0 01-4.792 1.748zm20.036-7.012a16.8 16.8 0 00-.984-1.632l-.636.264a13.713 13.713 0 01.972 1.668zm-6.432 3.432a46 46 0 004.908-1.56c.36-.132.792-.324 1.128-.468l-.42-.96a7.942 7.942 0 01-1.056.54 32.686 32.686 0 01-4.56 1.464v-2.712a7.968 7.968 0 01.06-.972h-1.116a5.226 5.226 0 01.072.972v6.6c0 .972.516 1.392 1.44 1.56a12.61 12.61 0 001.92.12 33.552 33.552 0 004.152-.252v-1.092a19.64 19.64 0 01-4.1.384 11.4 11.4 0 01-1.584-.1c-.588-.12-.84-.276-.84-.888zm6.132-5.28a12.615 12.615 0 011 1.656l.648-.3a17.17 17.17 0 00-1.008-1.632zm3.68 8.892c.408-.024.828-.06 1.26-.06h7.188c.324 0 .732.024 1.092.06v-1.152a8.214 8.214 0 01-1.092.06h-7.184a14.3 14.3 0 01-1.26-.06zm1.032-6.012q.558-.036 1.188-.036h5.14c.4 0 .852.012 1.188.036v-1.08a11.528 11.528 0 01-1.188.06h-5.148c-.384 0-.792-.024-1.176-.06zm14.016-2.712a13.964 13.964 0 01-.3 2.58c-.72.06-1.416.12-1.812.132a10.333 10.333 0 01-1.056 0l.1 1.044c.312-.048.792-.108 1.068-.144.312-.036.888-.1 1.5-.156a18.618 18.618 0 01-2.5 5.892l.984.4a23.843 23.843 0 002.5-6.384c.516-.048.984-.084 1.272-.084.756 0 1.248.192 1.248 1.272a10.214 10.214 0 01-.552 3.636 1 1 0 01-1.044.612 5.849 5.849 0 01-1.452-.264l.156 1.008a7.106 7.106 0 001.392.18 1.672 1.672 0 001.74-1 11.421 11.421 0 00.7-4.284c0-1.608-.876-2.016-1.932-2.016-.288 0-.78.036-1.332.072.132-.636.24-1.332.3-1.68.048-.228.1-.48.144-.7zm4.32 1.764a14.287 14.287 0 012.124 4.308l.936-.444a20.872 20.872 0 00-2.172-4.248zm7.32-.78c.912.252 3.492.78 4.62.936l.228-.936a31.773 31.773 0 01-4.6-.912zm-.012 1.248l-1.02-.132a42.036 42.036 0 01-.6 4.824l.9.216a2.482 2.482 0 01.36-.6 4.616 4.616 0 013.672-1.572c1.212 0 2.088.66 2.088 1.608 0 1.62-1.836 2.7-5.58 2.244l.288.984c4.416.372 6.3-1.068 6.3-3.2 0-1.392-1.212-2.484-3.036-2.484a5.625 5.625 0 00-3.84 1.428c.112-.772.316-2.504.472-3.316zm15.192 4.032h-2.088v-1.788h2.088zm2.3-1.788v-.456a7.634 7.634 0 001.716 1.044 4.128 4.128 0 01.612-.744 7.8 7.8 0 01-2.244-1.392 17.8 17.8 0 001.884-1.56l-.672-.468a15.634 15.634 0 01-1.7 1.548 8.146 8.146 0 01-.78-.924 18.574 18.574 0 001.752-1.512l-.672-.48a14.031 14.031 0 01-1.476 1.416 8.784 8.784 0 01-.756-1.5l-.768.228a10.341 10.341 0 002.676 3.972h-5.64a8.373 8.373 0 002.5-3.48l-.588-.288-.156.036h-3.42v.792h2.976a8.406 8.406 0 01-1.112 1.584 16.686 16.686 0 00-1.452-1.176l-.552.468a12.72 12.72 0 011.44 1.26 8.3 8.3 0 01-2.436 1.56 4.827 4.827 0 01.552.672 9.833 9.833 0 001.788-1.056v.456h1.26v1.788h-2.76v.828h2.66c-.216 1-.9 1.944-2.9 2.616a3.482 3.482 0 01.564.708c2.352-.816 3.06-2.04 3.252-3.324h2.16v1.92c0 .984.264 1.248 1.272 1.248h1.572c.876 0 1.128-.42 1.212-1.944a2.458 2.458 0 01-.8-.372c-.048 1.284-.108 1.524-.48 1.524h-1.368c-.408 0-.48-.072-.48-.444v-1.932h2.844v-.828H654.5v-1.788zm12.156-5.076a11.888 11.888 0 01-1.116 2.016l.732.264c.4-.5.876-1.3 1.3-1.98zm1.92 5.544v-.8H666.5a2.926 2.926 0 00.012-.324v-1.348h3.072v-.792h-5.164l.72-.324a6.664 6.664 0 00-1.092-1.912l-.756.3a6.628 6.628 0 011.032 1.932h-1.5v.792h2.808v1.336a3.26 3.26 0 01-.012.336h-3.18v.8h3.084c-.216 1.032-.912 2.172-2.988 3.012a4.225 4.225 0 01.588.66 5.252 5.252 0 003.132-3.036 4.952 4.952 0 003.156 3.084 3.046 3.046 0 01.564-.744 4.385 4.385 0 01-3.132-2.976zm-7.844-3.4a8.884 8.884 0 00-2.088-1.848l-.66.54a8.28 8.28 0 012.04 1.9zm-.336 2.556h-2.544v.84h1.668v3.036a20.038 20.038 0 01-1.824 1.368l.48.9a63.437 63.437 0 001.812-1.536 4.276 4.276 0 003.4 1.416c1.32.048 3.78.024 5.088-.024a4.06 4.06 0 01.288-.912c-1.4.1-4.068.132-5.376.084a3.493 3.493 0 01-2.988-1.344zm20.52-3.18a15.779 15.779 0 00-1.008-1.632l-.636.264a13.455 13.455 0 011 1.656zm-1.344.492a17.083 17.083 0 00-1-1.644l-.636.264a14.691 14.691 0 01.972 1.668zm-6.36-1.368a13.007 13.007 0 01-.3 2.58c-.72.06-1.4.12-1.8.132s-.684.012-1.056 0l.1 1.044c.3-.06.78-.108 1.068-.144.312-.036.876-.1 1.5-.156a18.84 18.84 0 01-2.5 5.88l.972.4a23.875 23.875 0 002.5-6.372c.516-.048.984-.084 1.272-.084.768 0 1.26.192 1.26 1.272a9.864 9.864 0 01-.564 3.624.993.993 0 01-1.032.612 5.416 5.416 0 01-1.464-.264l.156 1.02a7.257 7.257 0 001.4.168 1.68 1.68 0 001.74-.984 11.429 11.429 0 00.684-4.284c0-1.608-.864-2.028-1.932-2.028-.288 0-.78.036-1.332.084.132-.636.24-1.332.312-1.68.036-.24.1-.48.144-.708zm4.332 1.872a14.381 14.381 0 012.124 4.272l.924-.456a20.1 20.1 0 00-2.172-4.224zm12.468 1.3l-.612.264a11.14 11.14 0 01.984 1.692l.612-.288a14.243 14.243 0 00-.98-1.668zm1.308-.5l-.6.276a10.688 10.688 0 011.02 1.668l.624-.288a18.126 18.126 0 00-1.04-1.66zm-9.088-1.172l.108 1.056c1.284-.264 4.524-.576 5.568-.7a4.8 4.8 0 00-2.208 4.008c0 2.652 2.508 3.828 4.7 3.924l.348-1.008c-1.932-.072-4.092-.8-4.092-3.12a4.155 4.155 0 012.712-3.756 9.847 9.847 0 012.328-.192v-.96c-.792.036-1.908.1-3.2.2-2.184.192-4.428.408-5.208.48-.232.036-.604.06-1.056.068zm13.536 4.68a5.366 5.366 0 00-.276 1.488c0 1.488 1.248 2.22 3.372 2.22a18.406 18.406 0 002.868-.228l.024-.972a14.272 14.272 0 01-2.928.276c-1.692 0-2.412-.576-2.412-1.488a4.065 4.065 0 01.276-1.212zm7.572-3.252a12.393 12.393 0 01-2.2.588c-.2-.444-.372-.816-.468-1.068l-.216-.492a16.415 16.415 0 002.208-.5l-.168-.852a13.376 13.376 0 01-2.364.564 12.207 12.207 0 01-.444-1.32l-1.08.228a8.569 8.569 0 01.444.84c.048.108.1.228.156.36a21.608 21.608 0 01-3.888-.1l.06.876a24.367 24.367 0 004.176.024c.084.192.168.408.264.612l.42.972a23.723 23.723 0 01-4.992.024l.036.876a28.568 28.568 0 005.316-.108c.276.624.552 1.248.78 1.716-.372-.036-.936-.1-1.512-.168l-.084.732c.756.1 1.716.228 2.316.336l.468-.588a41.682 41.682 0 01-1.068-2.184 15.829 15.829 0 002.016-.5zm7.908 5.076c0 .816-.576 1.02-1.26 1.02-1.176 0-1.644-.408-1.644-.96s.612-.972 1.74-.972a6.049 6.049 0 011.152.108c-.004.328.008.6.008.808zm4.332.408a9.755 9.755 0 00-3.456-1.848c-.024-.564-.06-1.188-.084-1.8a37.833 37.833 0 003.3-.276l-.012-.9a32.057 32.057 0 01-3.3.312v-1.7a62.486 62.486 0 003.072-.252l-.012-.876a26.424 26.424 0 01-3.048.288c0-.288 0-.516.012-.66a6.115 6.115 0 01.06-.792h-1.02a6.651 6.651 0 01.036.708v.784h-.612a18.944 18.944 0 01-2.784-.228v.888c.708.084 1.968.18 2.8.18h.588v1.7h-.636a21.141 21.141 0 01-2.988-.228v.912c.852.1 2.172.168 2.988.168h.66c.012.492.036 1.056.06 1.584a6.709 6.709 0 00-1-.072c-1.716 0-2.76.732-2.76 1.812 0 1.152.948 1.764 2.652 1.764 1.548 0 2.1-.852 2.1-1.668 0-.18-.012-.444-.024-.744a8.826 8.826 0 012.868 1.788zm7.416-1.824a1.143 1.143 0 01-1.212-1.176 1.207 1.207 0 011.2-1.248 1.055 1.055 0 011.056.732c.104 1.132-.352 1.696-1.048 1.696zm1.836-4.3c1.74 0 2.82.024 3.492.06l.012-.9c-.576 0-2.04-.012-3.48-.012h-.18c0-.312.012-.588.012-.768l.06-.744h-1.096c.024.144.06.492.072.744.012.168.024.444.024.78-1.764.024-4 .1-5.316.12l.024.936c1.488-.108 3.5-.192 5.3-.2.012.408.012.828.012 1.176a2.383 2.383 0 00-.792-.132 2.089 2.089 0 00-2.1 2.076 1.914 1.914 0 001.968 1.992 1.707 1.707 0 001.02-.3 4.243 4.243 0 01-3.156 2.064l.828.8c2.76-.828 3.54-2.616 3.54-4.224a2.9 2.9 0 00-.384-1.524 92.21 92.21 0 01-.024-1.944zm5.532 4.176a1.83 1.83 0 101.836 1.824 1.831 1.831 0 00-1.84-1.816zm0 3.048a1.218 1.218 0 111.208-1.212 1.2 1.2 0 01-1.212 1.22z" fill="#352e64"/><g data-name="パス 586" fill="none"><path d="M611.78 4456.918c2.579-2.642 2.992-2.626 6.152-5.566 1.979-1.918 3.836-4.243 7.526-5.433 4.374-1.411 9.044-.9 13.039-.916 4.627-.017 8.287-.389 8.976 0a4.063 4.063 0 012.584 3.666c.252 2.35-2.589 4.567-2.589 4.567h1.489s11.176-6.43 13.291-7.7 3.644-1.367 5.415.515.565 5.265-1.694 6.41c-1.8 1.489-6.346 4.544-12.052 8.673-3.348 2.423-6.478 5.33-10.66 6.763-.4.454-5.3.088-10.038-1.224-5.2-.948-8.96-1.581-8.96-1.581s-3.806 3-6.993 5.935c-2.253 2.073-4.2 4.352-5.255 3.565-.494-.671-.418.3-.527-5.806.265-10.297-.318-10.198.296-11.868z"/><path d="M664.915 4446.602h-.002c-.37 0-.92.217-1.63.645-2.108 1.268-12.868 7.46-13.325 7.723l-.463.266h-12.377v-4h9.598c.713-.703 1.427-1.705 1.357-2.354-.103-.962-.357-1.259-.44-1.356-.197-.23-.526-.431-.947-.67a9.116 9.116 0 00-.872-.03c-.679 0-1.564.031-2.59.067-1.391.048-2.968.103-4.72.11h-.178a107 107 0 01-2.47-.038c-.85-.02-1.73-.04-2.603-.04-2.048 0-4.715.102-7.181.897-2.67.861-4.202 2.409-5.825 4.047-.3.303-.61.616-.923.92l-.03.027a72.095 72.095 0 01-3.045 2.69c-.88.74-1.535 1.291-2.711 2.477-.062.285-.06.661-.031 1.845.038 1.53.101 4.087-.025 8.967a1411.176 1411.176 0 01.052 3.007c.39-.354.794-.744 1.127-1.064.4-.385.815-.784 1.25-1.183 3.205-2.95 6.95-5.908 7.107-6.032l.697-.55.874.148c.038.006 3.83.645 8.987 1.585l.088.016.087.024c3.173.878 6.566 1.337 8.278 1.337.172 0 .296-.005.382-.01l.197-.068c2.944-1.008 5.341-2.846 7.88-4.793.733-.563 1.493-1.145 2.26-1.701a626.541 626.541 0 016.33-4.509c2.578-1.818 4.614-3.254 5.622-4.086l.171-.141.198-.1c.687-.348 1.268-1.173 1.414-2.006.065-.37.07-.886-.272-1.25-.766-.814-1.15-.817-1.296-.817m-.002-2c.933 0 1.809.442 2.754 1.446 1.772 1.883.566 5.266-1.694 6.41-1.804 1.49-6.346 4.544-12.052 8.673-3.352 2.426-6.482 5.334-10.666 6.766-.404.454-5.298.088-10.038-1.223a756.664 756.664 0 00-8.96-1.581s-3.806 3.002-6.993 5.934c-2.253 2.073-4.196 4.352-5.255 3.565-.495-.671-.418.299-.527-5.805.267-10.298-.316-10.199.298-11.869 2.58-2.642 2.992-2.626 6.152-5.566 1.98-1.918 3.836-4.243 7.526-5.433 4.312-1.391 8.911-.916 12.868-.916h.17c4.627-.017 8.287-.39 8.976 0 1.277.72 2.337 1.316 2.59 3.666.252 2.35-2.59 4.567-2.59 4.567h-10.354 11.842s11.176-6.43 13.292-7.703c.986-.593 1.845-.93 2.66-.93z" fill="red"/></g><g data-name="パス 587" fill="red"><path d="M640 4437.47c-3.13-2.167-5.724-4.345-7.715-6.48-1.863-1.999-3.203-3.961-3.983-5.834-1.438-3.452-.67-5.782.229-7.129 1.227-1.841 3.46-2.985 5.827-2.985 1.966 0 3.695.788 4.869 2.22l.773.942.773-.942c1.174-1.432 2.903-2.22 4.868-2.22 2.367 0 4.6 1.144 5.828 2.985.898 1.347 1.667 3.677.229 7.13-.78 1.872-2.12 3.834-3.983 5.833-1.991 2.135-4.585 4.313-7.715 6.48z"/><path d="M640 4436.25c6.99-4.947 9.72-8.947 10.775-11.478 1.003-2.41.956-4.55-.138-6.19-1.044-1.567-2.959-2.54-4.996-2.54-1.66 0-3.114.658-4.095 1.854L640 4419.78l-1.547-1.885c-.98-1.196-2.434-1.854-4.095-1.854-2.037 0-3.95.973-4.995 2.54-1.094 1.64-1.142 3.78-.138 6.19 1.839 4.415 6.66 8.561 10.775 11.477m0 2.434c-7.256-4.92-11.061-9.396-12.622-13.142-4.18-10.039 7.761-14.84 12.622-8.914 4.86-5.926 16.802-1.125 12.621 8.914-1.56 3.746-5.366 8.222-12.621 13.142z"/></g></g></svg>