<svg xmlns="http://www.w3.org/2000/svg" width="286" height="212"><g data-name="グループ 942" transform="translate(-156 -3021)"><rect data-name="長方形 547" width="286" height="212" rx="15" transform="translate(156 3021)" fill="#fff"/><path data-name="パス 607" d="M239.381 3179.958h7.565v-2.023h-2.363v-10.557h-1.853a8.16 8.16 0 01-2.924 1.054v1.547h2.278v7.956h-2.7zm13.634.238c2.55 0 4.25-2.244 4.25-6.579s-1.7-6.477-4.25-6.477c-2.567 0-4.267 2.125-4.267 6.477 0 4.335 1.7 6.579 4.267 6.579zm0-1.955c-1.088 0-1.9-1.088-1.9-4.624 0-3.519.816-4.539 1.9-4.539 1.071 0 1.887 1.02 1.887 4.539-.002 3.536-.816 4.624-1.887 4.624zm21.607-5.1a18.172 18.172 0 00-1.734-4.845l-1.734.578a17.949 17.949 0 011.6 4.913zm-3.893-7.565h-2.023v8.7c0 .187-.085.255-.272.255-.221 0-.85 0-1.445-.017a7.122 7.122 0 01.629 1.989 4.741 4.741 0 002.363-.391c.578-.34.748-.884.748-1.819zm-4.556 2.907a11.129 11.129 0 01-1.717 4.9 13.916 13.916 0 011.734.952 15.713 15.713 0 001.921-5.525zm-.85 6.443c-.323-.374-1.717-1.853-2.176-2.227v-.493h1.819v-1.887h-1.819v-2.4a17.726 17.726 0 002.023-.646l-1.343-1.547a24.3 24.3 0 01-5.27 1.411 7.007 7.007 0 01.561 1.547c.663-.085 1.36-.2 2.074-.34v1.972h-2.431v1.887h2.159a16.613 16.613 0 01-2.52 4.555 10.035 10.035 0 01.935 1.921 15.107 15.107 0 001.853-3.366v6.1h1.955v-6.63a14.9 14.9 0 011.02 1.717zm6.494-.968c-1.054 3.4-3.317 4.912-7.225 5.592a6 6 0 011.088 1.887c4.386-1.071 6.885-2.941 8.109-7zm15.776-2.84l-1.258.527a13.117 13.117 0 011.326 2.363l1.292-.578a22.28 22.28 0 00-1.36-2.312zm1.9-.782l-1.241.578a14.955 14.955 0 011.398 2.295l1.275-.612a25.429 25.429 0 00-1.425-2.261zm-13.243-2.006l.221 2.312c1.955-.425 5.491-.8 6.953-.952a6.676 6.676 0 00-2.482 5.185c0 3.655 3.332 5.559 6.868 5.78l.782-2.329c-2.856-.136-5.44-1.139-5.44-3.91a5.11 5.11 0 013.553-4.709 17.385 17.385 0 013.247-.221l-.017-2.176c-1.19.051-3.026.153-4.76.289-3.077.272-5.865.527-7.276.646-.319.034-.965.068-1.645.085zm21.777-.68v.867h-2.665v-.867zm-2.665 3.108v-.935h2.669v.935zm4.573 1.465v-6.018h-6.545v15.232h1.972v-9.214zm-.272 3.74v-1.275h1.581v1.275zm5.219 1.649v-1.649h-1.87v-1.275h1.6v-1.6H296.4v1.6h1.547v1.275h-1.786v1.649h1.717a3.983 3.983 0 01-1.734 2.652 7.651 7.651 0 011.292 1.156 5.537 5.537 0 002.176-3.808h1.632v3.5h1.768v-3.5zm-1.9-6.817v-.969h2.75v.969zm2.754-3.145v.867h-2.758v-.867zm1.989-1.445h-6.668v6.053h4.675v6.8c0 .238-.085.34-.357.34-.255.017-1.088.017-1.853-.017a7.188 7.188 0 01.612 2.006 6.043 6.043 0 002.788-.391c.612-.323.8-.884.8-1.921zm7.854-.119h-5.138v1.53h5.134zm.646 2.278h-6.651v1.594h6.647zm-.616 4.694h-5.236v1.513h5.236zm6.491 1.613a8.061 8.061 0 01-1.6 2.295 8.376 8.376 0 01-1.649-2.295zm-8.259 4.287h-1.8V3177h1.8zm9.537-6.188l-.34.085h-5.984a5.381 5.381 0 002.108-4.743v-.289h1.9v2.057c0 1.683.391 2.21 1.751 2.21h.987c1.139 0 1.581-.595 1.751-2.7a5.768 5.768 0 01-1.649-.714c-.017 1.479-.085 1.7-.306 1.7h-.425c-.187 0-.221-.051-.221-.527v-3.808h-5.692v2.017a3.82 3.82 0 01-1.649 3.485v-.816h-5.236v1.547h5.236v-.646a9.013 9.013 0 011.411 1.224h-.578v1.819h2.363l-1.734.561a11.823 11.823 0 001.955 2.941 11.144 11.144 0 01-3.434 1.462v-4.233h-5.27v5.8h1.717v-.666h3.553v-.867a8.559 8.559 0 011.054 1.751 13.731 13.731 0 003.893-1.853 11.848 11.848 0 003.74 1.853 8.711 8.711 0 011.309-1.751 11.608 11.608 0 01-3.5-1.462 11.471 11.471 0 002.612-4.949zm10.268-.2v2.72h-3.23v-2.72zm2.006 4.658v-6.586h-7.208v7.871h1.972v-1.292zm6.548-10.53h-15.32v2.04h11.237v10.1c0 .357-.153.476-.544.476-.408 0-1.887.017-3.094-.051a9.169 9.169 0 01.833 2.142 11.48 11.48 0 003.842-.374c.8-.34 1.088-.935 1.088-2.159v-10.134h1.958zm14.94 6.494c1.564 0 2.091-.629 2.312-2.805a5.588 5.588 0 01-1.785-.748c-.068 1.479-.187 1.734-.731 1.734h-1.853c-.646 0-.748-.068-.748-.68v-1a31.192 31.192 0 004.352-1.6l-1.287-1.463a26.486 26.486 0 01-3.06 1.411v-2.431h-2.011v5.117c0 1.87.476 2.465 2.465 2.465zm-10.693 3.519v-1H349v1zm2.553-3.383v.884h-2.55v-.884zm1.986-1.67h-6.409v9.762h1.87v-3.213H349v1.139c0 .2-.068.255-.272.255a14.124 14.124 0 01-1.5 0 7.48 7.48 0 01.646 1.785 5.039 5.039 0 002.38-.34c.561-.289.731-.782.731-1.666zm-2.55-4.335c.272.442.544.918.8 1.394l-2.261.1c.425-.9.884-1.921 1.275-2.907l-2.108-.425a26.856 26.856 0 01-1.242 3.423c-.476.017-.918.034-1.326.034l.17 1.921c1.734-.1 4.046-.238 6.29-.391a6.279 6.279 0 01.306.9l1.853-.748a16.626 16.626 0 00-2.057-3.944zm6.664 12.227c-.663 0-.782-.085-.782-.68v-1.36a25.773 25.773 0 004.539-1.8l-1.343-1.481a19.254 19.254 0 01-3.2 1.6v-2.297h-1.985v5.338c0 1.87.493 2.448 2.482 2.448h2.414c1.632 0 2.142-.663 2.363-3.06a6.294 6.294 0 01-1.768-.748c-.085 1.717-.2 2.04-.782 2.04z" fill="#352e64"/><g data-name="グループ 840"><g data-name="グループ 549"><g data-name="グループ 548" fill="none" stroke="red" stroke-linecap="round" stroke-linejoin="round" stroke-width="2"><path data-name="パス 344" d="M281.788 3112.05v6.115a6.622 6.622 0 006.654 6.588h22.832a6.622 6.622 0 006.654-6.588v-47.535a6.617 6.617 0 00-6.654-6.588h-22.836a6.622 6.622 0 00-6.654 6.588v6.784"/><path data-name="線 120" d="M302.597 3117.559h-5.476"/><path data-name="線 121" d="M300.678 3068.95h-1.637"/></g></g></g><g data-name="グループ 841" stroke="red" stroke-linecap="round" stroke-width="2"><path data-name="パス 568" d="M280.191 3080.19a14.413 14.413 0 1015.71 14.355 16.692 16.692 0 00-1.121-5.483" fill="none" stroke-miterlimit="10"/><path data-name="パス 569" d="M293.044 3086.172c-2.3-3.685-5.462-5.818-9.812-5.972q-.217-.007-.435-.008" fill="none" stroke-miterlimit="10"/><path data-name="パス 572" d="M293.933 3083.737l-3.8 2.2 3.224.946z" fill="red" stroke-linejoin="round"/><path data-name="線 187" fill="none" stroke-miterlimit="10" d="M274.534 3082.28l.916 1.458"/><path data-name="線 188" fill="none" stroke-miterlimit="10" d="M269.354 3087.296l1.491.861"/><path data-name="線 189" fill="none" stroke-miterlimit="10" d="M267.409 3094.437h1.722"/><path data-name="線 190" fill="none" stroke-miterlimit="10" d="M288.464 3106.595l-.916-1.458"/><path data-name="線 191" fill="none" stroke-miterlimit="10" d="M293.645 3101.578l-1.491-.861"/><path data-name="線 192" fill="none" stroke-miterlimit="10" d="M295.59 3094.437h-1.722"/><path data-name="線 193" fill="none" stroke-miterlimit="10" d="M281.86 3108.416l.064-1.721"/><path data-name="線 194" fill="none" stroke-miterlimit="10" d="M274.865 3106.661l.861-1.491"/><path data-name="線 195" fill="none" stroke-miterlimit="10" d="M269.611 3101.449l1.491-.861"/></g><text data-name="10s" transform="translate(281 3098.958)" fill="#352e64" font-size="12" font-family="Futura-Medium, Futura" font-weight="500"><tspan x="-9.48" y="0">10s</tspan></text></g></svg>