<svg xmlns="http://www.w3.org/2000/svg" width="300" height="50.984"><g data-name="グループ 793" fill="red"><path data-name="パス 110" d="M0 46.299V4.874A4.485 4.485 0 014.3.191h13.086c7.738 0 14.041 6.868 14.041 15.3s-6.3 15.3-14.041 15.3H8.599V46.3a4.315 4.315 0 11-8.6 0zm8.6-24.875h8.787a5.7 5.7 0 005.444-5.933 5.638 5.638 0 00-5.444-5.933H8.6z"/><path data-name="パス 111" d="M44.255 43.786a26.721 26.721 0 010-35.149 21.391 21.391 0 0132.19 0 25.9 25.9 0 016.686 17.521c0 13.769-10.22 24.824-22.734 24.824a21.655 21.655 0 01-16.142-7.196zm2-17.627a16.039 16.039 0 004.108 10.952 13.42 13.42 0 0010.029 4.485c7.832 0 14.137-6.882 14.137-15.437a15.967 15.967 0 00-4.107-10.846 13.255 13.255 0 00-20.06 0 15.961 15.961 0 00-4.102 10.846z"/><path data-name="パス 112" d="M130.516 9.364a4.484 4.484 0 01-4.3-4.683 4.55 4.55 0 014.3-4.682h30.663a4.551 4.551 0 014.3 4.682 4.484 4.484 0 01-4.3 4.683h-10.986v36.937a4.548 4.548 0 01-4.3 4.683 4.485 4.485 0 01-4.3-4.683V9.364z"/><path data-name="パス 113" d="M175.983 43.786a26.723 26.723 0 010-35.149 21.391 21.391 0 0132.19 0 25.9 25.9 0 016.686 17.521c0 13.769-10.22 24.824-22.734 24.824a21.657 21.657 0 01-16.142-7.196zm2-17.627a16.039 16.039 0 004.108 10.952 13.419 13.419 0 0010.029 4.485c7.832 0 14.137-6.882 14.137-15.437a15.967 15.967 0 00-4.107-10.846 13.254 13.254 0 00-20.059 0 15.961 15.961 0 00-4.103 10.846z"/><path data-name="パス 114" d="M225.873 46.406V19.56c0-10.715 8.12-19.56 17.958-19.56 9.934.1 17.958 8.845 17.958 19.56v26.741a4.314 4.314 0 11-8.6 0V19.56c0-5.618-4.2-10.091-9.361-10.2-5.159 0-9.361 4.578-9.361 10.2v26.741a4.311 4.311 0 11-8.6.1z"/><path data-name="パス 115" d="M270.771 46.589v-12.7a14.615 14.615 0 0129.229 0v12.7a4.343 4.343 0 01-4.3 4.3 4.282 4.282 0 01-4.3-4.3v-12.7a6.033 6.033 0 00-6.018-5.922 5.971 5.971 0 00-6.017 5.922v12.7a4.3 4.3 0 11-8.6 0z"/><path data-name="パス 117" d="M105.989 50.984a19.5 19.5 0 01-6.123-.988 15.074 15.074 0 01-5.187-2.93 13.111 13.111 0 01-1.466-1.527 5.183 5.183 0 01-.418-.5 5.409 5.409 0 01-1.023-3.209c0-2.606 1.7-4.745 3.874-4.868l.232-.029c-.006.014.069.024.146.029.846.046 1.2.371 2.136 1.236.347.321.74.681 1.218 1.08a12.349 12.349 0 003.056 2.014 11.784 11.784 0 003.594.616h.262a10.359 10.359 0 003.373-.544 7.571 7.571 0 002.963-1.821 5.157 5.157 0 001.431-3.714 5.325 5.325 0 00-.923-3.178 5.386 5.386 0 00-2.205-1.763 10.14 10.14 0 00-2.833-.756q-1.471-.187-3.093-.338a26.279 26.279 0 01-6.153-1.213 12.5 12.5 0 01-4.489-2.575 11.128 11.128 0 01-2.806-4.206 18.719 18.719 0 01-1.083-6.522 15.966 15.966 0 011.182-6.671 13.721 13.721 0 013.349-4.741A14.309 14.309 0 0199.912.982a17.421 17.421 0 0111.533 0 14.38 14.38 0 014.908 2.884 12.881 12.881 0 011.068 1.092 4.959 4.959 0 011.014 1.328 5.415 5.415 0 01.609 2.511 4.514 4.514 0 01-4.031 4.788c-1.815 0-3.189-2.026-3.2-2.047a6.415 6.415 0 00-2.74-2.121 8.792 8.792 0 00-6.477.04 7.161 7.161 0 00-2.75 1.98 6.814 6.814 0 00-.75 6.985 5.245 5.245 0 001.97 1.991 9.124 9.124 0 002.528.977c.851.2 1.805.383 2.83.537 2.128.3 4.212.656 6.21 1.069a14.482 14.482 0 015.046 2.033 9.913 9.913 0 013.362 3.888 15.823 15.823 0 011.258 6.986 13.964 13.964 0 01-4.962 11.114 16.255 16.255 0 01-5.244 2.944 18.832 18.832 0 01-6.105 1.023z"/></g></svg>