<svg xmlns="http://www.w3.org/2000/svg" width="254" height="254"><g data-name="グループ 938" transform="translate(-513 -1432)"><circle data-name="楕円形 122" cx="127" cy="127" r="127" transform="translate(513 1432)" fill="#fdf7f7"/><g data-name="グループ 804"><g data-name="グループ 803"><g data-name="グループ 547" fill="none" stroke="red" stroke-linecap="round" stroke-linejoin="round" stroke-width="5"><path data-name="線 118" d="M627.24 1558.37l.004 32.121"/><path data-name="パス 341" d="M656.409 1543.742v33.148l-29.17 13.408-.417.192-28.742-13.194v-33.553"/><path data-name="パス 342" d="M598.075 1543.746l29.165 14.625 29.167-14.624"/><path data-name="パス 343" d="M598.075 1543.747l29.165-16.238 29.172 16.238"/><path data-name="線 119" d="M641.527 1535.46l-29.227 15.421"/></g><g data-name="グループ 549"><g data-name="グループ 548" fill="none" stroke="red" stroke-linecap="round" stroke-linejoin="round" stroke-width="5"><path data-name="パス 344" d="M610.139 1594.218v12.2a13.211 13.211 0 0013.276 13.143h45.551a13.21 13.21 0 0013.276-13.143v-94.835a13.2 13.2 0 00-13.276-13.143h-45.551a13.211 13.211 0 00-13.276 13.143v13.535"/><path data-name="線 120" d="M651.655 1605.209H640.73"/><path data-name="線 121" d="M647.827 1508.23h-3.267"/></g></g></g><path data-name="線 184" fill="none" stroke="red" stroke-linecap="round" stroke-width="5" d="M575.758 1553.9h24.23"/><path data-name="線 185" fill="none" stroke="red" stroke-linecap="round" stroke-width="5" d="M593.611 1560.914h13.39"/><path data-name="線 186" fill="none" stroke="red" stroke-linecap="round" stroke-width="5" d="M584.661 1568.933h17.026"/></g><g data-name="グループ 917"><g data-name="グループ 803"><g data-name="グループ 547" fill="none" stroke="red" stroke-linecap="round" stroke-linejoin="round" stroke-width="5"><path data-name="線 118" d="M627.239 1558.37l.004 32.121"/><path data-name="パス 341" d="M656.408 1543.742v33.148l-29.17 13.408-.417.192-28.742-13.194v-33.553"/><path data-name="パス 343" d="M598.074 1543.747l29.165-16.238 29.172 16.238"/><path data-name="線 119" d="M641.526 1535.46l-29.227 15.421"/></g><g data-name="グループ 549"><g data-name="グループ 548" fill="none" stroke="red" stroke-linecap="round" stroke-linejoin="round" stroke-width="5"><path data-name="パス 344" d="M610.138 1594.218v12.2a13.211 13.211 0 0013.276 13.143h45.551a13.21 13.21 0 0013.276-13.143v-94.835a13.2 13.2 0 00-13.276-13.143h-45.551a13.211 13.211 0 00-13.276 13.143v13.535"/><path data-name="線 120" d="M651.654 1605.209h-10.925"/><path data-name="線 121" d="M647.826 1508.23h-3.267"/></g></g></g><path data-name="線 184" fill="none" stroke="red" stroke-linecap="round" stroke-width="5" d="M575.757 1553.9h24.23"/><path data-name="線 185" fill="none" stroke="red" stroke-linecap="round" stroke-width="5" d="M593.61 1560.914H607"/><path data-name="線 186" fill="none" stroke="red" stroke-linecap="round" stroke-width="5" d="M584.66 1568.933h17.026"/></g></g></svg>