<svg xmlns="http://www.w3.org/2000/svg" width="254" height="254"><g data-name="グループ 937" transform="translate(-144 -1432)"><circle data-name="楕円形 124" cx="127" cy="127" r="127" transform="translate(144 1432)" fill="#fdf7f7"/><g data-name="グループ 802"><g data-name="グループ 557"><g data-name="グループ 556"><path data-name="パス 353" d="M224.078 1518.098l15.568 15.522-33.306 33.565-7.391-7.334" fill="none" stroke="red" stroke-linecap="round" stroke-linejoin="round" stroke-width="5"/><g data-name="グループ 553"><path data-name="パス 354" d="M243.503 1594.534l.625.556 2.168 2.163a5.893 5.893 0 01.59 7.832 5.722 5.722 0 01-8.46.449l-10.176-10.008a37.982 37.982 0 01-10.652-20.244l-1.107-6.1-6.109-6.076" fill="none" stroke="red" stroke-linecap="round" stroke-linejoin="round" stroke-width="5"/></g><g data-name="グループ 554"><path data-name="パス 355" d="M245.505 1596.462l9.227 9.162a5.706 5.706 0 108.039-8.1l-.449-.446-2.05-1.971-1.155-1.147" fill="none" stroke="red" stroke-linecap="round" stroke-linejoin="round" stroke-width="5"/></g><g data-name="グループ 555"><path data-name="パス 356" d="M263.266 1598.106l6.463 6.384-.339-.343.9.868a5.727 5.727 0 008.081-.031 5.734 5.734 0 00-.031-8.07l-4.212-4.006" fill="none" stroke="red" stroke-linecap="round" stroke-linejoin="round" stroke-width="5"/></g><path data-name="パス 357" d="M235.814 1537.483l6.943 6.878 5.233-1.574a19.73 19.73 0 0116.621 2.466l23.475 15.632a2.979 2.979 0 01.833 4.09 8.737 8.737 0 01-12.4 2.287l-6.641-4.786a3.514 3.514 0 00-1.744-.668 3.584 3.584 0 00-2.87 6.114l28.564 28.364a5.717 5.717 0 01-.479 8.546 5.866 5.866 0 01-7.718-.611l-6.7-6.582" fill="none" stroke="red" stroke-linecap="round" stroke-linejoin="round" stroke-width="5"/></g></g><g data-name="グループ 560"><g data-name="グループ 558"><path data-name="パス 358" d="M305.846 1603.409H342v-92.69h-91.957v20.555" fill="none" stroke="red" stroke-linecap="round" stroke-linejoin="round" stroke-width="5"/></g><g data-name="グループ 559" fill="none" stroke="red" stroke-linecap="round" stroke-linejoin="round" stroke-width="5"><path data-name="線 125" d="M315.55 1590.094h-2.256"/><path data-name="線 126" d="M328.306 1590.094h-2.256"/></g></g><path data-name="パス 359" d="M308.203 1510.719v23.11l-13.187-7.654-13.187 7.654v-23.11" fill="none" stroke="red" stroke-linecap="round" stroke-linejoin="round" stroke-width="5"/></g></g></svg>