<svg xmlns="http://www.w3.org/2000/svg" width="254" height="254"><g data-name="グループ 939" transform="translate(-882 -1432)"><circle data-name="楕円形 123" cx="127" cy="127" r="127" transform="translate(882 1432)" fill="#fdf7f7"/><g data-name="グループ 805" fill="none" stroke="red" stroke-linecap="round" stroke-linejoin="round" stroke-width="5"><g data-name="グループ 551"><path data-name="パス 345" d="M1042.506 1611.503v-11.229l-7.972-15.351h-48.257l-7.972 16.688v9.892"/><path data-name="線 122" d="M979.642 1601.613h62.863"/><path data-name="パス 346" d="M1018.43 1601.613v14.945l-8.025-3.576-8.025 3.576v-14.945"/><path data-name="線 123" d="M1005.055 1584.924l-2.675 16.688"/><path data-name="線 124" d="M1018.43 1601.612l-2.675-16.688"/></g><path data-name="パス 347" d="M963.055 1593.626l1.546-11.832a11.169 11.169 0 017.777-9.223l15.865-4.9a5.584 5.584 0 015.165 1h0a24.759 24.759 0 0031.184 0h0a5.586 5.586 0 015.165-1l15.864 4.9a11.168 11.168 0 017.777 9.223l1.547 11.832"/><path data-name="パス 348" d="M1029.47 1544.37v.568a16.726 16.726 0 01-9.727 15.191l-6.2 2.858a11.15 11.15 0 01-9.332 0l-6.2-2.858a16.726 16.726 0 01-9.726-15.191v-.568"/><path data-name="パス 349" d="M986.499 1522.96l.789-12.974a11 11 0 016.937-9.564l10.655-4.213a11 11 0 018.09 0l10.655 4.213a11 11 0 016.937 9.564l.789 12.974"/><path data-name="パス 350" d="M1030.421 1522.412l-.263-.226a32.625 32.625 0 00-41.966-.467l-.536.441a5.258 5.258 0 00-1.152 6.8l3.308 5.427h0a31.66 31.66 0 0139.121 0h0l2.783-5.679a5.25 5.25 0 00-1.295-6.296z"/><path data-name="パス 351" d="M983.117 1537.905l-.056.343a5.278 5.278 0 005.209 6.125h.01"/><path data-name="パス 352" d="M1034.628 1537.905l.056.343a5.278 5.278 0 01-5.209 6.125h0"/></g></g></svg>