<svg xmlns="http://www.w3.org/2000/svg" width="286" height="212" viewBox="0 0 286 212">
  <g id="グループ_942" data-name="グループ 942" transform="translate(-156 -3021)">
    <rect id="長方形_547" data-name="長方形 547" width="286" height="212" rx="15" transform="translate(156 3021)" fill="#fff"/>
    <path id="パス_607" data-name="パス 607" d="M-59.619,0h7.565V-2.023h-2.363V-12.58H-56.27a8.16,8.16,0,0,1-2.924,1.054v1.547h2.278v7.956h-2.7Zm13.634.238c2.55,0,4.25-2.244,4.25-6.579s-1.7-6.477-4.25-6.477c-2.567,0-4.267,2.125-4.267,6.477C-50.252-2.006-48.552.238-45.985.238Zm0-1.955c-1.088,0-1.9-1.088-1.9-4.624,0-3.519.816-4.539,1.9-4.539,1.071,0,1.887,1.02,1.887,4.539C-44.1-2.805-44.914-1.717-45.985-1.717Zm21.607-5.1a18.172,18.172,0,0,0-1.734-4.845l-1.734.578a17.949,17.949,0,0,1,1.6,4.913Zm-3.893-7.565h-2.023v8.7c0,.187-.085.255-.272.255-.221,0-.85,0-1.445-.017a7.122,7.122,0,0,1,.629,1.989,4.741,4.741,0,0,0,2.363-.391c.578-.34.748-.884.748-1.819Zm-4.556,2.907a11.129,11.129,0,0,1-1.717,4.9,13.916,13.916,0,0,1,1.734.952,15.713,15.713,0,0,0,1.921-5.525Zm-.85,6.443c-.323-.374-1.717-1.853-2.176-2.227v-.493h1.819V-9.639h-1.819v-2.4a17.726,17.726,0,0,0,2.023-.646l-1.343-1.547a24.3,24.3,0,0,1-5.27,1.411,7.007,7.007,0,0,1,.561,1.547c.663-.085,1.36-.2,2.074-.34v1.972h-2.431v1.887h2.159A16.613,16.613,0,0,1-40.6-3.2a10.035,10.035,0,0,1,.935,1.921,15.107,15.107,0,0,0,1.853-3.366v6.1h1.955v-6.63a14.9,14.9,0,0,1,1.02,1.717ZM-27.183-6C-28.237-2.6-30.5-1.088-34.408-.408A6,6,0,0,1-33.32,1.479c4.386-1.071,6.885-2.941,8.109-7ZM-11.407-8.84l-1.258.527A13.117,13.117,0,0,1-11.339-5.95l1.292-.578A22.28,22.28,0,0,0-11.407-8.84Zm1.9-.782-1.241.578A14.955,14.955,0,0,1-9.35-6.749l1.275-.612A25.429,25.429,0,0,0-9.5-9.622Zm-13.243-2.006.221,2.312c1.955-.425,5.491-.8,6.953-.952a6.676,6.676,0,0,0-2.482,5.185c0,3.655,3.332,5.559,6.868,5.78l.782-2.329c-2.856-.136-5.44-1.139-5.44-3.91a5.11,5.11,0,0,1,3.553-4.709,17.385,17.385,0,0,1,3.247-.221l-.017-2.176c-1.19.051-3.026.153-4.76.289-3.077.272-5.865.527-7.276.646C-21.42-11.679-22.066-11.645-22.746-11.628Zm21.777-.68v.867H-3.638v-.867ZM-3.638-9.2v-.935H-.969V-9.2ZM.935-7.735v-6.018H-5.61V1.479h1.972V-7.735ZM.663-3.995V-5.27H2.244v1.275ZM5.882-2.346V-3.995H4.012V-5.27h1.6v-1.6H-2.6v1.6h1.547v1.275H-2.839v1.649h1.717A3.983,3.983,0,0,1-2.856.306,7.651,7.651,0,0,1-1.564,1.462,5.537,5.537,0,0,0,.612-2.346H2.244v3.5H4.012v-3.5Zm-1.9-6.817v-.969H6.732v.969Zm2.754-3.145v.867H3.978v-.867Zm1.989-1.445H2.057V-7.7H6.732V-.9c0,.238-.085.34-.357.34-.255.017-1.088.017-1.853-.017a7.188,7.188,0,0,1,.612,2.006,6.043,6.043,0,0,0,2.788-.391c.612-.323.8-.884.8-1.921Zm7.854-.119H11.441v1.53h5.134Zm.646,2.278H10.574V-10h6.647ZM16.609-6.9H11.373v1.513h5.236ZM23.1-5.287a8.061,8.061,0,0,1-1.6,2.295,8.376,8.376,0,0,1-1.649-2.295ZM14.841-1h-1.8V-2.958h1.8Zm9.537-6.188-.34.085H18.054a5.381,5.381,0,0,0,2.108-4.743v-.289h1.9v2.057c0,1.683.391,2.21,1.751,2.21H24.8c1.139,0,1.581-.595,1.751-2.7a5.768,5.768,0,0,1-1.649-.714c-.017,1.479-.085,1.7-.306,1.7h-.425c-.187,0-.221-.051-.221-.527v-3.808H18.258V-11.9a3.82,3.82,0,0,1-1.649,3.485v-.816H11.373v1.547h5.236V-8.33A9.013,9.013,0,0,1,18.02-7.106h-.578v1.819h2.363l-1.734.561a11.823,11.823,0,0,0,1.955,2.941A11.144,11.144,0,0,1,16.592-.323V-4.556h-5.27v5.8h1.717V.578h3.553V-.289a8.559,8.559,0,0,1,1.054,1.751A13.731,13.731,0,0,0,21.539-.391a11.848,11.848,0,0,0,3.74,1.853A8.711,8.711,0,0,1,26.588-.289a11.608,11.608,0,0,1-3.5-1.462A11.471,11.471,0,0,0,25.7-6.7Zm10.268-.2v2.72h-3.23v-2.72Zm2.006,4.658V-9.316H29.444v7.871h1.972V-2.737ZM43.2-13.26H27.88v2.04H39.117v10.1c0,.357-.153.476-.544.476-.408,0-1.887.017-3.094-.051a9.169,9.169,0,0,1,.833,2.142,11.48,11.48,0,0,0,3.842-.374c.8-.34,1.088-.935,1.088-2.159V-11.22H43.2ZM58.14-6.766c1.564,0,2.091-.629,2.312-2.805a5.588,5.588,0,0,1-1.785-.748c-.068,1.479-.187,1.734-.731,1.734H56.083c-.646,0-.748-.068-.748-.68v-1a31.192,31.192,0,0,0,4.352-1.6L58.4-13.328a26.486,26.486,0,0,1-3.06,1.411v-2.431H53.329v5.117c0,1.87.476,2.465,2.465,2.465ZM47.447-3.247v-1H50v1ZM50-6.63v.884h-2.55V-6.63ZM51.986-8.3H45.577V1.462h1.87V-1.751H50V-.612c0,.2-.068.255-.272.255a14.124,14.124,0,0,1-1.5,0,7.48,7.48,0,0,1,.646,1.785,5.039,5.039,0,0,0,2.38-.34c.561-.289.731-.782.731-1.666Zm-2.55-4.335c.272.442.544.918.8,1.394l-2.261.1c.425-.9.884-1.921,1.275-2.907l-2.108-.425A26.856,26.856,0,0,1,45.9-11.05c-.476.017-.918.034-1.326.034l.17,1.921c1.734-.1,4.046-.238,6.29-.391a6.279,6.279,0,0,1,.306.9l1.853-.748a16.626,16.626,0,0,0-2.057-3.944ZM56.1-.408c-.663,0-.782-.085-.782-.68v-1.36a25.773,25.773,0,0,0,4.539-1.8L58.514-5.729a19.254,19.254,0,0,1-3.2,1.6V-6.426H53.329v5.338c0,1.87.493,2.448,2.482,2.448h2.414c1.632,0,2.142-.663,2.363-3.06a6.294,6.294,0,0,1-1.768-.748c-.085,1.717-.2,2.04-.782,2.04Z" transform="translate(299 3179.958)" fill="#352e64"/>
    <g id="グループ_840" data-name="グループ 840" transform="translate(275.741 3064.042)">
      <g id="グループ_549" data-name="グループ 549" transform="translate(6.047 0)">
        <g id="グループ_548" data-name="グループ 548" transform="translate(0)">
          <path id="パス_344" data-name="パス 344" d="M1180.25,1147.439v6.115a6.622,6.622,0,0,0,6.654,6.588h22.832a6.622,6.622,0,0,0,6.654-6.588v-47.535a6.617,6.617,0,0,0-6.654-6.588H1186.9a6.622,6.622,0,0,0-6.654,6.588v6.784" transform="translate(-1180.25 -1099.431)" fill="none" stroke="red" stroke-linecap="round" stroke-linejoin="round" stroke-width="2"/>
          <line id="線_120" data-name="線 120" x1="5.476" transform="translate(15.333 53.517)" fill="none" stroke="red" stroke-linecap="round" stroke-linejoin="round" stroke-width="2"/>
          <line id="線_121" data-name="線 121" x1="1.637" transform="translate(17.253 4.908)" fill="none" stroke="red" stroke-linecap="round" stroke-linejoin="round" stroke-width="2"/>
        </g>
      </g>
    </g>
    <g id="グループ_841" data-name="グループ 841" transform="translate(54.925 3032.372)">
      <path id="パス_568" data-name="パス 568" d="M225.47,47.818a14.413,14.413,0,1,0,15.71,14.355,16.692,16.692,0,0,0-1.121-5.483" transform="translate(-0.204 0)" fill="none" stroke="red" stroke-linecap="round" stroke-miterlimit="10" stroke-width="2"/>
      <path id="パス_569" data-name="パス 569" d="M251.208,53.8c-2.3-3.685-5.462-5.818-9.812-5.972q-.217-.007-.435-.008" transform="translate(-13.089 0)" fill="none" stroke="red" stroke-linecap="round" stroke-miterlimit="10" stroke-width="2"/>
      <path id="パス_570" data-name="パス 570" d="M273.823,99.667" transform="translate(-27.89 -23.353)" fill="none" stroke="red" stroke-linecap="round" stroke-miterlimit="10" stroke-width="2"/>
      <path id="パス_571" data-name="パス 571" d="M211.9,73.443" transform="translate(0 -11.542)" fill="none" stroke="red" stroke-linecap="round" stroke-miterlimit="10" stroke-width="2"/>
      <path id="パス_572" data-name="パス 572" d="M259.926,55.855l-3.8,2.2,3.224.946Z" transform="translate(-20.918 -4.49)" fill="red" stroke="red" stroke-linecap="round" stroke-linejoin="round" stroke-width="2"/>
      <line id="線_187" data-name="線 187" x2="0.916" y2="1.458" transform="translate(219.609 49.908)" fill="none" stroke="red" stroke-linecap="round" stroke-miterlimit="10" stroke-width="2"/>
      <line id="線_188" data-name="線 188" x2="1.491" y2="0.861" transform="translate(214.429 54.924)" fill="none" stroke="red" stroke-linecap="round" stroke-miterlimit="10" stroke-width="2"/>
      <line id="線_189" data-name="線 189" x2="1.722" transform="translate(212.484 62.065)" fill="none" stroke="red" stroke-linecap="round" stroke-miterlimit="10" stroke-width="2"/>
      <line id="線_190" data-name="線 190" x1="0.916" y1="1.458" transform="translate(232.623 72.765)" fill="none" stroke="red" stroke-linecap="round" stroke-miterlimit="10" stroke-width="2"/>
      <line id="線_191" data-name="線 191" x1="1.491" y1="0.861" transform="translate(237.229 68.345)" fill="none" stroke="red" stroke-linecap="round" stroke-miterlimit="10" stroke-width="2"/>
      <line id="線_192" data-name="線 192" x1="1.722" transform="translate(238.943 62.065)" fill="none" stroke="red" stroke-linecap="round" stroke-miterlimit="10" stroke-width="2"/>
      <line id="線_193" data-name="線 193" y1="1.721" x2="0.064" transform="translate(226.935 74.323)" fill="none" stroke="red" stroke-linecap="round" stroke-miterlimit="10" stroke-width="2"/>
      <line id="線_194" data-name="線 194" y1="1.491" x2="0.861" transform="translate(219.94 72.798)" fill="none" stroke="red" stroke-linecap="round" stroke-miterlimit="10" stroke-width="2"/>
      <line id="線_195" data-name="線 195" y1="0.861" x2="1.491" transform="translate(214.686 68.216)" fill="none" stroke="red" stroke-linecap="round" stroke-miterlimit="10" stroke-width="2"/>
    </g>
    <text id="_10s" data-name="10s" transform="translate(281 3098.958)" fill="#352e64" font-size="12" font-family="Futura-Medium, Futura" font-weight="500"><tspan x="-9.48" y="0">10s</tspan></text>
  </g>
</svg>
