<svg xmlns="http://www.w3.org/2000/svg" width="286" height="280" viewBox="0 0 286 280">
  <g id="グループ_943" data-name="グループ 943" transform="translate(-156 -4371)">
    <rect id="長方形_602" data-name="長方形 602" width="286" height="280" rx="15" transform="translate(156 4371)" fill="#fff"/>
    <path id="パス_614" data-name="パス 614" d="M-75.769-2.55c.068-.595.153-1.241.221-1.921h2.567c-.068.748-.119,1.394-.187,1.921ZM-77.4-4.471c-.085.68-.17,1.326-.255,1.921h-2.431c.085-.612.187-1.258.289-1.921Zm.357-3.638c-.051.6-.1,1.207-.17,1.819h-2.329c.085-.612.153-1.224.238-1.819Zm1.7,1.819c.068-.612.119-1.224.17-1.819h2.4c-.034.646-.068,1.258-.1,1.819Zm6.732,1.819V-6.29h-2.261c.051-.816.085-1.7.136-2.7,0-.255.017-.884.017-.884H-80.886c.289-.374.578-.765.833-1.156h10.71v-1.8h-9.639c.2-.391.391-.8.578-1.207L-80.58-14.4A12.56,12.56,0,0,1-84.2-9.384a6.037,6.037,0,0,1,1.683,1.275,15.42,15.42,0,0,0,1.36-1.445c-.1,1.037-.238,2.142-.391,3.264h-2.8v1.819h2.533c-.255,1.683-.527,3.264-.782,4.505l2.04.136c.051-.289.119-.612.17-.952h6.9a1.422,1.422,0,0,1-.272.561.69.69,0,0,1-.646.306,18.675,18.675,0,0,1-1.887-.1,3.661,3.661,0,0,1,.476,1.5,13.094,13.094,0,0,0,2.346-.017A1.922,1.922,0,0,0-72,.663a3.976,3.976,0,0,0,.544-1.445h2.4V-2.55h-2.125c.051-.544.119-1.19.17-1.921Zm5.338,2.6V-5.678h7.548V-1.87Zm7.548-9.469v3.655h-7.548v-3.655Zm-9.639-2.04V1.275h2.091V.17h7.548V1.241h2.176v-14.62Zm23.834,8.551h-2.091V-6.749h2.091Zm3.655-1.921v-.544a11.846,11.846,0,0,0,2.091,1.275,7.71,7.71,0,0,1,1.394-1.751,10.432,10.432,0,0,1-2.635-1.547,27.906,27.906,0,0,0,2.244-1.836l-1.479-1.054a16.467,16.467,0,0,1-1.9,1.836c-.272-.289-.527-.578-.765-.884.7-.51,1.479-1.173,2.176-1.8l-1.53-1.088A16.053,16.053,0,0,1-39.8-12.563a11.809,11.809,0,0,1-.85-1.819l-1.819.51a15.553,15.553,0,0,0,3.094,5.2h-6.154a11.652,11.652,0,0,0,2.771-4.522l-1.36-.629-.357.068h-4.437v1.734h3.468a9.51,9.51,0,0,1-1.071,1.53c-.476-.408-1.122-.9-1.632-1.258l-1.275,1.054a18.145,18.145,0,0,1,1.683,1.445A10.518,10.518,0,0,1-50.558-7.5a8.791,8.791,0,0,1,1.224,1.53A13.9,13.9,0,0,0-47.073-7.31v.561h1.428v1.921h-3.638v1.853h3.366c-.425,1.139-1.445,2.193-3.791,2.907a7.705,7.705,0,0,1,1.292,1.615c3.145-1.054,4.267-2.737,4.641-4.522h2.244v1.853c0,1.887.459,2.482,2.295,2.482h1.853c1.5,0,2.023-.68,2.227-2.924a5.034,5.034,0,0,1-1.819-.8c-.068,1.6-.153,1.938-.6,1.938h-1.309c-.476,0-.544-.1-.544-.714V-2.975H-35.8V-4.828h-3.621V-6.749Zm20.077.578V-7.99h-4.607V-9.622h4.046v-1.785h-2.125c.493-.646,1.071-1.5,1.615-2.363l-2.074-.629a16.882,16.882,0,0,1-1.411,2.686l.867.306h-3.791l.9-.391a8.8,8.8,0,0,0-1.479-2.584l-1.717.714a11.2,11.2,0,0,1,1.258,2.261h-1.7v1.785h3.587V-7.99h-4.165v1.819h3.944c-.374,1.224-1.36,2.5-3.944,3.451a6.358,6.358,0,0,1,1.343,1.462A7.974,7.974,0,0,0-23.12-4.726a6.959,6.959,0,0,0,4.1,3.5,7.417,7.417,0,0,1,1.275-1.7,5.94,5.94,0,0,1-4.131-3.247Zm-11.05-5.27a13.613,13.613,0,0,0-2.839-2.567l-1.5,1.224A12.865,12.865,0,0,1-30.447-10.1ZM-29.274-7.8H-33.2V-5.95h1.955v3.587A22.326,22.326,0,0,1-33.575-.8l.986,2.108c.935-.714,1.683-1.377,2.431-2.04,1.105,1.326,2.5,1.8,4.59,1.887,2.023.085,5.44.051,7.48-.051a10.588,10.588,0,0,1,.629-2.04c-2.261.17-6.086.221-8.075.136-1.768-.068-3.043-.527-3.74-1.666ZM-4.42-8.84l-1.258.527A13.117,13.117,0,0,1-4.352-5.95l1.292-.578A22.28,22.28,0,0,0-4.42-8.84Zm1.9-.782-1.241.578A14.955,14.955,0,0,1-2.363-6.749l1.275-.612A25.429,25.429,0,0,0-2.516-9.622Zm-13.243-2.006.221,2.312c1.955-.425,5.491-.8,6.953-.952a6.676,6.676,0,0,0-2.482,5.185C-11.067-1.428-7.735.476-4.2.7l.782-2.329c-2.856-.136-5.44-1.139-5.44-3.91A5.11,5.11,0,0,1-5.3-10.251a17.385,17.385,0,0,1,3.247-.221l-.017-2.176c-1.19.051-3.026.153-4.76.289-3.077.272-5.865.527-7.276.646C-14.433-11.679-15.079-11.645-15.759-11.628ZM2.516-13.277a12.632,12.632,0,0,1-.153,1.649,49.9,49.9,0,0,0-.7,7.021A20.307,20.307,0,0,0,2.329.765l1.9-.136C4.216.391,4.216.1,4.216-.068A3.323,3.323,0,0,1,4.3-.85,40.161,40.161,0,0,1,5.508-4.862L4.471-5.7c-.255.561-.527,1.122-.748,1.717a7.792,7.792,0,0,1-.068-1.088,44.524,44.524,0,0,1,.8-6.511,14.148,14.148,0,0,1,.408-1.5Zm8.5,10.455c0,.986-.357,1.53-1.394,1.53-.884,0-1.564-.306-1.564-.986,0-.629.646-1.02,1.6-1.02a5.248,5.248,0,0,1,1.36.187Zm5.321.68A10.686,10.686,0,0,0,13.09-4.318c-.068-1.139-.153-2.482-.187-4.114.918-.068,1.8-.17,2.618-.289v-2.091c-.8.17-1.683.289-2.6.391,0-.748.034-1.377.051-1.751a10.753,10.753,0,0,1,.1-1.088H10.659a9.526,9.526,0,0,1,.1,1.1c.017.357.017,1.037.034,1.87-.391.017-.8.017-1.19.017a27.915,27.915,0,0,1-2.941-.153v2.006c1,.068,1.955.1,2.941.1.391,0,.8,0,1.207-.017.017,1.19.068,2.414.119,3.451a7.563,7.563,0,0,0-1.1-.068c-2.3,0-3.74,1.173-3.74,2.89C6.086-.289,7.548.7,9.86.7c2.278,0,3.2-1.156,3.3-2.754A17.169,17.169,0,0,1,15.2-.374Zm10.982-10.03a25.709,25.709,0,0,0-2.244-1.938l-1.547,1.088a24.325,24.325,0,0,1,2.193,2.006Zm-8.143.425a13.963,13.963,0,0,1,.986,1.479c.255.442.493.918.748,1.428-.51.221-1.02.442-1.513.629a10.021,10.021,0,0,1-1.666.544l.986,2.159c.714-.323,1.785-.9,2.992-1.5l.442,1.037A50.721,50.721,0,0,1,24.412,1.02L26.741.425c-.578-1.887-1.87-5.491-2.652-7.327l-.476-1.037a13.724,13.724,0,0,1,4.947-1.53c1.275,0,2.006.7,2.006,1.564,0,1.207-.9,1.887-2.193,1.887a6.218,6.218,0,0,1-2.312-.561L26.01-4.471a8.142,8.142,0,0,0,2.584.476c2.584,0,4.2-1.479,4.2-3.842,0-1.955-1.564-3.536-4.182-3.536a15.793,15.793,0,0,0-5.8,1.7c-.255-.561-.527-1.1-.782-1.6-.187-.306-.527-1-.68-1.309Zm25.3-2.21a11.628,11.628,0,0,1-1.292,1.411c-1.139,1.122-3.451,2.992-4.76,4.063-1.683,1.394-1.819,2.329-.153,3.74,1.547,1.309,4.114,3.5,5.032,4.471.476.51,1,1.037,1.479,1.564l1.955-1.8c-1.666-1.615-4.913-4.182-6.171-5.253-.918-.782-.935-.969-.034-1.734,1.122-.969,3.349-2.686,4.437-3.57.391-.306.952-.748,1.479-1.139ZM62.033-.833V-2.21H64.5V-.833ZM57.783-2.21h2.295V-.833H57.783Zm2.295-2.873v1.258H57.783V-5.083Zm4.42,0v1.258H62.033V-5.083ZM64.192-11.8v1.462H55.3V-11.8ZM62.033-6.851V-8.517h4.216v-5.1H53.244v4.981c0,2.669-.119,6.477-1.819,9.061a8.9,8.9,0,0,1,1.8,1.037C54.995-1.258,55.3-5.576,55.3-8.517h4.777v1.666h-4.2V1.462h1.9V.935H64.5v.527h1.989V-6.851Zm16.439-7.106a11.629,11.629,0,0,1-1.292,1.411c-1.139,1.122-3.451,2.992-4.76,4.063-1.683,1.394-1.819,2.329-.153,3.74,1.547,1.309,4.114,3.5,5.032,4.471.476.51,1,1.037,1.479,1.564l1.955-1.8c-1.666-1.615-4.913-4.182-6.171-5.253-.918-.782-.935-.969-.034-1.734,1.122-.969,3.349-2.686,4.437-3.57.391-.306.952-.748,1.479-1.139Z" transform="translate(299 4516.958)" fill="#352e64"/>
    <path id="パス_613" data-name="パス 613" d="M7.124,12.692a9.287,9.287,0,0,1,1.86,1.692l.708-.54a9.8,9.8,0,0,0-1.908-1.632Zm.192-3.936h2.856v.972H7.316Zm0-1.608h2.856V8.12H7.316Zm6.66,0V8.12h-2.94V7.148Zm0,2.58h-2.94V8.756h2.94Zm2.016,1.584H13.28V10.4h1.572V6.5H11.036V5.684h4.68V4.916h-4.68V3.98h-.864v.936H5.6v.768h4.572V6.5h-3.7v3.9h5.94v.912H5.3v.768h7.116v1.872c0,.168-.072.216-.276.228s-.936.012-1.728-.012a3.475,3.475,0,0,1,.3.78,7.934,7.934,0,0,0,2.064-.132c.4-.12.5-.348.5-.84v-1.9h2.712ZM21.2,5.276V6.32H18.656V5.276Zm-2.544,2.88V7H21.2V8.156ZM22.04,4.52H17.78V14.912h.876V8.9H22.04Zm1.968,3.648V7h2.664V8.168Zm2.664-2.892V6.32H24.008V5.276Zm.9-.756H23.156V8.912h3.516v4.776c0,.24-.084.3-.3.312-.252.012-1.068.024-1.884-.024a4.045,4.045,0,0,1,.324.924,8.075,8.075,0,0,0,2.208-.168c.4-.144.552-.432.552-1.044ZM37.28,7.148v-1.5a9.1,9.1,0,0,1,.06-.984H36.26a6.69,6.69,0,0,1,.06.984v1.5H32.9V5.612a7.406,7.406,0,0,1,.06-.876H31.892c.012.12.048.492.048.876V7.148H30.656a8.854,8.854,0,0,1-1.212-.084V8.108c.144-.012.684-.048,1.212-.048H31.94V10c0,.456-.036.972-.048,1.092h1.056c-.012-.12-.048-.648-.048-1.092V8.06h3.42v.5c0,3.36-1.092,4.392-3.276,5.232l.8.756C36.6,13.328,37.28,11.684,37.28,8.48V8.06H38.6c.528,0,.972.024,1.092.036V7.088a8.416,8.416,0,0,1-1.092.06ZM41.864,9.98c.372-.036,1.008-.06,1.668-.06H50.12c.54,0,1.044.048,1.284.06V8.8c-.264.024-.7.06-1.3.06H43.532c-.672,0-1.308-.036-1.668-.06Zm20.5-3.744A16.805,16.805,0,0,0,61.376,4.6l-.636.264a13.713,13.713,0,0,1,.972,1.668ZM55.928,9.668a46,46,0,0,0,4.908-1.56c.36-.132.792-.324,1.128-.468l-.42-.96a7.941,7.941,0,0,1-1.056.54,32.686,32.686,0,0,1-4.56,1.464V5.972A7.969,7.969,0,0,1,55.988,5H54.872a5.226,5.226,0,0,1,.072.972v6.6c0,.972.516,1.392,1.44,1.56a12.61,12.61,0,0,0,1.92.12A33.551,33.551,0,0,0,62.456,14V12.908a19.64,19.64,0,0,1-4.1.384,11.4,11.4,0,0,1-1.584-.1c-.588-.12-.84-.276-.84-.888Zm6.132-5.28a12.615,12.615,0,0,1,1,1.656l.648-.3A17.17,17.17,0,0,0,62.7,4.112ZM73.628,5.5a3.2,3.2,0,0,1-.9.108H68.1c-.36,0-1.044-.06-1.212-.084V6.62c.132-.012.792-.06,1.212-.06h4.68A10.693,10.693,0,0,1,70.784,9.9,13.722,13.722,0,0,1,65.84,13.46l.768.8a15.213,15.213,0,0,0,4.68-3.5,27.707,27.707,0,0,1,3.3,3.564l.84-.732a34.414,34.414,0,0,0-3.5-3.576A15.187,15.187,0,0,0,73.94,6.5a3.442,3.442,0,0,1,.3-.528ZM86.684,6.752A13.381,13.381,0,0,0,85.7,5.1l-.636.276a13.713,13.713,0,0,1,.972,1.668Zm-3.96,2.52a19.089,19.089,0,0,1,2.2-.12,17.2,17.2,0,0,1,2,.132l.024-.912a18.975,18.975,0,0,0-2.052-.1c-.768,0-1.548.048-2.172.1Zm.768-3.12a17.221,17.221,0,0,1-2.268.432l.18-.876c.048-.228.132-.684.216-.936l-1.164-.1a5.57,5.57,0,0,1-.036.972c-.036.24-.1.612-.18,1.044-.456.024-.876.048-1.272.048a10.6,10.6,0,0,1-1.428-.084l.036.936c.42.036.852.048,1.38.048q.5,0,1.08-.036c-.1.432-.192.864-.3,1.26a26.406,26.406,0,0,1-1.992,5.316l1.056.348a35.068,35.068,0,0,0,1.86-5.436c.132-.516.264-1.056.372-1.584a22.866,22.866,0,0,0,2.46-.4ZM82.124,11.18a6.721,6.721,0,0,0-.18,1.4c0,1.176.984,1.764,2.856,1.764a17.455,17.455,0,0,0,2.292-.168l.036-.972a12.223,12.223,0,0,1-2.316.228c-1.692,0-1.956-.54-1.956-1.092a4.243,4.243,0,0,1,.168-1.08ZM86.4,4.88a12.759,12.759,0,0,1,1,1.668l.648-.288A15.435,15.435,0,0,0,87.02,4.6Zm6.4-.324a13.964,13.964,0,0,1-.3,2.58c-.72.06-1.416.12-1.812.132a10.332,10.332,0,0,1-1.056,0l.1,1.044c.312-.048.792-.108,1.068-.144.312-.036.888-.1,1.5-.156a18.619,18.619,0,0,1-2.5,5.892l.984.4a23.843,23.843,0,0,0,2.5-6.384c.516-.048.984-.084,1.272-.084.756,0,1.248.192,1.248,1.272a10.214,10.214,0,0,1-.552,3.636,1,1,0,0,1-1.044.612,5.849,5.849,0,0,1-1.452-.264L92.9,14.1a7.106,7.106,0,0,0,1.392.18,1.672,1.672,0,0,0,1.74-1A11.421,11.421,0,0,0,96.728,9c0-1.608-.876-2.016-1.932-2.016-.288,0-.78.036-1.332.072.132-.636.24-1.332.3-1.68.048-.228.1-.48.144-.7Zm4.32,1.764a14.287,14.287,0,0,1,2.124,4.308l.936-.444A20.872,20.872,0,0,0,98,5.936Zm7.32-.78c.912.252,3.492.78,4.62.936l.228-.936a31.773,31.773,0,0,1-4.6-.912Zm-.012,1.248-1.02-.132a42.036,42.036,0,0,1-.6,4.824l.9.216a2.482,2.482,0,0,1,.36-.6,4.616,4.616,0,0,1,3.672-1.572c1.212,0,2.088.66,2.088,1.608,0,1.62-1.836,2.7-5.58,2.244l.288.984c4.416.372,6.3-1.068,6.3-3.2,0-1.392-1.212-2.484-3.036-2.484a5.625,5.625,0,0,0-3.84,1.428C104.06,9.332,104.264,7.6,104.42,6.788Zm16.644.984-.612.264a11.14,11.14,0,0,1,.984,1.692l.612-.288A14.243,14.243,0,0,0,121.064,7.772Zm1.308-.5-.6.276a10.689,10.689,0,0,1,1.02,1.668l.624-.288A18.128,18.128,0,0,0,122.372,7.268Zm-9.1-1.164.108,1.056c1.284-.264,4.524-.576,5.568-.7a4.8,4.8,0,0,0-2.208,4.008c0,2.652,2.508,3.828,4.7,3.924l.348-1.008c-1.932-.072-4.092-.8-4.092-3.12a4.155,4.155,0,0,1,2.712-3.756,9.846,9.846,0,0,1,2.328-.192V5.36c-.792.036-1.908.1-3.2.2-2.184.192-4.428.408-5.208.48C114.1,6.068,113.732,6.092,113.276,6.1Zm13.536,4.68a5.366,5.366,0,0,0-.276,1.488c0,1.488,1.248,2.22,3.372,2.22a18.406,18.406,0,0,0,2.868-.228l.024-.972a14.272,14.272,0,0,1-2.928.276c-1.692,0-2.412-.576-2.412-1.488a4.065,4.065,0,0,1,.276-1.212Zm7.572-3.252a12.393,12.393,0,0,1-2.2.588c-.2-.444-.372-.816-.468-1.068L131.5,6.56a16.415,16.415,0,0,0,2.208-.5l-.168-.852a13.377,13.377,0,0,1-2.364.564,12.207,12.207,0,0,1-.444-1.32l-1.08.228a8.569,8.569,0,0,1,.444.84c.048.108.1.228.156.36a21.609,21.609,0,0,1-3.888-.1l.06.876a24.368,24.368,0,0,0,4.176.024c.084.192.168.408.264.612l.42.972a23.723,23.723,0,0,1-4.992.024l.036.876a28.568,28.568,0,0,0,5.316-.108c.276.624.552,1.248.78,1.716-.372-.036-.936-.1-1.512-.168l-.084.732c.756.1,1.716.228,2.316.336l.468-.588c-.336-.624-.72-1.428-1.068-2.184a15.828,15.828,0,0,0,2.016-.5Zm7.644,6.072c-.888,0-1.572-.336-1.572-.924,0-.408.408-.732.948-.732a1.587,1.587,0,0,1,1.572,1.584A5.853,5.853,0,0,1,142.028,13.6Zm2.448-8.628a4.255,4.255,0,0,1-.648.1c-.624.06-3.444.144-4.056.144a6.747,6.747,0,0,1-.84-.036l.024,1a5.721,5.721,0,0,1,.8-.072c.612-.036,2.952-.144,3.576-.168-.588.528-2.064,1.776-2.724,2.328-.7.576-2.22,1.848-3.2,2.664l.7.708c1.512-1.536,2.592-2.364,4.548-2.364,1.5,0,2.676.852,2.676,2.016a2.072,2.072,0,0,1-1.476,2.016,2.346,2.346,0,0,0-2.448-2.1,1.688,1.688,0,0,0-1.836,1.56c0,.984,1,1.7,2.616,1.7,2.508,0,4.1-1.248,4.1-3.168,0-1.608-1.428-2.808-3.408-2.808a5.05,5.05,0,0,0-1.608.252c.912-.768,2.508-2.172,3.1-2.616.18-.132.444-.312.66-.456Zm9.168,6.12h.792l.3-4.656.024-1.416h-1.44l.036,1.416Zm.4,2.964a.942.942,0,1,0-.96-.948A.916.916,0,0,0,154.04,14.06Zm17.352-4.224h-4.92V5.648h4.248V4.772h-9.384v.876h4.224V9.836h-4.848v.876h4.848v4.2h.912v-4.2h4.92Zm-9.216-3.36a14.044,14.044,0,0,1,1.08,2.748l.84-.288a11.5,11.5,0,0,0-1.14-2.7Zm6.36,2.784a23.562,23.562,0,0,0,1.476-2.82l-.936-.264a17.906,17.906,0,0,1-1.3,2.832Zm12.624,1.356c-1.632.6-3.324,1.224-4.4,1.572l.36.84c1.176-.456,2.736-1.08,4.188-1.656Zm-3.852-2.268v.8H181v-.8Zm1.08-2.4a17.514,17.514,0,0,0,.636-1.788l-.9-.2a11.855,11.855,0,0,1-1.644,3.636V6.74h-1.4V4.028h-.864V6.74h-1.5v.852h1.5v3.8c-.648.252-1.248.48-1.728.648l.324.9c1.116-.468,2.58-1.08,3.948-1.668l-.192-.828c-.492.2-1,.408-1.488.6V7.592h1.4a8.371,8.371,0,0,1-.564.7,4.7,4.7,0,0,1,.768.564,10.139,10.139,0,0,0,1.332-2.076h4.392c-.156,4.848-.348,6.684-.732,7.1a.608.608,0,0,1-.516.192,17.324,17.324,0,0,1-1.812-.084,2.169,2.169,0,0,1,.276.9,14.034,14.034,0,0,0,1.872.012,1.152,1.152,0,0,0,.972-.492c.492-.588.648-2.5.84-7.992,0-.132.012-.468.012-.468Zm8.82,8.208a2.561,2.561,0,0,0,2.82-2.508,2.262,2.262,0,0,0-1.872-2.232V9.368a2.193,2.193,0,0,0,1.572-2.124c0-1.416-1.08-2.208-2.556-2.208a3.522,3.522,0,0,0-2.46,1.056l.588.7a2.745,2.745,0,0,1,1.824-.876,1.374,1.374,0,0,1,1.488,1.416c0,.948-.624,1.68-2.436,1.68v.84c2.028,0,2.736.708,2.736,1.764a1.62,1.62,0,0,1-1.788,1.632,2.908,2.908,0,0,1-2.184-1.008l-.552.72A3.641,3.641,0,0,0,187.208,14.156Zm6.828,0c1.668,0,2.736-1.524,2.736-4.584s-1.068-4.536-2.736-4.536-2.748,1.476-2.748,4.536S192.356,14.156,194.036,14.156Zm0-.876c-1.008,0-1.68-1.116-1.68-3.708,0-2.568.672-3.648,1.68-3.648S195.7,7,195.7,9.572C195.7,12.164,195.032,13.28,194.036,13.28Zm6.384-.156V9.776h5.952v3.348Zm5.952-7.464V8.9H200.42V5.66Zm-6.852-.876v10h.9V14h5.952v.732h.936V4.784Zm11.88,0a5.24,5.24,0,0,1-.084.84,37.03,37.03,0,0,0-.54,4.992,14.36,14.36,0,0,0,.456,3.768l.852-.072c-.012-.12-.036-.288-.036-.408a2.039,2.039,0,0,1,.06-.528,25.654,25.654,0,0,1,.84-2.628l-.5-.4c-.2.48-.48,1.188-.672,1.728a10.5,10.5,0,0,1-.108-1.62,29.183,29.183,0,0,1,.588-4.788,5.629,5.629,0,0,1,.2-.8Zm6.06,7.368c0,.792-.288,1.284-1.3,1.284-.852,0-1.428-.336-1.428-.924,0-.552.612-.948,1.5-.948a3.716,3.716,0,0,1,1.212.192C217.46,11.9,217.46,12.044,217.46,12.152Zm3.24.588a8.1,8.1,0,0,0-2.34-1.548c-.048-1-.132-2.184-.144-3.372.708-.048,1.4-.12,2.052-.228V6.656a15.137,15.137,0,0,1-2.052.276c.012-.552.024-1.1.036-1.428a6.732,6.732,0,0,1,.072-.708h-1.092a4.855,4.855,0,0,1,.06.72V6.992c-.372.012-.744.024-1.116.024a18.578,18.578,0,0,1-2.016-.108V7.82c.7.036,1.32.072,1.992.072.384,0,.756-.012,1.14-.024.012.984.084,2.124.12,3.036a5.3,5.3,0,0,0-1.1-.108c-1.56,0-2.448.816-2.448,1.812,0,1.056.876,1.716,2.472,1.716A1.8,1.8,0,0,0,218.4,12.38v-.216a9.018,9.018,0,0,1,1.788,1.356ZM228.5,5.7a14.661,14.661,0,0,0-1.548-1.344l-.7.5a13.986,13.986,0,0,1,1.548,1.38Zm-5.244.072a7.464,7.464,0,0,1,.576.84,12.829,12.829,0,0,1,.672,1.308c-.516.228-1,.444-1.392.6-.216.084-.636.228-.984.324l.468.984c.54-.24,1.368-.672,2.28-1.116.144.312.3.648.444.984a35.068,35.068,0,0,1,1.62,4.872l1.032-.276c-.408-1.308-1.152-3.528-1.8-4.992-.144-.324-.3-.66-.456-.984a10.748,10.748,0,0,1,3.864-1.2c1.176,0,1.728.636,1.728,1.356,0,.84-.528,1.548-1.836,1.548a3.939,3.939,0,0,1-1.68-.4l-.036.96a5.315,5.315,0,0,0,1.776.336c1.86,0,2.736-1.044,2.736-2.412,0-1.3-1.008-2.244-2.652-2.244a12,12,0,0,0-4.272,1.272c-.24-.492-.48-.972-.684-1.368-.12-.2-.324-.588-.42-.78ZM13.376,25.388a5.517,5.517,0,0,1-.684.792c-.8.816-2.6,2.232-3.492,2.988-1.08.9-1.2,1.44-.084,2.376,1.116.912,3.1,2.6,3.744,3.3.252.276.576.576.816.864l.864-.78c-1.164-1.152-3.36-2.976-4.44-3.84-.768-.636-.768-.816-.048-1.44.876-.72,2.58-2.088,3.408-2.8.192-.168.552-.48.816-.672ZM27.5,27.02a2.3,2.3,0,0,1-.78.108H23.456a5.393,5.393,0,0,0,.288-.5c.12-.228.336-.624.54-.936l-1.116-.372a3.633,3.633,0,0,1-.372.948,9.808,9.808,0,0,1-3.768,4.056l.828.624a11.9,11.9,0,0,0,3.036-2.952h4.056a9.282,9.282,0,0,1-6.7,6.756l.864.78a10.521,10.521,0,0,0,4.776-3.264,11.693,11.693,0,0,0,2.124-4.128A5.12,5.12,0,0,1,28.3,27.5Zm4.992-1.032c.024.228.048.648.048.864v4c0,.36-.036.744-.048.924h1.1c-.024-.216-.036-.612-.036-.912V26.852c0-.288.012-.636.036-.864Zm5.556-.084c.024.288.06.636.06,1.032v1.9c0,2.268-.144,3.24-1.008,4.236a5.536,5.536,0,0,1-2.88,1.6l.78.828a6.41,6.41,0,0,0,2.856-1.752c.864-1.032,1.248-1.98,1.248-4.86V26.936c0-.4.024-.744.048-1.032Zm10.26,7.6V27.98h2.88a9.232,9.232,0,0,1,1.02.048V26.972a8.491,8.491,0,0,1-1.02.072h-6.6a7.946,7.946,0,0,1-1.008-.072v1.056c.3-.036.78-.048,1.008-.048h2.7V33.5H43.9a8.22,8.22,0,0,1-1.056-.072V34.52c.372-.036.732-.048,1.056-.048h7.932a7.526,7.526,0,0,1,1,.048V33.428a8.441,8.441,0,0,1-1,.072ZM63.38,25.628a13.24,13.24,0,0,1-3.156,2.652,18.94,18.94,0,0,1-5.364,2.208l.552.936a24,24,0,0,0,4.512-1.872v4.536a11.132,11.132,0,0,1-.072,1.284h1.176a9.055,9.055,0,0,1-.072-1.284V28.952a18.823,18.823,0,0,0,3.216-2.6Zm11.664,1.2a2.116,2.116,0,0,1-.792.12H70.976c.1-.156.18-.3.252-.444.12-.228.336-.636.528-.948l-1.08-.348a5.156,5.156,0,0,1-.384.96,10.7,10.7,0,0,1-3.852,4.164l.8.624a13.02,13.02,0,0,0,3.18-3.156H74.5A10.034,10.034,0,0,1,72.956,31c-.936-.564-1.944-1.14-2.64-1.5l-.612.708c.672.372,1.68.972,2.628,1.584a10.516,10.516,0,0,1-4.74,2.988l.864.744a11.37,11.37,0,0,0,4.7-3.192c.456.312.852.6,1.14.828l.66-.864c-.3-.216-.708-.492-1.164-.78a12.208,12.208,0,0,0,1.752-3.564,5.257,5.257,0,0,1,.276-.648Zm3.54,4.152c.372-.036,1.008-.06,1.668-.06H86.84c.54,0,1.044.048,1.284.06V29.8c-.264.024-.7.06-1.3.06H80.252c-.672,0-1.308-.036-1.668-.06Zm14.028,2.34c-.516,0-1.212-.66-1.212-2.16a4.143,4.143,0,0,1,3.672-3.84,19.173,19.173,0,0,1-.66,3.2C93.8,32.528,93.14,33.32,92.612,33.32Zm3.132,1.992c2.832-.372,4.476-2.04,4.476-4.536a4.314,4.314,0,0,0-4.56-4.368,5.075,5.075,0,0,0-5.208,4.836c0,1.956,1.068,3.18,2.124,3.18,1.1,0,2.052-1.26,2.784-3.7a25.114,25.114,0,0,0,.708-3.42,3.294,3.294,0,0,1,3.156,3.444,3.563,3.563,0,0,1-3.012,3.516,7.449,7.449,0,0,1-1.02.144ZM111.62,25.9h-8.448v.852h8.448Zm-1.8,8.952c-.468,0-.564-.084-.564-.492V30.1h3.372V29.24h-10.5V30.1h3.036c-.18,2.244-.624,4.116-3.18,5.088a2.4,2.4,0,0,1,.564.7c2.76-1.116,3.336-3.216,3.564-5.784h2.244v4.272c0,1.02.288,1.332,1.356,1.332h1.716c1.044,0,1.284-.564,1.38-2.6a2.768,2.768,0,0,1-.828-.4c-.06,1.836-.132,2.148-.612,2.148Zm5.688-8.94a7.108,7.108,0,0,1-.084.84,33.006,33.006,0,0,0-.528,4.764,14.883,14.883,0,0,0,.432,3.816l.864-.06-.036-.42a2.965,2.965,0,0,1,.06-.528,25.8,25.8,0,0,1,.84-2.664l-.516-.384c-.192.468-.456,1.164-.66,1.7a12.408,12.408,0,0,1-.1-1.632,27.344,27.344,0,0,1,.576-4.548c.048-.216.156-.6.228-.8Zm2.928,5.76a6.887,6.887,0,0,0-.192,1.4c0,1.116.888,1.776,2.88,1.776a15.792,15.792,0,0,0,2.964-.24l-.012-1.008a12.918,12.918,0,0,1-2.94.312c-1.632,0-1.992-.528-1.992-1.068a4.413,4.413,0,0,1,.156-1.092Zm.408-3.78a30.019,30.019,0,0,0,4.872,0v-.984a20.772,20.772,0,0,1-4.884,0Zm16.188-1.524v1.536h-7.044V26.372Zm.876,2.352V25.556H127.1v3.48c0,1.908-.108,4.548-1.308,6.408a4.443,4.443,0,0,1,.78.456c1.248-1.932,1.416-4.848,1.416-6.864v-.312Zm-3.144,5.952V33.152h2.412v1.524Zm-3.18-1.524H131.9v1.524h-2.316Zm2.316-2.16V32.42h-2.316V30.992Zm3.276,0V32.42h-2.412V30.992Zm-2.412-.8V28.82H131.9v1.368h-3.168V35.9h.852v-.42h5.592v.42h.876V30.188Zm7.128,1.6a5.366,5.366,0,0,0-.276,1.488c0,1.488,1.248,2.22,3.372,2.22a18.406,18.406,0,0,0,2.868-.228l.024-.972a14.272,14.272,0,0,1-2.928.276c-1.692,0-2.412-.576-2.412-1.488a4.065,4.065,0,0,1,.276-1.212Zm7.572-3.252a12.393,12.393,0,0,1-2.2.588c-.2-.444-.372-.816-.468-1.068l-.216-.492a16.415,16.415,0,0,0,2.208-.5l-.168-.852a13.376,13.376,0,0,1-2.364.564,12.208,12.208,0,0,1-.444-1.32l-1.08.228a8.569,8.569,0,0,1,.444.84c.048.108.1.228.156.36a21.608,21.608,0,0,1-3.888-.1l.06.876a24.368,24.368,0,0,0,4.176.024c.084.192.168.408.264.612l.42.972a23.723,23.723,0,0,1-4.992.024l.036.876a28.568,28.568,0,0,0,5.316-.108c.276.624.552,1.248.78,1.716-.372-.036-.936-.1-1.512-.168l-.084.732c.756.1,1.716.228,2.316.336l.468-.588c-.336-.624-.72-1.428-1.068-2.184a15.828,15.828,0,0,0,2.016-.5Zm7.908,5.076c0,.816-.576,1.02-1.26,1.02-1.176,0-1.644-.408-1.644-.96s.612-.972,1.74-.972a6.049,6.049,0,0,1,1.152.108C155.36,33.128,155.372,33.4,155.372,33.608Zm4.332.408a9.755,9.755,0,0,0-3.456-1.848c-.024-.564-.06-1.188-.084-1.8,1.128-.048,2.184-.132,3.3-.276l-.012-.9a32.058,32.058,0,0,1-3.3.312V27.8c1.116-.06,2.136-.156,3.072-.252l-.012-.876a26.424,26.424,0,0,1-3.048.288c0-.288,0-.516.012-.66a6.115,6.115,0,0,1,.06-.792h-1.02a6.651,6.651,0,0,1,.036.708V27h-.612a18.945,18.945,0,0,1-2.784-.228v.888c.708.084,1.968.18,2.8.18h.588v1.7H154.6a21.142,21.142,0,0,1-2.988-.228v.912c.852.1,2.172.168,2.988.168h.66c.012.492.036,1.056.06,1.584a6.709,6.709,0,0,0-1-.072c-1.716,0-2.76.732-2.76,1.812,0,1.152.948,1.764,2.652,1.764,1.548,0,2.1-.852,2.1-1.668,0-.18-.012-.444-.024-.744a8.826,8.826,0,0,1,2.868,1.788Zm7.416-1.824a1.143,1.143,0,0,1-1.212-1.176,1.207,1.207,0,0,1,1.2-1.248,1.055,1.055,0,0,1,1.056.732C168.272,31.628,167.816,32.192,167.12,32.192Zm1.836-4.3c1.74,0,2.82.024,3.492.06l.012-.9c-.576,0-2.04-.012-3.48-.012h-.18c0-.312.012-.588.012-.768l.06-.744H167.78c.024.144.06.492.072.744.012.168.024.444.024.78-1.764.024-4,.1-5.316.12l.024.936c1.488-.108,3.5-.192,5.3-.2.012.408.012.828.012,1.176a2.383,2.383,0,0,0-.792-.132,2.089,2.089,0,0,0-2.1,2.076,1.914,1.914,0,0,0,1.968,1.992,1.707,1.707,0,0,0,1.02-.3,4.243,4.243,0,0,1-3.156,2.064l.828.8c2.76-.828,3.54-2.616,3.54-4.224a2.9,2.9,0,0,0-.384-1.524c-.012-.54-.024-1.272-.024-1.944Zm5.532,4.176a1.83,1.83,0,1,0,1.836,1.824A1.831,1.831,0,0,0,174.488,32.072Zm0,3.048A1.218,1.218,0,1,1,175.7,33.9,1.2,1.2,0,0,1,174.488,35.12Zm16.572-8.1a.9.9,0,1,0-.9.9A.907.907,0,0,0,191.06,27.02Zm-4.86-.888-.348.348,3.96,3.96-3.972,3.972.348.348,3.972-3.972,3.96,3.96.348-.348-3.96-3.96,3.96-3.96-.348-.348-3.96,3.96Zm.54,3.408a.9.9,0,1,0,.9.9A.907.907,0,0,0,186.74,29.54Zm6.84,1.8a.9.9,0,1,0-.9-.9A.907.907,0,0,0,193.58,31.34Zm-4.32,2.52a.9.9,0,1,0,.9-.9A.907.907,0,0,0,189.26,33.86Zm13.872-2.04h-2.088V30.032h2.088Zm2.3-1.788v-.456a7.634,7.634,0,0,0,1.716,1.044,4.128,4.128,0,0,1,.612-.744,7.8,7.8,0,0,1-2.244-1.392,17.8,17.8,0,0,0,1.884-1.56l-.672-.468a15.635,15.635,0,0,1-1.7,1.548,8.149,8.149,0,0,1-.78-.924A18.572,18.572,0,0,0,206,25.568l-.672-.48a14.029,14.029,0,0,1-1.476,1.416A8.782,8.782,0,0,1,203.1,25l-.768.228A10.341,10.341,0,0,0,205,29.2h-5.64a8.373,8.373,0,0,0,2.5-3.48l-.588-.288-.156.036H197.7v.792h2.976a8.4,8.4,0,0,1-1.116,1.584,16.687,16.687,0,0,0-1.452-1.176l-.552.468a12.72,12.72,0,0,1,1.44,1.26,8.3,8.3,0,0,1-2.436,1.56,4.827,4.827,0,0,1,.552.672,9.832,9.832,0,0,0,1.788-1.056v.456h1.26V31.82H197.4v.828h2.664c-.216,1-.9,1.944-2.9,2.616a3.483,3.483,0,0,1,.564.708c2.352-.816,3.06-2.04,3.252-3.324h2.16v1.92c0,.984.264,1.248,1.272,1.248h1.572c.876,0,1.128-.42,1.212-1.944a2.459,2.459,0,0,1-.8-.372c-.048,1.284-.108,1.524-.48,1.524h-1.368c-.408,0-.48-.072-.48-.444V32.648H206.9V31.82h-2.844V30.032Zm12.156-5.076a11.887,11.887,0,0,1-1.116,2.016l.732.264c.4-.5.876-1.3,1.3-1.98Zm1.92,5.544v-.8h-3.444a2.926,2.926,0,0,0,.012-.324V28.028h3.072v-.792H213.98l.72-.324A6.664,6.664,0,0,0,213.608,25l-.756.3a6.628,6.628,0,0,1,1.032,1.932h-1.5v.792h2.808V29.36a3.26,3.26,0,0,1-.012.336H212v.8h3.084c-.216,1.032-.912,2.172-2.988,3.012a4.225,4.225,0,0,1,.588.66,5.252,5.252,0,0,0,3.132-3.036,4.952,4.952,0,0,0,3.156,3.084,3.046,3.046,0,0,1,.564-.744A4.385,4.385,0,0,1,216.4,30.5Zm-7.848-3.4a8.884,8.884,0,0,0-2.088-1.848l-.66.54a8.28,8.28,0,0,1,2.04,1.9Zm-.336,2.556h-2.544v.84h1.668v3.036a20.038,20.038,0,0,1-1.824,1.368l.48.9c.636-.516,1.236-1.032,1.812-1.536a4.276,4.276,0,0,0,3.4,1.416c1.32.048,3.78.024,5.088-.024a4.06,4.06,0,0,1,.288-.912c-1.4.1-4.068.132-5.376.084a3.493,3.493,0,0,1-2.988-1.344Zm11.892,4.464V30.776h5.952v3.348Zm5.952-7.464V29.9H223.22V26.66Zm-6.852-.876v10h.9V35h5.952v.732h.936V25.784ZM63.152,46.04A13.343,13.343,0,0,1,60.1,50.888a7.045,7.045,0,0,1,.552.876,12.516,12.516,0,0,0,1.212-1.452v6.576h.888V48.932a18.807,18.807,0,0,0,1.272-2.616ZM71,48.62H69.488V46.1h-.9v2.52H63.752v.888h4.836V55.7c0,.276-.108.348-.372.372-.288.012-1.272.012-2.28-.024a4.031,4.031,0,0,1,.348.876,10.332,10.332,0,0,0,2.568-.144c.444-.132.636-.408.636-1.08V49.508H71Zm-3.924,5.052c-.384-.732-1.176-1.98-1.8-2.9l-.768.36c.612.96,1.38,2.244,1.74,2.988Zm7.776.648c-.516,0-1.212-.66-1.212-2.16a4.143,4.143,0,0,1,3.672-3.84,19.173,19.173,0,0,1-.66,3.2C76.04,53.528,75.38,54.32,74.852,54.32Zm3.132,1.992c2.832-.372,4.476-2.04,4.476-4.536a4.314,4.314,0,0,0-4.56-4.368,5.075,5.075,0,0,0-5.208,4.836c0,1.956,1.068,3.18,2.124,3.18,1.1,0,2.052-1.26,2.784-3.7a25.114,25.114,0,0,0,.708-3.42,3.294,3.294,0,0,1,3.156,3.444,3.563,3.563,0,0,1-3.012,3.516,7.449,7.449,0,0,1-1.02.144Zm10.2-5.22c-.492.156-1,.3-1.476.432V49.208h1.4V48.38h-1.4V45.968h-.876V48.38H84.164v.828h1.668v2.58c-.684.192-1.308.36-1.812.492l.252.864c.468-.144,1-.3,1.56-.468v3.192c0,.18-.06.228-.228.228-.144.012-.648.012-1.188,0a3.122,3.122,0,0,1,.276.816,3.952,3.952,0,0,0,1.584-.156c.312-.144.432-.384.432-.888V52.412l1.584-.492Zm5.448,1.356v1.188H89.744V52.448Zm-3.888,3.18v-1.26h3.888v1.26Zm-.852,1.284h.852V56.36h3.888v.5h.876V51.68H88.892Zm1.788-7.044c-.768,0-.912-.072-.912-.48v-.864a27.772,27.772,0,0,0,4.524-1.188l-.684-.66a22.439,22.439,0,0,1-3.84,1.116V46h-.876v3.384c0,1.032.372,1.3,1.74,1.3h2.8c1.188,0,1.464-.408,1.6-1.968a2.58,2.58,0,0,1-.816-.348c-.072,1.3-.18,1.5-.84,1.5ZM97.5,48.176h8.172v1.752h.912V47.336h-4.536V45.968h-.924v1.368h-4.5v2.592H97.5Zm4.548,5.1H105.6v-.828h-3.552V50.456h3.06v-.84H98.156v.84h2.976v5.028a3.6,3.6,0,0,1-2.208-2.316,15.145,15.145,0,0,0,.288-1.6l-.912-.084c-.264,2.148-.912,3.852-2.244,4.884a4.659,4.659,0,0,1,.732.6A6.574,6.574,0,0,0,98.576,54.3c1.092,2.028,2.88,2.46,5.364,2.46h2.784a2.63,2.63,0,0,1,.336-.9c-.576.012-2.64.012-3.072.012a10.955,10.955,0,0,1-1.944-.144Zm7.6-6.492a5.241,5.241,0,0,1-.084.84,37.029,37.029,0,0,0-.54,4.992,14.359,14.359,0,0,0,.456,3.768l.852-.072c-.012-.12-.036-.288-.036-.408a2.039,2.039,0,0,1,.06-.528,25.657,25.657,0,0,1,.84-2.628l-.5-.4c-.2.48-.48,1.188-.672,1.728a10.5,10.5,0,0,1-.108-1.62,29.184,29.184,0,0,1,.588-4.788,5.629,5.629,0,0,1,.2-.8Zm6.06,7.368c0,.792-.288,1.284-1.3,1.284-.852,0-1.428-.336-1.428-.924,0-.552.612-.948,1.5-.948a3.716,3.716,0,0,1,1.212.192C115.7,53.9,115.7,54.044,115.7,54.152Zm3.24.588a8.1,8.1,0,0,0-2.34-1.548c-.048-1-.132-2.184-.144-3.372.708-.048,1.4-.12,2.052-.228v-.936a15.136,15.136,0,0,1-2.052.276c.012-.552.024-1.1.036-1.428a6.734,6.734,0,0,1,.072-.708h-1.092a4.857,4.857,0,0,1,.06.72v1.476c-.372.012-.744.024-1.116.024a18.579,18.579,0,0,1-2.016-.108v.912c.7.036,1.32.072,1.992.072.384,0,.756-.012,1.14-.024.012.984.084,2.124.12,3.036a5.3,5.3,0,0,0-1.1-.108c-1.56,0-2.448.816-2.448,1.812,0,1.056.876,1.716,2.472,1.716a1.8,1.8,0,0,0,2.064-1.944v-.216a9.018,9.018,0,0,1,1.788,1.356ZM130.724,47.7v-.888H120.476V47.7h5.3a13.922,13.922,0,0,1-5.6,5.232,6.137,6.137,0,0,1,.6.78,15.388,15.388,0,0,0,4.344-3.492v6.672h.948V49.016c.3-.444.588-.876.852-1.32Zm-4.416,2.58a26.777,26.777,0,0,1,4.044,3.264l.708-.684a27.388,27.388,0,0,0-4.092-3.156Zm11.22.036v2.736H134.4V50.312ZM138.4,53.9V49.448h-4.872V54.86h.864V53.9Zm4.524-7.092h-10.62V47.7h8.232v7.932c0,.252-.084.336-.348.348s-1.26.024-2.22-.024a4.49,4.49,0,0,1,.384.948,9.265,9.265,0,0,0,2.484-.168c.456-.132.612-.444.612-1.092V47.7h1.476Zm9.456,2.964-.612.264a11.14,11.14,0,0,1,.984,1.692l.612-.288A14.243,14.243,0,0,0,152.384,49.772Zm1.308-.5-.6.276a10.688,10.688,0,0,1,1.02,1.668l.624-.288A18.126,18.126,0,0,0,153.692,49.268ZM144.6,48.1l.108,1.056c1.284-.264,4.524-.576,5.568-.7a4.8,4.8,0,0,0-2.208,4.008c0,2.652,2.508,3.828,4.7,3.924l.348-1.008c-1.932-.072-4.092-.8-4.092-3.12a4.155,4.155,0,0,1,2.712-3.756,9.847,9.847,0,0,1,2.328-.192v-.96c-.792.036-1.908.1-3.2.2-2.184.192-4.428.408-5.208.48C145.424,48.068,145.052,48.092,144.6,48.1Zm16.764,5.088a1.143,1.143,0,0,1-1.212-1.176,1.207,1.207,0,0,1,1.2-1.248,1.055,1.055,0,0,1,1.056.732C162.512,52.628,162.056,53.192,161.36,53.192Zm1.836-4.3c1.74,0,2.82.024,3.492.06l.012-.9c-.576,0-2.04-.012-3.48-.012h-.18c0-.312.012-.588.012-.768l.06-.744H162.02c.024.144.06.492.072.744.012.168.024.444.024.78-1.764.024-4,.1-5.316.12l.024.936c1.488-.108,3.5-.192,5.3-.2.012.408.012.828.012,1.176a2.383,2.383,0,0,0-.792-.132,2.089,2.089,0,0,0-2.1,2.076,1.914,1.914,0,0,0,1.968,1.992,1.707,1.707,0,0,0,1.02-.3,4.243,4.243,0,0,1-3.156,2.064l.828.8c2.76-.828,3.54-2.616,3.54-4.224a2.9,2.9,0,0,0-.384-1.524c-.012-.54-.024-1.272-.024-1.944Zm5.532,4.176a1.83,1.83,0,1,0,1.836,1.824A1.831,1.831,0,0,0,168.728,53.072Zm0,3.048A1.218,1.218,0,1,1,169.94,54.9,1.2,1.2,0,0,1,168.728,56.12Z" transform="translate(180 4538.958)" fill="#352e64"/>
    <g id="グループ_906" data-name="グループ 906" transform="translate(275.742 4414.042)">
      <g id="グループ_549" data-name="グループ 549" transform="translate(6.047 0)">
        <g id="グループ_548" data-name="グループ 548" transform="translate(0)">
          <path id="パス_344" data-name="パス 344" d="M1180.25,1147.439v6.115a6.622,6.622,0,0,0,6.654,6.588h22.832a6.622,6.622,0,0,0,6.654-6.588v-47.535a6.617,6.617,0,0,0-6.654-6.588H1186.9a6.622,6.622,0,0,0-6.654,6.588v6.784" transform="translate(-1180.25 -1099.431)" fill="none" stroke="red" stroke-linecap="round" stroke-linejoin="round" stroke-width="2"/>
          <line id="線_120" data-name="線 120" x1="5.476" transform="translate(15.333 53.517)" fill="none" stroke="red" stroke-linecap="round" stroke-linejoin="round" stroke-width="2"/>
          <line id="線_121" data-name="線 121" x1="1.637" transform="translate(17.253 4.908)" fill="none" stroke="red" stroke-linecap="round" stroke-linejoin="round" stroke-width="2"/>
        </g>
      </g>
    </g>
    <g id="グループ_907" data-name="グループ 907" transform="translate(54.926 4382.372)">
      <path id="パス_568" data-name="パス 568" d="M225.47,47.818a14.413,14.413,0,1,0,15.71,14.355,16.692,16.692,0,0,0-1.121-5.483" transform="translate(-0.204 0)" fill="none" stroke="red" stroke-linecap="round" stroke-miterlimit="10" stroke-width="2"/>
      <path id="パス_569" data-name="パス 569" d="M251.208,53.8c-2.3-3.685-5.462-5.818-9.812-5.972q-.217-.007-.435-.008" transform="translate(-13.089 0)" fill="none" stroke="red" stroke-linecap="round" stroke-miterlimit="10" stroke-width="2"/>
      <path id="パス_570" data-name="パス 570" d="M273.823,99.667" transform="translate(-27.89 -23.353)" fill="none" stroke="red" stroke-linecap="round" stroke-miterlimit="10" stroke-width="2"/>
      <path id="パス_571" data-name="パス 571" d="M211.9,73.443" transform="translate(0 -11.542)" fill="none" stroke="red" stroke-linecap="round" stroke-miterlimit="10" stroke-width="2"/>
      <path id="パス_572" data-name="パス 572" d="M259.926,55.855l-3.8,2.2,3.224.946Z" transform="translate(-20.918 -4.49)" fill="red" stroke="red" stroke-linecap="round" stroke-linejoin="round" stroke-width="2"/>
      <line id="線_187" data-name="線 187" x2="0.916" y2="1.458" transform="translate(219.609 49.908)" fill="none" stroke="red" stroke-linecap="round" stroke-miterlimit="10" stroke-width="2"/>
      <line id="線_188" data-name="線 188" x2="1.491" y2="0.861" transform="translate(214.429 54.924)" fill="none" stroke="red" stroke-linecap="round" stroke-miterlimit="10" stroke-width="2"/>
      <line id="線_189" data-name="線 189" x2="1.722" transform="translate(212.484 62.065)" fill="none" stroke="red" stroke-linecap="round" stroke-miterlimit="10" stroke-width="2"/>
      <line id="線_190" data-name="線 190" x1="0.916" y1="1.458" transform="translate(232.623 72.765)" fill="none" stroke="red" stroke-linecap="round" stroke-miterlimit="10" stroke-width="2"/>
      <line id="線_191" data-name="線 191" x1="1.491" y1="0.861" transform="translate(237.229 68.345)" fill="none" stroke="red" stroke-linecap="round" stroke-miterlimit="10" stroke-width="2"/>
      <line id="線_192" data-name="線 192" x1="1.722" transform="translate(238.943 62.065)" fill="none" stroke="red" stroke-linecap="round" stroke-miterlimit="10" stroke-width="2"/>
      <line id="線_193" data-name="線 193" y1="1.721" x2="0.064" transform="translate(226.935 74.323)" fill="none" stroke="red" stroke-linecap="round" stroke-miterlimit="10" stroke-width="2"/>
      <line id="線_194" data-name="線 194" y1="1.491" x2="0.861" transform="translate(219.94 72.798)" fill="none" stroke="red" stroke-linecap="round" stroke-miterlimit="10" stroke-width="2"/>
      <line id="線_195" data-name="線 195" y1="0.861" x2="1.491" transform="translate(214.686 68.216)" fill="none" stroke="red" stroke-linecap="round" stroke-miterlimit="10" stroke-width="2"/>
    </g>
    <text id="_10s" data-name="10s" transform="translate(281 4448.958)" fill="#352e64" font-size="12" font-family="Futura-Medium, Futura" font-weight="500"><tspan x="-9.48" y="0">10s</tspan></text>
  </g>
</svg>
