<svg xmlns="http://www.w3.org/2000/svg" width="286" height="280" viewBox="0 0 286 280">
  <g id="グループ_945" data-name="グループ 945" transform="translate(-838 -4371)">
    <rect id="長方形_601" data-name="長方形 601" width="286" height="280" rx="15" transform="translate(838 4371)" fill="#fff"/>
    <path id="パス_618" data-name="パス 618" d="M-76.134-9.3a15.449,15.449,0,0,0,3.111-3.145A16.545,16.545,0,0,0-69.759-9.3Zm-.833,1.853h7.939V-8.789A20.543,20.543,0,0,0-66.173-7.14a10.478,10.478,0,0,1,1.309-1.853,15.551,15.551,0,0,1-7.191-5.389h-2.108a16.769,16.769,0,0,1-6.868,5.7,7.9,7.9,0,0,1,1.19,1.7,19.629,19.629,0,0,0,2.873-1.7Zm-3.009,3.281h3.944a32.647,32.647,0,0,1-1.292,3.077L-79.892-1l.272,1.972c2.89-.136,7.089-.306,11.084-.527a9.013,9.013,0,0,1,.68,1.054L-65.968.357a22.864,22.864,0,0,0-3.893-4.369l-1.785.935A20.263,20.263,0,0,1-69.98-1.343c-1.734.068-3.485.136-5.117.187.51-.952,1.071-2.006,1.564-3.009h7.616v-1.87H-79.977Zm27.438-7.021h-6.868v-1.1h6.868Zm2.159-2.686H-61.446v4.25H-50.38ZM-60.206-3.587h8.33v.748h-8.33Zm0-2.023h8.33v.731h-8.33Zm0-2.006h8.33v.731h-8.33Zm10.421,6.154V-8.993H-62.212v7.531h2.635a20.765,20.765,0,0,1-4.352,1.5A17.782,17.782,0,0,1-62.4,1.479a22.651,22.651,0,0,0,5.27-2.04l-1.292-.9h4.607l-1.411,1a45.248,45.248,0,0,1,5.457,1.972L-47.982.085c-1.173-.459-2.907-1.071-4.488-1.547ZM-37-2.516a16.188,16.188,0,0,1-.884,1.887l.459.1h-3.349l.646-.187a6.92,6.92,0,0,0-.816-1.8Zm-4.964-3.111h5.8v1.513h-5.8Zm6.358,3.111h1.53V-7.225H-43.92v4.709h1.853l-.884.221a8.134,8.134,0,0,1,.782,1.768h-4.114V1.139h14.62V-.527H-35.93c.289-.493.629-1.156.986-1.853Zm2.771-9.758a14.9,14.9,0,0,1-1.9,1.751c-.272-.272-.544-.561-.8-.867.748-.51,1.6-1.156,2.329-1.768l-1.53-1.088a14.227,14.227,0,0,1-1.7,1.615,11.013,11.013,0,0,1-.9-1.717l-1.734.544a16.417,16.417,0,0,0,2.329,3.927h-4.369a11.444,11.444,0,0,0,1.921-3.315l-1.309-.68-.34.085H-45.3v1.632h3.485a10.7,10.7,0,0,1-1.275,1.683,10.262,10.262,0,0,0-1.921-1.377l-1.1,1.105a11.843,11.843,0,0,1,1.819,1.428,11.845,11.845,0,0,1-2.873,1.751,7.183,7.183,0,0,1,1.207,1.479,14.945,14.945,0,0,0,3.842-2.686v.578h6.256v-.7a12.086,12.086,0,0,0,3.638,2.567,7.227,7.227,0,0,1,1.343-1.683,11.436,11.436,0,0,1-2.669-1.5,23.158,23.158,0,0,0,2.193-1.717Zm4.947,2.091a16.065,16.065,0,0,0,1.649-2.329A15.806,15.806,0,0,1-24.3-10.183Zm4.42,8.381-2.04.357V-5.559H-23.4v-1.7h-2.108V-8.5h1.751v-1.683h-.153l1.071-1.275a16.894,16.894,0,0,0-2.839-2.924h-1.666a10.864,10.864,0,0,1-2.941,4.114,5.535,5.535,0,0,1,1.207,1.309c.1-.1.221-.2.323-.306V-8.5h1.5v1.241h-2.312v1.7h2.312v4.437c-.935.153-1.785.289-2.5.391l.374,1.836c1.717-.323,3.961-.8,6.069-1.241l-.051-.493.561.969c.969-.663,2.057-1.445,3.06-2.21l-.612-1.53c-1.105.731-2.227,1.445-3.077,1.938Zm7.361-1.887c.6-.561,1.36-1.36,2.04-2.142L-15.649-6.8a14.192,14.192,0,0,1-1.53,2.04,11.026,11.026,0,0,1-.7-1.819V-7.14H-14.2V-8.857h-1.258v-4.981h-6.97v1.666h5.1v.918h-4.726v1.53h4.726v.867h-5.916V-7.14h3.5V-.476c0,.17-.051.221-.238.221-.17,0-.68.017-1.156-.017a6.9,6.9,0,0,1,.476,1.751,4.471,4.471,0,0,0,2.142-.323c.527-.272.646-.748.646-1.6V-2.669A8.559,8.559,0,0,0-15.088.612,7.508,7.508,0,0,1-13.8-1.054a7.838,7.838,0,0,1-3.111-3.162ZM-29.4-4.59a15.471,15.471,0,0,1,.527,2.975l1.36-.374a19.417,19.417,0,0,0-.6-2.924Zm5.3,2.635c.255-.7.527-1.785.833-2.737l-1.462-.357a20.845,20.845,0,0,1-.6,2.754Zm.935-3.74A9.721,9.721,0,0,1-21.5-3.468l1.411-.935a8.3,8.3,0,0,0-1.751-2.142Zm15.98-.765A2.191,2.191,0,0,0-5.007-4.284,2.191,2.191,0,0,0-2.83-6.46,2.191,2.191,0,0,0-5.007-8.636,2.191,2.191,0,0,0-7.182-6.46Zm15.861.9c.068-.714.1-1.428.119-2.074h6.817v2.074Zm6.936-6.069v2.074H8.8v-2.074ZM17.757-13.6H6.706v5.593c0,2.584-.238,5.831-2.8,8.024A7.984,7.984,0,0,1,5.465,1.479,9.145,9.145,0,0,0,8.338-3.6h7.276v2.465c0,.357-.136.493-.544.493-.374,0-1.8.017-2.992-.051a8.678,8.678,0,0,1,.85,2.125,10.284,10.284,0,0,0,3.757-.391c.782-.34,1.071-.918,1.071-2.142Zm8.109,4.3a15.449,15.449,0,0,0,3.111-3.145A16.545,16.545,0,0,0,32.241-9.3Zm-.833,1.853h7.939V-8.789A20.543,20.543,0,0,0,35.827-7.14a10.479,10.479,0,0,1,1.309-1.853,15.551,15.551,0,0,1-7.191-5.389H27.837a16.769,16.769,0,0,1-6.868,5.7,7.9,7.9,0,0,1,1.19,1.7,19.629,19.629,0,0,0,2.873-1.7ZM22.024-4.165h3.944a32.646,32.646,0,0,1-1.292,3.077L22.108-1,22.381.969C25.271.833,29.469.663,33.465.442a9.013,9.013,0,0,1,.68,1.054L36.031.357a22.863,22.863,0,0,0-3.893-4.369l-1.785.935A20.262,20.262,0,0,1,32.02-1.343c-1.734.068-3.485.136-5.117.187.51-.952,1.071-2.006,1.564-3.009h7.616v-1.87H22.024Zm20.4,1.207h7.31v.7h-7.31Zm4.488-5.8v1.122H43.818a3.446,3.446,0,0,0,.833-1.122Zm-5.457-1.853h1.717a2.084,2.084,0,0,1-.1.663H41.216Zm3.57-1.853h1.887v.68H45.024Zm5.576,0v.68H48.833v-.68ZM46.911-9.945H44.973l.051-.663h1.887Zm4.641,1.19a1.037,1.037,0,0,1-.153.493.39.39,0,0,1-.357.119,5.016,5.016,0,0,1-.935-.051,3.552,3.552,0,0,1,.2.561H48.833V-8.755ZM49.734-5.814h-7.31v-.663h7.31Zm0,1.768h-7.31v-.68h7.31Zm2.057,2.941V-6.97c.1,0,.187-.017.255-.017a1.514,1.514,0,0,0,.986-.408c.289-.306.391-.918.476-2.023.017-.187.034-.527.034-.527H48.833v-.663h3.6v-3.043h-3.6v-.731H46.911v.731H45.024v-.731H43.188v.731H39.329v1.19h3.859v.68h-3.23a25.69,25.69,0,0,1-1.071,3.06l1.836.119.068-.153h1.479A8.243,8.243,0,0,1,38.242-7.5a7.857,7.857,0,0,1,.952,1.564c.459-.068.867-.136,1.258-.221v5.049h2.312A23.08,23.08,0,0,1,38.258.085,13.063,13.063,0,0,1,39.721,1.53a21.726,21.726,0,0,0,5.3-2.023l-1.343-.612H48.22l-1.292.8a35.867,35.867,0,0,1,4.539,1.8L53.712.527C52.64.068,50.855-.578,49.223-1.105ZM59.508.238c2.55,0,4.25-2.244,4.25-6.579s-1.7-6.477-4.25-6.477c-2.567,0-4.267,2.125-4.267,6.477C55.242-2.006,56.941.238,59.508.238Zm0-1.955c-1.088,0-1.9-1.088-1.9-4.624,0-3.519.816-4.539,1.9-4.539,1.071,0,1.887,1.02,1.887,4.539C61.4-2.805,60.579-1.717,59.508-1.717Zm14.45-5.321v-4.284h4.25v4.284ZM67.94-11.322h4.012v4.284H67.94Zm12.308-2.006H65.9V1.462h2.04V-5.032H78.208V-.918c0,.289-.119.391-.442.408-.34,0-1.445.017-2.414-.051a8.263,8.263,0,0,1,.731,2.023A7.854,7.854,0,0,0,79.3,1.088C80.01.765,80.248.2,80.248-.9Z" transform="translate(981 4518)" fill="#352e64"/>
    <path id="パス_617" data-name="パス 617" d="M15.524,4.964a17.457,17.457,0,0,1-1.008,2.58l.624.228A23.07,23.07,0,0,0,16.3,5.24ZM12.956,7.412a9.269,9.269,0,0,0-.876-2.34l-.648.24a10.467,10.467,0,0,1,.816,2.364Zm.48,5.88h.8V10.064c.588.672,1.368,1.6,1.668,2.052l.54-.7c-.312-.36-1.68-1.764-2.208-2.244V8.792h2.22v-.8H14.24V4.208h-.8v3.78H11.324v.8h1.812a9.071,9.071,0,0,1-2.028,3.12,3.584,3.584,0,0,1,.42.828,10.038,10.038,0,0,0,1.908-2.952ZM6.284,10.76a9.371,9.371,0,0,1-.732,2.856,3.6,3.6,0,0,1,.648.312,10.912,10.912,0,0,0,.816-3.036Zm2.316.156a8.03,8.03,0,0,1,.552,2.172l.672-.192a8.729,8.729,0,0,0-.6-2.172Zm-.216-2.9c.168.324.336.684.48,1.044L7.256,9.14a36.575,36.575,0,0,0,2.3-3.492l-.732-.324a24.528,24.528,0,0,1-1.212,2.16,9.8,9.8,0,0,0-.624-.756A26.028,26.028,0,0,0,8.336,4.256l-.768-.288A17.338,17.338,0,0,1,6.512,6.236c-.12-.12-.252-.252-.372-.36l-.48.552A10.413,10.413,0,0,1,7.16,8.18c-.24.372-.48.708-.708,1.008-.312.012-.612.024-.876.036l.084.8c.54-.036,1.152-.072,1.812-.12v5h.78V9.86L9.14,9.8a5.3,5.3,0,0,1,.2.768l.684-.288a10.028,10.028,0,0,0-1.02-2.508Zm8.3,5.508h-5.7V4.436H10.16V14.9h.828v-.576h5.7Zm8.184-6.6H22.556v.756h5.568V6.92H25.748V5.828h2.784V5.072H25.748V3.956h-.876V5.072H22.136v.756h2.736Zm-6.588,3.84a9.371,9.371,0,0,1-.732,2.856,3.067,3.067,0,0,1,.66.324,10.986,10.986,0,0,0,.828-3.048Zm3-.96a4.068,4.068,0,0,1,.252.768l.648-.3v.36h.756V9.212h4.824v1.416h.792V8.492H22.184V10.04a11.375,11.375,0,0,0-1.092-2.256l-.66.264a11.429,11.429,0,0,1,.54,1.008l-1.728.084a39.821,39.821,0,0,0,2.412-3.468L20.9,5.324A24.8,24.8,0,0,1,19.616,7.5a8.5,8.5,0,0,0-.648-.768,22.653,22.653,0,0,0,1.38-2.472l-.78-.288A17.335,17.335,0,0,1,18.5,6.224c-.12-.12-.24-.228-.36-.336l-.48.564a10.835,10.835,0,0,1,1.488,1.74c-.252.36-.5.7-.744,1l-.828.036.084.8,1.884-.12v5h.792V9.86Zm.756,3.1a8.833,8.833,0,0,0-.636-2.16l-.66.192a8.367,8.367,0,0,1,.6,2.172Zm1.668-2.064a3.631,3.631,0,0,1-2.364,3.492,4.388,4.388,0,0,1,.636.6,4.2,4.2,0,0,0,2.544-4.08V10.1h-.816ZM27,14.072c-.24,0-.276-.048-.276-.348V10.088H25.9v3.636c0,.864.192,1.1.984,1.1h.96c.672,0,.888-.384.948-1.884a1.915,1.915,0,0,1-.72-.348c-.024,1.284-.084,1.476-.324,1.476Zm6.6-4.884h-2.52V6.68H33.6Zm-2.52,3.672V9.98H33.6v2.88Zm1.008-8.928a14.811,14.811,0,0,1-.48,1.944H30.26v8.736h.816v-.948h3.336V5.876H32.42c.2-.516.42-1.176.624-1.764Zm8.2,1.908H36.692a16.857,16.857,0,0,0,.516-1.728l-.852-.2A12.176,12.176,0,0,1,34.52,8.264a6.558,6.558,0,0,1,.732.5,10.1,10.1,0,0,0,1.128-2.1h3.048c-.156,4.776-.336,6.6-.732,7.02-.12.156-.252.18-.492.18-.276,0-1,0-1.776-.072a2.064,2.064,0,0,1,.3.876,12.647,12.647,0,0,0,1.776.012,1.194,1.194,0,0,0,.948-.48c.48-.588.636-2.436.828-7.908Zm-1.9,5.4A23.478,23.478,0,0,0,36.5,8.528l-.7.408a21.35,21.35,0,0,1,1.824,2.772Zm4.944-6.324a7.107,7.107,0,0,1-.084.84,33.007,33.007,0,0,0-.528,4.764,14.884,14.884,0,0,0,.432,3.816l.864-.06-.036-.42a2.966,2.966,0,0,1,.06-.528,25.805,25.805,0,0,1,.84-2.664l-.516-.384c-.192.468-.456,1.164-.66,1.7a12.408,12.408,0,0,1-.1-1.632A27.344,27.344,0,0,1,44.18,5.8c.048-.216.156-.6.228-.8Zm2.928,5.76a6.887,6.887,0,0,0-.192,1.4c0,1.116.888,1.776,2.88,1.776a15.792,15.792,0,0,0,2.964-.24L51.9,12.608a12.918,12.918,0,0,1-2.94.312c-1.632,0-1.992-.528-1.992-1.068a4.413,4.413,0,0,1,.156-1.092Zm.408-3.78a30.019,30.019,0,0,0,4.872,0V5.912a20.772,20.772,0,0,1-4.884,0ZM60.5,6.212c-.684-.564-1.992-1.536-3-2.208l-.588.636a35.842,35.842,0,0,1,3,2.292ZM54.98,7.58a11.761,11.761,0,0,1-1.368,3.948l.828.348a13.175,13.175,0,0,0,1.38-4.092Zm3.648,6.36c-.684,0-.816-.108-.816-.672V11.96a21.5,21.5,0,0,0,5.724-6.912l-.888-.36a19.73,19.73,0,0,1-4.836,6.144V6.872h-.924v4.7a17.5,17.5,0,0,1-3.264,1.944,4.551,4.551,0,0,1,.576.7,21.213,21.213,0,0,0,2.688-1.56v.6c0,1.236.372,1.56,1.668,1.56h2.412c1.3,0,1.6-.648,1.728-2.772a2.829,2.829,0,0,1-.876-.384c-.084,1.9-.192,2.28-.888,2.28Zm3.4-5.592A16.593,16.593,0,0,1,63.932,12.2l.84-.408a15.525,15.525,0,0,0-1.956-3.8Zm11.22,2.868a4.281,4.281,0,0,1-1.6,1.644c-.9-.216-1.848-.42-2.8-.6.24-.324.492-.684.744-1.044Zm-5.76-4.2H69.3v1.62H67.484Zm2.664-1.74H72.08V6.284H70.148Zm4.776,1.74v1.62H72.932V7.016Zm-4.776,1.62V7.016H72.08v1.62Zm6.456,2.58v-.744H70.1c.24-.348.468-.7.672-1.02l-.324-.084H75.8V6.284H72.932V5.276H76.3V4.484H66.056v.792H69.3V6.284H66.644V9.368H69.8c-.216.348-.468.72-.72,1.1H65.768v.744h2.8c-.456.636-.9,1.26-1.272,1.728l.84.288.252-.324c.732.144,1.464.3,2.16.468a16.478,16.478,0,0,1-4.608.756,2.639,2.639,0,0,1,.348.768,14.736,14.736,0,0,0,5.532-1.212,32.364,32.364,0,0,1,3.876,1.248l.54-.72c-.924-.348-2.148-.732-3.516-1.092a4.935,4.935,0,0,0,1.512-1.908Zm11.712-3.5a17.973,17.973,0,0,0-2.784-1.584l-.468.744A14.274,14.274,0,0,1,87.776,8.5ZM84,5.912a12.152,12.152,0,0,1-1.848.432c.192-.684.348-1.4.468-1.836l-1.068-.1a9.74,9.74,0,0,1-.372,2.052c-.456.036-.9.06-1.32.06a11.194,11.194,0,0,1-1.464-.084l.072.9c.444.024.936.036,1.38.036q.522,0,1.044-.036a17.046,17.046,0,0,1-2.544,4.44l.936.48a21.353,21.353,0,0,0,2.592-5.028A14.138,14.138,0,0,0,84.02,6.8Zm.624,6.636c0,.588-.324,1.128-1.3,1.128-.924,0-1.368-.372-1.368-.924s.576-.936,1.452-.936a4.327,4.327,0,0,1,1.2.168C84.62,12.2,84.62,12.392,84.62,12.548ZM84.452,8.18c.024.828.084,1.992.12,2.964a5.624,5.624,0,0,0-1.128-.108c-1.344,0-2.376.708-2.376,1.8,0,1.176,1.068,1.716,2.376,1.716,1.464,0,2.088-.78,2.088-1.728,0-.132,0-.3-.012-.48A8.268,8.268,0,0,1,87.428,13.7l.516-.816a8.021,8.021,0,0,0-2.46-1.488c-.024-.72-.072-1.5-.084-1.932a11.557,11.557,0,0,1,.012-1.284Zm7.236-1.692h1.728a1.713,1.713,0,0,1-.156.648h-1.8Zm2.568-1.272H96.1V5.9H94.256Zm4.548,0V5.9h-1.86V5.216Zm-2.7,1.92H94.148a3.662,3.662,0,0,0,.1-.648H96.1Zm3.372.588a1.318,1.318,0,0,1-.156.552.469.469,0,0,1-.288.06c-.12,0-.456-.012-.828-.036a2.341,2.341,0,0,1,.132.348H93.008a2.621,2.621,0,0,0,.9-.924h2.2v.9h.84v-.9ZM98.252,9.968h-6V9.224h6Zm0,1.284h-6V10.52h6Zm0,1.308h-6v-.744h6Zm-6.864.576H99.14V8.912h.288A.829.829,0,0,0,100,8.7c.192-.192.264-.54.348-1.272.012-.108.024-.288.024-.288H96.944V6.488h2.664V4.628H96.944v-.66H96.1v.66H94.256v-.66H93.44v.66H90.512v.588H93.44V5.9H91.052a18.072,18.072,0,0,1-.708,1.932l.828.048.06-.156h1.632A5.651,5.651,0,0,1,89.9,8.912a2.693,2.693,0,0,1,.42.684c.4-.084.744-.168,1.068-.252Zm2.016.12a15.707,15.707,0,0,1-3.54,1.032,5.573,5.573,0,0,1,.648.66,16.63,16.63,0,0,0,3.7-1.332Zm2.736.468a29.737,29.737,0,0,1,3.42,1.2l.948-.468a36.467,36.467,0,0,0-3.648-1.188Zm11.544-3.312V8.42h3.228v1.992Zm-3.8,0c.036-.444.048-.888.048-1.284V8.42H106.8v1.992ZM106.8,5.66V7.58h-2.868V5.66Zm4.116,1.92h-3.228V5.66h3.228Zm.876-2.772h-8.736v4.32c0,1.668-.12,3.78-1.44,5.268a2.911,2.911,0,0,1,.684.588,6.89,6.89,0,0,0,1.5-3.72h3V14.8h.888v-3.54h3.228V13.7c0,.228-.084.3-.324.312-.216,0-1.032.012-1.872-.024a3.527,3.527,0,0,1,.3.864,7.83,7.83,0,0,0,2.232-.144c.384-.156.54-.42.54-1Zm3.432-.024a5.241,5.241,0,0,1-.084.84,37.029,37.029,0,0,0-.54,4.992,14.359,14.359,0,0,0,.456,3.768l.852-.072c-.012-.12-.036-.288-.036-.408a2.039,2.039,0,0,1,.06-.528,25.657,25.657,0,0,1,.84-2.628l-.5-.4c-.2.48-.48,1.188-.672,1.728a10.5,10.5,0,0,1-.108-1.62,29.184,29.184,0,0,1,.588-4.788,5.629,5.629,0,0,1,.2-.8Zm6.06,7.368c0,.792-.288,1.284-1.3,1.284-.852,0-1.428-.336-1.428-.924,0-.552.612-.948,1.5-.948a3.716,3.716,0,0,1,1.212.192C121.28,11.9,121.28,12.044,121.28,12.152Zm3.24.588a8.1,8.1,0,0,0-2.34-1.548c-.048-1-.132-2.184-.144-3.372.708-.048,1.4-.12,2.052-.228V6.656a15.137,15.137,0,0,1-2.052.276c.012-.552.024-1.1.036-1.428a6.734,6.734,0,0,1,.072-.708h-1.092a4.857,4.857,0,0,1,.06.72V6.992c-.372.012-.744.024-1.116.024a18.578,18.578,0,0,1-2.016-.108V7.82c.7.036,1.32.072,1.992.072.384,0,.756-.012,1.14-.024.012.984.084,2.124.12,3.036a5.3,5.3,0,0,0-1.1-.108c-1.56,0-2.448.816-2.448,1.812,0,1.056.876,1.716,2.472,1.716a1.8,1.8,0,0,0,2.064-1.944v-.216A9.018,9.018,0,0,1,124,13.52Zm7.992-4.02a8.106,8.106,0,0,1-2,3,12.448,12.448,0,0,1-.2-2.16V9.092a5.919,5.919,0,0,1,2.016-.372Zm-3.048.948a14.281,14.281,0,0,0,.276,2.688,3.007,3.007,0,0,1-1.632.624c-.444,0-.672-.24-.672-.72a3.767,3.767,0,0,1,2.028-2.8ZM133.64,8.06c.072-.18.168-.5.24-.66l-.96-.24a4.289,4.289,0,0,1-.12.684l-.036.108c-.144-.012-.288-.012-.432-.012a7.077,7.077,0,0,0-1.992.312c.036-.5.072-1.008.12-1.464a40.694,40.694,0,0,0,4.284-.432l-.012-.9a24.877,24.877,0,0,1-4.164.5q.072-.522.144-.9a4.316,4.316,0,0,1,.144-.528l-1.008-.024a5.077,5.077,0,0,1-.036.564c-.024.252-.06.564-.1.912-.264.012-.528.012-.792.012a19.159,19.159,0,0,1-1.956-.144l.024.9c.48.024,1.4.072,1.92.072.228,0,.468,0,.72-.012-.048.552-.108,1.152-.132,1.752-1.632.744-2.964,2.316-2.964,3.84a1.341,1.341,0,0,0,1.416,1.5,3.984,3.984,0,0,0,1.992-.648c.06.24.132.456.192.66l.876-.264c-.1-.3-.192-.624-.288-.96a9.646,9.646,0,0,0,2.628-3.84,2.1,2.1,0,0,1,1.7,2.016c0,1.536-1.32,2.64-3.456,2.868l.516.8c2.76-.432,3.888-1.92,3.888-3.624a2.932,2.932,0,0,0-2.376-2.808Zm6.576-3.528c-.012.288-.048.648-.1,1.02a31.177,31.177,0,0,0-.36,3.84,14.54,14.54,0,0,0,.12,1.884l.936-.072a4.961,4.961,0,0,1-.024-1.452c.144-1.56,1.512-3.708,2.988-3.708,1.26,0,1.884,1.344,1.884,3.216,0,2.988-2.016,4.02-4.6,4.416l.564.864c2.952-.54,5.028-1.992,5.028-5.292,0-2.5-1.14-4.08-2.724-4.08-1.5,0-2.748,1.476-3.216,2.7a22.027,22.027,0,0,1,.552-3.3Zm14.976,8.076c0,.816-.576,1.02-1.26,1.02-1.176,0-1.644-.408-1.644-.96s.612-.972,1.74-.972a6.05,6.05,0,0,1,1.152.108C155.18,12.128,155.192,12.4,155.192,12.608Zm4.332.408a9.755,9.755,0,0,0-3.456-1.848c-.024-.564-.06-1.188-.084-1.8,1.128-.048,2.184-.132,3.3-.276l-.012-.9a32.058,32.058,0,0,1-3.3.312V6.8c1.116-.06,2.136-.156,3.072-.252l-.012-.876a26.424,26.424,0,0,1-3.048.288c0-.288,0-.516.012-.66a6.115,6.115,0,0,1,.06-.792h-1.02a6.651,6.651,0,0,1,.036.708V6h-.612a18.945,18.945,0,0,1-2.784-.228v.888c.708.084,1.968.18,2.8.18h.588v1.7h-.636a21.142,21.142,0,0,1-2.988-.228v.912c.852.1,2.172.168,2.988.168h.66c.012.492.036,1.056.06,1.584a6.709,6.709,0,0,0-1-.072c-1.716,0-2.76.732-2.76,1.812,0,1.152.948,1.764,2.652,1.764,1.548,0,2.1-.852,2.1-1.668,0-.18-.012-.444-.024-.744a8.826,8.826,0,0,1,2.868,1.788Zm9.132-8.232a6.6,6.6,0,0,1,.06.888V7.364c-1.26.108-2.64.24-3.792.348l.012-1.6c0-.372.012-.7.036-.96h-1.044a6.951,6.951,0,0,1,.072,1l-.012,1.656c-.564.048-1.032.1-1.332.12-.432.036-.876.06-1.236.06l.1.984c.324-.048.84-.12,1.212-.168l1.26-.132c0,1.188,0,2.436.012,2.952.06,1.9.324,2.532,3.072,2.532,1.2,0,2.652-.12,3.444-.2l.036-1.008a24.274,24.274,0,0,1-3.528.264c-2.064,0-2.076-.432-2.112-1.716-.024-.456-.012-1.692,0-2.916,1.176-.12,2.568-.252,3.792-.348-.024.744-.072,1.536-.132,1.932-.036.264-.156.312-.444.312a7.2,7.2,0,0,1-1.188-.156l-.024.852a14.05,14.05,0,0,0,1.572.168c.54,0,.8-.156.912-.684a19.338,19.338,0,0,0,.18-2.5c.516-.036.972-.048,1.32-.06.3,0,.744-.012.936,0v-.96c-.288.024-.624.048-.936.06-.384.024-.828.06-1.3.1,0-.528.012-1.116.012-1.656.012-.252.036-.66.06-.852Zm10.812.192L178.4,4.544c-.144.348-.3.636-.432.924a86,86,0,0,0-4.2,8.568l1.044.348a18.692,18.692,0,0,1,1.02-2.7c.468-.936,1.344-1.9,2.3-1.9a.785.785,0,0,1,.864.828c.036.636.012,1.56.06,2.256a1.539,1.539,0,0,0,1.716,1.512c1.728,0,2.736-1.332,3.36-3.252l-.792-.636c-.312,1.26-1.092,2.892-2.412,2.892a.847.847,0,0,1-.948-.84c-.048-.576-.024-1.488-.048-2.2a1.36,1.36,0,0,0-1.4-1.452,2.576,2.576,0,0,0-1.74.72c.612-1.152,1.764-3.252,2.292-4.068A4.756,4.756,0,0,1,179.468,4.976Zm7.68,6.1a1.83,1.83,0,1,0,1.836,1.824A1.831,1.831,0,0,0,187.148,11.072Zm0,3.048A1.218,1.218,0,1,1,188.36,12.9,1.2,1.2,0,0,1,187.148,14.12ZM205.46,7.148v-1.5a9.1,9.1,0,0,1,.06-.984h-1.08a6.69,6.69,0,0,1,.06.984v1.5h-3.42V5.612a7.4,7.4,0,0,1,.06-.876h-1.068c.012.12.048.492.048.876V7.148h-1.284a8.854,8.854,0,0,1-1.212-.084V8.108c.144-.012.684-.048,1.212-.048h1.284V10c0,.456-.036.972-.048,1.092h1.056c-.012-.12-.048-.648-.048-1.092V8.06h3.42v.5c0,3.36-1.092,4.392-3.276,5.232l.8.756c2.748-1.224,3.432-2.868,3.432-6.072V8.06h1.32c.528,0,.972.024,1.092.036V7.088a8.416,8.416,0,0,1-1.092.06Zm4.584,2.832c.372-.036,1.008-.06,1.668-.06H218.3c.54,0,1.044.048,1.284.06V8.8c-.264.024-.7.06-1.3.06h-6.576c-.672,0-1.308-.036-1.668-.06Zm20.5-3.744a16.8,16.8,0,0,0-.984-1.632l-.636.264a13.716,13.716,0,0,1,.972,1.668Zm-6.432,3.432a46,46,0,0,0,4.908-1.56c.36-.132.792-.324,1.128-.468l-.42-.96a7.941,7.941,0,0,1-1.056.54,32.686,32.686,0,0,1-4.56,1.464V5.972a7.967,7.967,0,0,1,.06-.972h-1.116a5.225,5.225,0,0,1,.072.972v6.6c0,.972.516,1.392,1.44,1.56a12.61,12.61,0,0,0,1.92.12A33.551,33.551,0,0,0,230.636,14V12.908a19.64,19.64,0,0,1-4.1.384,11.4,11.4,0,0,1-1.584-.1c-.588-.12-.84-.276-.84-.888Zm6.132-5.28a12.614,12.614,0,0,1,1,1.656l.648-.3a17.17,17.17,0,0,0-1.008-1.632ZM12.56,26.5a3.2,3.2,0,0,1-.9.108H7.028c-.36,0-1.044-.06-1.212-.084V27.62c.132-.012.792-.06,1.212-.06h4.68A10.693,10.693,0,0,1,9.716,30.9,13.722,13.722,0,0,1,4.772,34.46l.768.8a15.213,15.213,0,0,0,4.68-3.5,27.707,27.707,0,0,1,3.3,3.564l.84-.732a34.414,34.414,0,0,0-3.5-3.576A15.187,15.187,0,0,0,12.872,27.5a3.442,3.442,0,0,1,.3-.528Zm7.02-.156a14.643,14.643,0,0,0,2.16-.636l-.66-.684a23.421,23.421,0,0,1-4.956,1.164,2.553,2.553,0,0,1,.276.708c.744-.108,1.536-.228,2.316-.372v2.028H16.208v.816h2.328a12.477,12.477,0,0,1-2.592,4.056,5.787,5.787,0,0,1,.492.828,12.873,12.873,0,0,0,2.28-3.54v5.172h.864V31.16c.612.564,1.38,1.332,1.74,1.728l.516-.732c-.348-.312-1.716-1.488-2.256-1.908v-.876h2.292v-.816H19.58Zm3.96.036h-.864v6.564h.864ZM25.6,25.2v9.54c0,.228-.1.3-.312.3s-.984.012-1.824-.012a3.548,3.548,0,0,1,.324.9,8.154,8.154,0,0,0,2.16-.156c.372-.156.54-.432.54-1.044V25.2Zm8.472,6.216V29.42H37.3v1.992Zm-3.8,0c.036-.444.048-.888.048-1.284V29.42h2.868v1.992Zm2.916-4.752v1.92H30.32V26.66ZM37.3,28.58H34.076V26.66H37.3Zm.876-2.772H29.444v4.32c0,1.668-.12,3.78-1.44,5.268a2.912,2.912,0,0,1,.684.588,6.89,6.89,0,0,0,1.5-3.72h3V35.8h.888v-3.54H37.3V34.7c0,.228-.084.3-.324.312-.216,0-1.032.012-1.872-.024a3.527,3.527,0,0,1,.3.864,7.83,7.83,0,0,0,2.232-.144c.384-.156.54-.42.54-1ZM48.1,27.272a9.25,9.25,0,0,0-1.884-1.464l-.456.6a9.914,9.914,0,0,1,1.884,1.548Zm-.528,2.868a9.686,9.686,0,0,0-2-1.344l-.42.624a9.714,9.714,0,0,1,1.98,1.44ZM44.12,25.676a22.167,22.167,0,0,1-.792,2.7l.576.192a24.555,24.555,0,0,0,.984-2.7Zm-2.5,2.676a11.052,11.052,0,0,0-.708-2.628l-.648.156a11.647,11.647,0,0,1,.648,2.652ZM42.932,29.8h1.956v-.84H42.932V25H42.1v3.96h-1.92v.84h1.68A12.611,12.611,0,0,1,40,33.536a6.5,6.5,0,0,1,.444.864A13.762,13.762,0,0,0,42.1,30.98v4.932h.828v-4.92c.432.672,1,1.6,1.212,2.04l.588-.7c-.264-.408-1.464-1.992-1.8-2.364Zm8.184,2.46-.132-.816-1.416.252V24.968h-.84v6.888l-3.864.684.144.828,3.72-.672v3.216h.84V32.54Zm3.324,5.1.684-.324a11.613,11.613,0,0,1,0-11.544l-.684-.312a11.394,11.394,0,0,0,0,12.18ZM58.4,35h1.092V32.876h2.184V32.24H59.492v-.876h2.184V30.74H59.768l2.208-4.3h-1.1l-1.056,2.3c-.276.588-.528,1.176-.816,1.812h-.06c-.288-.636-.54-1.224-.8-1.812l-1.044-2.3H55.94l2.184,4.3H56.24v.624H58.4v.876H56.24v.636H58.4Zm7.056.156a2.561,2.561,0,0,0,2.82-2.508A2.262,2.262,0,0,0,66.4,30.416v-.048a2.193,2.193,0,0,0,1.572-2.124c0-1.416-1.08-2.208-2.556-2.208a3.522,3.522,0,0,0-2.46,1.056l.588.7a2.745,2.745,0,0,1,1.824-.876,1.374,1.374,0,0,1,1.488,1.416c0,.948-.624,1.68-2.436,1.68v.84c2.028,0,2.736.708,2.736,1.764a1.62,1.62,0,0,1-1.788,1.632,2.908,2.908,0,0,1-2.184-1.008l-.552.72A3.641,3.641,0,0,0,65.456,35.156Zm6.828,0c1.668,0,2.736-1.524,2.736-4.584s-1.068-4.536-2.736-4.536-2.748,1.476-2.748,4.536S70.6,35.156,72.284,35.156Zm0-.876c-1.008,0-1.68-1.116-1.68-3.708,0-2.568.672-3.648,1.68-3.648s1.668,1.08,1.668,3.648C73.952,33.164,73.28,34.28,72.284,34.28Zm6.66.876c1.668,0,2.736-1.524,2.736-4.584s-1.068-4.536-2.736-4.536S76.2,27.512,76.2,30.572,77.264,35.156,78.944,35.156Zm0-.876c-1.008,0-1.68-1.116-1.68-3.708,0-2.568.672-3.648,1.68-3.648s1.668,1.08,1.668,3.648C80.612,33.164,79.94,34.28,78.944,34.28ZM82.4,37.148h.8l3.588-11.664H86ZM90.212,25A13.842,13.842,0,0,1,87.4,29.768a4.989,4.989,0,0,1,.5.876,13.6,13.6,0,0,0,1.1-1.4V35.9h.852V27.86a21.017,21.017,0,0,0,1.188-2.592Zm8.136,5.9H95.1V28.28h2.736V27.4H95.1V25.112h-.888V27.4h-1.6c.156-.54.288-1.1.4-1.668l-.84-.18a10.619,10.619,0,0,1-1.476,4.092,5.191,5.191,0,0,1,.768.456,9.222,9.222,0,0,0,.864-1.824h1.884v2.628h-3.42v.876h3.42v4.14H95.1v-4.14h3.252Zm1.812,6.456a11.329,11.329,0,0,0,0-12.18l-.672.312a11.613,11.613,0,0,1,0,11.544Zm4.908-11.58a5.241,5.241,0,0,1-.084.84,37.029,37.029,0,0,0-.54,4.992,14.359,14.359,0,0,0,.456,3.768l.852-.072c-.012-.12-.036-.288-.036-.408a2.039,2.039,0,0,1,.06-.528,25.655,25.655,0,0,1,.84-2.628l-.5-.4c-.2.48-.48,1.188-.672,1.728a10.5,10.5,0,0,1-.108-1.62,29.184,29.184,0,0,1,.588-4.788,5.629,5.629,0,0,1,.2-.8Zm6.06,7.368c0,.792-.288,1.284-1.3,1.284-.852,0-1.428-.336-1.428-.924,0-.552.612-.948,1.5-.948a3.716,3.716,0,0,1,1.212.192C111.128,32.9,111.128,33.044,111.128,33.152Zm3.24.588a8.1,8.1,0,0,0-2.34-1.548c-.048-1-.132-2.184-.144-3.372.708-.048,1.4-.12,2.052-.228v-.936a15.137,15.137,0,0,1-2.052.276c.012-.552.024-1.1.036-1.428a6.734,6.734,0,0,1,.072-.708H110.9a4.857,4.857,0,0,1,.06.72v1.476c-.372.012-.744.024-1.116.024a18.579,18.579,0,0,1-2.016-.108v.912c.7.036,1.32.072,1.992.072.384,0,.756-.012,1.14-.024.012.984.084,2.124.12,3.036a5.3,5.3,0,0,0-1.1-.108c-1.56,0-2.448.816-2.448,1.812,0,1.056.876,1.716,2.472,1.716a1.8,1.8,0,0,0,2.064-1.944v-.216a9.018,9.018,0,0,1,1.788,1.356Zm6.324-1.752V30.356h1.8v1.008c0,.2-.012.42-.024.624Zm4.476-1.632v1.632h-1.9c.012-.2.024-.4.024-.6V30.356Zm-4.224-2.58a8.9,8.9,0,0,0,1.98-2,9.676,9.676,0,0,0,2.064,2Zm5.04,4.944V29.636H123.3v-1.1h1.92v-.6a10.939,10.939,0,0,0,1.032.636,4.69,4.69,0,0,1,.48-.78,8.906,8.906,0,0,1-3.444-2.808h-.8a7.886,7.886,0,0,1-2.976,2.748v-.2h-1.3V24.956h-.84v2.568h-1.68v.828H117.3a13.515,13.515,0,0,1-1.86,4.524,6.39,6.39,0,0,1,.468.78,12.533,12.533,0,0,0,1.464-3.3V35.9h.84V30.284a18.259,18.259,0,0,1,.948,1.728l.492-.708c-.192-.312-1.1-1.62-1.44-2.052v-.9h1.3V28.28a2.517,2.517,0,0,1,.156.312,8.775,8.775,0,0,0,1.008-.624v.564h1.824v1.1H119.9V32.72h2.412c-.312,1-1.14,1.908-3.228,2.58a2.38,2.38,0,0,1,.48.672c2.052-.684,3-1.668,3.432-2.748a5.1,5.1,0,0,0,3.132,2.748,2.293,2.293,0,0,1,.516-.756,4.52,4.52,0,0,1-3.024-2.5Zm9.444-4.128h-4.764V26.324h4.764Zm.9-3.12H129.8v3.972h6.528Zm-4.908,6.1v2.844h-2.508V31.568Zm-3.36,4.356h.852v-.648h2.508v.54h.876V30.7H128.06Zm6.408-1.512V31.568h2.724v2.844ZM133.6,30.7v5.22h.864v-.648h2.724v.564h.876V30.7Zm16.56-1.992a17.972,17.972,0,0,0-2.784-1.584l-.468.744a14.274,14.274,0,0,1,2.712,1.632Zm-4.32-1.8a12.152,12.152,0,0,1-1.848.432c.192-.684.348-1.4.468-1.836l-1.068-.1a9.741,9.741,0,0,1-.372,2.052c-.456.036-.9.06-1.32.06a11.194,11.194,0,0,1-1.464-.084l.072.9c.444.024.936.036,1.38.036q.522,0,1.044-.036a17.046,17.046,0,0,1-2.544,4.44l.936.48a21.353,21.353,0,0,0,2.592-5.028,14.137,14.137,0,0,0,2.148-.432Zm.624,6.636c0,.588-.324,1.128-1.3,1.128-.924,0-1.368-.372-1.368-.924s.576-.936,1.452-.936a4.327,4.327,0,0,1,1.2.168C146.468,33.2,146.468,33.392,146.468,33.548ZM146.3,29.18c.024.828.084,1.992.12,2.964a5.623,5.623,0,0,0-1.128-.108c-1.344,0-2.376.708-2.376,1.8,0,1.176,1.068,1.716,2.376,1.716,1.464,0,2.088-.78,2.088-1.728,0-.132,0-.3-.012-.48a8.267,8.267,0,0,1,1.908,1.356l.516-.816a8.021,8.021,0,0,0-2.46-1.488c-.024-.72-.072-1.5-.084-1.932a11.561,11.561,0,0,1,.012-1.284ZM159.512,27.3a5.653,5.653,0,0,1-.84.564c-.648.36-1.728.876-2.772,1.512a25.16,25.16,0,0,1-1.584-3.516l-.948.4c.552,1.272,1.176,2.664,1.716,3.636-1.272.888-2.052,1.872-2.052,3.1,0,1.776,1.632,2.448,3.852,2.448a23.2,23.2,0,0,0,3.756-.288l.012-1.08a17.5,17.5,0,0,1-3.8.408c-1.872,0-2.808-.612-2.808-1.6,0-.9.66-1.668,1.764-2.4a35.076,35.076,0,0,1,3.288-1.8c.348-.18.636-.336.9-.5Zm.072-1.32a12.4,12.4,0,0,1,.984,1.668l.648-.288a17.21,17.21,0,0,0-.984-1.656Zm1.332-.48a9.937,9.937,0,0,1,1,1.656l.648-.3a15.027,15.027,0,0,0-1.008-1.632Zm5.6,9.48a22.522,22.522,0,0,0-2.688-2.664l-.78.684a19.306,19.306,0,0,1,2.652,2.676Zm9.876-7.92h8.1v1.728h.924V26.228h-4.56V24.956h-.924v1.272H175.5v2.556h.9Zm6.132,3.312a5.5,5.5,0,0,1-1.668,2.808c-.936-.348-1.884-.672-2.772-.936.324-.576.672-1.224,1.008-1.872Zm3.192,0v-.84h-6.192c.3-.6.6-1.188.852-1.728l-.912-.2c-.276.588-.612,1.248-.948,1.932h-3.372v.84h2.928c-.552,1.056-1.116,2.088-1.572,2.844l.9.24c.1-.156.192-.324.3-.5.756.228,1.56.516,2.352.828a11.826,11.826,0,0,1-4.632,1.356,3.632,3.632,0,0,1,.54.8,11.761,11.761,0,0,0,5.052-1.776,21.486,21.486,0,0,1,3.48,1.776l.648-.744a23.286,23.286,0,0,0-3.372-1.656,6.9,6.9,0,0,0,1.776-3.168Zm6.168-5.424a14.313,14.313,0,0,1-4.968,4.572,3.658,3.658,0,0,1,.552.708,16.014,16.014,0,0,0,4.908-4.4,17.81,17.81,0,0,0,5.016,4.344,3.981,3.981,0,0,1,.588-.792,15.243,15.243,0,0,1-5.208-4.428Zm.96,7.872h3.636v-.792h-3.636V30.152h3.18v-.8H188.9v.8h3.036v1.872H188.36v.792h3.576v1.956h-4.548v.816h10.14v-.816h-4.68Zm7.728-6.9a7.105,7.105,0,0,1-.084.84,33.008,33.008,0,0,0-.528,4.764,14.883,14.883,0,0,0,.432,3.816l.864-.06-.036-.42a2.966,2.966,0,0,1,.06-.528,25.8,25.8,0,0,1,.84-2.664l-.516-.384c-.192.468-.456,1.164-.66,1.7a12.407,12.407,0,0,1-.1-1.632,27.344,27.344,0,0,1,.576-4.548c.048-.216.156-.6.228-.8Zm2.928,5.76a6.887,6.887,0,0,0-.192,1.4c0,1.116.888,1.776,2.88,1.776a15.792,15.792,0,0,0,2.964-.24l-.012-1.008a12.918,12.918,0,0,1-2.94.312c-1.632,0-1.992-.528-1.992-1.068a4.413,4.413,0,0,1,.156-1.092Zm.408-3.78a30.019,30.019,0,0,0,4.872,0v-.984a20.772,20.772,0,0,1-4.884,0Zm16.968-.72a.791.791,0,0,1-.792-.792.792.792,0,1,1,.792.792Zm-7.692-.4a11.954,11.954,0,0,1-1.2-.072v1.056c.3-.012.72-.036,1.188-.036h6.144a9.13,9.13,0,0,1-1.572,3.912,7.94,7.94,0,0,1-4.68,2.88l.816.9a9.186,9.186,0,0,0,4.728-3.2,11.922,11.922,0,0,0,1.788-4.428l.024-.132a1.451,1.451,0,0,0,.456.072,1.36,1.36,0,1,0-1.284-.96c-.144.012-.276.012-.4.012Zm12.6,8.436a1.711,1.711,0,0,1,.5-.216,13.962,13.962,0,0,0,7.02-4.284l-.54-.84a12.949,12.949,0,0,1-6.564,4.092v-6.8a7.76,7.76,0,0,1,.084-1.092h-1.176a9.25,9.25,0,0,1,.1,1.092v6.864a1.322,1.322,0,0,1-.12.588ZM22.028,48.092a18.6,18.6,0,0,0-.984-1.644l-.636.276a14.544,14.544,0,0,1,.972,1.656Zm-5.652-.048a8.547,8.547,0,0,1,.084-1.1H15.332a6.738,6.738,0,0,1,.072,1.1V50.1c-1.272.24-2.4.444-2.94.5l.18,1.008c.492-.108,1.548-.324,2.76-.564v3.624c0,1.176.42,1.764,2.652,1.764a25.624,25.624,0,0,0,3.768-.252l.036-1.032a18.153,18.153,0,0,1-3.732.36c-1.44,0-1.752-.264-1.752-1.092V50.84c2.124-.432,4.344-.876,4.548-.912a11.736,11.736,0,0,1-2.136,2.856l.828.492a17.4,17.4,0,0,0,2.46-3.492c.084-.144.216-.348.3-.48l-.708-.552a2.056,2.056,0,0,1-.636.216c-.5.12-2.616.552-4.656.948Zm5.352-1.8a11.3,11.3,0,0,1,1,1.644l.648-.288a17.17,17.17,0,0,0-1.008-1.632Zm4.9.96-.684.732a24.922,24.922,0,0,1,2.988,2.508l.756-.756A26.276,26.276,0,0,0,26.624,47.2Zm-1.032,8.04.636.984a12.935,12.935,0,0,0,4.716-1.872,11.969,11.969,0,0,0,4.032-4.26l-.576-1.02a11.3,11.3,0,0,1-4.008,4.416A12.391,12.391,0,0,1,25.592,55.244ZM46.064,51.9a39,39,0,0,0-5.124-1.98V47.96c0-.36.048-.876.084-1.248H39.848a7.574,7.574,0,0,1,.1,1.248v6.984a13.14,13.14,0,0,1-.072,1.416h1.152a14.166,14.166,0,0,1-.072-1.416l-.012-3.96a31.46,31.46,0,0,1,4.716,1.932ZM55,54.38c-.012-.576-.024-1.584-.036-2.268.9-.42,1.752-.768,2.424-1.032.312-.12.744-.288,1.044-.372l-.384-.9c-.336.168-.624.312-.984.468-.624.288-1.344.576-2.16.96a1.494,1.494,0,0,0-1.572-1.08,3.371,3.371,0,0,0-1.644.444,8.527,8.527,0,0,0,1.068-1.824A36.713,36.713,0,0,0,56.7,48.44l.012-.888a31.89,31.89,0,0,1-3.636.36c.168-.54.276-1.032.36-1.368l-.984-.084a6.439,6.439,0,0,1-.3,1.476c-.276.012-.528.012-.78.012-.54,0-1.368-.048-2-.12v.9c.648.048,1.452.072,1.956.072h.492a12.574,12.574,0,0,1-2.736,3.624l.816.612c.408-.48.744-.924,1.08-1.248a3.163,3.163,0,0,1,2.052-.876,1,1,0,0,1,1.068.732c-1.38.72-2.8,1.608-2.8,3.012,0,1.452,1.368,1.812,3.072,1.812a30.6,30.6,0,0,0,3.252-.192l.024-.972a20.921,20.921,0,0,1-3.24.288c-1.224,0-2.148-.132-2.148-1.068,0-.78.768-1.392,1.872-1.992,0,.624-.012,1.392-.048,1.848Zm8.424.936c-.468,0-1.284-.468-1.284-1.008s.708-1.212,1.668-1.668c.012.864.036,1.668.036,2.1C63.848,55.112,63.7,55.316,63.428,55.316Zm1.248-4.284c0-.48.012-1.044.024-1.608a24.137,24.137,0,0,0,2.472-.408l-.012-.948a15.633,15.633,0,0,1-2.436.48c.012-.528.024-1,.036-1.284s.036-.6.06-.816H63.776a4.661,4.661,0,0,1,.072.84c0,.216-.012.732-.024,1.356-.324.024-.636.036-.912.036a10.791,10.791,0,0,1-1.512-.1l.024.912a14.866,14.866,0,0,0,1.512.06c.252,0,.552-.012.876-.036-.012.528-.012,1.08-.012,1.56v.672c-1.368.588-2.6,1.62-2.6,2.592,0,1.068,1.548,1.968,2.484,1.968.636,0,1.056-.348,1.056-1.452,0-.516-.024-1.56-.048-2.568a7.655,7.655,0,0,1,2.58-.468c1.128,0,2.04.54,2.04,1.548,0,1.1-.948,1.668-1.992,1.86a6.833,6.833,0,0,1-1.392.084l.336.948a7.616,7.616,0,0,0,1.464-.156c1.632-.4,2.532-1.308,2.532-2.748,0-1.416-1.248-2.364-2.976-2.364a8.812,8.812,0,0,0-2.6.432Zm3.42-2.544a15.363,15.363,0,0,1,2.664,1.776l.48-.768a20.009,20.009,0,0,0-2.712-1.74Zm13.236-2.532a11.887,11.887,0,0,1-1.116,2.016l.732.264c.4-.5.876-1.3,1.3-1.98Zm1.92,5.544v-.8H79.808a2.924,2.924,0,0,0,.012-.324V49.028h3.072v-.792H77.72l.72-.324A6.664,6.664,0,0,0,77.348,46l-.756.3a6.628,6.628,0,0,1,1.032,1.932h-1.5v.792h2.808V50.36a3.258,3.258,0,0,1-.012.336H75.74v.8h3.084c-.216,1.032-.912,2.172-2.988,3.012a4.225,4.225,0,0,1,.588.66,5.252,5.252,0,0,0,3.132-3.036,4.952,4.952,0,0,0,3.156,3.084,3.046,3.046,0,0,1,.564-.744A4.385,4.385,0,0,1,80.144,51.5ZM75.4,48.1a8.884,8.884,0,0,0-2.088-1.848l-.66.54a8.279,8.279,0,0,1,2.04,1.9Zm-.336,2.556H72.524v.84h1.668v3.036A20.038,20.038,0,0,1,72.368,55.9l.48.9c.636-.516,1.236-1.032,1.812-1.536a4.276,4.276,0,0,0,3.4,1.416c1.32.048,3.78.024,5.088-.024a4.06,4.06,0,0,1,.288-.912c-1.4.1-4.068.132-5.376.084a3.493,3.493,0,0,1-2.988-1.344Zm11.868-4.128c-.012.288-.048.648-.1,1.02a31.176,31.176,0,0,0-.36,3.84,14.54,14.54,0,0,0,.12,1.884l.936-.072a4.961,4.961,0,0,1-.024-1.452c.144-1.56,1.512-3.708,2.988-3.708,1.26,0,1.884,1.344,1.884,3.216,0,2.988-2.016,4.02-4.6,4.416l.564.864C91.3,56,93.38,54.548,93.38,51.248c0-2.5-1.14-4.08-2.724-4.08-1.5,0-2.748,1.476-3.216,2.7a22.025,22.025,0,0,1,.552-3.3Zm14.724,6.66a1.143,1.143,0,0,1-1.212-1.176,1.207,1.207,0,0,1,1.2-1.248,1.055,1.055,0,0,1,1.056.732C102.812,52.628,102.356,53.192,101.66,53.192Zm1.836-4.3c1.74,0,2.82.024,3.492.06l.012-.9c-.576,0-2.04-.012-3.48-.012h-.18c0-.312.012-.588.012-.768l.06-.744H102.32c.024.144.06.492.072.744.012.168.024.444.024.78-1.764.024-4,.1-5.316.12l.024.936c1.488-.108,3.5-.192,5.3-.2.012.408.012.828.012,1.176a2.383,2.383,0,0,0-.792-.132,2.089,2.089,0,0,0-2.1,2.076,1.914,1.914,0,0,0,1.968,1.992,1.707,1.707,0,0,0,1.02-.3,4.243,4.243,0,0,1-3.156,2.064l.828.8c2.76-.828,3.54-2.616,3.54-4.224a2.9,2.9,0,0,0-.384-1.524c-.012-.54-.024-1.272-.024-1.944ZM113.888,55.6c-.888,0-1.572-.336-1.572-.924,0-.408.408-.732.948-.732a1.587,1.587,0,0,1,1.572,1.584A5.853,5.853,0,0,1,113.888,55.6Zm2.448-8.628a4.254,4.254,0,0,1-.648.1c-.624.06-3.444.144-4.056.144a6.747,6.747,0,0,1-.84-.036l.024,1a5.721,5.721,0,0,1,.8-.072c.612-.036,2.952-.144,3.576-.168-.588.528-2.064,1.776-2.724,2.328-.7.576-2.22,1.848-3.2,2.664l.7.708c1.512-1.536,2.592-2.364,4.548-2.364,1.5,0,2.676.852,2.676,2.016a2.072,2.072,0,0,1-1.476,2.016,2.346,2.346,0,0,0-2.448-2.1,1.688,1.688,0,0,0-1.836,1.56c0,.984,1,1.7,2.616,1.7,2.508,0,4.1-1.248,4.1-3.168,0-1.608-1.428-2.808-3.408-2.808a5.05,5.05,0,0,0-1.608.252c.912-.768,2.508-2.172,3.1-2.616.18-.132.444-.312.66-.456ZM126.344,51.1a19.093,19.093,0,0,1,2.2-.132,17.093,17.093,0,0,1,2,.144l.024-.912a18.976,18.976,0,0,0-2.052-.1c-.768,0-1.548.036-2.172.1Zm.768-3.12a17.221,17.221,0,0,1-2.268.432l.18-.876c.048-.24.132-.684.216-.948l-1.164-.1a5.668,5.668,0,0,1-.036.984c-.036.24-.1.612-.18,1.044-.456.024-.876.048-1.272.048a10.594,10.594,0,0,1-1.428-.084l.036.936c.42.024.852.048,1.38.048q.5,0,1.08-.036c-.1.432-.192.864-.3,1.26a26.406,26.406,0,0,1-1.992,5.316l1.056.348a35.23,35.23,0,0,0,1.86-5.448c.132-.5.264-1.056.372-1.572a22.861,22.861,0,0,0,2.46-.408Zm-1.368,5.028a6.623,6.623,0,0,0-.18,1.4c0,1.176.984,1.752,2.856,1.752a17.644,17.644,0,0,0,2.292-.156l.036-.972a13.291,13.291,0,0,1-2.316.228c-1.692,0-1.956-.54-1.956-1.1a4.238,4.238,0,0,1,.168-1.068Zm11.028-.864a13.359,13.359,0,0,1-.912-2.088,5.1,5.1,0,0,1,2.532-.816,15.171,15.171,0,0,1-1.38,3.3C136.928,52.412,136.844,52.28,136.772,52.148Zm-2.04,2.5c-.54,0-.888-.48-.888-1.272a4.042,4.042,0,0,1,1.272-2.748,14.868,14.868,0,0,0,1.056,2.28c.1.156.192.312.288.456C135.932,54.056,135.32,54.644,134.732,54.644Zm4.14-7.992a4.413,4.413,0,0,1-.072.9c-.048.276-.108.564-.18.852a6.032,6.032,0,0,0-3.048.84c-.108-.336-.2-.636-.276-.912-.084-.324-.18-.72-.24-1.044l-1,.312a9.143,9.143,0,0,1,.384,1.068c.108.348.228.72.36,1.092a5,5,0,0,0-1.836,3.672c0,1.4.768,2.16,1.668,2.16a3.211,3.211,0,0,0,2.352-1.476c.18.24.372.456.564.672l.744-.612a7.061,7.061,0,0,1-.732-.828A15.461,15.461,0,0,0,139.3,49.3a2.883,2.883,0,0,1,2.472,2.964c0,1.824-1.38,3.132-3.852,3.348l.576.852c2.544-.348,4.236-1.8,4.236-4.164a3.729,3.729,0,0,0-3.216-3.828c.072-.276.132-.54.192-.8.06-.228.132-.636.2-.924Zm7.176.264a7.105,7.105,0,0,1-.084.84,33.008,33.008,0,0,0-.528,4.764,14.883,14.883,0,0,0,.432,3.816l.864-.06-.036-.42a2.966,2.966,0,0,1,.06-.528,25.8,25.8,0,0,1,.84-2.664l-.516-.384c-.192.468-.456,1.164-.66,1.7a12.407,12.407,0,0,1-.1-1.632A27.344,27.344,0,0,1,146.9,47.8c.048-.216.156-.6.228-.8Zm2.928,5.76a6.887,6.887,0,0,0-.192,1.4c0,1.116.888,1.776,2.88,1.776a15.792,15.792,0,0,0,2.964-.24l-.012-1.008a12.918,12.918,0,0,1-2.94.312c-1.632,0-1.992-.528-1.992-1.068a4.413,4.413,0,0,1,.156-1.092Zm.408-3.78a30.019,30.019,0,0,0,4.872,0v-.984a20.772,20.772,0,0,1-4.884,0Zm12.816-1.68h2.34v1.992c0,.684.06.888.252,1.044a1.254,1.254,0,0,0,.732.216h.672a1.75,1.75,0,0,0,.624-.12.643.643,0,0,0,.372-.4,5.762,5.762,0,0,0,.132-1.164,2.044,2.044,0,0,1-.684-.348,7.221,7.221,0,0,1-.06.972.365.365,0,0,1-.144.264.936.936,0,0,1-.288.036h-.432a.385.385,0,0,1-.216-.048c-.06-.048-.072-.18-.072-.42v-2.82h-4.08v1.392a2.852,2.852,0,0,1-1.4,2.628,3.558,3.558,0,0,1,.708.54,3.553,3.553,0,0,0,1.548-3.156Zm-3.18-1.248a9.561,9.561,0,0,1-2.64,2.544,4.619,4.619,0,0,1,.468.72A11.285,11.285,0,0,0,159.86,46.3Zm.4,2.352a11.26,11.26,0,0,1-3.2,3.4,6.255,6.255,0,0,1,.528.816,15.31,15.31,0,0,0,1.428-1.284V56.9h.864V50.288a13.736,13.736,0,0,0,1.188-1.668Zm5.892,3.7a7.174,7.174,0,0,1-1.8,2.268,6.307,6.307,0,0,1-1.62-2.268Zm.624-.852-.18.036h-5.4v.816h1.356l-.636.192a7.82,7.82,0,0,0,1.74,2.592,9.873,9.873,0,0,1-3.132,1.38,3.892,3.892,0,0,1,.492.756,11.057,11.057,0,0,0,3.324-1.548,8.712,8.712,0,0,0,3.444,1.536,3.75,3.75,0,0,1,.576-.78,8.692,8.692,0,0,1-3.3-1.308,7.787,7.787,0,0,0,2.3-3.4ZM178.9,48.308h-4.572v-2.34h-.912v2.34h-4.452v.864H178.9Zm-6.324,6.4a17.953,17.953,0,0,0-1.176-4.9l-.828.216a18.1,18.1,0,0,1,1.1,4.9Zm2.976.816a55.35,55.35,0,0,0,1.7-5.592l-1.008-.192a39.583,39.583,0,0,1-1.62,5.784h-6.06V56.4h10.68V55.52Zm5.412-7.488.108,1.056c1.284-.264,4.524-.576,5.568-.7a4.787,4.787,0,0,0-2.208,4.008c0,2.652,2.508,3.828,4.7,3.912l.348-1c-1.932-.072-4.092-.8-4.092-3.132a4.14,4.14,0,0,1,2.712-3.744,9.9,9.9,0,0,1,2.328-.192v-.96c-.792.036-1.908.1-3.2.2-2.184.18-4.428.408-5.208.48C181.8,48,181.424,48.02,180.968,48.032Zm16.344,6.576c0,.816-.576,1.02-1.26,1.02-1.176,0-1.644-.408-1.644-.96s.612-.972,1.74-.972a6.049,6.049,0,0,1,1.152.108C197.3,54.128,197.312,54.4,197.312,54.608Zm4.332.408a9.755,9.755,0,0,0-3.456-1.848c-.024-.564-.06-1.188-.084-1.8,1.128-.048,2.184-.132,3.3-.276l-.012-.9a32.057,32.057,0,0,1-3.3.312V48.8c1.116-.06,2.136-.156,3.072-.252l-.012-.876a26.424,26.424,0,0,1-3.048.288c0-.288,0-.516.012-.66a6.115,6.115,0,0,1,.06-.792h-1.02a6.651,6.651,0,0,1,.036.708V48h-.612a18.944,18.944,0,0,1-2.784-.228v.888c.708.084,1.968.18,2.8.18h.588v1.7h-.636a21.141,21.141,0,0,1-2.988-.228v.912c.852.1,2.172.168,2.988.168h.66c.012.492.036,1.056.06,1.584a6.709,6.709,0,0,0-1-.072c-1.716,0-2.76.732-2.76,1.812,0,1.152.948,1.764,2.652,1.764,1.548,0,2.1-.852,2.1-1.668,0-.18-.012-.444-.024-.744a8.826,8.826,0,0,1,2.868,1.788Zm7.416-1.824a1.143,1.143,0,0,1-1.212-1.176,1.207,1.207,0,0,1,1.2-1.248,1.055,1.055,0,0,1,1.056.732C210.212,52.628,209.756,53.192,209.06,53.192Zm1.836-4.3c1.74,0,2.82.024,3.492.06l.012-.9c-.576,0-2.04-.012-3.48-.012h-.18c0-.312.012-.588.012-.768l.06-.744H209.72c.024.144.06.492.072.744.012.168.024.444.024.78-1.764.024-4,.1-5.316.12l.024.936c1.488-.108,3.5-.192,5.3-.2.012.408.012.828.012,1.176a2.383,2.383,0,0,0-.792-.132,2.089,2.089,0,0,0-2.1,2.076,1.914,1.914,0,0,0,1.968,1.992,1.707,1.707,0,0,0,1.02-.3,4.243,4.243,0,0,1-3.156,2.064l.828.8c2.76-.828,3.54-2.616,3.54-4.224a2.9,2.9,0,0,0-.384-1.524c-.012-.54-.024-1.272-.024-1.944Zm5.532,4.176a1.83,1.83,0,1,0,1.836,1.824A1.831,1.831,0,0,0,216.428,53.072Zm0,3.048A1.218,1.218,0,1,1,217.64,54.9,1.2,1.2,0,0,1,216.428,56.12Z" transform="translate(862 4539)" fill="#352e64"/>
    <g id="グループ_908" data-name="グループ 908" transform="translate(13746 18055)">
      <g id="楕円形_131" data-name="楕円形 131" transform="translate(-12796 -13642)" fill="none" stroke="red" stroke-width="3">
        <circle cx="31.5" cy="31.5" r="31.5" stroke="none"/>
        <circle cx="31.5" cy="31.5" r="30" fill="none"/>
      </g>
      <text id="_" data-name="¥" transform="translate(-12776 -13597)" fill="red" font-size="19" font-family="Futura-Medium, Futura" font-weight="500"><tspan x="-5.863" y="0">¥</tspan></text>
      <path id="パス_619" data-name="パス 619" d="M-9.314-13.364q0-6.306,2.939-10.066A7.836,7.836,0,0,1,0-26.831a7.836,7.836,0,0,1,6.375,3.4q2.939,3.76,2.939,10.237,0,6.46-2.939,10.22A7.822,7.822,0,0,1,.017.427a7.912,7.912,0,0,1-6.392-3.4Q-9.314-6.733-9.314-13.364Zm3.914.017a15.636,15.636,0,0,0,1.521,7.3Q-2.358-3.2,0-3.2q2.341,0,3.879-2.854A14.91,14.91,0,0,0,5.417-13.21a15.013,15.013,0,0,0-1.538-7.178Q2.341-23.225,0-23.225q-2.324,0-3.862,2.837A14.567,14.567,0,0,0-5.4-13.347Z" transform="translate(-12758 -13597)" fill="#352e64"/>
    </g>
  </g>
</svg>
