<svg xmlns="http://www.w3.org/2000/svg" width="286" height="280" viewBox="0 0 286 280">
  <g id="グループ_944" data-name="グループ 944" transform="translate(-497 -4371)">
    <rect id="長方形_600" data-name="長方形 600" width="286" height="280" rx="15" transform="translate(497 4371)" fill="#fff"/>
    <path id="パス_616" data-name="パス 616" d="M-36.261-8.806v.561H-38.93v-.561ZM-38.93-6.579v-.578h2.669v.578Zm4.488,1.156V-9.979h-6.324V1.462h1.836V-5.423ZM-31.6-6.579v-.578h2.737v.578Zm2.737-2.227v.561H-31.6v-.561Zm-6.528,7.684v-.731h2.822v.731Zm2.822-2.533v.714h-2.822v-.714Zm5.593-6.324h-6.443v4.556h4.556V-.6c0,.255-.085.323-.34.323-.221,0-.9.017-1.581-.017V-4.777h-6.426V.578h1.819v-.6h4.437a5.95,5.95,0,0,1,.425,1.479,6.336,6.336,0,0,0,2.754-.323c.612-.272.8-.765.8-1.7Zm-4.1-3.23q.229-.433.408-.867l-1.938-.459A8.079,8.079,0,0,1-34.238-12v-1.207h-3.774c.136-.272.272-.544.391-.816l-1.887-.51a9.033,9.033,0,0,1-2.5,3.4,10.636,10.636,0,0,1,1.649,1.088,12.635,12.635,0,0,0,1.394-1.632h.187a7.774,7.774,0,0,1,.748,1.6l1.768-.493a7.536,7.536,0,0,0-.561-1.105h2.261q-.306.281-.612.51a12.889,12.889,0,0,1,1.785.952,9.4,9.4,0,0,0,1.326-1.462h.884a7.713,7.713,0,0,1,1,1.632l1.819-.51a6.54,6.54,0,0,0-.731-1.122h2.805v-1.53Zm9.894,7.259V-7.106h3.111V-5.95Zm3.111-2.7h-3.111V-9.792h3.111Zm5.3,0H-16V-9.792h3.23Zm0,2.7H-16V-7.106h3.23Zm3.451,2.771H-16v-1.1h5.321v-7.157h-1.343c.51-.68,1.071-1.5,1.581-2.312L-12.7-14.4a15.631,15.631,0,0,1-1.6,2.958h-2.6l1.224-.493a12.953,12.953,0,0,0-1.5-2.533l-1.819.68a11.454,11.454,0,0,1,1.275,2.346h-3.009l1.054-.51a14.31,14.31,0,0,0-1.717-2.38l-1.734.8a17.368,17.368,0,0,1,1.411,2.091h-1.428v7.157h5.066v1.1h-6.562v1.87h6.562V1.462H-16V-1.309h6.681Zm7.14-3.281A2.191,2.191,0,0,0,0-4.284,2.191,2.191,0,0,0,2.176-6.46,2.191,2.191,0,0,0,0-8.636,2.191,2.191,0,0,0-2.176-6.46Zm18.53,1.071V-6.647h2.04v.595c0,.2,0,.442-.017.663Zm0-3.876h2.04v1.241h-2.04Zm5.933,0v1.241H20.4V-9.265Zm0,3.876h-1.9c.017-.221.017-.442.017-.646v-.612h1.887ZM24.242-3.91v-6.834H20.4v-1.02h4.267v-1.768H14.348l.085-.221-1.9-.595a18.174,18.174,0,0,1-3.57,6.375,14.655,14.655,0,0,1,1.105,2.091,12.173,12.173,0,0,0,.867-1.088V1.445h1.938v-11.56a32.005,32.005,0,0,0,1.394-3.162v1.513h4.131v1.02h-3.91V-3.91H18.19a4.06,4.06,0,0,1-.816,1.649A6.289,6.289,0,0,1,15.64-3.689l-1.751.612a8.9,8.9,0,0,0,2.023,1.972,9.791,9.791,0,0,1-2.754.935A9.307,9.307,0,0,1,14.382,1.5,11.072,11.072,0,0,0,17.714-.068,19.5,19.5,0,0,0,23.987,1.36,7.979,7.979,0,0,1,25.211-.527,23.851,23.851,0,0,1,19.159-1.5,6.89,6.89,0,0,0,20.2-3.91Zm7.242-3.6h2.924V-9.367H31.484V-11.9a22.1,22.1,0,0,0,2.873-.884l-1.428-1.564A28.709,28.709,0,0,1,26.095-12.6a6.343,6.343,0,0,1,.578,1.581c.918-.119,1.887-.272,2.856-.459v2.108H26.3v1.853h2.839a16.467,16.467,0,0,1-3.23,4.9,11.378,11.378,0,0,1,1.02,1.972,16.913,16.913,0,0,0,2.6-3.995V1.445h1.955V-4.42c.68.7,1.394,1.462,1.8,1.989l1.173-1.734C34-4.522,32.317-5.967,31.484-6.6Zm5.695-4.828H35.207v9.5h1.972Zm2.04-1.734V-1c0,.306-.136.408-.459.425-.357,0-1.445,0-2.55-.051a7.759,7.759,0,0,1,.7,2.091,8.371,8.371,0,0,0,3.383-.391c.7-.323.935-.884.935-2.057v-13.09Z" transform="translate(640 4518)" fill="#352e64"/>
    <path id="パス_615" data-name="パス 615" d="M5.33,14h4.956v-.948H6.446V5.2H5.33Zm6.5,0H12.95V5.2H11.834Zm3.516,0h1.056V9.38c0-.924-.084-1.86-.132-2.748h.048l.948,1.812L20.474,14h1.14V5.2H20.558V9.776c0,.912.084,1.9.144,2.784h-.06l-.936-1.812L16.5,5.2H15.35Zm8.664,0h5.208v-.948H25.13v-3.2h3.336V8.9H25.13V6.14h3.96V5.2H24.014Zm11.16-6.528a7.213,7.213,0,0,1,.048.864c0,2-.264,3.72-2.124,4.86a4.639,4.639,0,0,1-1.068.528l.876.72c3.06-1.524,3.348-3.72,3.348-6.972Zm5.28-2.148a5.926,5.926,0,0,1-.84.072H32.726a12.656,12.656,0,0,1-1.368-.1V6.38a13.589,13.589,0,0,1,1.368-.072h6.828A8.1,8.1,0,0,1,36.938,9l.792.636A11.57,11.57,0,0,0,40.718,6.32c.084-.132.24-.312.324-.432Zm11.868.852a.791.791,0,0,1-.792-.792.792.792,0,1,1,.792.792Zm-7.692-.4a11.954,11.954,0,0,1-1.2-.072V6.764c.3-.012.72-.036,1.188-.036h6.144A9.13,9.13,0,0,1,49.19,10.64a7.94,7.94,0,0,1-4.68,2.88l.816.9a9.186,9.186,0,0,0,4.728-3.2,11.923,11.923,0,0,0,1.788-4.428l.024-.132a1.451,1.451,0,0,0,.456.072,1.36,1.36,0,1,0-1.284-.96c-.144.012-.276.012-.4.012Zm11.892-.792c.024.228.048.648.048.864v4c0,.36-.036.744-.048.924h1.1c-.024-.216-.036-.612-.036-.912V5.852c0-.288.012-.636.036-.864ZM62.078,4.9c.024.288.06.636.06,1.032v1.9c0,2.268-.144,3.24-1.008,4.236a5.536,5.536,0,0,1-2.88,1.6l.78.828a6.409,6.409,0,0,0,2.856-1.752c.864-1.032,1.248-1.98,1.248-4.86V5.936c0-.4.024-.744.048-1.032Zm7.044,7.416c-.516,0-1.212-.66-1.212-2.16a4.143,4.143,0,0,1,3.672-3.84,19.173,19.173,0,0,1-.66,3.2C70.31,11.528,69.65,12.32,69.122,12.32Zm3.132,1.992c2.832-.372,4.476-2.04,4.476-4.536a4.314,4.314,0,0,0-4.56-4.368,5.075,5.075,0,0,0-5.208,4.836c0,1.956,1.068,3.18,2.124,3.18,1.1,0,2.052-1.26,2.784-3.7a25.114,25.114,0,0,0,.708-3.42,3.294,3.294,0,0,1,3.156,3.444,3.562,3.562,0,0,1-3.012,3.516,7.448,7.448,0,0,1-1.02.144ZM81.062,12.1a.837.837,0,0,1-.72.42.722.722,0,0,1-.684-.792c0-1.008.972-2.028,2.676-2.172A14.7,14.7,0,0,1,81.062,12.1ZM89.2,11.048a14.312,14.312,0,0,0-1.428-.912,17.8,17.8,0,0,0,.252-2.3l-.984-.108a8.165,8.165,0,0,1-.012,1.092c-.024.288-.048.588-.1.888A9.738,9.738,0,0,0,83.7,8.756c.5-1.116,1.008-2.328,1.344-2.856a1.972,1.972,0,0,1,.312-.4l-.612-.492a2.4,2.4,0,0,1-.576.132c-.5.036-2.064.12-2.688.12a8.1,8.1,0,0,1-.9-.048l.048,1.008a7.447,7.447,0,0,1,.876-.084c.552-.036,1.992-.1,2.46-.132-.372.744-.8,1.764-1.236,2.7-2.328.06-3.948,1.4-3.948,3.156A1.523,1.523,0,0,0,80.33,13.5a1.7,1.7,0,0,0,1.5-.828,23.46,23.46,0,0,0,1.5-3.1,8.756,8.756,0,0,1,3.384,1.068A5.06,5.06,0,0,1,83.606,14l.792.66a5.647,5.647,0,0,0,3.132-3.54,11.866,11.866,0,0,1,1.236.936Zm9.456-3.276-.612.264a11.14,11.14,0,0,1,.984,1.692l.612-.288A14.243,14.243,0,0,0,98.654,7.772Zm1.308-.5-.6.276a10.689,10.689,0,0,1,1.02,1.668l.624-.288A18.128,18.128,0,0,0,99.962,7.268ZM90.866,6.1l.108,1.056c1.284-.264,4.524-.576,5.568-.7a4.8,4.8,0,0,0-2.208,4.008c0,2.652,2.508,3.828,4.7,3.924l.348-1.008c-1.932-.072-4.092-.8-4.092-3.12a4.155,4.155,0,0,1,2.712-3.756,9.846,9.846,0,0,1,2.328-.192V5.36c-.792.036-1.908.1-3.2.2-2.184.192-4.428.408-5.208.48C91.694,6.068,91.322,6.092,90.866,6.1Zm12.9-.024h8.172V7.748h.924V5.24H108.3V3.968h-.924V5.24h-4.512V7.748h.9ZM111.1,8.24V7.412H104.63V8.24Zm-.888,5.652c-.5,0-.588-.072-.588-.408V10.448h3.528v-.84H102.59v.84h3.1c-.216,1.812-.8,3.1-3.36,3.732a2.689,2.689,0,0,1,.528.756c2.8-.78,3.5-2.316,3.78-4.488h2.1v3.036c0,.948.288,1.224,1.38,1.224h1.848c.948,0,1.212-.42,1.308-2.052a3.8,3.8,0,0,1-.816-.348c-.036,1.368-.12,1.584-.564,1.584ZM115,10.76a8.624,8.624,0,0,1-.78,2.856,3.117,3.117,0,0,1,.7.336,10.561,10.561,0,0,0,.852-3.048Zm2.6.168a11.952,11.952,0,0,1,.768,2.328l.708-.24a10.4,10.4,0,0,0-.8-2.3Zm-.3-2.844c.2.324.408.7.588,1.056-.66.036-1.32.06-1.92.084a35,35,0,0,0,2.484-3.564l-.768-.336c-.336.648-.792,1.428-1.284,2.184a8.446,8.446,0,0,0-.732-.828,21.593,21.593,0,0,0,1.368-2.412l-.792-.3A16.379,16.379,0,0,1,115.178,6.2c-.12-.108-.24-.216-.36-.312l-.456.576a10.407,10.407,0,0,1,1.572,1.728c-.264.384-.54.756-.8,1.068-.276.012-.552.024-.792.024l.072.8c.576-.024,1.236-.06,1.956-.1v4.944h.816V9.944l1.032-.072a4.643,4.643,0,0,1,.228.7l.708-.336A9.816,9.816,0,0,0,117.962,7.8Zm6.588,3.1V13.5h-3.456V11.18Zm-4.284,3.72h.828v-.6h3.456v.564h.864V10.376h-5.148Zm5.748-8.436V5.648H122.51V3.956h-.9V5.648h-2.76v.816h2.76v1.8h-2.388v.8h5.868v-.8h-2.58v-1.8Zm6.276,4.728a1.143,1.143,0,0,1-1.212-1.176,1.207,1.207,0,0,1,1.2-1.248,1.055,1.055,0,0,1,1.056.732C132.782,10.628,132.326,11.192,131.63,11.192Zm1.836-4.3c1.74,0,2.82.024,3.492.06l.012-.9c-.576,0-2.04-.012-3.48-.012h-.18c0-.312.012-.588.012-.768l.06-.744H132.29c.024.144.06.492.072.744.012.168.024.444.024.78-1.764.024-4,.1-5.316.12l.024.936c1.488-.108,3.5-.192,5.3-.2.012.408.012.828.012,1.176a2.383,2.383,0,0,0-.792-.132,2.089,2.089,0,0,0-2.1,2.076,1.914,1.914,0,0,0,1.968,1.992,1.707,1.707,0,0,0,1.02-.3,4.243,4.243,0,0,1-3.156,2.064l.828.8c2.76-.828,3.54-2.616,3.54-4.224a2.9,2.9,0,0,0-.384-1.524c-.012-.54-.024-1.272-.024-1.944ZM143.858,13.6c-.888,0-1.572-.336-1.572-.924,0-.408.408-.732.948-.732a1.587,1.587,0,0,1,1.572,1.584A5.853,5.853,0,0,1,143.858,13.6Zm2.448-8.628a4.255,4.255,0,0,1-.648.1c-.624.06-3.444.144-4.056.144a6.747,6.747,0,0,1-.84-.036l.024,1a5.721,5.721,0,0,1,.8-.072c.612-.036,2.952-.144,3.576-.168-.588.528-2.064,1.776-2.724,2.328-.7.576-2.22,1.848-3.2,2.664l.7.708c1.512-1.536,2.592-2.364,4.548-2.364,1.5,0,2.676.852,2.676,2.016a2.072,2.072,0,0,1-1.476,2.016,2.346,2.346,0,0,0-2.448-2.1,1.688,1.688,0,0,0-1.836,1.56c0,.984,1,1.7,2.616,1.7,2.508,0,4.1-1.248,4.1-3.168,0-1.608-1.428-2.808-3.408-2.808a5.05,5.05,0,0,0-1.608.252c.912-.768,2.508-2.172,3.1-2.616.18-.132.444-.312.66-.456Zm6.816,7.344c-.516,0-1.212-.66-1.212-2.16a4.143,4.143,0,0,1,3.672-3.84,19.173,19.173,0,0,1-.66,3.2C154.31,11.528,153.65,12.32,153.122,12.32Zm3.132,1.992c2.832-.372,4.476-2.04,4.476-4.536a4.314,4.314,0,0,0-4.56-4.368,5.075,5.075,0,0,0-5.208,4.836c0,1.956,1.068,3.18,2.124,3.18,1.1,0,2.052-1.26,2.784-3.7a25.114,25.114,0,0,0,.708-3.42,3.294,3.294,0,0,1,3.156,3.444,3.562,3.562,0,0,1-3.012,3.516,7.449,7.449,0,0,1-1.02.144Zm14.4-6.54-.612.264a11.14,11.14,0,0,1,.984,1.692l.612-.288A14.243,14.243,0,0,0,170.654,7.772Zm1.308-.5-.6.276a10.688,10.688,0,0,1,1.02,1.668l.624-.288A18.126,18.126,0,0,0,171.962,7.268Zm-9.1-1.164.108,1.056c1.284-.264,4.524-.576,5.568-.7a4.8,4.8,0,0,0-2.208,4.008c0,2.652,2.508,3.828,4.7,3.924l.348-1.008c-1.932-.072-4.092-.8-4.092-3.12a4.155,4.155,0,0,1,2.712-3.756,9.847,9.847,0,0,1,2.328-.192V5.36c-.792.036-1.908.1-3.2.2-2.184.192-4.428.408-5.208.48C163.694,6.068,163.322,6.092,162.866,6.1Zm16.308,1.368a7.215,7.215,0,0,1,.048.864c0,2-.264,3.72-2.124,4.86a4.639,4.639,0,0,1-1.068.528l.876.72c3.06-1.524,3.348-3.72,3.348-6.972Zm5.28-2.148a5.926,5.926,0,0,1-.84.072h-6.888a12.656,12.656,0,0,1-1.368-.1V6.38a13.589,13.589,0,0,1,1.368-.072h6.828A8.1,8.1,0,0,1,180.938,9l.792.636a11.57,11.57,0,0,0,2.988-3.312c.084-.132.24-.312.324-.432Zm11.868.852a.791.791,0,0,1-.792-.792.792.792,0,1,1,.792.792Zm-7.692-.4a11.954,11.954,0,0,1-1.2-.072V6.764c.3-.012.72-.036,1.188-.036h6.144a9.13,9.13,0,0,1-1.572,3.912,7.94,7.94,0,0,1-4.68,2.88l.816.9a9.186,9.186,0,0,0,4.728-3.2,11.922,11.922,0,0,0,1.788-4.428l.024-.132a1.451,1.451,0,0,0,.456.072,1.36,1.36,0,1,0-1.284-.96c-.144.012-.276.012-.4.012Zm11.892-.792c.024.228.048.648.048.864v4c0,.36-.036.744-.048.924h1.1c-.024-.216-.036-.612-.036-.912V5.852c0-.288.012-.636.036-.864Zm5.556-.084c.024.288.06.636.06,1.032v1.9c0,2.268-.144,3.24-1.008,4.236a5.536,5.536,0,0,1-2.88,1.6l.78.828a6.41,6.41,0,0,0,2.856-1.752c.864-1.032,1.248-1.98,1.248-4.86V5.936c0-.4.024-.744.048-1.032Zm13.332-.276a13.24,13.24,0,0,1-3.156,2.652,18.94,18.94,0,0,1-5.364,2.208l.552.936a24,24,0,0,0,4.512-1.872v4.536a11.129,11.129,0,0,1-.072,1.284h1.176a9.054,9.054,0,0,1-.072-1.284V7.952a18.823,18.823,0,0,0,3.216-2.6Zm5.184.576-.684.732A24.923,24.923,0,0,1,226.9,8.444l.756-.756A26.276,26.276,0,0,0,224.594,5.2Zm-1.032,8.04.636.984a12.936,12.936,0,0,0,4.716-1.872,11.969,11.969,0,0,0,4.032-4.26l-.576-1.02a11.3,11.3,0,0,1-4.008,4.416A12.39,12.39,0,0,1,223.562,13.244ZM14.168,26.5a3.2,3.2,0,0,1-.9.108H8.636c-.36,0-1.044-.06-1.212-.084V27.62c.132-.012.792-.06,1.212-.06h4.68A10.693,10.693,0,0,1,11.324,30.9,13.722,13.722,0,0,1,6.38,34.46l.768.8a15.213,15.213,0,0,0,4.68-3.5,27.707,27.707,0,0,1,3.3,3.564l.84-.732a34.414,34.414,0,0,0-3.5-3.576A15.187,15.187,0,0,0,14.48,27.5a3.442,3.442,0,0,1,.3-.528ZM27.344,30.9a39,39,0,0,0-5.124-1.98V26.96c0-.36.048-.876.084-1.248H21.128a7.574,7.574,0,0,1,.1,1.248v6.984a13.14,13.14,0,0,1-.072,1.416H22.3a14.166,14.166,0,0,1-.072-1.416l-.012-3.96a31.461,31.461,0,0,1,4.716,1.932Zm3.06.084c.372-.036,1.008-.06,1.668-.06H38.66c.54,0,1.044.048,1.284.06V29.8c-.264.024-.7.06-1.3.06H32.072c-.672,0-1.308-.036-1.668-.06Zm12.468,4.308A6.62,6.62,0,0,0,45.008,32a26.25,26.25,0,0,0,.372-5.1c0-.36.048-.72.06-.864h-1.1a4.421,4.421,0,0,1,.084.876,21.476,21.476,0,0,1-.36,4.824,5.7,5.7,0,0,1-2.088,2.952Zm5.232-.012A2.4,2.4,0,0,1,48.512,35,12.07,12.07,0,0,0,52.6,31.676l-.576-.816a9.1,9.1,0,0,1-3.492,2.952V26.888A7.63,7.63,0,0,1,48.584,26h-1.1a5.869,5.869,0,0,1,.072.888v7.188a2.857,2.857,0,0,1-.084.672Zm16.212-6.564a17.973,17.973,0,0,0-2.784-1.584l-.468.744A14.274,14.274,0,0,1,63.776,29.5ZM60,26.912a12.153,12.153,0,0,1-1.848.432c.192-.684.348-1.4.468-1.836l-1.068-.1a9.74,9.74,0,0,1-.372,2.052c-.456.036-.9.06-1.32.06a11.194,11.194,0,0,1-1.464-.084l.072.9c.444.024.936.036,1.38.036q.522,0,1.044-.036a17.046,17.046,0,0,1-2.544,4.44l.936.48a21.353,21.353,0,0,0,2.592-5.028A14.138,14.138,0,0,0,60.02,27.8Zm.624,6.636c0,.588-.324,1.128-1.3,1.128-.924,0-1.368-.372-1.368-.924s.576-.936,1.452-.936a4.327,4.327,0,0,1,1.2.168C60.62,33.2,60.62,33.392,60.62,33.548Zm-.168-4.368c.024.828.084,1.992.12,2.964a5.624,5.624,0,0,0-1.128-.108c-1.344,0-2.376.708-2.376,1.8,0,1.176,1.068,1.716,2.376,1.716,1.464,0,2.088-.78,2.088-1.728,0-.132,0-.3-.012-.48A8.267,8.267,0,0,1,63.428,34.7l.516-.816a8.021,8.021,0,0,0-2.46-1.488c-.024-.72-.072-1.5-.084-1.932a11.557,11.557,0,0,1,.012-1.284ZM73.664,27.3a5.655,5.655,0,0,1-.84.564c-.648.36-1.728.876-2.772,1.512a25.158,25.158,0,0,1-1.584-3.516l-.948.4c.552,1.272,1.176,2.664,1.716,3.636-1.272.888-2.052,1.872-2.052,3.1,0,1.776,1.632,2.448,3.852,2.448a23.2,23.2,0,0,0,3.756-.288l.012-1.08a17.5,17.5,0,0,1-3.8.408c-1.872,0-2.808-.612-2.808-1.6,0-.9.66-1.668,1.764-2.4a35.076,35.076,0,0,1,3.288-1.8c.348-.18.636-.336.9-.5Zm.072-1.32a12.4,12.4,0,0,1,.984,1.668l.648-.288a17.211,17.211,0,0,0-.984-1.656Zm1.332-.48a9.937,9.937,0,0,1,1,1.656l.648-.3A15.026,15.026,0,0,0,75.7,25.22Zm5.364,7.824c-.516,0-1.212-.66-1.212-2.16a4.143,4.143,0,0,1,3.672-3.84,19.173,19.173,0,0,1-.66,3.2C81.62,32.528,80.96,33.32,80.432,33.32Zm3.132,1.992c2.832-.372,4.476-2.04,4.476-4.536a4.314,4.314,0,0,0-4.56-4.368,5.075,5.075,0,0,0-5.208,4.836c0,1.956,1.068,3.18,2.124,3.18,1.1,0,2.052-1.26,2.784-3.7a25.114,25.114,0,0,0,.708-3.42,3.294,3.294,0,0,1,3.156,3.444,3.563,3.563,0,0,1-3.012,3.516,7.449,7.449,0,0,1-1.02.144Zm17-4.176h-4.92V29.192H99.9V28.34H95.648V26.4a22.428,22.428,0,0,0,3.744-.708l-.672-.708a39.851,39.851,0,0,1-8.112,1.008,4.046,4.046,0,0,1,.228.792c1.236-.06,2.592-.144,3.912-.288V28.34H90.62v.852h4.128v1.944H89.816v.876h4.932v2.652c0,.252-.108.336-.372.336s-1.212.024-2.22-.012a4.416,4.416,0,0,1,.384.888,9.333,9.333,0,0,0,2.472-.156c.444-.144.636-.408.636-1.044V32.012h4.92Zm5.208-4.968v1h-2.592v-1Zm-2.592,2.712V27.824h2.592V28.88Zm3.444.684V25.472H102.3V35.924h.888v-6.36Zm1.932,1.584v1.116h-2.82V31.148ZM105.74,34.1V32.936h2.82V34.1Zm3.648.708V30.464h-4.452v4.944h.8v-.6Zm-.84-5.916V27.824h2.688v1.068Zm2.688-2.724v1h-2.688v-1Zm.9-.7H107.7v4.1h3.54v5.148c0,.216-.072.288-.276.288s-.948.024-1.68-.012a3.287,3.287,0,0,1,.312.912,6.83,6.83,0,0,0,2.016-.156c.4-.156.528-.456.528-1.02Zm3.084.312a5.241,5.241,0,0,1-.084.84,37.029,37.029,0,0,0-.54,4.992,14.359,14.359,0,0,0,.456,3.768l.852-.072c-.012-.12-.036-.288-.036-.408a2.039,2.039,0,0,1,.06-.528,25.657,25.657,0,0,1,.84-2.628l-.5-.4c-.2.48-.48,1.188-.672,1.728a10.5,10.5,0,0,1-.108-1.62,29.184,29.184,0,0,1,.588-4.788,5.629,5.629,0,0,1,.2-.8Zm6.06,7.368c0,.792-.288,1.284-1.3,1.284-.852,0-1.428-.336-1.428-.924,0-.552.612-.948,1.5-.948a3.716,3.716,0,0,1,1.212.192C121.28,32.9,121.28,33.044,121.28,33.152Zm3.24.588a8.1,8.1,0,0,0-2.34-1.548c-.048-1-.132-2.184-.144-3.372.708-.048,1.4-.12,2.052-.228v-.936a15.137,15.137,0,0,1-2.052.276c.012-.552.024-1.1.036-1.428a6.734,6.734,0,0,1,.072-.708h-1.092a4.857,4.857,0,0,1,.06.72v1.476c-.372.012-.744.024-1.116.024a18.579,18.579,0,0,1-2.016-.108v.912c.7.036,1.32.072,1.992.072.384,0,.756-.012,1.14-.024.012.984.084,2.124.12,3.036a5.3,5.3,0,0,0-1.1-.108c-1.56,0-2.448.816-2.448,1.812,0,1.056.876,1.716,2.472,1.716a1.8,1.8,0,0,0,2.064-1.944v-.216A9.018,9.018,0,0,1,124,34.52Zm7.992-4.02a8.106,8.106,0,0,1-2,3,12.448,12.448,0,0,1-.2-2.16v-.468a5.919,5.919,0,0,1,2.016-.372Zm-3.048.948a14.281,14.281,0,0,0,.276,2.688,3.007,3.007,0,0,1-1.632.624c-.444,0-.672-.24-.672-.72a3.767,3.767,0,0,1,2.028-2.8Zm4.176-1.608c.072-.18.168-.5.24-.66l-.96-.24a4.289,4.289,0,0,1-.12.684l-.036.108c-.144-.012-.288-.012-.432-.012a7.077,7.077,0,0,0-1.992.312c.036-.5.072-1.008.12-1.464a40.694,40.694,0,0,0,4.284-.432l-.012-.9a24.876,24.876,0,0,1-4.164.5q.072-.522.144-.9a4.315,4.315,0,0,1,.144-.528l-1.008-.024a5.077,5.077,0,0,1-.036.564c-.024.252-.06.564-.1.912-.264.012-.528.012-.792.012a19.159,19.159,0,0,1-1.956-.144l.024.9c.48.024,1.4.072,1.92.072.228,0,.468,0,.72-.012-.048.552-.108,1.152-.132,1.752-1.632.744-2.964,2.316-2.964,3.84a1.341,1.341,0,0,0,1.416,1.5,3.984,3.984,0,0,0,1.992-.648c.06.24.132.456.192.66l.876-.264c-.1-.3-.192-.624-.288-.96a9.646,9.646,0,0,0,2.628-3.84,2.1,2.1,0,0,1,1.7,2.016c0,1.536-1.32,2.64-3.456,2.868l.516.8c2.76-.432,3.888-1.92,3.888-3.624a2.932,2.932,0,0,0-2.376-2.808Zm6.576-3.528c-.012.288-.048.648-.1,1.02a31.177,31.177,0,0,0-.36,3.84,14.54,14.54,0,0,0,.12,1.884l.936-.072a4.961,4.961,0,0,1-.024-1.452c.144-1.56,1.512-3.708,2.988-3.708,1.26,0,1.884,1.344,1.884,3.216,0,2.988-2.016,4.02-4.6,4.416l.564.864c2.952-.54,5.028-1.992,5.028-5.292,0-2.5-1.14-4.08-2.724-4.08-1.5,0-2.748,1.476-3.216,2.7a22.027,22.027,0,0,1,.552-3.3Zm14.976,8.076c0,.816-.576,1.02-1.26,1.02-1.176,0-1.644-.408-1.644-.96s.612-.972,1.74-.972a6.049,6.049,0,0,1,1.152.108C155.18,33.128,155.192,33.4,155.192,33.608Zm4.332.408a9.755,9.755,0,0,0-3.456-1.848c-.024-.564-.06-1.188-.084-1.8,1.128-.048,2.184-.132,3.3-.276l-.012-.9a32.058,32.058,0,0,1-3.3.312V27.8c1.116-.06,2.136-.156,3.072-.252l-.012-.876a26.424,26.424,0,0,1-3.048.288c0-.288,0-.516.012-.66a6.115,6.115,0,0,1,.06-.792h-1.02a6.651,6.651,0,0,1,.036.708V27h-.612a18.945,18.945,0,0,1-2.784-.228v.888c.708.084,1.968.18,2.8.18h.588v1.7h-.636a21.142,21.142,0,0,1-2.988-.228v.912c.852.1,2.172.168,2.988.168h.66c.012.492.036,1.056.06,1.584a6.709,6.709,0,0,0-1-.072c-1.716,0-2.76.732-2.76,1.812,0,1.152.948,1.764,2.652,1.764,1.548,0,2.1-.852,2.1-1.668,0-.18-.012-.444-.024-.744a8.826,8.826,0,0,1,2.868,1.788Zm9.132-8.232a6.6,6.6,0,0,1,.06.888v1.692c-1.26.108-2.64.24-3.792.348l.012-1.6c0-.372.012-.7.036-.96h-1.044a6.951,6.951,0,0,1,.072,1l-.012,1.656c-.564.048-1.032.1-1.332.12-.432.036-.876.06-1.236.06l.1.984c.324-.048.84-.12,1.212-.168l1.26-.132c0,1.188,0,2.436.012,2.952.06,1.9.324,2.532,3.072,2.532,1.2,0,2.652-.12,3.444-.2l.036-1.008a24.274,24.274,0,0,1-3.528.264c-2.064,0-2.076-.432-2.112-1.716-.024-.456-.012-1.692,0-2.916,1.176-.12,2.568-.252,3.792-.348-.024.744-.072,1.536-.132,1.932-.036.264-.156.312-.444.312a7.2,7.2,0,0,1-1.188-.156l-.024.852a14.05,14.05,0,0,0,1.572.168c.54,0,.8-.156.912-.684a19.338,19.338,0,0,0,.18-2.5c.516-.036.972-.048,1.32-.06.3,0,.744-.012.936,0v-.96c-.288.024-.624.048-.936.06-.384.024-.828.06-1.3.1,0-.528.012-1.116.012-1.656.012-.252.036-.66.06-.852Zm10.812.192-1.068-.432c-.144.348-.3.636-.432.924a86,86,0,0,0-4.2,8.568l1.044.348a18.692,18.692,0,0,1,1.02-2.7c.468-.936,1.344-1.9,2.3-1.9a.785.785,0,0,1,.864.828c.036.636.012,1.56.06,2.256a1.539,1.539,0,0,0,1.716,1.512c1.728,0,2.736-1.332,3.36-3.252l-.792-.636c-.312,1.26-1.092,2.892-2.412,2.892a.847.847,0,0,1-.948-.84c-.048-.576-.024-1.488-.048-2.2a1.36,1.36,0,0,0-1.4-1.452,2.576,2.576,0,0,0-1.74.72c.612-1.152,1.764-3.252,2.292-4.068A4.756,4.756,0,0,1,179.468,25.976Zm7.68,6.1a1.83,1.83,0,1,0,1.836,1.824A1.831,1.831,0,0,0,187.148,32.072Zm0,3.048A1.218,1.218,0,1,1,188.36,33.9,1.2,1.2,0,0,1,187.148,35.12Zm15.684-1.512c0,.816-.576,1.02-1.26,1.02-1.176,0-1.644-.408-1.644-.96s.612-.972,1.74-.972a6.049,6.049,0,0,1,1.152.108C202.82,33.128,202.832,33.4,202.832,33.608Zm4.332.408a9.755,9.755,0,0,0-3.456-1.848c-.024-.564-.06-1.188-.084-1.8,1.128-.048,2.184-.132,3.3-.276l-.012-.9a32.058,32.058,0,0,1-3.3.312V27.8c1.116-.06,2.136-.156,3.072-.252l-.012-.876a26.424,26.424,0,0,1-3.048.288c0-.288,0-.516.012-.66a6.115,6.115,0,0,1,.06-.792h-1.02a6.651,6.651,0,0,1,.036.708V27H202.1a18.945,18.945,0,0,1-2.784-.228v.888c.708.084,1.968.18,2.8.18h.588v1.7h-.636a21.142,21.142,0,0,1-2.988-.228v.912c.852.1,2.172.168,2.988.168h.66c.012.492.036,1.056.06,1.584a6.709,6.709,0,0,0-1-.072c-1.716,0-2.76.732-2.76,1.812,0,1.152.948,1.764,2.652,1.764,1.548,0,2.1-.852,2.1-1.668,0-.18-.012-.444-.024-.744a8.826,8.826,0,0,1,2.868,1.788Zm8.1-3.912a19.092,19.092,0,0,1,2.2-.132,17.094,17.094,0,0,1,2,.144l.024-.912a18.975,18.975,0,0,0-2.052-.1c-.768,0-1.548.036-2.172.1Zm.768-3.12a17.221,17.221,0,0,1-2.268.432l.18-.876c.048-.24.132-.684.216-.948L213,25.5a5.667,5.667,0,0,1-.036.984c-.036.24-.1.612-.18,1.044-.456.024-.876.048-1.272.048a10.6,10.6,0,0,1-1.428-.084l.036.936c.42.024.852.048,1.38.048q.5,0,1.08-.036c-.1.432-.192.864-.3,1.26a26.406,26.406,0,0,1-1.992,5.316l1.056.348a35.232,35.232,0,0,0,1.86-5.448c.132-.5.264-1.056.372-1.572a22.861,22.861,0,0,0,2.46-.408Zm-1.368,5.028a6.623,6.623,0,0,0-.18,1.4c0,1.176.984,1.752,2.856,1.752a17.644,17.644,0,0,0,2.292-.156l.036-.972a13.291,13.291,0,0,1-2.316.228c-1.692,0-1.956-.54-1.956-1.1a4.237,4.237,0,0,1,.168-1.068Zm10.248,2.964a22.522,22.522,0,0,0-2.688-2.664l-.78.684a19.306,19.306,0,0,1,2.652,2.676ZM25.88,50.312v4.92h.888v-4.92h2.22v-.828H23.456V47.66a27.706,27.706,0,0,0,4.872-.984L27.572,46a23.866,23.866,0,0,1-4.272.924l-.708-.156v2.772a6.8,6.8,0,0,1-1.464,4.776,2.071,2.071,0,0,1,.636.612,7.146,7.146,0,0,0,1.668-4.62ZM21.1,48.1a9.131,9.131,0,0,0-2.088-1.848l-.66.528a8.306,8.306,0,0,1,2.04,1.908Zm-.336,2.556H18.224v.84h1.668v3.036A20.038,20.038,0,0,1,18.068,55.9l.48.9c.636-.516,1.236-1.032,1.812-1.536a4.276,4.276,0,0,0,3.4,1.416c1.32.048,3.78.024,5.088-.024a4.06,4.06,0,0,1,.288-.912c-1.4.1-4.068.132-5.376.084a3.493,3.493,0,0,1-2.988-1.344Zm16.368-4.272a5.517,5.517,0,0,1-.684.792c-.8.816-2.6,2.232-3.492,2.988-1.08.9-1.2,1.44-.084,2.376,1.116.912,3.1,2.6,3.744,3.3.252.276.576.576.816.864l.864-.78c-1.164-1.152-3.36-2.976-4.44-3.84-.768-.636-.768-.816-.048-1.44.876-.72,2.58-2.088,3.408-2.8.192-.168.552-.48.816-.672Zm7.716,7.932c-.516,0-1.212-.66-1.212-2.16a4.143,4.143,0,0,1,3.672-3.84,19.173,19.173,0,0,1-.66,3.2C46.04,53.528,45.38,54.32,44.852,54.32Zm3.132,1.992c2.832-.372,4.476-2.04,4.476-4.536a4.314,4.314,0,0,0-4.56-4.368,5.075,5.075,0,0,0-5.208,4.836c0,1.956,1.068,3.18,2.124,3.18,1.1,0,2.052-1.26,2.784-3.7a25.113,25.113,0,0,0,.708-3.42,3.294,3.294,0,0,1,3.156,3.444,3.563,3.563,0,0,1-3.012,3.516,7.449,7.449,0,0,1-1.02.144Zm15.8-.2c-.012-.192-.048-.732-.048-1.164V48.752c0-.288.024-.66.036-.936-.24.012-.6.024-.888.024H56.972a12.109,12.109,0,0,1-1.308-.072v1.068c.288-.012.876-.036,1.32-.036h5.748v5.664H56.84c-.5,0-1.02-.036-1.332-.06v1.08c.324-.024.864-.048,1.356-.048h5.868c-.012.288-.012.54-.024.672Zm4.536-8.9-.684.732a24.922,24.922,0,0,1,2.988,2.508l.756-.756A26.276,26.276,0,0,0,68.324,47.2Zm-1.032,8.04.636.984a12.935,12.935,0,0,0,4.716-1.872,11.969,11.969,0,0,0,4.032-4.26l-.576-1.02a11.3,11.3,0,0,1-4.008,4.416A12.39,12.39,0,0,1,67.292,55.244ZM87.32,48.236a16.8,16.8,0,0,0-.984-1.632l-.636.264a13.713,13.713,0,0,1,.972,1.668Zm-6.432,3.432a46,46,0,0,0,4.908-1.56c.36-.132.792-.324,1.128-.468l-.42-.96a7.942,7.942,0,0,1-1.056.54,32.686,32.686,0,0,1-4.56,1.464V47.972a7.968,7.968,0,0,1,.06-.972H79.832a5.226,5.226,0,0,1,.072.972v6.6c0,.972.516,1.392,1.44,1.56a12.61,12.61,0,0,0,1.92.12A33.552,33.552,0,0,0,87.416,56V54.908a19.64,19.64,0,0,1-4.1.384,11.4,11.4,0,0,1-1.584-.1c-.588-.12-.84-.276-.84-.888Zm6.132-5.28a12.615,12.615,0,0,1,1,1.656l.648-.3a17.17,17.17,0,0,0-1.008-1.632ZM90.7,55.28c.408-.024.828-.06,1.26-.06h7.188c.324,0,.732.024,1.092.06V54.128a8.214,8.214,0,0,1-1.092.06H91.964c-.432,0-.852-.024-1.26-.06Zm1.032-6.012q.558-.036,1.188-.036H98.06c.4,0,.852.012,1.188.036v-1.08a11.528,11.528,0,0,1-1.188.06H92.912c-.384,0-.792-.024-1.176-.06Zm14.016-2.712a13.964,13.964,0,0,1-.3,2.58c-.72.06-1.416.12-1.812.132a10.333,10.333,0,0,1-1.056,0l.1,1.044c.312-.048.792-.108,1.068-.144.312-.036.888-.1,1.5-.156a18.618,18.618,0,0,1-2.5,5.892l.984.4a23.843,23.843,0,0,0,2.5-6.384c.516-.048.984-.084,1.272-.084.756,0,1.248.192,1.248,1.272a10.214,10.214,0,0,1-.552,3.636,1,1,0,0,1-1.044.612,5.849,5.849,0,0,1-1.452-.264l.156,1.008a7.106,7.106,0,0,0,1.392.18,1.672,1.672,0,0,0,1.74-1,11.421,11.421,0,0,0,.7-4.284c0-1.608-.876-2.016-1.932-2.016-.288,0-.78.036-1.332.072.132-.636.24-1.332.3-1.68.048-.228.1-.48.144-.7Zm4.32,1.764a14.287,14.287,0,0,1,2.124,4.308l.936-.444a20.872,20.872,0,0,0-2.172-4.248Zm7.32-.78c.912.252,3.492.78,4.62.936l.228-.936a31.773,31.773,0,0,1-4.6-.912Zm-.012,1.248-1.02-.132a42.036,42.036,0,0,1-.6,4.824l.9.216a2.482,2.482,0,0,1,.36-.6,4.616,4.616,0,0,1,3.672-1.572c1.212,0,2.088.66,2.088,1.608,0,1.62-1.836,2.7-5.58,2.244l.288.984c4.416.372,6.3-1.068,6.3-3.2,0-1.392-1.212-2.484-3.036-2.484a5.625,5.625,0,0,0-3.84,1.428C117.02,51.332,117.224,49.6,117.38,48.788Zm15.192,4.032h-2.088V51.032h2.088Zm2.3-1.788v-.456a7.634,7.634,0,0,0,1.716,1.044,4.128,4.128,0,0,1,.612-.744,7.8,7.8,0,0,1-2.244-1.392,17.8,17.8,0,0,0,1.884-1.56l-.672-.468a15.634,15.634,0,0,1-1.7,1.548,8.146,8.146,0,0,1-.78-.924,18.574,18.574,0,0,0,1.752-1.512l-.672-.48a14.031,14.031,0,0,1-1.476,1.416,8.784,8.784,0,0,1-.756-1.5l-.768.228a10.341,10.341,0,0,0,2.676,3.972H128.8a8.373,8.373,0,0,0,2.5-3.48l-.588-.288-.156.036h-3.42v.792h2.976A8.406,8.406,0,0,1,129,48.848a16.686,16.686,0,0,0-1.452-1.176l-.552.468a12.72,12.72,0,0,1,1.44,1.26A8.3,8.3,0,0,1,126,50.96a4.827,4.827,0,0,1,.552.672,9.833,9.833,0,0,0,1.788-1.056v.456h1.26V52.82h-2.76v.828H129.5c-.216,1-.9,1.944-2.9,2.616a3.482,3.482,0,0,1,.564.708c2.352-.816,3.06-2.04,3.252-3.324h2.16v1.92c0,.984.264,1.248,1.272,1.248h1.572c.876,0,1.128-.42,1.212-1.944a2.458,2.458,0,0,1-.8-.372c-.048,1.284-.108,1.524-.48,1.524h-1.368c-.408,0-.48-.072-.48-.444V53.648h2.844V52.82H133.5V51.032Zm12.156-5.076a11.888,11.888,0,0,1-1.116,2.016l.732.264c.4-.5.876-1.3,1.3-1.98Zm1.92,5.544v-.8h-3.444a2.926,2.926,0,0,0,.012-.324V49.028h3.072v-.792H143.42l.72-.324A6.664,6.664,0,0,0,143.048,46l-.756.3a6.628,6.628,0,0,1,1.032,1.932h-1.5v.792h2.808V50.36a3.26,3.26,0,0,1-.012.336h-3.18v.8h3.084c-.216,1.032-.912,2.172-2.988,3.012a4.225,4.225,0,0,1,.588.66,5.252,5.252,0,0,0,3.132-3.036,4.952,4.952,0,0,0,3.156,3.084,3.046,3.046,0,0,1,.564-.744,4.385,4.385,0,0,1-3.132-2.976ZM141.1,48.1a8.884,8.884,0,0,0-2.088-1.848l-.66.54a8.28,8.28,0,0,1,2.04,1.9Zm-.336,2.556h-2.544v.84h1.668v3.036a20.038,20.038,0,0,1-1.824,1.368l.48.9c.636-.516,1.236-1.032,1.812-1.536a4.276,4.276,0,0,0,3.4,1.416c1.32.048,3.78.024,5.088-.024a4.06,4.06,0,0,1,.288-.912c-1.4.1-4.068.132-5.376.084a3.493,3.493,0,0,1-2.988-1.344Zm20.52-3.18a15.779,15.779,0,0,0-1.008-1.632l-.636.264a13.455,13.455,0,0,1,1,1.656Zm-1.344.492a17.083,17.083,0,0,0-1-1.644l-.636.264a14.691,14.691,0,0,1,.972,1.668Zm-6.36-1.368a13.007,13.007,0,0,1-.3,2.58c-.72.06-1.4.12-1.8.132s-.684.012-1.056,0l.1,1.044c.3-.06.78-.108,1.068-.144.312-.036.876-.1,1.5-.156a18.84,18.84,0,0,1-2.5,5.88l.972.4a23.875,23.875,0,0,0,2.5-6.372c.516-.048.984-.084,1.272-.084.768,0,1.26.192,1.26,1.272a9.864,9.864,0,0,1-.564,3.624.993.993,0,0,1-1.032.612,5.416,5.416,0,0,1-1.464-.264l.156,1.02a7.257,7.257,0,0,0,1.4.168,1.68,1.68,0,0,0,1.74-.984,11.429,11.429,0,0,0,.684-4.284c0-1.608-.864-2.028-1.932-2.028-.288,0-.78.036-1.332.084.132-.636.24-1.332.312-1.68.036-.24.1-.48.144-.708Zm4.332,1.872a14.381,14.381,0,0,1,2.124,4.272l.924-.456a20.1,20.1,0,0,0-2.172-4.224Zm12.468,1.3-.612.264a11.14,11.14,0,0,1,.984,1.692l.612-.288A14.243,14.243,0,0,0,170.384,49.772Zm1.308-.5-.6.276a10.688,10.688,0,0,1,1.02,1.668l.624-.288A18.126,18.126,0,0,0,171.692,49.268ZM162.6,48.1l.108,1.056c1.284-.264,4.524-.576,5.568-.7a4.8,4.8,0,0,0-2.208,4.008c0,2.652,2.508,3.828,4.7,3.924l.348-1.008c-1.932-.072-4.092-.8-4.092-3.12a4.155,4.155,0,0,1,2.712-3.756,9.847,9.847,0,0,1,2.328-.192v-.96c-.792.036-1.908.1-3.2.2-2.184.192-4.428.408-5.208.48C163.424,48.068,163.052,48.092,162.6,48.1Zm13.536,4.68a5.366,5.366,0,0,0-.276,1.488c0,1.488,1.248,2.22,3.372,2.22a18.406,18.406,0,0,0,2.868-.228l.024-.972a14.272,14.272,0,0,1-2.928.276c-1.692,0-2.412-.576-2.412-1.488a4.065,4.065,0,0,1,.276-1.212Zm7.572-3.252a12.393,12.393,0,0,1-2.2.588c-.2-.444-.372-.816-.468-1.068l-.216-.492a16.415,16.415,0,0,0,2.208-.5l-.168-.852a13.376,13.376,0,0,1-2.364.564,12.207,12.207,0,0,1-.444-1.32l-1.08.228a8.569,8.569,0,0,1,.444.84c.048.108.1.228.156.36a21.608,21.608,0,0,1-3.888-.1l.06.876a24.367,24.367,0,0,0,4.176.024c.084.192.168.408.264.612l.42.972a23.723,23.723,0,0,1-4.992.024l.036.876a28.568,28.568,0,0,0,5.316-.108c.276.624.552,1.248.78,1.716-.372-.036-.936-.1-1.512-.168l-.084.732c.756.1,1.716.228,2.316.336l.468-.588c-.336-.624-.72-1.428-1.068-2.184a15.829,15.829,0,0,0,2.016-.5Zm7.908,5.076c0,.816-.576,1.02-1.26,1.02-1.176,0-1.644-.408-1.644-.96s.612-.972,1.74-.972a6.049,6.049,0,0,1,1.152.108C191.6,54.128,191.612,54.4,191.612,54.608Zm4.332.408a9.755,9.755,0,0,0-3.456-1.848c-.024-.564-.06-1.188-.084-1.8,1.128-.048,2.184-.132,3.3-.276l-.012-.9a32.057,32.057,0,0,1-3.3.312V48.8c1.116-.06,2.136-.156,3.072-.252l-.012-.876a26.424,26.424,0,0,1-3.048.288c0-.288,0-.516.012-.66a6.115,6.115,0,0,1,.06-.792h-1.02a6.651,6.651,0,0,1,.036.708V48h-.612a18.944,18.944,0,0,1-2.784-.228v.888c.708.084,1.968.18,2.8.18h.588v1.7h-.636a21.141,21.141,0,0,1-2.988-.228v.912c.852.1,2.172.168,2.988.168h.66c.012.492.036,1.056.06,1.584a6.709,6.709,0,0,0-1-.072c-1.716,0-2.76.732-2.76,1.812,0,1.152.948,1.764,2.652,1.764,1.548,0,2.1-.852,2.1-1.668,0-.18-.012-.444-.024-.744a8.826,8.826,0,0,1,2.868,1.788Zm7.416-1.824a1.143,1.143,0,0,1-1.212-1.176,1.207,1.207,0,0,1,1.2-1.248,1.055,1.055,0,0,1,1.056.732C204.512,52.628,204.056,53.192,203.36,53.192Zm1.836-4.3c1.74,0,2.82.024,3.492.06l.012-.9c-.576,0-2.04-.012-3.48-.012h-.18c0-.312.012-.588.012-.768l.06-.744H204.02c.024.144.06.492.072.744.012.168.024.444.024.78-1.764.024-4,.1-5.316.12l.024.936c1.488-.108,3.5-.192,5.3-.2.012.408.012.828.012,1.176a2.383,2.383,0,0,0-.792-.132,2.089,2.089,0,0,0-2.1,2.076,1.914,1.914,0,0,0,1.968,1.992,1.707,1.707,0,0,0,1.02-.3,4.243,4.243,0,0,1-3.156,2.064l.828.8c2.76-.828,3.54-2.616,3.54-4.224a2.9,2.9,0,0,0-.384-1.524c-.012-.54-.024-1.272-.024-1.944Zm5.532,4.176a1.83,1.83,0,1,0,1.836,1.824A1.831,1.831,0,0,0,210.728,53.072Zm0,3.048A1.218,1.218,0,1,1,211.94,54.9,1.2,1.2,0,0,1,210.728,56.12Z" transform="translate(521 4540)" fill="#352e64"/>
    <g id="パス_586" data-name="パス 586" transform="translate(598.857 4418.564)" fill="none">
      <path d="M12.923,38.354c2.579-2.642,2.992-2.626,6.152-5.566,1.979-1.918,3.836-4.243,7.526-5.433,4.374-1.411,9.044-.9,13.039-.916,4.627-.017,8.287-.389,8.976,0A4.063,4.063,0,0,1,51.2,30.105c.252,2.35-2.589,4.567-2.589,4.567H50.1s11.176-6.43,13.291-7.7,3.644-1.367,5.415.515.565,5.265-1.694,6.41c-1.8,1.489-6.346,4.544-12.052,8.673C51.712,44.993,48.582,47.9,44.4,49.333c-.4.454-5.3.088-10.038-1.224-5.2-.948-8.96-1.581-8.96-1.581s-3.806,3-6.993,5.935c-2.253,2.073-4.2,4.352-5.255,3.565-.494-.671-.418.3-.527-5.806C12.892,39.925,12.309,40.024,12.923,38.354Z" stroke="none"/>
      <path d="M 66.05753326416016 28.03831481933594 C 66.05703735351562 28.03831481933594 66.05651092529297 28.03831481933594 66.05601501464844 28.03831481933594 C 65.68516540527344 28.03835678100586 65.13668823242188 28.25519561767578 64.42582702636719 28.68283462524414 C 62.31797027587891 29.95086669921875 51.55784606933594 36.14260482788086 51.100830078125 36.40556716918945 L 50.63771057128906 36.67203521728516 L 38.26073837280273 36.67203521728516 L 38.26073837280273 32.67203521728516 L 47.85880661010742 32.67203521728516 C 48.57167434692383 31.96887588500977 49.28550720214844 30.96687316894531 49.21595001220703 30.31830596923828 C 49.11277008056641 29.3563346862793 48.85892868041992 29.05947494506836 48.77552032470703 28.9619255065918 C 48.57933807373047 28.73249435424805 48.24953460693359 28.53089141845703 47.82913208007812 28.29170608520508 C 47.70050048828125 28.27855682373047 47.44236755371094 28.26206970214844 46.95669937133789 28.26207733154297 C 46.27840805053711 28.26207733154297 45.39262771606445 28.29298400878906 44.36698913574219 28.32876586914062 C 42.97557830810547 28.37730407714844 41.39852905273438 28.43232727050781 39.64648056030273 28.43863677978516 C 39.58732986450195 28.43884658813477 39.52828979492188 28.43894577026367 39.46884918212891 28.43894577026367 C 38.66058731079102 28.43894577026367 37.85331726074219 28.42030715942383 36.99864959716797 28.40057373046875 C 36.14865875244141 28.38095474243164 35.26972961425781 28.36066436767578 34.39550018310547 28.36066436767578 C 32.34782028198242 28.36066436767578 29.68112945556641 28.46268463134766 27.21489715576172 29.25819396972656 C 24.54561996459961 30.11919403076172 23.01284790039062 31.66670608520508 21.39007949829102 33.3050651550293 C 21.09034729003906 33.60768508911133 20.7804069519043 33.92060470581055 20.46727752685547 34.22408676147461 L 20.43774032592773 34.25213623046875 C 19.02503967285156 35.56658554077148 18.15728759765625 36.29689407348633 17.39168548583984 36.94122695922852 C 16.51200866699219 37.68157196044922 15.85662078857422 38.23313140869141 14.68074035644531 39.41926193237305 C 14.61856079101562 39.70355987548828 14.62033843994141 40.08018112182617 14.64971923828125 41.26365661621094 C 14.68770599365234 42.79347610473633 14.75119018554688 45.35117721557617 14.62545776367188 50.23088455200195 C 14.63713073730469 50.88845062255859 14.64665985107422 51.46339416503906 14.65499877929688 51.96670532226562 C 14.66278076171875 52.43638610839844 14.66983795166016 52.86216735839844 14.67685699462891 53.23796844482422 C 15.06619262695312 52.88372421264648 15.47137451171875 52.49414825439453 15.80397796630859 52.17435455322266 C 16.20484161376953 51.78894805908203 16.61934661865234 51.39040374755859 17.05308532714844 50.99135589599609 C 20.25927734375 48.04176712036133 24.00351715087891 45.08303451538086 24.16133880615234 44.95852661132812 L 24.8576774597168 44.40916442871094 L 25.73231887817383 44.5565071105957 C 25.77001953125 44.5628547668457 29.5616569519043 45.20239639282227 34.71891784667969 46.14206695556641 L 34.80715942382812 46.15814590454102 L 34.89360809326172 46.18205642700195 C 38.06668853759766 47.05976486206055 41.46007919311523 47.51899719238281 43.17215728759766 47.51899719238281 C 43.34351348876953 47.51899719238281 43.46800994873047 47.51400375366211 43.553955078125 47.50836944580078 L 43.75071716308594 47.44101715087891 C 46.69450759887695 46.43334579467773 49.09198760986328 44.5946044921875 51.63024139404297 42.64790725708008 C 52.36447143554688 42.08479690551758 53.12368774414062 41.50250625610352 53.89132690429688 40.94701385498047 C 56.23548889160156 39.25071716308594 58.35332870483398 37.75658416748047 60.22187042236328 36.43834686279297 C 62.79943084716797 34.61989593505859 64.83534240722656 33.18356704711914 65.84308624267578 32.35201644897461 L 66.01422119140625 32.2108154296875 L 66.21212768554688 32.11054611206055 C 66.89888763427734 31.76261520385742 67.48044586181641 30.9378662109375 67.62638092041016 30.10491561889648 C 67.69107818603516 29.73562622070312 67.69629669189453 29.21901702880859 67.35377502441406 28.85500717163086 C 66.58794403076172 28.04110717773438 66.20345306396484 28.03831481933594 66.05753326416016 28.03831481933594 M 66.05581665039062 26.0383186340332 C 66.98902893066406 26.03823852539062 67.86502075195312 26.47980499267578 68.81034088134766 27.48444747924805 C 70.58165740966797 29.36688613891602 69.37561798095703 32.7498664855957 67.11599731445312 33.89464569091797 C 65.31193542480469 35.38327407836914 60.76992797851562 38.43817520141602 55.06380844116211 42.56729507446289 C 51.71229934692383 44.9925537109375 48.58194732666016 47.90119552612305 44.39842987060547 49.33322525024414 C 43.99388885498047 49.78700256347656 39.10036087036133 49.42079162597656 34.36040878295898 48.10967636108398 C 29.15662002563477 47.16152572631836 25.40008926391602 46.52871704101562 25.40008926391602 46.52871704101562 C 25.40008926391602 46.52871704101562 21.59442901611328 49.53107452392578 18.40718078613281 52.4632453918457 C 16.15442657470703 54.5357780456543 14.21112060546875 56.81494903564453 13.15183258056641 56.02825546264648 C 12.65747833251953 55.35675811767578 12.73362731933594 56.32688522338867 12.625 50.22269439697266 C 12.89197540283203 39.92506408691406 12.30911254882812 40.02406692504883 12.92315673828125 38.3541145324707 C 15.50234985351562 35.71188735961914 15.91543579101562 35.72807693481445 19.07535934448242 32.78792572021484 C 21.05419921875 30.87003707885742 22.91120910644531 28.54492568969727 26.60092926025391 27.35476684570312 C 30.91313934326172 25.96380996704102 35.51217651367188 26.43894577026367 39.46884536743164 26.43894958496094 C 39.52592468261719 26.43894958496094 39.5826301574707 26.43885040283203 39.63943862915039 26.43864440917969 C 44.26601028442383 26.4219856262207 47.92604064941406 26.04983139038086 48.61534881591797 26.43864440917969 C 49.8918571472168 27.15869522094727 50.95243072509766 27.75452423095703 51.20453643798828 30.10501480102539 C 51.45664978027344 32.45551681518555 48.61534881591797 34.67203521728516 48.61534881591797 34.67203521728516 L 38.26073837280273 34.67203521728516 L 50.10339736938477 34.67203521728516 C 50.10339736938477 34.67203521728516 61.27943801879883 28.24161529541016 63.39485931396484 26.96903610229492 C 64.38130187988281 26.37562942504883 65.24043273925781 26.03839111328125 66.05581665039062 26.0383186340332 Z" stroke="none" fill="red"/>
    </g>
    <g id="パス_587" data-name="パス 587" transform="translate(626.506 4414.042)" fill="red">
      <path d="M 13.49377918243408 23.42835235595703 C 10.36314678192139 21.26105880737305 7.769862174987793 19.08280754089355 5.778908252716064 16.94751167297363 C 3.915828227996826 14.94936180114746 2.575628280639648 12.98679161071777 1.7955482006073 11.11430168151855 C 0.3578082323074341 7.662011623382568 1.126508235931396 5.33186149597168 2.024558305740356 3.985051393508911 C 3.252288341522217 2.143811464309692 5.485418319702148 1.000001430511475 7.852468013763428 1.000001430511475 C 9.817718505859375 1.000001430511475 11.5465784072876 1.788271427154541 12.7205982208252 3.219611406326294 L 13.49377822875977 4.162271499633789 L 14.2669677734375 3.219611406326294 C 15.44096851348877 1.788271427154541 17.16983795166016 1.000001430511475 19.13508796691895 1.000001430511475 C 21.50238800048828 1.000001430511475 23.73561859130859 2.143731355667114 24.9632682800293 3.984851360321045 C 25.86125755310059 5.331581592559814 26.62987899780273 7.661701679229736 25.19195747375488 11.11442184448242 C 24.41191864013672 12.98679161071777 23.07172775268555 14.94936180114746 21.20864868164062 16.94751167297363 C 19.21769332885742 19.08280754089355 16.62441825866699 21.26105880737305 13.49377918243408 23.42835235595703 Z" stroke="none"/>
      <path d="M 13.49419689178467 22.20747375488281 C 20.48342895507812 17.26069831848145 23.2143383026123 13.26108074188232 24.26880836486816 10.72996139526367 C 25.27236747741699 8.320221900939941 25.22480773925781 6.179631233215332 24.13125801086426 4.539621353149414 C 23.08672904968262 2.973121404647827 21.17230796813965 2.000001430511475 19.13508796691895 2.000001430511475 C 17.47494888305664 2.000001430511475 16.02066802978516 2.658361434936523 15.04014778137207 3.853791475296021 L 13.49377822875977 5.739101409912109 L 11.94740867614746 3.853791475296021 C 10.96688842773438 2.658361434936523 9.512608528137207 2.000001430511475 7.852468013763428 2.000001430511475 C 5.815498352050781 2.000001430511475 3.901178121566772 2.973201513290405 2.856558322906494 4.539831638336182 C 1.762938261032104 6.179951667785645 1.715278267860413 8.320461273193359 2.718638181686401 10.72974109649658 C 4.557978630065918 15.14479160308838 9.379427909851074 19.29132270812988 13.49419689178467 22.20747375488281 M 13.49377822875977 24.64052200317383 C 6.238258361816406 19.72061157226562 2.433028221130371 15.24482154846191 0.872448205947876 11.49887180328369 C -3.308262586593628 1.460169672966003 8.633100509643555 -3.340636014938354 13.49377822875977 2.585431337356567 C 18.35444831848145 -3.340640068054199 30.29581642150879 1.460172653198242 26.11509895324707 11.49887180328369 C 24.55452728271484 15.24482154846191 20.74929809570312 19.72061157226562 13.49377822875977 24.64052200317383 Z" stroke="none" fill="red"/>
    </g>
  </g>
</svg>
