<svg xmlns="http://www.w3.org/2000/svg" width="286" height="212" viewBox="0 0 286 212">
  <g id="グループ_940" data-name="グループ 940" transform="translate(-838 -3021)">
    <rect id="長方形_546" data-name="長方形 546" width="286" height="212" rx="15" transform="translate(838 3021)" fill="#fff"/>
    <path id="パス_609" data-name="パス 609" d="M-77.12-9.707H-81.66v-.51h4.539Zm0,1.377H-81.66v-.527h4.539Zm0,1.394H-81.66V-7.48h4.539Zm-6.409-4.182v5.083h8.364v-5.083h-3.689l.221-.527h4.845v-1.36h-2.5c.238-.323.493-.714.748-1.139l-1.887-.289a12.687,12.687,0,0,1-.731,1.428h-2.329a7.217,7.217,0,0,0-.782-1.411l-1.649.306a7.543,7.543,0,0,1,.578,1.1h-2.533v1.36h4.386c-.034.187-.085.357-.119.527Zm-1.564-1a11.13,11.13,0,0,0-2.363-2.091l-1.309,1.105a11.911,11.911,0,0,1,2.3,2.193Zm7.684,8.075c1.275-.017,2.5-.051,3.4-.085a8.663,8.663,0,0,1,.493-1.547c-2.346.17-6.783.221-8.84.136-1.445-.051-2.465-.425-3.026-1.36v-3.3h-3.791v1.53h1.955v2.057c-.714.408-1.462.782-2.091,1.088l.68,1.6c.952-.578,1.785-1.105,2.6-1.666.816,1.071,1.972,1.445,3.689,1.513.782.017,1.836.034,2.975.034v.714h-9.86V-1.8h3.757l-.9.748A12.807,12.807,0,0,1-84.107.935l1.462-1.241a11.086,11.086,0,0,0-1.768-1.5h5.049V-.493c0,.187-.085.255-.357.255-.255.017-1.19.017-2.023-.034a6.76,6.76,0,0,1,.629,1.751,8.652,8.652,0,0,0,2.839-.272c.68-.272.867-.748.867-1.649V-1.8h3.638v-1.53H-77.41Zm8.33-9.4v2.057H-65.2c.051.578.119,1.19.238,1.836L-66-9.741C-66.937-5.27-68.961-1.989-72.5-.2a16.146,16.146,0,0,1,1.853,1.649,14.711,14.711,0,0,0,6.273-8.4,14.364,14.364,0,0,0,6.256,8.381A10.884,10.884,0,0,1-56.482-.34C-62.739-4.029-63.2-10.234-63.2-13.447Zm18,10.489h7.31v.7h-7.31Zm4.488-5.8v1.122h-3.094a3.446,3.446,0,0,0,.833-1.122Zm-5.457-1.853h1.717a2.084,2.084,0,0,1-.1.663h-1.853Zm3.57-1.853h1.887v.68h-1.887Zm5.576,0v.68h-1.768v-.68Zm-3.689,2.516h-1.938l.051-.663h1.887Zm4.641,1.19a1.037,1.037,0,0,1-.153.493.39.39,0,0,1-.357.119,5.016,5.016,0,0,1-.935-.051,3.552,3.552,0,0,1,.2.561h-1.479V-8.755Zm-1.819,2.941h-7.31v-.663h7.31Zm0,1.768h-7.31v-.68h7.31Zm2.057,2.941V-6.97c.1,0,.187-.017.255-.017a1.514,1.514,0,0,0,.986-.408c.289-.306.391-.918.476-2.023.017-.187.034-.527.034-.527h-4.709v-.663h3.6v-3.043h-3.6v-.731h-1.921v.731h-1.887v-.731h-1.836v.731h-3.859v1.19h3.859v.68h-3.23a25.69,25.69,0,0,1-1.071,3.06l1.836.119.068-.153h1.479A8.243,8.243,0,0,1-55.258-7.5a7.857,7.857,0,0,1,.952,1.564c.459-.068.867-.136,1.258-.221v5.049h2.312A23.08,23.08,0,0,1-55.242.085,13.063,13.063,0,0,1-53.779,1.53a21.726,21.726,0,0,0,5.3-2.023l-1.343-.612h4.539l-1.292.8a35.867,35.867,0,0,1,4.539,1.8l2.244-.969C-40.86.068-42.645-.578-44.277-1.105Zm12.393-4.284V-7.48h3.587v2.091Zm-5.287,0c.034-.629.051-1.241.051-1.785V-7.48h3.2v2.091Zm3.247-5.95v1.972h-3.2v-1.972Zm5.627,1.972h-3.587v-1.972h3.587Zm2.006-3.893H-36.559v6.069c0,2.38-.153,5.406-2.006,7.446a7.467,7.467,0,0,1,1.6,1.309,9.735,9.735,0,0,0,2.142-5.049h3.468V1.258h2.04V-3.485h3.587v2.55c0,.306-.119.408-.442.408-.306,0-1.428.017-2.38-.034a7.643,7.643,0,0,1,.646,1.938,7.894,7.894,0,0,0,3.264-.357c.68-.306.918-.85.918-1.938Zm8.041,6.8a2.191,2.191,0,0,0,2.176,2.176A2.191,2.191,0,0,0-11.33-6.46a2.191,2.191,0,0,0-2.176-2.176A2.191,2.191,0,0,0-15.682-6.46Zm15.861.9C.246-6.273.28-6.987.3-7.633H7.115v2.074Zm6.936-6.069v2.074H.3v-2.074ZM9.256-13.6H-1.794v5.593c0,2.584-.238,5.831-2.8,8.024A7.984,7.984,0,0,1-3.035,1.479,9.145,9.145,0,0,0-.162-3.6H7.115v2.465c0,.357-.136.493-.544.493-.374,0-1.8.017-2.992-.051a8.678,8.678,0,0,1,.85,2.125,10.284,10.284,0,0,0,3.757-.391C8.968.7,9.256.119,9.256-1.105ZM25.9-8.313H22.534V-9.35H25.9Zm0,2.431H22.534V-6.919H25.9Zm0,2.482H22.534V-4.454H25.9Zm-5.185-7.463V-1.9H27.8v-8.959H24.795c.136-.357.272-.748.408-1.156h2.941v-1.717H20.2v1.717h2.856c-.068.374-.136.782-.2,1.156Zm-6.307-.561h4.063v1.173h1.683v-2.737H17.382v-1.377H15.5v1.377h-2.72v2.737h1.632Zm3.06,10.353H15.41V-2.635h2.057ZM15.444-4.2A10.005,10.005,0,0,0,16.872-5.3c.51.391,1.02.765,1.445,1.105Zm2.04-4.522a7.266,7.266,0,0,1-.833,1.207l-1.173-.765c.119-.153.238-.289.357-.442Zm1.7,5.236.034.034,1.139-1.411c-.561-.476-1.394-1.088-2.3-1.7a10.217,10.217,0,0,0,1.666-3.06l-1.139-.527-.306.085H16.7a6.71,6.71,0,0,0,.391-.782l-1.649-.408A8.175,8.175,0,0,1,12.333-7.7a7.626,7.626,0,0,1,1.275,1.173,7.785,7.785,0,0,0,.731-.578l1.122.782a10.082,10.082,0,0,1-3.128,1.785,5.835,5.835,0,0,1,1.02,1.445l.357-.153v4.4h1.7V.476h3.774a11.991,11.991,0,0,1,.935.969A12.089,12.089,0,0,0,23.74-.816l-1.632-1.02A9.635,9.635,0,0,1,19.184.034Zm5.3,2.652A18.732,18.732,0,0,1,27.14,1.5L28.7.459a21.4,21.4,0,0,0-2.754-2.21Zm9.435-2.125h7.31v.7h-7.31Zm4.488-5.8v1.122H35.318a3.446,3.446,0,0,0,.833-1.122Zm-5.457-1.853h1.717a2.084,2.084,0,0,1-.1.663H32.716Zm3.57-1.853h1.887v.68H36.524Zm5.576,0v.68H40.333v-.68ZM38.411-9.945H36.473l.051-.663h1.887Zm4.641,1.19a1.037,1.037,0,0,1-.153.493.39.39,0,0,1-.357.119,5.016,5.016,0,0,1-.935-.051,3.552,3.552,0,0,1,.2.561H40.333V-8.755ZM41.234-5.814h-7.31v-.663h7.31Zm0,1.768h-7.31v-.68h7.31Zm2.057,2.941V-6.97c.1,0,.187-.017.255-.017a1.514,1.514,0,0,0,.986-.408c.289-.306.391-.918.476-2.023.017-.187.034-.527.034-.527H40.333v-.663h3.6v-3.043h-3.6v-.731H38.411v.731H36.524v-.731H34.688v.731H30.83v1.19h3.859v.68h-3.23a25.69,25.69,0,0,1-1.071,3.06l1.836.119.068-.153h1.479A8.243,8.243,0,0,1,29.741-7.5a7.857,7.857,0,0,1,.952,1.564c.459-.068.867-.136,1.258-.221v5.049h2.312A23.08,23.08,0,0,1,29.758.085,13.062,13.062,0,0,1,31.22,1.53a21.726,21.726,0,0,0,5.3-2.023l-1.343-.612H39.72l-1.292.8a35.867,35.867,0,0,1,4.539,1.8L45.212.527C44.14.068,42.355-.578,40.723-1.105ZM55.683-5.389V-7.48h3.587v2.091Zm-5.287,0c.034-.629.051-1.241.051-1.785V-7.48h3.2v2.091Zm3.247-5.95v1.972h-3.2v-1.972Zm5.627,1.972H55.683v-1.972h3.587Zm2.006-3.893H48.441v6.069c0,2.38-.153,5.406-2.006,7.446a7.467,7.467,0,0,1,1.6,1.309,9.735,9.735,0,0,0,2.142-5.049h3.468V1.258h2.04V-3.485h3.587v2.55c0,.306-.119.408-.442.408-.306,0-1.428.017-2.38-.034a7.643,7.643,0,0,1,.646,1.938,7.894,7.894,0,0,0,3.264-.357c.68-.306.918-.85.918-1.938ZM68.008.238c2.55,0,4.25-2.244,4.25-6.579s-1.7-6.477-4.25-6.477c-2.567,0-4.267,2.125-4.267,6.477C63.742-2.006,65.441.238,68.008.238Zm0-1.955c-1.088,0-1.9-1.088-1.9-4.624,0-3.519.816-4.539,1.9-4.539,1.071,0,1.887,1.02,1.887,4.539C69.9-2.805,69.079-1.717,68.008-1.717Zm14.45-5.321v-4.284h4.25v4.284ZM76.44-11.322h4.012v4.284H76.44Zm12.308-2.006H74.4V1.462h2.04V-5.032H86.708V-.918c0,.289-.119.391-.442.408-.34,0-1.445.017-2.414-.051a8.263,8.263,0,0,1,.731,2.023A7.854,7.854,0,0,0,87.8,1.088C88.51.765,88.748.2,88.748-.9Z" transform="translate(981 3181)" fill="#352e64"/>
    <g id="グループ_837" data-name="グループ 837" transform="translate(13746 16705)">
      <g id="楕円形_131" data-name="楕円形 131" transform="translate(-12796 -13642)" fill="none" stroke="red" stroke-width="3">
        <circle cx="31.5" cy="31.5" r="31.5" stroke="none"/>
        <circle cx="31.5" cy="31.5" r="30" fill="none"/>
      </g>
      <text id="_" data-name="¥" transform="translate(-12776 -13597)" fill="red" font-size="19" font-family="Futura-Medium, Futura" font-weight="500"><tspan x="-5.863" y="0">¥</tspan></text>
      <path id="パス_610" data-name="パス 610" d="M-9.314-13.364q0-6.306,2.939-10.066A7.836,7.836,0,0,1,0-26.831a7.836,7.836,0,0,1,6.375,3.4q2.939,3.76,2.939,10.237,0,6.46-2.939,10.22A7.822,7.822,0,0,1,.017.427a7.912,7.912,0,0,1-6.392-3.4Q-9.314-6.733-9.314-13.364Zm3.914.017a15.636,15.636,0,0,0,1.521,7.3Q-2.358-3.2,0-3.2q2.341,0,3.879-2.854A14.91,14.91,0,0,0,5.417-13.21a15.013,15.013,0,0,0-1.538-7.178Q2.341-23.225,0-23.225q-2.324,0-3.862,2.837A14.567,14.567,0,0,0-5.4-13.347Z" transform="translate(-12758 -13597)" fill="#352e64"/>
    </g>
  </g>
</svg>
