<svg xmlns="http://www.w3.org/2000/svg" width="286" height="212" viewBox="0 0 286 212">
  <g id="グループ_941" data-name="グループ 941" transform="translate(-497 -3021)">
    <rect id="長方形_545" data-name="長方形 545" width="286" height="212" rx="15" transform="translate(497 3021)" fill="#fff"/>
    <path id="パス_608" data-name="パス 608" d="M-97.563-8.279a19.585,19.585,0,0,0,4.25-4.216,20.487,20.487,0,0,0,4.386,4.216Zm5.321,5.508h4.76V-4.539h-4.76V-6.494h3.978V-7.82a21.552,21.552,0,0,0,1.836,1.139A9.85,9.85,0,0,1-85.085-8.5a17.966,17.966,0,0,1-7.276-5.95h-2.091a18.551,18.551,0,0,1-6.9,6.154,7.469,7.469,0,0,1,1.275,1.632,21.752,21.752,0,0,0,1.887-1.173v1.343h3.842v1.955h-4.709v1.768h4.709V-.748h-6.069V1.071h14.467V-.748h-6.29ZM-75.4-5.882h1.581l-1.037.527A12.943,12.943,0,0,1-73.7-3.876h-1.7Zm2.329,2.006.884-.493a13.12,13.12,0,0,0-1.275-1.513h.935v-1.7H-75.4v-1.6h3.247v-1.768H-80.5V-9.18h3.23v1.6H-80.07v1.7h2.805v2.006h-3.417v1.649h8.806V-3.876Zm-8.279,2.635V-11.883h10.064V-1.241Zm-2.057-12.5V1.479h2.057V.629h10.064v.85h2.159V-13.736Zm27.523,2.363a11.112,11.112,0,0,1-1.547,1c-.782.459-1.972,1.054-3.213,1.785a39.47,39.47,0,0,1-2.108-4.658l-2.125.867c.765,1.785,1.581,3.587,2.346,5.015-1.615,1.19-2.788,2.567-2.788,4.42C-65.314-.034-62.781.9-59.432.9A30.93,30.93,0,0,0-54.026.476l.034-2.414a28.129,28.129,0,0,1-5.491.612c-2.346,0-3.5-.646-3.5-1.853,0-1.173.935-2.142,2.329-3.06A46.277,46.277,0,0,1-56.491-8.5c.629-.306,1.156-.6,1.666-.9Zm-.034-1.632a20.346,20.346,0,0,1,1.326,2.363l1.377-.578a25.1,25.1,0,0,0-1.36-2.329Zm2.006-.765a18.024,18.024,0,0,1,1.377,2.346L-51.187-12a22.78,22.78,0,0,0-1.36-2.329Zm6.392,3.689c1.377.1,2.839.187,4.607.187,1.6,0,3.689-.119,4.862-.2v-2.261c-1.292.136-3.213.238-4.879.238a44.122,44.122,0,0,1-4.59-.2ZM-48.3-5.389a10.828,10.828,0,0,0-.34,2.431c0,2.312,1.938,3.6,5.8,3.6A25.7,25.7,0,0,0-36.992.068L-37.009-2.3a23.873,23.873,0,0,1-5.916.663c-2.431,0-3.451-.782-3.451-1.853a6.985,6.985,0,0,1,.289-1.7ZM-21.675-8.84l-1.258.527A13.117,13.117,0,0,1-21.607-5.95l1.292-.578A22.28,22.28,0,0,0-21.675-8.84Zm1.9-.782-1.241.578a14.956,14.956,0,0,1,1.394,2.295l1.275-.612A25.428,25.428,0,0,0-19.771-9.622Zm-13.243-2.006.221,2.312c1.955-.425,5.491-.8,6.953-.952a6.676,6.676,0,0,0-2.482,5.185c0,3.655,3.332,5.559,6.868,5.78l.782-2.329c-2.856-.136-5.44-1.139-5.44-3.91a5.11,5.11,0,0,1,3.553-4.709,17.385,17.385,0,0,1,3.247-.221l-.017-2.176c-1.19.051-3.026.153-4.76.289-3.077.272-5.865.527-7.276.646C-31.688-11.679-32.334-11.645-33.014-11.628Zm26.86,4.675A4.673,4.673,0,0,1-4.42-3.689c0,1.394-1.292,2.465-3.638,2.465-1.666,0-2.516-.765-2.516-2.142,0-.306.034-.731.068-1.224h.68c1.037,0,2.023-.068,2.975-.153L-6.8-6.749a33.4,33.4,0,0,1-3.383.2H-10.3c.085-.748.187-1.547.289-2.3a30.169,30.169,0,0,0,3.281-.153L-6.664-11a24.707,24.707,0,0,1-3.094.2c.085-.544.136-.986.187-1.275.068-.442.153-.884.289-1.5l-2.363-.136a10.6,10.6,0,0,1-.034,1.5c-.034.374-.068.833-.136,1.343a15.605,15.605,0,0,1-3.451-.629l-.119,1.955a21.043,21.043,0,0,0,3.349.595c-.1.765-.187,1.547-.289,2.3A14.331,14.331,0,0,1-15.64-7.31l-.119,2.04a18.878,18.878,0,0,0,3.23.561c-.068.7-.119,1.292-.119,1.7,0,2.805,1.87,3.961,4.522,3.961,3.689,0,5.967-1.836,5.967-4.369A6.263,6.263,0,0,0-3.791-7.463ZM6.953-11.645A10.212,10.212,0,0,1,7.6-9.537H4.352l.884-.255a9.655,9.655,0,0,0-.952-1.938c1.445-.068,2.924-.17,4.352-.306ZM2.737-7.786H13.7v1.938h1.972V-9.537H13.26c.391-.629.833-1.326,1.224-2.04l-2.159-.51a19.283,19.283,0,0,1-1.1,2.55H8.262L9.52-9.843a8.907,8.907,0,0,0-.765-2.193c2.261-.2,4.454-.476,6.29-.816l-1.36-1.632A95.165,95.165,0,0,1,1-13.328a6.4,6.4,0,0,1,.459,1.717c.816-.017,1.683-.051,2.533-.1l-1.513.425a10.6,10.6,0,0,1,.8,1.751H.85v3.689H2.737Zm7.837,3.162A8.417,8.417,0,0,1,8.262-2.652,9.892,9.892,0,0,1,5.678-4.624Zm1.683-1.938-.374.085H3.3v1.853h.8l-.561.238A11.438,11.438,0,0,0,6.222-1.717,23.739,23.739,0,0,1,.442-.476a6.961,6.961,0,0,1,1.19,1.785A22.283,22.283,0,0,0,8.245-.51a20.508,20.508,0,0,0,6.494,1.785A9.774,9.774,0,0,1,15.98-.612a23.175,23.175,0,0,1-5.627-1.156,9.988,9.988,0,0,0,3.264-3.961Zm6.8-6.868a8.82,8.82,0,0,1-.1,1.462,44.025,44.025,0,0,0-.561,6.715A18.768,18.768,0,0,0,19.363.2L21.25.017c-.017-.238-.034-.527-.051-.7a3.935,3.935,0,0,1,.119-.816A42.244,42.244,0,0,1,22.457-5.61l-1.071-.663c-.272.612-.561,1.428-.782,1.938-.442-2.091.153-5.61.561-7.48a13.014,13.014,0,0,1,.391-1.36Zm13.311,2.958a22.025,22.025,0,0,1-2.533.306c0-.918,0-1.785.017-2.159a8.56,8.56,0,0,1,.085-1.139H27.472a7.469,7.469,0,0,1,.187,1.156c.034.459.068,1.326.085,2.261-.646.017-1.292.034-1.9.034a17.681,17.681,0,0,1-2.55-.17v2.142c.833.034,1.87.085,2.6.085.612,0,1.258-.017,1.887-.034v.612c0,2.839-.272,4.335-1.564,5.678A6.544,6.544,0,0,1,24.242-.357L26.2,1.173C29.546-.969,29.852-3.4,29.852-7.378v-.7c.952-.051,1.819-.119,2.5-.2Zm9.605-1.1h.595v1.326h5.015a19.282,19.282,0,0,1-1.462,5.066,20.5,20.5,0,0,1-1.564-5.032l-1.938.391a24.087,24.087,0,0,0,2.295,6.732,9.217,9.217,0,0,1-2.941,2.7ZM37.6-4.641h2.414v1.53c-.816.1-1.632.221-2.414.323Zm0-3.5h2.414v1.7H37.6Zm2.414-3.434v1.615H37.6v-1.615Zm8.466-.714-.34.051H43.061v-1.207H34.527v1.87h1.156V-2.55c-.578.068-1.1.119-1.564.17L34.51-.357C36.074-.6,38.063-.9,40.018-1.241v2.72h1.955v-1.6A8.086,8.086,0,0,1,43.1,1.36a11.646,11.646,0,0,0,3.026-2.6,10.725,10.725,0,0,0,2.924,2.6A7.338,7.338,0,0,1,50.439-.306,9.351,9.351,0,0,1,47.362-3.06a22.564,22.564,0,0,0,2.448-8.908ZM54.6-13.7c-.017.476-.051,1.156-.136,1.768a40.827,40.827,0,0,0-.476,5.389,21.778,21.778,0,0,0,.2,2.805l2.091-.136A10.109,10.109,0,0,1,56.2-5.661c.085-2.21,1.819-5.2,3.808-5.2,1.394,0,2.261,1.445,2.261,4.046,0,4.08-2.618,5.3-6.358,5.882L57.188,1.02C61.642.2,64.566-2.074,64.566-6.834c0-3.706-1.819-6-4.165-6a5.2,5.2,0,0,0-4.165,2.72,27.486,27.486,0,0,1,.68-3.485ZM75.378-7.395v2.72h-3.23v-2.72Zm2.006,4.658V-9.316H70.176v7.871h1.972V-2.737ZM83.929-13.26H68.612v2.04H79.849v10.1c0,.357-.153.476-.544.476-.408,0-1.887.017-3.094-.051a9.17,9.17,0,0,1,.833,2.142,11.48,11.48,0,0,0,3.842-.374c.8-.34,1.088-.935,1.088-2.159V-11.22h1.955ZM98.872-6.766c1.564,0,2.091-.629,2.312-2.805a5.588,5.588,0,0,1-1.785-.748c-.068,1.479-.187,1.734-.731,1.734H96.815c-.646,0-.748-.068-.748-.68v-1a31.193,31.193,0,0,0,4.352-1.6l-1.292-1.462a26.486,26.486,0,0,1-3.06,1.411v-2.431H94.061v5.117c0,1.87.476,2.465,2.465,2.465ZM88.179-3.247v-1h2.55v1Zm2.55-3.383v.884h-2.55V-6.63ZM92.718-8.3H86.309V1.462h1.87V-1.751h2.55V-.612c0,.2-.068.255-.272.255a14.123,14.123,0,0,1-1.5,0,7.481,7.481,0,0,1,.646,1.785,5.039,5.039,0,0,0,2.38-.34c.561-.289.731-.782.731-1.666Zm-2.55-4.335c.272.442.544.918.8,1.394l-2.261.1c.425-.9.884-1.921,1.275-2.907l-2.108-.425a26.856,26.856,0,0,1-1.241,3.417c-.476.017-.918.034-1.326.034l.17,1.921c1.734-.1,4.046-.238,6.29-.391a6.28,6.28,0,0,1,.306.9l1.853-.748a16.626,16.626,0,0,0-2.057-3.944ZM96.832-.408c-.663,0-.782-.085-.782-.68v-1.36a25.773,25.773,0,0,0,4.539-1.8L99.246-5.729a19.255,19.255,0,0,1-3.2,1.6V-6.426H94.061v5.338c0,1.87.493,2.448,2.482,2.448h2.414c1.632,0,2.142-.663,2.363-3.06a6.294,6.294,0,0,1-1.768-.748c-.085,1.717-.2,2.04-.782,2.04Z" transform="translate(640 3181)" fill="#352e64"/>
    <g id="パス_573" data-name="パス 573" transform="translate(598.857 3068.564)" fill="none">
      <path d="M12.923,38.354c2.579-2.642,2.992-2.626,6.152-5.566,1.979-1.918,3.836-4.243,7.526-5.433,4.374-1.411,9.044-.9,13.039-.916,4.627-.017,8.287-.389,8.976,0A4.063,4.063,0,0,1,51.2,30.105c.252,2.35-2.589,4.567-2.589,4.567H50.1s11.176-6.43,13.291-7.7,3.644-1.367,5.415.515.565,5.265-1.694,6.41c-1.8,1.489-6.346,4.544-12.052,8.673C51.712,44.993,48.582,47.9,44.4,49.333c-.4.454-5.3.088-10.038-1.224-5.2-.948-8.96-1.581-8.96-1.581s-3.806,3-6.993,5.935c-2.253,2.073-4.2,4.352-5.255,3.565-.494-.671-.418.3-.527-5.806C12.892,39.925,12.309,40.024,12.923,38.354Z" stroke="none"/>
      <path d="M 66.05753326416016 28.03831481933594 C 66.05703735351562 28.03831481933594 66.05651092529297 28.03831481933594 66.05601501464844 28.03831481933594 C 65.68516540527344 28.03835678100586 65.13668823242188 28.25519561767578 64.42582702636719 28.68283462524414 C 62.31797027587891 29.95086669921875 51.55784606933594 36.14260482788086 51.100830078125 36.40556716918945 L 50.63771057128906 36.67203521728516 L 38.26073837280273 36.67203521728516 L 38.26073837280273 32.67203521728516 L 47.85880661010742 32.67203521728516 C 48.57167434692383 31.96887588500977 49.28550720214844 30.96687316894531 49.21595001220703 30.31830596923828 C 49.11277008056641 29.3563346862793 48.85892868041992 29.05947494506836 48.77552032470703 28.9619255065918 C 48.57933807373047 28.73249435424805 48.24953460693359 28.53089141845703 47.82913208007812 28.29170608520508 C 47.70050048828125 28.27855682373047 47.44236755371094 28.26206970214844 46.95669937133789 28.26207733154297 C 46.27840805053711 28.26207733154297 45.39262771606445 28.29298400878906 44.36698913574219 28.32876586914062 C 42.97557830810547 28.37730407714844 41.39852905273438 28.43232727050781 39.64648056030273 28.43863677978516 C 39.58732986450195 28.43884658813477 39.52828979492188 28.43894577026367 39.46884918212891 28.43894577026367 C 38.66058731079102 28.43894577026367 37.85331726074219 28.42030715942383 36.99864959716797 28.40057373046875 C 36.14865875244141 28.38095474243164 35.26972961425781 28.36066436767578 34.39550018310547 28.36066436767578 C 32.34782028198242 28.36066436767578 29.68112945556641 28.46268463134766 27.21489715576172 29.25819396972656 C 24.54561996459961 30.11919403076172 23.01284790039062 31.66670608520508 21.39007949829102 33.3050651550293 C 21.09034729003906 33.60768508911133 20.7804069519043 33.92060470581055 20.46727752685547 34.22408676147461 L 20.43774032592773 34.25213623046875 C 19.02503967285156 35.56658554077148 18.15728759765625 36.29689407348633 17.39168548583984 36.94122695922852 C 16.51200866699219 37.68157196044922 15.85662078857422 38.23313140869141 14.68074035644531 39.41926193237305 C 14.61856079101562 39.70355987548828 14.62033843994141 40.08018112182617 14.64971923828125 41.26365661621094 C 14.68770599365234 42.79347610473633 14.75119018554688 45.35117721557617 14.62545776367188 50.23088455200195 C 14.63713073730469 50.88845062255859 14.64665985107422 51.46339416503906 14.65499877929688 51.96670532226562 C 14.66278076171875 52.43638610839844 14.66983795166016 52.86216735839844 14.67685699462891 53.23796844482422 C 15.06619262695312 52.88372421264648 15.47137451171875 52.49414825439453 15.80397796630859 52.17435455322266 C 16.20484161376953 51.78894805908203 16.61934661865234 51.39040374755859 17.05308532714844 50.99135589599609 C 20.25927734375 48.04176712036133 24.00351715087891 45.08303451538086 24.16133880615234 44.95852661132812 L 24.8576774597168 44.40916442871094 L 25.73231887817383 44.5565071105957 C 25.77001953125 44.5628547668457 29.5616569519043 45.20239639282227 34.71891784667969 46.14206695556641 L 34.80715942382812 46.15814590454102 L 34.89360809326172 46.18205642700195 C 38.06668853759766 47.05976486206055 41.46007919311523 47.51899719238281 43.17215728759766 47.51899719238281 C 43.34351348876953 47.51899719238281 43.46800994873047 47.51400375366211 43.553955078125 47.50836944580078 L 43.75071716308594 47.44101715087891 C 46.69450759887695 46.43334579467773 49.09198760986328 44.5946044921875 51.63024139404297 42.64790725708008 C 52.36447143554688 42.08479690551758 53.12368774414062 41.50250625610352 53.89132690429688 40.94701385498047 C 56.23548889160156 39.25071716308594 58.35332870483398 37.75658416748047 60.22187042236328 36.43834686279297 C 62.79943084716797 34.61989593505859 64.83534240722656 33.18356704711914 65.84308624267578 32.35201644897461 L 66.01422119140625 32.2108154296875 L 66.21212768554688 32.11054611206055 C 66.89888763427734 31.76261520385742 67.48044586181641 30.9378662109375 67.62638092041016 30.10491561889648 C 67.69107818603516 29.73562622070312 67.69629669189453 29.21901702880859 67.35377502441406 28.85500717163086 C 66.58794403076172 28.04110717773438 66.20345306396484 28.03831481933594 66.05753326416016 28.03831481933594 M 66.05581665039062 26.0383186340332 C 66.98902893066406 26.03823852539062 67.86502075195312 26.47980499267578 68.81034088134766 27.48444747924805 C 70.58165740966797 29.36688613891602 69.37561798095703 32.7498664855957 67.11599731445312 33.89464569091797 C 65.31193542480469 35.38327407836914 60.76992797851562 38.43817520141602 55.06380844116211 42.56729507446289 C 51.71229934692383 44.9925537109375 48.58194732666016 47.90119552612305 44.39842987060547 49.33322525024414 C 43.99388885498047 49.78700256347656 39.10036087036133 49.42079162597656 34.36040878295898 48.10967636108398 C 29.15662002563477 47.16152572631836 25.40008926391602 46.52871704101562 25.40008926391602 46.52871704101562 C 25.40008926391602 46.52871704101562 21.59442901611328 49.53107452392578 18.40718078613281 52.4632453918457 C 16.15442657470703 54.5357780456543 14.21112060546875 56.81494903564453 13.15183258056641 56.02825546264648 C 12.65747833251953 55.35675811767578 12.73362731933594 56.32688522338867 12.625 50.22269439697266 C 12.89197540283203 39.92506408691406 12.30911254882812 40.02406692504883 12.92315673828125 38.3541145324707 C 15.50234985351562 35.71188735961914 15.91543579101562 35.72807693481445 19.07535934448242 32.78792572021484 C 21.05419921875 30.87003707885742 22.91120910644531 28.54492568969727 26.60092926025391 27.35476684570312 C 30.91313934326172 25.96380996704102 35.51217651367188 26.43894577026367 39.46884536743164 26.43894958496094 C 39.52592468261719 26.43894958496094 39.5826301574707 26.43885040283203 39.63943862915039 26.43864440917969 C 44.26601028442383 26.4219856262207 47.92604064941406 26.04983139038086 48.61534881591797 26.43864440917969 C 49.8918571472168 27.15869522094727 50.95243072509766 27.75452423095703 51.20453643798828 30.10501480102539 C 51.45664978027344 32.45551681518555 48.61534881591797 34.67203521728516 48.61534881591797 34.67203521728516 L 38.26073837280273 34.67203521728516 L 50.10339736938477 34.67203521728516 C 50.10339736938477 34.67203521728516 61.27943801879883 28.24161529541016 63.39485931396484 26.96903610229492 C 64.38130187988281 26.37562942504883 65.24043273925781 26.03839111328125 66.05581665039062 26.0383186340332 Z" stroke="none" fill="red"/>
    </g>
    <g id="パス_574" data-name="パス 574" transform="translate(626.506 3064.042)" fill="red">
      <path d="M 13.49377918243408 23.42835235595703 C 10.36314678192139 21.26105880737305 7.769862174987793 19.08280754089355 5.778908252716064 16.94751167297363 C 3.915828227996826 14.94936180114746 2.575628280639648 12.98679161071777 1.7955482006073 11.11430168151855 C 0.3578082323074341 7.662011623382568 1.126508235931396 5.33186149597168 2.024558305740356 3.985051393508911 C 3.252288341522217 2.143811464309692 5.485418319702148 1.000001430511475 7.852468013763428 1.000001430511475 C 9.817718505859375 1.000001430511475 11.5465784072876 1.788271427154541 12.7205982208252 3.219611406326294 L 13.49377822875977 4.162271499633789 L 14.2669677734375 3.219611406326294 C 15.44096851348877 1.788271427154541 17.16983795166016 1.000001430511475 19.13508796691895 1.000001430511475 C 21.50238800048828 1.000001430511475 23.73561859130859 2.143731355667114 24.9632682800293 3.984851360321045 C 25.86125755310059 5.331581592559814 26.62987899780273 7.661701679229736 25.19195747375488 11.11442184448242 C 24.41191864013672 12.98679161071777 23.07172775268555 14.94936180114746 21.20864868164062 16.94751167297363 C 19.21769332885742 19.08280754089355 16.62441825866699 21.26105880737305 13.49377918243408 23.42835235595703 Z" stroke="none"/>
      <path d="M 13.49419689178467 22.20747375488281 C 20.48342895507812 17.26069831848145 23.2143383026123 13.26108074188232 24.26880836486816 10.72996139526367 C 25.27236747741699 8.320221900939941 25.22480773925781 6.179631233215332 24.13125801086426 4.539621353149414 C 23.08672904968262 2.973121404647827 21.17230796813965 2.000001430511475 19.13508796691895 2.000001430511475 C 17.47494888305664 2.000001430511475 16.02066802978516 2.658361434936523 15.04014778137207 3.853791475296021 L 13.49377822875977 5.739101409912109 L 11.94740867614746 3.853791475296021 C 10.96688842773438 2.658361434936523 9.512608528137207 2.000001430511475 7.852468013763428 2.000001430511475 C 5.815498352050781 2.000001430511475 3.901178121566772 2.973201513290405 2.856558322906494 4.539831638336182 C 1.762938261032104 6.179951667785645 1.715278267860413 8.320461273193359 2.718638181686401 10.72974109649658 C 4.557978630065918 15.14479160308838 9.379427909851074 19.29132270812988 13.49419689178467 22.20747375488281 M 13.49377822875977 24.64052200317383 C 6.238258361816406 19.72061157226562 2.433028221130371 15.24482154846191 0.872448205947876 11.49887180328369 C -3.308262586593628 1.460169672966003 8.633100509643555 -3.340636014938354 13.49377822875977 2.585431337356567 C 18.35444831848145 -3.340640068054199 30.29581642150879 1.460172653198242 26.11509895324707 11.49887180328369 C 24.55452728271484 15.24482154846191 20.74929809570312 19.72061157226562 13.49377822875977 24.64052200317383 Z" stroke="none" fill="red"/>
    </g>
  </g>
</svg>
