<svg xmlns="http://www.w3.org/2000/svg" width="300" height="50.984" viewBox="0 0 300 50.984">
  <g id="グループ_793" data-name="グループ 793" transform="translate(0 0)">
    <path id="パス_110" data-name="パス 110" d="M219.822,232.937V191.512a4.485,4.485,0,0,1,4.3-4.683h13.086c7.738,0,14.041,6.868,14.041,15.3s-6.3,15.3-14.041,15.3h-8.787v15.509a4.315,4.315,0,1,1-8.6,0Zm8.6-24.875h8.787a5.7,5.7,0,0,0,5.444-5.933,5.638,5.638,0,0,0-5.444-5.933h-8.787Z" transform="translate(-219.822 -186.638)" fill="red"/>
    <path id="パス_111" data-name="パス 111" d="M275.787,230.892a26.721,26.721,0,0,1,0-35.149,21.391,21.391,0,0,1,32.19,0,25.9,25.9,0,0,1,6.686,17.521c0,13.769-10.22,24.824-22.734,24.824A21.655,21.655,0,0,1,275.787,230.892Zm2-17.627a16.039,16.039,0,0,0,4.108,10.952,13.42,13.42,0,0,0,10.029,4.485c7.832,0,14.137-6.882,14.137-15.437a15.967,15.967,0,0,0-4.107-10.846,13.255,13.255,0,0,0-20.06,0A15.961,15.961,0,0,0,277.792,213.265Z" transform="translate(-231.532 -187.106)" fill="red"/>
    <path id="パス_112" data-name="パス 112" d="M395.513,195.923a4.484,4.484,0,0,1-4.3-4.683,4.55,4.55,0,0,1,4.3-4.682h30.663a4.551,4.551,0,0,1,4.3,4.682,4.484,4.484,0,0,1-4.3,4.683H415.19v36.937a4.548,4.548,0,0,1-4.3,4.683,4.485,4.485,0,0,1-4.3-4.683V195.923Z" transform="translate(-264.997 -186.559)" fill="red"/>
    <path id="パス_113" data-name="パス 113" d="M452.376,230.892a26.723,26.723,0,0,1,0-35.149,21.391,21.391,0,0,1,32.19,0,25.9,25.9,0,0,1,6.686,17.521c0,13.769-10.22,24.824-22.734,24.824A21.657,21.657,0,0,1,452.376,230.892Zm2-17.627a16.039,16.039,0,0,0,4.108,10.952,13.419,13.419,0,0,0,10.029,4.485c7.832,0,14.137-6.882,14.137-15.437a15.967,15.967,0,0,0-4.107-10.846,13.254,13.254,0,0,0-20.059,0A15.961,15.961,0,0,0,454.381,213.265Z" transform="translate(-276.393 -187.106)" fill="red"/>
    <path id="パス_114" data-name="パス 114" d="M520.49,232.965V206.119c0-10.715,8.12-19.56,17.958-19.56,9.934.1,17.958,8.845,17.958,19.56v26.741a4.314,4.314,0,1,1-8.6,0V206.119c0-5.618-4.2-10.091-9.361-10.2-5.159,0-9.361,4.578-9.361,10.2v26.741a4.311,4.311,0,1,1-8.6.1Z" transform="translate(-294.617 -186.559)" fill="red"/>
    <path id="パス_115" data-name="パス 115" d="M583.732,235.174v-12.7a14.615,14.615,0,0,1,29.229,0v12.7a4.343,4.343,0,0,1-4.3,4.3,4.282,4.282,0,0,1-4.3-4.3v-12.7a6.033,6.033,0,0,0-6.018-5.922,5.971,5.971,0,0,0-6.017,5.922v12.7a4.3,4.3,0,1,1-8.6,0Z" transform="translate(-312.961 -188.585)" fill="red"/>
    <path id="パス_116" data-name="パス 116" d="M354.421,234.913" transform="translate(-250.33 -197.519)" fill="red"/>
    <path id="パス_117" data-name="パス 117" d="M356.689,237.543a19.5,19.5,0,0,1-6.123-.988,15.074,15.074,0,0,1-5.187-2.93,13.111,13.111,0,0,1-1.466-1.527,5.183,5.183,0,0,1-.418-.5,5.409,5.409,0,0,1-1.023-3.209c0-2.606,1.7-4.745,3.874-4.868l.232-.029c-.006.014.069.024.146.029.846.046,1.2.371,2.136,1.236.347.321.74.681,1.218,1.08a12.349,12.349,0,0,0,3.056,2.014,11.784,11.784,0,0,0,3.594.616l.262,0a10.359,10.359,0,0,0,3.373-.544,7.571,7.571,0,0,0,2.963-1.821,5.157,5.157,0,0,0,1.431-3.714,5.325,5.325,0,0,0-.923-3.178,5.386,5.386,0,0,0-2.205-1.763,10.14,10.14,0,0,0-2.833-.756q-1.471-.187-3.093-.338a26.279,26.279,0,0,1-6.153-1.213,12.5,12.5,0,0,1-4.489-2.575,11.128,11.128,0,0,1-2.806-4.206,18.719,18.719,0,0,1-1.083-6.522,15.966,15.966,0,0,1,1.182-6.671,13.721,13.721,0,0,1,3.349-4.741,14.309,14.309,0,0,1,4.909-2.884,17.421,17.421,0,0,1,11.533,0,14.38,14.38,0,0,1,4.908,2.884,12.881,12.881,0,0,1,1.068,1.092,4.959,4.959,0,0,1,1.014,1.328,5.415,5.415,0,0,1,.609,2.511,4.514,4.514,0,0,1-4.031,4.788h0c-1.815,0-3.189-2.026-3.2-2.047a6.415,6.415,0,0,0-2.74-2.121,8.792,8.792,0,0,0-6.477.04,7.161,7.161,0,0,0-2.75,1.98,6.814,6.814,0,0,0-.75,6.985,5.245,5.245,0,0,0,1.97,1.991,9.124,9.124,0,0,0,2.528.977c.851.2,1.805.383,2.83.537,2.128.3,4.212.656,6.21,1.069a14.482,14.482,0,0,1,5.046,2.033,9.913,9.913,0,0,1,3.362,3.888A15.823,15.823,0,0,1,373,222.462a13.964,13.964,0,0,1-4.962,11.114,16.255,16.255,0,0,1-5.244,2.944A18.832,18.832,0,0,1,356.689,237.543Z" transform="translate(-250.7 -186.559)" fill="red"/>
  </g>
</svg>
