<svg xmlns="http://www.w3.org/2000/svg" width="254" height="254" viewBox="0 0 254 254">
  <g id="グループ_938" data-name="グループ 938" transform="translate(-513 -1432)">
    <circle id="楕円形_122" data-name="楕円形 122" cx="127" cy="127" r="127" transform="translate(513 1432)" fill="#fdf7f7"/>
    <g id="グループ_804" data-name="グループ 804" transform="translate(17.981 9.436)">
      <g id="グループ_803" data-name="グループ 803" transform="translate(580.094 1489.003)">
        <g id="グループ_547" data-name="グループ 547" transform="translate(0 29.069)">
          <line id="線_118" data-name="線 118" x2="0.004" y2="32.121" transform="translate(29.165 30.862)" fill="none" stroke="red" stroke-linecap="round" stroke-linejoin="round" stroke-width="5"/>
          <path id="パス_341" data-name="パス 341" d="M1296,1203.035v33.148l-29.17,13.408-.417.192-28.742-13.194v-33.553" transform="translate(-1237.666 -1186.801)" fill="none" stroke="red" stroke-linecap="round" stroke-linejoin="round" stroke-width="5"/>
          <path id="パス_342" data-name="パス 342" d="M1237.668,1203.044l29.165,14.625L1296,1203.045" transform="translate(-1237.668 -1186.806)" fill="none" stroke="red" stroke-linecap="round" stroke-linejoin="round" stroke-width="5"/>
          <path id="パス_343" data-name="パス 343" d="M1237.663,1182.148l29.165-16.238L1296,1182.148" transform="translate(-1237.663 -1165.909)" fill="none" stroke="red" stroke-linecap="round" stroke-linejoin="round" stroke-width="5"/>
          <line id="線_119" data-name="線 119" x1="29.227" y2="15.421" transform="translate(14.225 7.952)" fill="none" stroke="red" stroke-linecap="round" stroke-linejoin="round" stroke-width="5"/>
        </g>
        <g id="グループ_549" data-name="グループ 549" transform="translate(12.064 0)">
          <g id="グループ_548" data-name="グループ 548" transform="translate(0)">
            <path id="パス_344" data-name="パス 344" d="M1180.25,1195.21v12.2a13.211,13.211,0,0,0,13.276,13.143h45.551a13.21,13.21,0,0,0,13.276-13.143v-94.835a13.2,13.2,0,0,0-13.276-13.143h-45.551a13.211,13.211,0,0,0-13.276,13.143v13.535" transform="translate(-1180.25 -1099.431)" fill="none" stroke="red" stroke-linecap="round" stroke-linejoin="round" stroke-width="5"/>
            <line id="線_120" data-name="線 120" x1="10.925" transform="translate(30.591 106.77)" fill="none" stroke="red" stroke-linecap="round" stroke-linejoin="round" stroke-width="5"/>
            <line id="線_121" data-name="線 121" x1="3.267" transform="translate(34.421 9.791)" fill="none" stroke="red" stroke-linecap="round" stroke-linejoin="round" stroke-width="5"/>
          </g>
        </g>
      </g>
      <line id="線_184" data-name="線 184" x2="24.23" transform="translate(557.777 1544.464)" fill="none" stroke="red" stroke-linecap="round" stroke-width="5"/>
      <line id="線_185" data-name="線 185" x2="13.39" transform="translate(575.63 1551.478)" fill="none" stroke="red" stroke-linecap="round" stroke-width="5"/>
      <line id="線_186" data-name="線 186" x2="17.026" transform="translate(566.68 1559.497)" fill="none" stroke="red" stroke-linecap="round" stroke-width="5"/>
    </g>
    <g id="グループ_917" data-name="グループ 917" transform="translate(17.98 9.436)">
      <g id="グループ_803-2" data-name="グループ 803" transform="translate(580.094 1489.003)">
        <g id="グループ_547-2" data-name="グループ 547" transform="translate(0 29.069)">
          <line id="線_118-2" data-name="線 118" x2="0.004" y2="32.121" transform="translate(29.165 30.862)" fill="none" stroke="red" stroke-linecap="round" stroke-linejoin="round" stroke-width="5"/>
          <path id="パス_341-2" data-name="パス 341" d="M1296,1203.035v33.148l-29.17,13.408-.417.192-28.742-13.194v-33.553" transform="translate(-1237.666 -1186.801)" fill="none" stroke="red" stroke-linecap="round" stroke-linejoin="round" stroke-width="5"/>
          <path id="パス_343-2" data-name="パス 343" d="M1237.663,1182.148l29.165-16.238L1296,1182.148" transform="translate(-1237.663 -1165.909)" fill="none" stroke="red" stroke-linecap="round" stroke-linejoin="round" stroke-width="5"/>
          <line id="線_119-2" data-name="線 119" x1="29.227" y2="15.421" transform="translate(14.225 7.952)" fill="none" stroke="red" stroke-linecap="round" stroke-linejoin="round" stroke-width="5"/>
        </g>
        <g id="グループ_549-2" data-name="グループ 549" transform="translate(12.064 0)">
          <g id="グループ_548-2" data-name="グループ 548" transform="translate(0)">
            <path id="パス_344-2" data-name="パス 344" d="M1180.25,1195.21v12.2a13.211,13.211,0,0,0,13.276,13.143h45.551a13.21,13.21,0,0,0,13.276-13.143v-94.835a13.2,13.2,0,0,0-13.276-13.143h-45.551a13.211,13.211,0,0,0-13.276,13.143v13.535" transform="translate(-1180.25 -1099.431)" fill="none" stroke="red" stroke-linecap="round" stroke-linejoin="round" stroke-width="5"/>
            <line id="線_120-2" data-name="線 120" x1="10.925" transform="translate(30.591 106.77)" fill="none" stroke="red" stroke-linecap="round" stroke-linejoin="round" stroke-width="5"/>
            <line id="線_121-2" data-name="線 121" x1="3.267" transform="translate(34.421 9.791)" fill="none" stroke="red" stroke-linecap="round" stroke-linejoin="round" stroke-width="5"/>
          </g>
        </g>
      </g>
      <line id="線_184-2" data-name="線 184" x2="24.23" transform="translate(557.777 1544.464)" fill="none" stroke="red" stroke-linecap="round" stroke-width="5"/>
      <line id="線_185-2" data-name="線 185" x2="13.39" transform="translate(575.63 1551.478)" fill="none" stroke="red" stroke-linecap="round" stroke-width="5"/>
      <line id="線_186-2" data-name="線 186" x2="17.026" transform="translate(566.68 1559.497)" fill="none" stroke="red" stroke-linecap="round" stroke-width="5"/>
    </g>
  </g>
</svg>
