<svg xmlns="http://www.w3.org/2000/svg" width="35" height="35"><g data-name="グループ 828" transform="translate(-534 -3155)"><circle data-name="楕円形 127" cx="17.5" cy="17.5" r="17.5" transform="translate(534 3155)" fill="#352e64"/><path data-name="パス 604" d="M550.9 3177.968h5.33V3180h-9.62l4.973-6.021q.732-.9 1.229-1.559a11.848 11.848 0 00.756-1.1 3.1 3.1 0 00.532-1.571 2.235 2.235 0 00-.705-1.679 2.42 2.42 0 00-1.744-.677q-2.171 0-2.486 2.57h-2.156q.52-4.527 4.574-4.527a4.62 4.62 0 013.284 1.243 4.038 4.038 0 011.333 3.079 4.679 4.679 0 01-.622 2.292 11.226 11.226 0 01-.923 1.387q-.608.8-1.535 1.9z" fill="#fff"/></g></svg>