<svg xmlns="http://www.w3.org/2000/svg" width="35" height="35"><g data-name="グループ 829" transform="translate(-711 -3155)"><circle data-name="楕円形 128" cx="17.5" cy="17.5" r="17.5" transform="translate(711 3155)" fill="#352e64"/><path data-name="パス 605" d="M728.054 3173.348v-1.848a3.765 3.765 0 001.846-.3 1.894 1.894 0 00.844-1.726 1.956 1.956 0 00-.612-1.494 2.158 2.158 0 00-1.568-.584 2.029 2.029 0 00-1.392.436 2.889 2.889 0 00-.705 1.5h-2.152a4.963 4.963 0 011.373-2.964 4.169 4.169 0 012.9-.942 4.309 4.309 0 013.071 1.113 3.713 3.713 0 011.191 2.848 3.529 3.529 0 01-1.558 3.061 3.647 3.647 0 011.781 3.4 4.141 4.141 0 01-1.3 3.154 4.659 4.659 0 01-3.33 1.23 4.279 4.279 0 01-3.843-1.902 4.936 4.936 0 01-.659-2.208h2.087a2.538 2.538 0 00.812 1.591 2.5 2.5 0 001.684.552 2.335 2.335 0 001.735-.7 2.505 2.505 0 00.689-1.805 2.2 2.2 0 00-1.03-2.06 3.813 3.813 0 00-1.864-.352z" fill="#fff"/></g></svg>