<svg xmlns="http://www.w3.org/2000/svg" width="395" height="118"><g data-name="グループ 945"><g data-name="グループ 944"><path data-name="パス 613" d="M77.13 51.72a1.735 1.735 0 01-1.74-1.71 1.741 1.741 0 011.74-1.74 1.735 1.735 0 011.71 1.74 1.729 1.729 0 01-1.71 1.71zM57.99 50.7a33.4 33.4 0 01-3.57-.24v4.23c.78-.06 2.19-.12 3.57-.12h13.98a19.264 19.264 0 01-3.54 8.46c-2.43 3.06-5.79 5.64-11.76 7.05l3.27 3.57A23.742 23.742 0 0072 65.37c2.52-3.33 3.81-7.98 4.5-10.92l.24-.9a1.711 1.711 0 00.39.03 3.6 3.6 0 003.57-3.57 3.6 3.6 0 00-3.57-3.6 3.611 3.611 0 00-3.6 3.6 3.323 3.323 0 00.06.57 13.281 13.281 0 01-1.71.12zm47.76 5.34a6.329 6.329 0 01-2.19.3H88.71c-.93 0-2.22-.06-3.48-.18v3.9c1.26-.12 2.76-.15 3.48-.15h14.49a13.015 13.015 0 01-3.09 5.19 20.219 20.219 0 01-10.41 5.25l3 3.39a22.465 22.465 0 0010.71-6.48 21.56 21.56 0 004.44-8.31 11.115 11.115 0 01.57-1.26zm-17.76-3.18c.87-.06 2.16-.09 3.12-.09h11.49c1.08 0 2.49.03 3.3.09v-3.87a28.284 28.284 0 01-3.24.15H91.11a25.288 25.288 0 01-3.12-.15zm41.91 4.26a49.017 49.017 0 007.95-6.45l-3.21-2.91a31.663 31.663 0 01-7.83 6.78 46.089 46.089 0 01-13.65 5.43l2.16 3.66a58.654 58.654 0 0010.32-4.08v9.84a33.6 33.6 0 01-.21 3.93h4.74a20.625 20.625 0 01-.27-3.93zm34.2-9.06l-2.37.99a37.952 37.952 0 012.34 4.17l2.4-1.05c-.57-1.11-1.62-3-2.37-4.11zm3.54-1.35l-2.37.99a31.6 31.6 0 012.4 4.14l2.4-1.05a46.923 46.923 0 00-2.43-4.08zm-21.18 15.96a36.145 36.145 0 01-4.68 8.34l4.2 1.77a41.247 41.247 0 004.44-8.58 75.015 75.015 0 002.55-9.03c.12-.66.45-2.13.72-3l-4.38-.9a43.227 43.227 0 01-2.85 11.4zm14.82-.63a92.7 92.7 0 013.12 10.59l4.44-1.44c-.84-2.97-2.43-7.77-3.51-10.47-1.11-2.91-3.18-7.53-4.41-9.84l-3.99 1.29a84.039 84.039 0 014.35 9.87zm18.69-13.8l-2.19 3.3c1.98 1.11 5.1 3.15 6.78 4.32l2.25-3.33c-1.56-1.08-4.86-3.18-6.84-4.29zm-5.58 21.3l2.25 3.96a36.5 36.5 0 0010.02-3.72 36.223 36.223 0 0011.94-10.77l-2.31-4.08a30.582 30.582 0 01-11.67 11.25 33.29 33.29 0 01-10.23 3.36zm.96-14.46l-2.19 3.33a78.351 78.351 0 016.84 4.26l2.19-3.36c-1.53-1.08-4.83-3.15-6.84-4.23zm28.11 7.74c1.11-.09 3.12-.15 4.83-.15h16.11c1.26 0 2.79.12 3.51.15v-4.71c-.78.06-2.13.18-3.51.18h-16.11c-1.56 0-3.75-.09-4.83-.18zm52.14-14.94a1.613 1.613 0 011.62 1.62 1.639 1.639 0 01-1.62 1.65 1.645 1.645 0 01-1.65-1.65 1.62 1.62 0 011.65-1.62zm0 5.1a3.457 3.457 0 003.45-3.48 3.431 3.431 0 00-3.45-3.45 3.457 3.457 0 00-3.48 3.45 3.483 3.483 0 003.48 3.48zm-18.06 6.66a31.262 31.262 0 01-5.64 7.74l3.24 2.22a47.086 47.086 0 005.79-8.37zm17.19-2.67c.81 0 1.98.03 2.91.09v-3.93a23.379 23.379 0 01-2.94.21h-6.99v-2.4a24.32 24.32 0 01.27-2.61h-4.44a15.541 15.541 0 01.27 2.61v2.4h-7.62a23.3 23.3 0 01-2.91-.24v3.99c.84-.09 2.01-.12 2.91-.12h7.62V57c0 1.41 0 10.92-.03 12.03-.03.78-.33 1.08-1.11 1.08a20.749 20.749 0 01-3.33-.36l.36 3.72a43.317 43.317 0 004.89.27c2.13 0 3.12-1.08 3.12-2.82V56.97zm-4.17 4.35a56.959 56.959 0 014.86 8.04l3.54-1.92a69.735 69.735 0 00-5.13-7.89zm15.99-12.33a20.4 20.4 0 01.12 2.28v10.11c0 .9-.12 2.07-.15 2.64h4.44c-.06-.69-.09-1.86-.09-2.61V51.27c0-.96.03-1.62.09-2.28zm13.8-.27a21.164 21.164 0 01.18 3v5.7c0 4.68-.39 6.93-2.43 9.18a14.041 14.041 0 01-7.35 3.78l3.15 3.3a17.428 17.428 0 007.29-4.35c2.22-2.46 3.48-5.22 3.48-11.67v-5.94c0-1.2.06-2.16.12-3zm19.62-.48l-2.19 3.3c1.98 1.11 5.1 3.15 6.78 4.32l2.25-3.33c-1.56-1.08-4.86-3.18-6.84-4.29zm-5.58 21.3l2.25 3.96a36.5 36.5 0 0010.02-3.72 36.223 36.223 0 0011.94-10.77l-2.31-4.08a30.581 30.581 0 01-11.67 11.25 33.29 33.29 0 01-10.23 3.36zm.96-14.46l-2.19 3.33a78.353 78.353 0 016.84 4.26l2.19-3.36c-1.53-1.08-4.83-3.15-6.84-4.23zm28.11 7.74c1.11-.09 3.12-.15 4.83-.15h16.11c1.26 0 2.79.12 3.51.15v-4.71c-.78.06-2.13.18-3.51.18h-16.11c-1.56 0-3.75-.09-4.83-.18z" fill="#352e64"/><path data-name="線 199" fill="none" stroke="#352e64" stroke-linecap="round" stroke-width="5" d="M2.5 2.5h248"/><path data-name="線 200" fill="none" stroke="#352e64" stroke-linecap="round" stroke-width="5" d="M144.5 115.5h248"/></g></g></svg>