<svg xmlns="http://www.w3.org/2000/svg" width="20.197" height="14.853"><path data-name="パス 611" d="M15.289 14.853H12.57l-1.122-1.151a7.225 7.225 0 01-3.989 1.151 7.463 7.463 0 01-5.057-1.93 6.921 6.921 0 01-2.4-5.427 7.144 7.144 0 012.273-5.4 7.32 7.32 0 015.214-2.1 7.348 7.348 0 014.889 1.837 7.2 7.2 0 012.595 5.76 6.984 6.984 0 01-2.055 4.95zM9.342 8.925l2.076 2.068a4.9 4.9 0 001.375-3.534 5.3 5.3 0 00-1.531-3.866 5.117 5.117 0 00-3.8-1.559 5 5 0 00-3.789 1.559A5.425 5.425 0 002.18 7.514a5.022 5.022 0 001.538 3.795 5.179 5.179 0 003.666 1.521 5.054 5.054 0 002.534-.637L6.549 8.925zm8.276 4.629a1.23 1.23 0 01.38-.9 1.241 1.241 0 01.909-.38 1.241 1.241 0 01.909.38 1.241 1.241 0 01.38.909 1.251 1.251 0 01-.38.918 1.236 1.236 0 01-.909.372 1.247 1.247 0 01-.919-.371 1.259 1.259 0 01-.37-.928z" fill="red"/></svg>