<svg xmlns="http://www.w3.org/2000/svg" width="395" height="118"><g data-name="グループ 946"><path data-name="パス 614" d="M151.56 58.74h5.16v-3.27h-5.16V51a39 39 0 005.07-1.56l-2.52-2.76a50.662 50.662 0 01-12.06 3.09 11.193 11.193 0 011.02 2.79c1.62-.21 3.33-.48 5.04-.81v3.72h-5.7v3.27h5.01a29.059 29.059 0 01-5.7 8.64 20.078 20.078 0 011.8 3.48 29.846 29.846 0 004.59-7.05v10.74h3.45V64.2c1.2 1.23 2.46 2.58 3.18 3.51l2.07-3.06c-.81-.63-3.78-3.18-5.25-4.29zm10.05-8.52h-3.48v16.77h3.48zm3.6-3.06v23.07c0 .54-.24.72-.81.75-.63 0-2.55 0-4.5-.09a13.692 13.692 0 011.23 3.69c2.73.03 4.74-.09 5.97-.69 1.23-.57 1.65-1.56 1.65-3.63v-23.1zm22.89 15.33V58.8h6.33v3.69zm-9.33 0c.06-1.11.09-2.19.09-3.15v-.54h5.64v3.69zm5.73-10.5v3.48h-5.64v-3.48zm9.93 3.48h-6.33v-3.48h6.33zm3.54-6.87h-22.65v10.71c0 4.2-.27 9.54-3.54 13.14a13.178 13.178 0 012.82 2.31c2.16-2.34 3.24-5.64 3.78-8.91h6.12v8.37h3.6v-8.37h6.33v4.5c0 .54-.21.72-.78.72-.54 0-2.52.03-4.2-.06a13.488 13.488 0 011.14 3.42c2.7.03 4.53-.03 5.76-.63 1.2-.54 1.62-1.5 1.62-3.42zm16.59 18.9c-.66-.84-3.54-4.14-4.8-5.43l.06-.72h4.35v-3.24h-4.23v-3.78h3.75v-3.15h-3.75v-4.29h-3.33v4.29h-3.9v3.15h3.9v3.78h-4.35v3.24h4.23c-.3 3.78-1.35 7.89-4.65 10.32a12.952 12.952 0 012.43 2.55 14.811 14.811 0 004.89-8.43 48.523 48.523 0 013 4.32zm3.81-7.56h6.57v1.77h-6.57zm0-4.56h6.57v1.77h-6.57zm0-4.59h6.57v1.77h-6.57zm7.32 20.13c-.45 0-.51-.09-.51-.9v-5.16h3.21V47.64h-13.32v17.22h1.92c-.39 3.18-1.32 5.64-5.7 7.11a9.468 9.468 0 011.92 2.67c5.28-2.01 6.63-5.37 7.14-9.78h1.53v5.22c0 2.94.57 3.93 3.21 3.93h1.98c2.13 0 2.94-1.08 3.24-5.34a10.055 10.055 0 01-2.94-1.29c-.06 3.15-.18 3.54-.66 3.54zm7.44-6.78a21.812 21.812 0 01-1.59 6.96 17.634 17.634 0 012.73 1.29 27.737 27.737 0 001.8-7.74zm6.69.66a30.533 30.533 0 011.77 5.79l2.82-.99a34.212 34.212 0 00-1.95-5.64zm9.36-13.14a34.405 34.405 0 001.47-4.29l-3.66-.78a23.887 23.887 0 01-4.95 9.99l-.21-.36-2.52 1.11c.36.63.72 1.35 1.05 2.07l-3.03.12a96.581 96.581 0 005.73-8.13l-3.03-1.26a46.908 46.908 0 01-2.76 4.92c-.3-.39-.66-.84-1.05-1.26 1.08-1.68 2.31-3.99 3.39-6.06l-3.15-1.11a35.971 35.971 0 01-2.19 5.22l-.72-.63-1.68 2.46a28.262 28.262 0 013.6 4.11c-.45.66-.93 1.29-1.38 1.86l-2.22.09.3 3.12 4.44-.3v12.09h3.15V62.31l1.71-.12a16.325 16.325 0 01.42 1.62l2.7-1.26a23.893 23.893 0 00-2.34-5.61 22.924 22.924 0 012.82 1.98 24.717 24.717 0 002.55-3.87h8.28c-.33 10.23-.78 14.61-1.68 15.54a1.48 1.48 0 01-1.26.51c-.81 0-2.52 0-4.41-.18a8.528 8.528 0 011.2 3.6 28.638 28.638 0 004.68-.09 3.718 3.718 0 002.88-1.65c1.26-1.59 1.68-6.33 2.07-19.47.03-.45.03-1.65.03-1.65zm3.39 13.71a28.216 28.216 0 00-3.9-6.72l-2.85 1.44a28.34 28.34 0 013.66 6.93z" fill="#352e64"/><path data-name="線 201" fill="none" stroke="#352e64" stroke-linecap="round" stroke-width="5" d="M2.5 2.5h248"/><path data-name="線 202" fill="none" stroke="#352e64" stroke-linecap="round" stroke-width="5" d="M144.5 115.5h248"/></g></svg>