<svg xmlns="http://www.w3.org/2000/svg" width="35" height="35" viewBox="0 0 35 35">
  <g id="グループ_827" data-name="グループ 827" transform="translate(-354 -3155)">
    <circle id="楕円形_126" data-name="楕円形 126" cx="17.5" cy="17.5" r="17.5" transform="translate(354 3155)" fill="#352e64"/>
    <path id="パス_603" data-name="パス 603" d="M-3.344-12.863A13.073,13.073,0,0,1-1.6-12.977h.988v10.83A13.271,13.271,0,0,1-.76.095H1.349A13.271,13.271,0,0,1,1.2-2.147v-9.329a30.6,30.6,0,0,1,.171-3.154,11.934,11.934,0,0,1-1.691.095H-1.672a10.438,10.438,0,0,1-1.672-.095Z" transform="translate(372 3180)" fill="#fff"/>
  </g>
</svg>
