<svg xmlns="http://www.w3.org/2000/svg" width="35" height="35" viewBox="0 0 35 35">
  <g id="グループ_828" data-name="グループ 828" transform="translate(-534 -3155)">
    <circle id="楕円形_127" data-name="楕円形 127" cx="17.5" cy="17.5" r="17.5" transform="translate(534 3155)" fill="#352e64"/>
    <path id="パス_604" data-name="パス 604" d="M-1.1-2.032H4.23V0H-5.39L-.417-6.021Q.315-6.921.812-7.58a11.848,11.848,0,0,0,.756-1.1A3.1,3.1,0,0,0,2.1-10.251a2.235,2.235,0,0,0-.705-1.679,2.42,2.42,0,0,0-1.744-.677q-2.171,0-2.486,2.57H-4.991q.52-4.527,4.574-4.527a4.62,4.62,0,0,1,3.284,1.243A4.038,4.038,0,0,1,4.2-10.242a4.679,4.679,0,0,1-.622,2.292,11.226,11.226,0,0,1-.923,1.387q-.608.8-1.535,1.9Z" transform="translate(552 3180)" fill="#fff"/>
  </g>
</svg>
