<svg xmlns="http://www.w3.org/2000/svg" width="35" height="35" viewBox="0 0 35 35">
  <g id="グループ_829" data-name="グループ 829" transform="translate(-711 -3155)">
    <circle id="楕円形_128" data-name="楕円形 128" cx="17.5" cy="17.5" r="17.5" transform="translate(711 3155)" fill="#352e64"/>
    <path id="パス_605" data-name="パス 605" d="M-.946-6.652V-8.5A3.765,3.765,0,0,0,.9-8.8a1.894,1.894,0,0,0,.844-1.726,1.956,1.956,0,0,0-.612-1.494,2.158,2.158,0,0,0-1.568-.584,2.029,2.029,0,0,0-1.392.436,2.889,2.889,0,0,0-.705,1.5H-4.685a4.963,4.963,0,0,1,1.373-2.964,4.169,4.169,0,0,1,2.9-.942,4.309,4.309,0,0,1,3.071,1.113A3.713,3.713,0,0,1,3.85-10.613,3.529,3.529,0,0,1,2.292-7.552a3.647,3.647,0,0,1,1.781,3.4,4.141,4.141,0,0,1-1.3,3.154A4.659,4.659,0,0,1-.557.232,4.279,4.279,0,0,1-4.4-1.67a4.936,4.936,0,0,1-.659-2.208h2.087a2.538,2.538,0,0,0,.812,1.591,2.5,2.5,0,0,0,1.684.552,2.335,2.335,0,0,0,1.735-.7A2.505,2.505,0,0,0,1.948-4.24,2.2,2.2,0,0,0,.918-6.3,3.813,3.813,0,0,0-.946-6.652Z" transform="translate(729 3180)" fill="#fff"/>
  </g>
</svg>
