<svg xmlns="http://www.w3.org/2000/svg" width="18.926" height="15.484" viewBox="0 0 18.926 15.484">
  <path id="パス_612" data-name="パス 612" d="M-.19-3.479H-6.323L-7.918,0h-2.329l7.088-15.224L3.678,0H1.313Zm-.881-2.032L-3.2-10.381-5.423-5.511ZM6.1-1.039a1.23,1.23,0,0,1,.38-.9,1.241,1.241,0,0,1,.909-.38,1.241,1.241,0,0,1,.909.38,1.241,1.241,0,0,1,.38.909,1.251,1.251,0,0,1-.38.918A1.236,1.236,0,0,1,7.389.26a1.247,1.247,0,0,1-.918-.371A1.259,1.259,0,0,1,6.1-1.039Z" transform="translate(10.247 15.224)" fill="#352e64"/>
</svg>
