<svg xmlns="http://www.w3.org/2000/svg" width="395" height="118" viewBox="0 0 395 118">
  <g id="グループ_945" data-name="グループ 945" transform="translate(-439 -151)">
    <g id="グループ_944" data-name="グループ 944">
      <path id="パス_613" data-name="パス 613" d="M-123.87-20.28a1.735,1.735,0,0,1-1.74-1.71,1.741,1.741,0,0,1,1.74-1.74,1.735,1.735,0,0,1,1.71,1.74A1.729,1.729,0,0,1-123.87-20.28Zm-19.14-1.02a33.4,33.4,0,0,1-3.57-.24v4.23c.78-.06,2.19-.12,3.57-.12h13.98a19.264,19.264,0,0,1-3.54,8.46c-2.43,3.06-5.79,5.64-11.76,7.05l3.27,3.57A23.742,23.742,0,0,0-129-6.63c2.52-3.33,3.81-7.98,4.5-10.92l.24-.9a1.711,1.711,0,0,0,.39.03,3.6,3.6,0,0,0,3.57-3.57,3.6,3.6,0,0,0-3.57-3.6,3.611,3.611,0,0,0-3.6,3.6,3.323,3.323,0,0,0,.06.57,13.281,13.281,0,0,1-1.71.12Zm47.76,5.34a6.329,6.329,0,0,1-2.19.3h-14.85c-.93,0-2.22-.06-3.48-.18v3.9c1.26-.12,2.76-.15,3.48-.15H-97.8a13.015,13.015,0,0,1-3.09,5.19A20.219,20.219,0,0,1-111.3-1.65l3,3.39A22.465,22.465,0,0,0-97.59-4.74a21.56,21.56,0,0,0,4.44-8.31,11.115,11.115,0,0,1,.57-1.26Zm-17.76-3.18c.87-.06,2.16-.09,3.12-.09H-98.4c1.08,0,2.49.03,3.3.09v-3.87a28.284,28.284,0,0,1-3.24.15h-11.55a25.288,25.288,0,0,1-3.12-.15Zm41.91,4.26a49.017,49.017,0,0,0,7.95-6.45l-3.21-2.91a31.663,31.663,0,0,1-7.83,6.78,46.089,46.089,0,0,1-13.65,5.43l2.16,3.66a58.654,58.654,0,0,0,10.32-4.08v9.84a33.6,33.6,0,0,1-.21,3.93h4.74a20.625,20.625,0,0,1-.27-3.93Zm34.2-9.06-2.37.99a37.952,37.952,0,0,1,2.34,4.17l2.4-1.05C-35.1-20.94-36.15-22.83-36.9-23.94Zm3.54-1.35-2.37.99a31.6,31.6,0,0,1,2.4,4.14l2.4-1.05A46.923,46.923,0,0,0-33.36-25.29ZM-54.54-9.33A36.145,36.145,0,0,1-59.22-.99l4.2,1.77A41.247,41.247,0,0,0-50.58-7.8a75.015,75.015,0,0,0,2.55-9.03c.12-.66.45-2.13.72-3l-4.38-.9A43.227,43.227,0,0,1-54.54-9.33Zm14.82-.63A92.7,92.7,0,0,1-36.6.63l4.44-1.44c-.84-2.97-2.43-7.77-3.51-10.47-1.11-2.91-3.18-7.53-4.41-9.84l-3.99,1.29A84.039,84.039,0,0,1-39.72-9.96Zm18.69-13.8-2.19,3.3c1.98,1.11,5.1,3.15,6.78,4.32l2.25-3.33C-15.75-20.55-19.05-22.65-21.03-23.76Zm-5.58,21.3,2.25,3.96A36.5,36.5,0,0,0-14.34-2.22,36.223,36.223,0,0,0-2.4-12.99l-2.31-4.08A30.582,30.582,0,0,1-16.38-5.82,33.29,33.29,0,0,1-26.61-2.46Zm.96-14.46-2.19,3.33A78.351,78.351,0,0,1-21-9.33l2.19-3.36C-20.34-13.77-23.64-15.84-25.65-16.92ZM2.46-9.18c1.11-.09,3.12-.15,4.83-.15H23.4c1.26,0,2.79.12,3.51.15v-4.71c-.78.06-2.13.18-3.51.18H7.29c-1.56,0-3.75-.09-4.83-.18ZM54.6-24.12a1.613,1.613,0,0,1,1.62,1.62,1.639,1.639,0,0,1-1.62,1.65,1.645,1.645,0,0,1-1.65-1.65A1.62,1.62,0,0,1,54.6-24.12Zm0,5.1a3.457,3.457,0,0,0,3.45-3.48,3.431,3.431,0,0,0-3.45-3.45,3.457,3.457,0,0,0-3.48,3.45A3.483,3.483,0,0,0,54.6-19.02ZM36.54-12.36A31.262,31.262,0,0,1,30.9-4.62L34.14-2.4a47.086,47.086,0,0,0,5.79-8.37Zm17.19-2.67c.81,0,1.98.03,2.91.09v-3.93a23.379,23.379,0,0,1-2.94.21H46.71v-2.4a24.32,24.32,0,0,1,.27-2.61H42.54a15.541,15.541,0,0,1,.27,2.61v2.4H35.19a23.3,23.3,0,0,1-2.91-.24v3.99c.84-.09,2.01-.12,2.91-.12h7.62V-15c0,1.41,0,10.92-.03,12.03-.03.78-.33,1.08-1.11,1.08a20.749,20.749,0,0,1-3.33-.36l.36,3.72a43.317,43.317,0,0,0,4.89.27c2.13,0,3.12-1.08,3.12-2.82V-15.03Zm-4.17,4.35a56.959,56.959,0,0,1,4.86,8.04l3.54-1.92a69.735,69.735,0,0,0-5.13-7.89ZM65.55-23.01a20.4,20.4,0,0,1,.12,2.28v10.11c0,.9-.12,2.07-.15,2.64h4.44c-.06-.69-.09-1.86-.09-2.61V-20.73c0-.96.03-1.62.09-2.28Zm13.8-.27a21.164,21.164,0,0,1,.18,3v5.7c0,4.68-.39,6.93-2.43,9.18a14.041,14.041,0,0,1-7.35,3.78l3.15,3.3a17.428,17.428,0,0,0,7.29-4.35c2.22-2.46,3.48-5.22,3.48-11.67v-5.94c0-1.2.06-2.16.12-3Zm19.62-.48-2.19,3.3c1.98,1.11,5.1,3.15,6.78,4.32l2.25-3.33C104.25-20.55,100.95-22.65,98.97-23.76ZM93.39-2.46,95.64,1.5a36.5,36.5,0,0,0,10.02-3.72A36.223,36.223,0,0,0,117.6-12.99l-2.31-4.08A30.581,30.581,0,0,1,103.62-5.82,33.29,33.29,0,0,1,93.39-2.46Zm.96-14.46-2.19,3.33A78.353,78.353,0,0,1,99-9.33l2.19-3.36C99.66-13.77,96.36-15.84,94.35-16.92Zm28.11,7.74c1.11-.09,3.12-.15,4.83-.15H143.4c1.26,0,2.79.12,3.51.15v-4.71c-.78.06-2.13.18-3.51.18H127.29c-1.56,0-3.75-.09-4.83-.18Z" transform="translate(640 223)" fill="#352e64"/>
      <line id="線_199" data-name="線 199" x2="248" transform="translate(441.5 153.5)" fill="none" stroke="#352e64" stroke-linecap="round" stroke-width="5"/>
      <line id="線_200" data-name="線 200" x2="248" transform="translate(583.5 266.5)" fill="none" stroke="#352e64" stroke-linecap="round" stroke-width="5"/>
    </g>
  </g>
</svg>
