<svg xmlns="http://www.w3.org/2000/svg" width="20.197" height="14.853" viewBox="0 0 20.197 14.853">
  <path id="パス_611" data-name="パス 611" d="M4.871.26H2.152L1.03-.891A7.225,7.225,0,0,1-2.959.26,7.463,7.463,0,0,1-8.016-1.67a6.921,6.921,0,0,1-2.4-5.427,7.144,7.144,0,0,1,2.273-5.4,7.32,7.32,0,0,1,5.214-2.1,7.348,7.348,0,0,1,4.889,1.837A7.2,7.2,0,0,1,4.555-7,6.984,6.984,0,0,1,2.5-2.05ZM-1.076-5.668,1-3.6A4.9,4.9,0,0,0,2.375-7.134,5.3,5.3,0,0,0,.844-11a5.117,5.117,0,0,0-3.8-1.559A5,5,0,0,0-6.745-11,5.425,5.425,0,0,0-8.238-7.079,5.022,5.022,0,0,0-6.7-3.284,5.179,5.179,0,0,0-3.034-1.763,5.054,5.054,0,0,0-.5-2.4L-3.869-5.668ZM7.2-1.039a1.23,1.23,0,0,1,.38-.9,1.241,1.241,0,0,1,.909-.38,1.241,1.241,0,0,1,.909.38,1.241,1.241,0,0,1,.38.909,1.251,1.251,0,0,1-.38.918A1.236,1.236,0,0,1,8.489.26,1.247,1.247,0,0,1,7.57-.111,1.259,1.259,0,0,1,7.2-1.039Z" transform="translate(10.418 14.593)" fill="red"/>
</svg>
