<svg xmlns="http://www.w3.org/2000/svg" width="395" height="118" viewBox="0 0 395 118">
  <g id="グループ_946" data-name="グループ 946" transform="translate(-439 -151)">
    <path id="パス_614" data-name="パス 614" d="M-49.44-13.26h5.16v-3.27h-5.16V-21a39,39,0,0,0,5.07-1.56l-2.52-2.76a50.662,50.662,0,0,1-12.06,3.09,11.193,11.193,0,0,1,1.02,2.79c1.62-.21,3.33-.48,5.04-.81v3.72h-5.7v3.27h5.01a29.059,29.059,0,0,1-5.7,8.64,20.078,20.078,0,0,1,1.8,3.48,29.846,29.846,0,0,0,4.59-7.05V2.55h3.45V-7.8c1.2,1.23,2.46,2.58,3.18,3.51l2.07-3.06c-.81-.63-3.78-3.18-5.25-4.29Zm10.05-8.52h-3.48V-5.01h3.48Zm3.6-3.06V-1.77c0,.54-.24.72-.81.75-.63,0-2.55,0-4.5-.09a13.692,13.692,0,0,1,1.23,3.69c2.73.03,4.74-.09,5.97-.69,1.23-.57,1.65-1.56,1.65-3.63v-23.1ZM-12.9-9.51V-13.2h6.33v3.69Zm-9.33,0c.06-1.11.09-2.19.09-3.15v-.54h5.64v3.69Zm5.73-10.5v3.48h-5.64v-3.48Zm9.93,3.48H-12.9v-3.48h6.33Zm3.54-6.87H-25.68v10.71c0,4.2-.27,9.54-3.54,13.14A13.178,13.178,0,0,1-26.4,2.76c2.16-2.34,3.24-5.64,3.78-8.91h6.12V2.22h3.6V-6.15h6.33v4.5c0,.54-.21.72-.78.72-.54,0-2.52.03-4.2-.06a13.488,13.488,0,0,1,1.14,3.42c2.7.03,4.53-.03,5.76-.63,1.2-.54,1.62-1.5,1.62-3.42ZM13.56-4.5c-.66-.84-3.54-4.14-4.8-5.43l.06-.72h4.35v-3.24H8.94v-3.78h3.75v-3.15H8.94v-4.29H5.61v4.29H1.71v3.15h3.9v3.78H1.26v3.24H5.49C5.19-6.87,4.14-2.76.84-.33A12.952,12.952,0,0,1,3.27,2.22,14.811,14.811,0,0,0,8.16-6.21a48.523,48.523,0,0,1,3,4.32Zm3.81-7.56h6.57v1.77H17.37Zm0-4.56h6.57v1.77H17.37Zm0-4.59h6.57v1.77H17.37ZM24.69-1.08c-.45,0-.51-.09-.51-.9V-7.14h3.21V-24.36H14.07V-7.14h1.92c-.39,3.18-1.32,5.64-5.7,7.11a9.468,9.468,0,0,1,1.92,2.67c5.28-2.01,6.63-5.37,7.14-9.78h1.53v5.22c0,2.94.57,3.93,3.21,3.93h1.98c2.13,0,2.94-1.08,3.24-5.34a10.055,10.055,0,0,1-2.94-1.29c-.06,3.15-.18,3.54-.66,3.54Zm7.44-6.78A21.812,21.812,0,0,1,30.54-.9,17.634,17.634,0,0,1,33.27.39a27.737,27.737,0,0,0,1.8-7.74Zm6.69.66a30.533,30.533,0,0,1,1.77,5.79l2.82-.99a34.212,34.212,0,0,0-1.95-5.64Zm9.36-13.14a34.405,34.405,0,0,0,1.47-4.29l-3.66-.78a23.887,23.887,0,0,1-4.95,9.99l-.21-.36-2.52,1.11c.36.63.72,1.35,1.05,2.07l-3.03.12a96.581,96.581,0,0,0,5.73-8.13l-3.03-1.26a46.908,46.908,0,0,1-2.76,4.92c-.3-.39-.66-.84-1.05-1.26,1.08-1.68,2.31-3.99,3.39-6.06l-3.15-1.11a35.971,35.971,0,0,1-2.19,5.22l-.72-.63-1.68,2.46a28.262,28.262,0,0,1,3.6,4.11c-.45.66-.93,1.29-1.38,1.86l-2.22.09.3,3.12,4.44-.3V2.64h3.15V-9.69l1.71-.12a16.325,16.325,0,0,1,.42,1.62l2.7-1.26a23.893,23.893,0,0,0-2.34-5.61,22.924,22.924,0,0,1,2.82,1.98,24.717,24.717,0,0,0,2.55-3.87H54.9c-.33,10.23-.78,14.61-1.68,15.54a1.48,1.48,0,0,1-1.26.51c-.81,0-2.52,0-4.41-.18a8.528,8.528,0,0,1,1.2,3.6,28.638,28.638,0,0,0,4.68-.09A3.718,3.718,0,0,0,56.31.78c1.26-1.59,1.68-6.33,2.07-19.47.03-.45.03-1.65.03-1.65ZM51.57-6.63a28.216,28.216,0,0,0-3.9-6.72l-2.85,1.44a28.34,28.34,0,0,1,3.66,6.93Z" transform="translate(640 223)" fill="#352e64"/>
    <line id="線_201" data-name="線 201" x2="248" transform="translate(441.5 153.5)" fill="none" stroke="#352e64" stroke-linecap="round" stroke-width="5"/>
    <line id="線_202" data-name="線 202" x2="248" transform="translate(583.5 266.5)" fill="none" stroke="#352e64" stroke-linecap="round" stroke-width="5"/>
  </g>
</svg>
