<svg xmlns="http://www.w3.org/2000/svg" width="148.601" height="25.254"><g data-name="グループ 786" fill="red"><path data-name="パス 110" d="M0 22.934V2.415A2.221 2.221 0 012.129.095h6.482c3.833 0 6.955 3.4 6.955 7.579s-3.122 7.578-6.955 7.578H4.259v7.682a2.137 2.137 0 11-4.259 0zm4.259-12.322h4.352a2.825 2.825 0 002.7-2.939 2.793 2.793 0 00-2.7-2.939H4.259z"/><path data-name="パス 111" d="M21.922 21.689a13.236 13.236 0 010-17.41 10.6 10.6 0 0115.945 0 12.828 12.828 0 013.312 8.679c0 6.82-5.063 12.3-11.261 12.3a10.727 10.727 0 01-7.996-3.569zm.993-8.731a7.945 7.945 0 002.035 5.425 6.647 6.647 0 004.968 2.221c3.88 0 7-3.409 7-7.646a7.909 7.909 0 00-2.034-5.372 6.566 6.566 0 00-9.936 0 7.906 7.906 0 00-2.034 5.371z"/><path data-name="パス 112" d="M64.65 4.641a2.221 2.221 0 01-2.129-2.319A2.254 2.254 0 0164.65.003h15.188a2.254 2.254 0 012.129 2.319 2.221 2.221 0 01-2.129 2.319h-5.441v18.3a2.253 2.253 0 01-2.129 2.319 2.221 2.221 0 01-2.129-2.319v-18.3z"/><path data-name="パス 113" d="M87.171 21.689a13.237 13.237 0 010-17.41 10.6 10.6 0 0115.945 0 12.828 12.828 0 013.312 8.679c0 6.82-5.062 12.3-11.261 12.3a10.727 10.727 0 01-7.996-3.569zm.993-8.731a7.945 7.945 0 002.035 5.425 6.647 6.647 0 004.968 2.221c3.88 0 7-3.409 7-7.646a7.909 7.909 0 00-2.034-5.372 6.565 6.565 0 00-9.936 0 7.907 7.907 0 00-2.033 5.371z"/><path data-name="パス 114" d="M111.883 22.987v-13.3c0-5.308 4.022-9.689 8.9-9.689 4.921.052 8.9 4.381 8.9 9.689v13.246a2.137 2.137 0 11-4.259 0V9.689a4.654 4.654 0 10-9.274 0v13.246a2.135 2.135 0 11-4.258.052z"/><path data-name="パス 115" d="M134.123 23.077v-6.293a7.239 7.239 0 0114.478 0v6.293a2.151 2.151 0 01-2.129 2.129 2.121 2.121 0 01-2.129-2.129v-6.293a2.988 2.988 0 00-2.981-2.933 2.958 2.958 0 00-2.981 2.933v6.293a2.129 2.129 0 11-4.258 0z"/><path data-name="パス 117" d="M52.5 25.254a9.659 9.659 0 01-3.033-.489 7.466 7.466 0 01-2.569-1.451 6.492 6.492 0 01-.726-.757 2.568 2.568 0 01-.207-.249 2.68 2.68 0 01-.507-1.589 2.264 2.264 0 011.919-2.411l.115-.015c0 .007.034.012.072.015.419.023.593.184 1.058.612.172.159.366.337.6.535a6.118 6.118 0 001.514 1 5.837 5.837 0 001.78.305h.13a5.131 5.131 0 001.671-.269 3.751 3.751 0 001.468-.9 2.555 2.555 0 00.709-1.84 2.637 2.637 0 00-.457-1.574 2.668 2.668 0 00-1.092-.873 5.023 5.023 0 00-1.4-.375q-.729-.093-1.532-.167a13.017 13.017 0 01-3.048-.6 6.189 6.189 0 01-2.224-1.276 5.512 5.512 0 01-1.39-2.083 9.271 9.271 0 01-.537-3.23 7.908 7.908 0 01.586-3.3 6.8 6.8 0 011.659-2.348A7.089 7.089 0 0149.491.497a8.629 8.629 0 015.713 0 7.124 7.124 0 012.431 1.428 6.379 6.379 0 01.529.541 2.456 2.456 0 01.5.658 2.683 2.683 0 01.3 1.244 2.236 2.236 0 01-2 2.372 2.31 2.31 0 01-1.586-1.014 3.177 3.177 0 00-1.357-1.051 4.355 4.355 0 00-3.208.02 3.548 3.548 0 00-1.362.981 3.375 3.375 0 00-.371 3.46 2.6 2.6 0 00.976.986 4.519 4.519 0 001.252.484c.422.1.894.19 1.4.266 1.054.147 2.086.325 3.076.529a7.173 7.173 0 012.5 1.007 4.909 4.909 0 011.665 1.926 7.838 7.838 0 01.627 3.461 6.917 6.917 0 01-2.458 5.505 8.052 8.052 0 01-2.6 1.458 9.328 9.328 0 01-3.018.496z"/></g></svg>